<?xml version="1.0" encoding="utf-8"?>
<!-- Generator: Adobe Illustrator 24.2.1, SVG Export Plug-In . SVG Version: 6.00 Build 0)  -->
<svg version="1.1" id="Capa_1" xmlns="http://www.w3.org/2000/svg" xmlns:xlink="http://www.w3.org/1999/xlink" x="0px" y="0px"
	 viewBox="0 0 800 300" style="enable-background:new 0 0 800 300;" xml:space="preserve">
<style type="text/css">
	.st0{fill:#666666;}
	.st1{fill:#C1272D;}
	.st2{fill:#FFFFFF;}
</style>
<g>
	<g>
		<path class="st0" d="M387.1,128.9c23.4,0,42.4-22.2,42.4-49.6c0-38-19-49.6-42.4-49.6c-23.4,0-42.4,11.6-42.4,49.6
			C344.7,106.7,363.6,128.9,387.1,128.9z"/>
		<path class="st0" d="M480.7,202l-21.4-48.2c-1-2.2-2.7-4-4.8-5.1l-33.2-17.3c-0.7-0.4-1.6-0.3-2.3,0.2
			c-9.4,7.1-20.4,10.9-31.9,10.9c-11.5,0-22.5-3.8-31.9-10.9c-0.7-0.5-1.5-0.6-2.3-0.2l-33.2,17.3c-2.1,1.1-3.9,2.9-4.8,5.1
			L293.4,202c-1.5,3.3-1.2,7.1,0.8,10.2c2,3,5.3,4.9,9,4.9H471c3.6,0,7-1.8,9-4.9C481.9,209.1,482.2,205.3,480.7,202z"/>
	</g>
</g>
<g>
	<g>
		<path class="st1" d="M467.8,245.8c-27.6,0-50-22.4-50-50s22.4-50,50-50s50,22.4,50,50S495.4,245.8,467.8,245.8z M467.8,200.7
			c2.2,0,4.2,0.8,5.7,2.4l10.2,10.2c0.2,0.2,0.5,0.3,0.8,0.3c0.6,0,1.1-0.5,1.1-1.1c0-0.3-0.1-0.6-0.3-0.8l-10.2-10.2
			c-3.1-3.1-3.1-8.3,0-11.4l10.2-10.2c0.2-0.2,0.3-0.5,0.3-0.8c0-0.6-0.5-1.1-1.1-1.1c-0.3,0-0.6,0.1-0.8,0.3l-10.2,10.2
			c-1.5,1.5-3.5,2.4-5.7,2.4s-4.2-0.8-5.7-2.4l-10.2-10.2c-0.2-0.2-0.5-0.3-0.8-0.3c-0.6,0-1.1,0.5-1.1,1.1c0,0.3,0.1,0.6,0.3,0.8
			l10.2,10.2c3.1,3.1,3.1,8.3,0,11.4l-10.2,10.2c-0.2,0.2-0.3,0.5-0.3,0.8c0,0.6,0.5,1.1,1.1,1.1c0.3,0,0.6-0.1,0.8-0.3l10.2-10.2
			C463.6,201.6,465.6,200.7,467.8,200.7z"/>
		<path class="st2" d="M467.8,150.8c24.9,0,45,20.1,45,45c0,24.9-20.1,45-45,45c-24.9,0-45-20.1-45-45
			C422.8,171,442.9,150.8,467.8,150.8 M467.8,185.9c-0.8,0-1.6-0.3-2.2-0.9l-10.2-10.2c-1.2-1.2-2.7-1.8-4.3-1.8
			c-3.4,0-6.1,2.7-6.1,6.1c0,1.6,0.6,3.2,1.8,4.3l10.2,10.2c1.2,1.2,1.2,3.1,0,4.3l-10.2,10.2c-1.2,1.2-1.8,2.7-1.8,4.3
			c0,3.4,2.7,6.1,6.1,6.1c1.6,0,3.2-0.6,4.3-1.8l10.2-10.2h0c0.6-0.6,1.4-0.9,2.2-0.9c0.8,0,1.6,0.3,2.2,0.9l10.2,10.2
			c1.2,1.2,2.7,1.8,4.3,1.8c3.4,0,6.1-2.7,6.1-6.1c0-1.6-0.6-3.2-1.8-4.3L478.6,198c-1.2-1.2-1.2-3.1,0-4.3l10.2-10.2
			c1.2-1.2,1.8-2.7,1.8-4.3c0-3.4-2.7-6.1-6.1-6.1c-1.6,0-3.2,0.6-4.3,1.8L470,185C469.4,185.6,468.6,185.9,467.8,185.9
			 M467.8,140.8c-30.3,0-55,24.7-55,55s24.7,55,55,55c30.3,0,55-24.7,55-55S498.1,140.8,467.8,140.8L467.8,140.8z"/>
	</g>
</g>
</svg>
