<?xml version="1.0" encoding="utf-8"?>
<!-- Generator: Adobe Illustrator 24.2.1, SVG Export Plug-In . SVG Version: 6.00 Build 0)  -->
<svg version="1.1" id="Capa_1" xmlns="http://www.w3.org/2000/svg" xmlns:xlink="http://www.w3.org/1999/xlink" x="0px" y="0px"
	 viewBox="0 0 800 300" style="enable-background:new 0 0 800 300;" xml:space="preserve">
<style type="text/css">
	.st0{fill:#666666;}
	.st1{fill:#C1272D;}
	.st2{fill:#FFFFFF;}
</style>
<g>
	<g>
		<path class="st0" d="M386.5,128.9c23.4,0,42.4-22.2,42.4-49.6c0-38-19-49.6-42.4-49.6c-23.4,0-42.4,11.6-42.4,49.6
			C344.1,106.7,363.1,128.9,386.5,128.9z"/>
		<path class="st0" d="M480.2,202l-21.4-48.2c-1-2.2-2.7-4-4.8-5.1l-33.2-17.3c-0.7-0.4-1.6-0.3-2.3,0.2
			c-9.4,7.1-20.4,10.9-31.9,10.9c-11.5,0-22.5-3.8-31.9-10.9c-0.7-0.5-1.5-0.6-2.3-0.2l-33.2,17.3c-2.1,1.1-3.9,2.9-4.8,5.1
			L292.9,202c-1.5,3.3-1.2,7.1,0.8,10.2c2,3,5.3,4.9,9,4.9h167.8c3.6,0,7-1.8,9-4.9C481.4,209.1,481.7,205.3,480.2,202z"/>
	</g>
</g>
<g>
	<g>
		<path class="st1" d="M436.4,237.3c-6.7,0-12.6-3.4-15.9-9.2c-3.4-5.8-3.4-12.7,0-18.5l31.6-54.6c3.3-5.8,9.3-9.3,16-9.3
			c6.7,0,12.7,3.5,16,9.3l31.5,54.6c3.3,5.7,3.3,12.6,0,18.4c-3.4,5.8-9.4,9.3-16.1,9.3H436.4z M467.8,181.5c0-0.5,0.1-1,0.1-1.4
			c0-0.3,0-0.4,0-0.4l0,0c-0.1,0.1-0.1,0.3-0.1,0.5C467.8,180.6,467.8,181,467.8,181.5z"/>
		<path class="st2" d="M467.9,150.7c4.5,0,9.1,2.3,11.7,6.8l31.5,54.6c5.2,8.9-1.4,20.2-11.8,20.2h-63c-10.4,0-16.8-11.2-11.7-20.2
			l31.5-54.6C458.8,152.9,463.4,150.7,467.9,150.7 M467.9,206.6c2.1,0,3.7-1.6,3.8-3.6c0-1.2,0-2.4,0.1-3.6
			c0.2-3.9,0.5-7.8,0.7-11.7c0.1-2.5,0.4-5,0.5-7.6c0-0.9-0.1-1.7-0.5-2.5c-0.9-1.9-2.6-3-4.6-3c-0.4,0-0.8,0-1.2,0.1
			c-2.4,0.7-3.9,2.9-3.9,5.5c0.1,1.6,0.2,3.2,0.4,4.8c0.3,6.1,0.7,12,1,18.1C464.2,205.2,465.8,206.6,467.9,206.6 M467.9,220.2
			c2.6,0,5-2.3,4.9-4.9c0.1-2.9-2.2-5.2-4.9-5.2c-2.7,0-5,2.3-5,5S465.1,220.2,467.9,220.2 M467.9,140.7c-8.5,0-16.1,4.4-20.3,11.8
			L416,207l0,0l0,0c-4.2,7.4-4.2,16.2,0.1,23.5c4.2,7.3,11.8,11.7,20.3,11.7h63c8.5,0,16.1-4.4,20.4-11.8c4.2-7.4,4.3-16.1,0-23.4
			l-31.5-54.6C484,145.1,476.4,140.7,467.9,140.7L467.9,140.7z"/>
	</g>
</g>
</svg>
