<?xml version="1.0" encoding="utf-8"?>
<!-- Generator: Adobe Illustrator 24.2.1, SVG Export Plug-In . SVG Version: 6.00 Build 0)  -->
<svg version="1.1" id="Capa_1" xmlns="http://www.w3.org/2000/svg" xmlns:xlink="http://www.w3.org/1999/xlink" x="0px" y="0px"
	 viewBox="0 0 800 300" style="enable-background:new 0 0 800 300;" xml:space="preserve">
<style type="text/css">
	.st0{fill:#666666;}
	.st1{fill:#74A528;}
	.st2{fill:#FFFFFF;}
</style>
<g>
	<g>
		<path class="st0" d="M387.3,128.6c23.4,0,42.4-22.2,42.4-49.6c0-38-19-49.6-42.4-49.6c-23.4,0-42.4,11.6-42.4,49.6
			C344.9,106.4,363.9,128.6,387.3,128.6z"/>
		<path class="st0" d="M481,201.7l-21.4-48.2c-1-2.2-2.7-4-4.8-5.1L421.6,131c-0.7-0.4-1.6-0.3-2.3,0.2
			c-9.4,7.1-20.4,10.9-31.9,10.9c-11.5,0-22.5-3.8-31.9-10.9c-0.7-0.5-1.5-0.6-2.3-0.2l-33.2,17.3c-2.1,1.1-3.9,2.9-4.8,5.1
			l-21.4,48.2c-1.5,3.3-1.2,7.1,0.8,10.2c2,3,5.3,4.9,9,4.9h167.8c3.6,0,7-1.8,9-4.9C482.2,208.8,482.5,205,481,201.7z"/>
	</g>
</g>
<g>
	<g>
		<path class="st1" d="M468.1,245.5c-27.6,0-50-22.4-50-50s22.4-50,50-50s50,22.4,50,50S495.6,245.5,468.1,245.5z M445.2,191.9
			c-0.3,0-0.6,0.1-1,0.4c-0.3,0.3-0.4,0.7-0.4,1c0,0.3,0.1,0.6,0.4,1c1.1,1.1,16.7,16.7,16.7,16.7c0.4,0.4,1,0.5,1.2,0.5
			c0.3,0,0.8-0.1,1.2-0.5c0.6-0.6,5.8-6,28.5-29.1c0.5-0.5,0.5-1.4,0-1.9c-0.3-0.3-0.7-0.4-1-0.4c-0.3,0-0.6,0.1-1,0.4l-22.1,22.4
			c-1.6,1.6-3.6,2.4-5.8,2.4c-2.2,0-4.2-0.9-5.8-2.4l-10.1-10.1C445.8,192,445.5,191.9,445.2,191.9z"/>
		<path class="st2" d="M468.1,150.5c24.9,0,45,20.1,45,45c0,24.9-20.1,45-45,45c-24.9,0-45-20.1-45-45
			C423.1,170.6,443.2,150.5,468.1,150.5 M462,199.8c-0.8,0-1.6-0.3-2.3-0.9l-10.1-10.1c-1.2-1.2-2.9-1.9-4.5-1.9s-3.3,0.6-4.5,1.9
			c-2.5,2.5-2.5,6.5,0,9c1.1,1.1,16.7,16.7,16.7,16.7c1.3,1.3,3,2,4.8,2c1.7,0,3.5-0.7,4.8-2c0,0,4.6-4.7,28.5-29.1
			c2.4-2.5,2.4-6.5,0-9c-1.2-1.2-2.9-1.9-4.5-1.9c-1.6,0-3.3,0.6-4.5,1.9l-22.1,22.4C463.7,199.5,462.9,199.8,462,199.8
			 M468.1,140.5c-30.3,0-55,24.7-55,55s24.7,55,55,55s55-24.7,55-55S498.4,140.5,468.1,140.5L468.1,140.5z"/>
	</g>
</g>
</svg>
