<?xml version="1.0" encoding="utf-8"?>
<!-- Generator: Adobe Illustrator 24.2.1, SVG Export Plug-In . SVG Version: 6.00 Build 0)  -->
<svg version="1.1" id="Capa_1" xmlns="http://www.w3.org/2000/svg" xmlns:xlink="http://www.w3.org/1999/xlink" x="0px" y="0px"
	 viewBox="0 0 800 300" style="enable-background:new 0 0 800 300;" xml:space="preserve">
<style type="text/css">
	.st0{fill:#666666;}
</style>
<g>
	<g>
		<path class="st0" d="M387.3,128.9c23.4,0,42.4-22.2,42.4-49.6c0-38-19-49.6-42.4-49.6c-23.4,0-42.4,11.6-42.4,49.6
			C344.9,106.7,363.9,128.9,387.3,128.9z"/>
		<path class="st0" d="M481,202l-21.4-48.2c-1-2.2-2.7-4-4.8-5.1l-33.2-17.3c-0.7-0.4-1.6-0.3-2.3,0.2c-9.4,7.1-20.4,10.9-31.9,10.9
			c-11.5,0-22.5-3.8-31.9-10.9c-0.7-0.5-1.5-0.6-2.3-0.2l-33.2,17.3c-2.1,1.1-3.9,2.9-4.8,5.1L293.7,202c-1.5,3.3-1.2,7.1,0.8,10.2
			c2,3,5.3,4.9,9,4.9h167.8c3.6,0,7-1.8,9-4.9C482.2,209.1,482.5,205.3,481,202z"/>
	</g>
</g>
</svg>
