<?xml version="1.0" encoding="utf-8"?>
<!-- Generator: Adobe Illustrator 19.1.0, SVG Export Plug-In . SVG Version: 6.00 Build 0)  -->
<svg version="1.1" xmlns="http://www.w3.org/2000/svg" xmlns:xlink="http://www.w3.org/1999/xlink" 
	 viewBox="0 0 800 300"  xml:space="preserve">
<style type="text/css">
	.all{display:block; margin: 0 auto;}
	.st1{fill:#FFFFFF;}
	.st9{fill:#4D4D4D;}
	.st19{fill:#F2F2F2;}
	.st20{fill:none;stroke:#4D4D4D;stroke-width:5;}
	
</style>
<g class="all" transform="scale(1.2), translate(20, 0)" >
<g transform="rotate(90)">
	<g id="lector">
		<g transform="translate(0,-410)">
			<path id="square" class="st9" d="M139.6,188.9H32.4c-6.6,0-12-5.4-12-12V29c0-6.6,5.4-12,12-12h107.2c6.6,0,12,5.4,12,12v147.8
				C151.6,183.5,146.2,188.9,139.6,188.9z"/>
			<path id="circle" class="st1" d="M98.4,103c0,6.6-5.3,11.9-11.9,11.9c-6.6,0-11.9-5.3-11.9-11.9c0-6.6,5.3-11.9,11.9-11.9
				C93.1,91.1,98.4,96.4,98.4,103L98.4,103z M98.4,103"/>
			<path id="wave_right_inside" class="st1" d="M102.8,75.8c-0.1-0.1-0.2-0.2-0.3-0.3l-0.3-0.3c-0.1-0.1-0.1-0.1-0.2-0.1c-9.3-8.5-23.5-8.1-32.4,0.8l-1,1.1
				l-1.4,1.4c-1.8,1.7-1.8,4.6,0,6.4c1.8,1.8,4.6,1.8,6.4,0l2.5-2.5c5.6-5.6,14.8-5.6,20.5,0l1.8,1.7c1.7,1.7,4.6,1.7,6.3,0
				c0.8-0.8,1.3-2,1.3-3.2c0-1.2-0.5-2.3-1.3-3.2L102.8,75.8z M102.8,75.8"/>
			<path id="wave_right_center" class="st1" d="M115.1,66.9l-1.5-1.5c0,0,0,0,0,0l-1.2-1.2c-0.2-0.2-0.4-0.4-0.7-0.5c-15.2-13.3-38.2-12.9-52.9,1.2
				c-0.1,0.1-0.1,0.1-0.2,0.2l-2.7,2.7c-1.6,1.6-1.6,4.2,0,5.8c1.6,1.6,4.2,1.6,5.8,0l2.7-2.7c0,0,0,0,0.1-0.1
				c11.9-11.5,30.7-11.5,42.7-0.2l2.1,2.1c1.6,1.6,4.2,1.6,5.8,0C116.7,71.1,116.7,68.5,115.1,66.9L115.1,66.9z M115.1,66.9"/>
			<g transform="scale(1.4)">
				<g transform="translate(-24, -30)">
					<path id="wave_right_outside" class="st1" d="M115.1,66.9l-1.5-1.5c0,0,0,0,0,0l-1.2-1.2c-0.2-0.2-0.4-0.4-0.7-0.5c-15.2-13.3-38.2-12.9-52.9,1.2
						c-0.1,0.1-0.1,0.1-0.2,0.2l-2.7,2.7c-1.6,1.6-1.6,4.2,0,5.8c1.6,1.6,4.2,1.6,5.8,0l2.7-2.7c0,0,0,0,0.1-0.1
						c11.9-11.5,30.7-11.5,42.7-0.2l2.1,2.1c1.6,1.6,4.2,1.6,5.8,0C116.7,71.1,116.7,68.5,115.1,66.9L115.1,66.9z M115.1,66.9"/>
				</g>
			</g>
			<path id="wave_left_inside" class="st1" d="M69.5,129.2c0.1,0.1,0.2,0.2,0.3,0.3l0.3,0.3c0.1,0.1,0.1,0.1,0.2,0.1c9.3,8.5,23.5,8.1,32.4-0.8l1-1.1
				l1.4-1.4c1.8-1.7,1.8-4.6,0-6.4c-1.8-1.8-4.6-1.8-6.4,0l-2.5,2.5c-5.6,5.6-14.8,5.6-20.5,0l-1.8-1.7c-1.7-1.7-4.6-1.7-6.3,0
				c-0.8,0.8-1.3,2-1.3,3.2c0,1.2,0.5,2.3,1.3,3.2L69.5,129.2z M69.5,129.2"/>
			<path id="wave_left_center" class="st1" d="M57.3,138.1l1.5,1.5c0,0,0,0,0,0l1.2,1.2c0.2,0.2,0.4,0.4,0.7,0.5c15.2,13.3,38.2,12.9,52.9-1.2
				c0.1-0.1,0.1-0.1,0.2-0.2l2.7-2.7c1.6-1.6,1.6-4.2,0-5.8c-1.6-1.6-4.2-1.6-5.8,0l-2.7,2.7c0,0,0,0-0.1,0.1
				c-11.9,11.5-30.7,11.5-42.7,0.2l-2.1-2.1c-1.6-1.6-4.2-1.6-5.8,0C55.7,133.9,55.7,136.5,57.3,138.1L57.3,138.1z M57.3,138.1"/>
			<g transform="scale(1.4)">
				<g transform="translate(-25, -29)">
					<path id="wave_left_outside" class="st1" d="M57.3,138.1l1.5,1.5c0,0,0,0,0,0l1.2,1.2c0.2,0.2,0.4,0.4,0.7,0.5c15.2,13.3,38.2,12.9,52.9-1.2
						c0.1-0.1,0.1-0.1,0.2-0.2l2.7-2.7c1.6-1.6,1.6-4.2,0-5.8c-1.6-1.6-4.2-1.6-5.8,0l-2.7,2.7c0,0,0,0-0.1,0.1
						c-11.9,11.5-30.7,11.5-42.7,0.2l-2.1-2.1c-1.6-1.6-4.2-1.6-5.8,0C55.7,133.9,55.7,136.5,57.3,138.1L57.3,138.1z M57.3,138.1"/>
				</g>
			</g>
		</g>
	</g>
	
 </g>
 
 
<g id="mano" transform="translate(-400, 200)">
	<g id="mano_entera">
		<g>
			<path class="st19" d="M381.1,92c-3.9,4-6.3,9.5-0.5,16.2c0,0,9.1,4.6,45.2-3.9c6.3-1.5,11.8-2.2,16.6-2.4v-0.1l-14.4-10.2
				c-2.3-2.2-5.2-4.4-8.8-6.1l-1.8-1.3c-1.1,0-14.1,0.5-25,2.7c-1.2,0.2-2.4,0.5-3.5,0.8c-1.2,0.3-2.4,0.6-3.5,1
				C383.8,89.6,382.4,90.7,381.1,92z M26.8,284.2c-0.2-1.1-10.1-73.6-10.3-74.5c0,0,0,0,0,0c1.6-0.6,211.5-74,242-100.4
				c22-19,27.8-23.1,54.3-49.5l1.7-1.7l0.1,0l1.9-2l3.5-3.6l3-3.1c0.7-0.7,1.4-1.4,2-2.1c0.3-0.4,1.1-1.4,2.5-2.7
				c0.6-0.6,1.3-1.2,2-1.9c3.4-2.9,8.4-6.6,14.8-8.9c12.3-4.2,19.5,4.8,40.2,8.2c31.1,5,42.1,4.7,60.5,22.6
				c9.7,9.5,15.6,15.3,20.5,20.6c0,0,0,0,0,0l1-1l-15.2,18.1c0.9,0.1,1.7,0.2,2.5,0.4c1.7,0.3,3.2,0.6,4.6,1
				c10.1,3,13.7,8.5,13.7,8.5s9.9,8.8,1.1,17.6c-1.3,1.3-3,2.5-5.2,3.7c-2.2,1.2-4.9,2.3-8.1,3.5c0,0-9.7,4.7-12,5.6
				c-15.7,4-131.8,46.8-172.3,49c0,0-4.3,0.6-10.1,2c-5.7,1.5-12.9,3.8-18.6,7.2C247.1,200.8,35.3,284.1,26.8,284.2
				C26.8,284.2,26.8,284.2,26.8,284.2z"/>
			<path class="st19" d="M450.7,142.4l-0.9-0.1c-0.1-0.1-0.7,0-1.8,0.3c2.3-0.9,11.9-5.6,12-5.6c3.2-1.2,5.9-2.3,8.1-3.5
				c2.2-1.2,4-2.4,5.2-3.7c8.8-8.8-1.1-17.6-1.1-17.6s-3.6-5.6-13.7-8.5c-1.4-0.4-3-0.7-4.6-1c-0.8-0.1-1.6-0.3-2.5-0.4l15.2-18.1
				l51.5-51.6c2.1-2.1,4.8-3.1,7.5-3.1c2.7,0,5.5,1,7.6,3.1l48,48c4.2,4.2,4.2,11,0.1,15.1L499,178.3c-4.1,4.1-10.9,4.1-15.1-0.1
				L450.7,142.4z"/>
		</g>
		<g>
			<path class="st20" d="M448,142.5c-15.7,4-131.8,46.8-172.3,49c0,0-4.3,0.6-10.1,2c-5.7,1.5-12.9,3.8-18.6,7.2
				c0,0-211.8,83.3-220.3,83.4c0,0,0,0,0,0c-0.2-1.1-10.1-73.6-10.3-74.5c0,0,0,0,0,0c1.6-0.6,211.5-74,242-100.4
				c22-19,27.8-23.1,54.3-49.5l1.7-1.7l0.1,0l1.9-2l3.5-3.6l3-3.1c0.7-0.7,1.4-1.4,2-2.1c0.3-0.4,1.1-1.4,2.5-2.7
				c0.6-0.6,1.3-1.2,2-1.9c3.4-2.9,8.4-6.6,14.8-8.9c12.3-4.2,19.5,4.8,40.2,8.2c31.1,5,42.1,4.7,60.5,22.6
				c9.7,9.5,15.6,15.3,20.5,20.6c0,0,0,0,0,0l1-1l51.5-51.6c2.1-2.1,4.8-3.1,7.5-3.1c2.7,0,5.5,1,7.6,3.1l48,48
				c4.2,4.2,4.2,11,0.1,15.1L499,178.3c-4.1,4.1-10.9,4.1-15.1-0.1l-33.2-35.8l-0.9-0.1C449.7,142.2,449.1,142.3,448,142.5z"/>
			<path class="st20" d="M448,142.5c2.3-0.9,11.9-5.6,12-5.6c3.2-1.2,5.9-2.3,8.1-3.5c2.2-1.2,4-2.4,5.2-3.7
				c8.8-8.8-1.1-17.6-1.1-17.6s-3.6-5.6-13.7-8.5c-1.4-0.4-3-0.7-4.6-1c-0.8-0.1-1.6-0.3-2.5-0.4c-0.8-0.1-1.7-0.2-2.6-0.3
				c-2-0.1-4.2-0.2-6.5-0.1c-4.8,0.2-10.3,0.9-16.6,2.4c-36.1,8.6-45.2,3.9-45.2,3.9c-5.8-6.7-3.4-12.3,0.5-16.2
				c1.3-1.3,2.7-2.4,4.1-3.3c1.1-0.4,2.3-0.7,3.5-1c1.1-0.3,2.3-0.6,3.5-0.8c11-2.2,23.9-2.7,25-2.7l1.8,1.3c3.6,1.8,6.5,4,8.8,6.1
				l14.4,10.2"/>
			<polyline class="st20" points="451,102.8 451.5,102.2 466.7,84.1 				"/>
		</g>
	</g>
</g>


	<script>
		var opacity1 = 0;
		var opacity2 = 0;
		var opacity3 = 0;
		var circle1d = document.getElementById("wave_right_inside");
		var circle2d = document.getElementById("wave_right_center");
		var circle3d = document.getElementById("wave_right_outside");
		var circle1i = document.getElementById("wave_left_inside");
		var circle2i = document.getElementById("wave_left_center");
		var circle3i = document.getElementById("wave_left_outside");
		circle1d.setAttribute('opacity', opacity1);
		circle1i.setAttribute('opacity', opacity1);
		circle2d.setAttribute('opacity', opacity2);
		circle2i.setAttribute('opacity', opacity2);
		circle3d.setAttribute('opacity', opacity3);
		circle3i.setAttribute('opacity', opacity3);
		setInterval(opacity, 50);
		
		var isUp = true;
		var mano = document.getElementById("mano");
		var handStartX = -400;
		var handStartY = 200;
		var handEndX = -200;
		var x = handStartX;
		var y = handStartY;
		setInterval(moveHand, 30);
		
		function opacity()
		{ 
			if (opacity1 &lt; 1){
				circle1d.setAttribute('opacity', opacity1);
				circle1i.setAttribute('opacity', opacity1);
				opacity1+=0.06;
			}
			else if (opacity2 &lt; 1){
				if (opacity1 &gt; 1 || opacity1 == 1){
					circle2d.setAttribute('opacity', opacity2); 
					circle2i.setAttribute('opacity', opacity2); 
					opacity2+=0.04;
				}
			}
			else if (opacity3 &lt; 1){
				if (opacity2 &gt; 1 || opacity2 == 1){
					circle3d.setAttribute('opacity', opacity3); 
					circle3i.setAttribute('opacity', opacity3); 
					opacity3+=0.04;
				}
			}
			else if (opacity3 &gt; 1 || opacity3 == 1){
				opacity1=0;
				opacity2=0;
				opacity3=0;
				circle1d.setAttribute('opacity', opacity1);
				circle1i.setAttribute('opacity', opacity1);
				circle2d.setAttribute('opacity', opacity2);
				circle2i.setAttribute('opacity', opacity2);
				circle3d.setAttribute('opacity', opacity3);
				circle3i.setAttribute('opacity', opacity3);
			
			}							
		}
		
		function moveHand()
		{
			if (isUp){
				if (x &lt; handEndX){
					x += 2.5;
					y -= 2.5;
					mano.setAttribute('transform', 'translate('+x+','+y+')');
				}
				else{
					isUp = false;
				}
			}
			else{
				if (x &gt; handStartX){
					x -= 2.5;
					y += 2.5;
					mano.setAttribute('transform', 'translate('+x+','+y+')');
				}
				else{
					isUp = true;
				}
			}
		}
	</script>

 

</g>
 
 

</svg>
