<?xml version="1.0" encoding="utf-8"?>
<!-- Generator: Adobe Illustrator 24.2.1, SVG Export Plug-In . SVG Version: 6.00 Build 0)  -->
<svg version="1.1" id="Layer_1" xmlns="http://www.w3.org/2000/svg" xmlns:xlink="http://www.w3.org/1999/xlink" x="0px" y="0px"
	 viewBox="0 0 72 74.2" style="enable-background:new 0 0 72 74.2;" xml:space="preserve">
<style type="text/css">
	.st0{fill:#666666;}
</style>
<g>
	<path class="st0" d="M36.5,10C21,10,8.5,22.5,8.5,38c0,15.5,12.5,28,28.1,28c15.5,0,28-12.5,28-28C64.6,22.5,52,10,36.5,10z
		 M35.2,44.8l-6.4,6.4c-0.7,0.7-1.7,1.1-2.7,1.1c-2.1,0-3.8-1.7-3.8-3.8c0-1,0.4-2,1.1-2.7l6.4-6.4c0.7-0.7,0.7-1.9,0-2.7l-6.4-6.4
		c-0.7-0.7-1.1-1.7-1.1-2.7c0-2.1,1.7-3.8,3.8-3.8c1,0,2,0.4,2.7,1.1l6.4,6.4c0.7,0.7,1.9,0.7,2.7,0l6.4-6.4
		c0.7-0.7,1.7-1.1,2.7-1.1c2.1,0,3.8,1.7,3.8,3.8c0,1-0.4,2-1.1,2.7l-6.4,6.4c-0.7,0.7-0.7,1.9,0,2.7l6.4,6.4
		c0.7,0.7,1.1,1.7,1.1,2.7c0,2.1-1.7,3.8-3.8,3.8c-1,0-2-0.4-2.7-1.1l-6.4-6.4C37.1,44,35.9,44,35.2,44.8L35.2,44.8z"/>
</g>
</svg>
