<?xml version="1.0" encoding="utf-8"?>
<!-- Generator: Adobe Illustrator 19.1.0, SVG Export Plug-In . SVG Version: 6.00 Build 0)  -->
<svg version="1.1" xmlns="http://www.w3.org/2000/svg" xmlns:xlink="http://www.w3.org/1999/xlink" x="0px" y="0px"
	 viewBox="0 0 31 31" style="enable-background:new 0 0 37 34.5;" xml:space="preserve">
<style type="text/css">
	.st1{fill:#000000;}
</style>
<g id="Capa_2">
</g>
<g id="Capa_1">
	<g transform="translate(-3, 0)">
		<path class="st1" d="M14.1,9.2c-2.3,0-4.2,1.9-4.2,4.2c0,0.1,0,0.2,0,0.3c-3.5,0.3-6.3,2.8-6.3,5.9c0,3.3,3.1,5.6,7,5.6h17.1
			c3.8,0,5.9-2.2,5.9-4.9c0-2.7-1.9-5.5-5.7-5.5c-0.4,0-0.7,0-1.1,0.1c-0.3-2.5-2.6-3.8-5.2-3.8c-1.2,0-2.4,0.4-3.3,1.2
			C17.7,10.5,16.1,9.2,14.1,9.2"/>
	</g>
</g>
</svg>
