<?xml version="1.0" encoding="utf-8"?>
<!-- Generator: Adobe Illustrator 19.1.0, SVG Export Plug-In . SVG Version: 6.00 Build 0)  -->
<svg version="1.1" xmlns="http://www.w3.org/2000/svg" xmlns:xlink="http://www.w3.org/1999/xlink" x="0px" y="0px"
	 viewBox="0 0 37 34.5" style="enable-background:new 0 0 37 34.5;" xml:space="preserve">
<style type="text/css">
	.st1{fill:#000000;}
</style>
<g id="Capa_2">
</g>
<g id="Capa_1">
	<path class="st1" d="M15.4,17.2c-1.2,0-2.2,1-2.2,2.2v10c0,1.2,1,2.2,2.2,2.2c1.2,0,2.2-1,2.2-2.2v-10
		C17.6,18.2,16.6,17.2,15.4,17.2L15.4,17.2z M15.4,17.2"/>
	<g>
		<path class="st1" d="M23.2,9.4c-1.2,0-2.2,1-2.2,2.2v17.8c0,1.2,1,2.2,2.2,2.2c1.2,0,2.2-1,2.2-2.2V11.6
			C25.5,10.4,24.4,9.4,23.2,9.4L23.2,9.4z M23.2,9.4"/>
		<path class="st1" d="M10.9,18.3c0.2-0.2,0.2-0.5,0.1-0.7c-0.1-0.2-0.3-0.4-0.6-0.4H3.5c-0.3,0-0.5,0.2-0.6,0.4
			c-0.1,0.2,0,0.5,0.1,0.7l2.6,2.6v9.5c0,0.7,0.6,1.3,1.3,1.3c0.7,0,1.3-0.6,1.3-1.3v-9.5L10.9,18.3z M10.9,18.3"/>
	</g>
</g>
</svg>
