<?xml version="1.0" encoding="utf-8"?>
<!-- Generator: Adobe Illustrator 24.2.1, SVG Export Plug-In . SVG Version: 6.00 Build 0)  -->
<svg version="1.1" id="Layer_1" xmlns="http://www.w3.org/2000/svg" xmlns:xlink="http://www.w3.org/1999/xlink" x="0px" y="0px"
	 viewBox="0 0 72 74.2" style="enable-background:new 0 0 72 74.2;" xml:space="preserve">
<style type="text/css">
	.st0{fill:#666666;}
	.st1{fill:#FFFFFF;}
</style>
<circle class="st0" cx="36.5" cy="38.2" r="28"/>
<path class="st1" d="M50.7,36.2C50.7,36.2,50.7,36.2,50.7,36.2L38.4,24c-0.5-0.5-1.2-0.8-2-0.8c-0.7,0-1.4,0.3-2,0.8L22.2,36.2
	c0,0,0,0,0,0c-1.1,1.1-1.1,2.8,0,3.9c0.5,0.5,1.1,0.8,1.8,0.8c0,0,0.1,0,0.1,0h0.5v9c0,1.8,1.5,3.2,3.2,3.2h4.8
	c0.5,0,0.9-0.4,0.9-0.9v-7.1c0-0.8,0.7-1.5,1.5-1.5h2.8c0.8,0,1.5,0.7,1.5,1.5v7.1c0,0.5,0.4,0.9,0.9,0.9H45c1.8,0,3.2-1.5,3.2-3.2
	v-9h0.5c0.7,0,1.4-0.3,2-0.8C51.8,39.1,51.8,37.3,50.7,36.2z"/>
</svg>
