<?xml version="1.0" encoding="utf-8"?>
<!-- Generator: Adobe Illustrator 19.1.0, SVG Export Plug-In . SVG Version: 6.00 Build 0)  -->
<svg version="1.1" xmlns="http://www.w3.org/2000/svg" xmlns:xlink="http://www.w3.org/1999/xlink" x="0px" y="0px"
	 viewBox="0 0 72 74.2" style="enable-background:new 0 0 72 74.2;" xml:space="preserve">
<style type="text/css">
	.st0{fill:#FFFFFF;}
	.st1{fill:#E20613;}
	.st2{fill:#CC0001;}
	.st3{fill:#FFFF33;}
	.st4{fill:#009540;}
	.st5{fill:#31287C;}
	.st6{fill:#1D1D1B;}
	.st7{fill:#FFCB00;}
	.st8{fill:#8CC63F;}
	.st9{fill:none;stroke:#8CC63F;stroke-width:3;}
	.st10{opacity:0.27;fill:none;stroke:#8CC63F;stroke-width:8;stroke-miterlimit:10;}
	.st11{opacity:7.000000e-002;fill:none;stroke:#8CC63F;stroke-width:8;stroke-miterlimit:10;}
	.st12{opacity:0.58;fill:none;stroke:#8CC63F;stroke-width:8;stroke-miterlimit:10;}
	.st13{opacity:0.8;fill:none;stroke:#8CC63F;stroke-width:8;stroke-miterlimit:10;}
	.st14{fill:#01267F;}
	.st15{fill:none;stroke:#66FFD0;stroke-width:7;stroke-miterlimit:10;}
	.st16{fill:none;stroke:#8CC63F;stroke-width:2;}
	.st17{fill:none;stroke:#8CC63F;stroke-width:2;stroke-miterlimit:10;}
	.st18{fill:none;stroke:#8CC63F;stroke-width:5;}
</style>
<g id="Capa_2">
</g>
<g id="Capa_1">
	<g>
		<g>
			<path class="st0" d="M35.9,8.7C20.4,8.7,7.8,21.3,7.8,36.8s12.6,28.1,28.1,28.1S64,52.3,64,36.8S51.5,8.7,35.9,8.7z M35.9,61.7
				C22.2,61.7,11,50.5,11,36.8c0-13.7,11.1-24.9,24.9-24.9s24.9,11.1,24.9,24.9C60.8,50.5,49.7,61.7,35.9,61.7z"/>
		</g>
		<g>
			<path class="st0" d="M40.4,17.8c2.5,0,3.7,1.7,3.7,3.6c0,2.4-2.1,4.6-4.9,4.6c-2.3,0-3.7-1.4-3.6-3.6
				C35.5,20.5,37.2,17.8,40.4,17.8L40.4,17.8z M32.8,54.5c-1.9,0-3.4-1.2-2-6.5l2.2-9.3c0.4-1.5,0.5-2.1,0-2.1c-0.6,0-3.1,1-4.6,2
				l-1-1.6c4.7-4,10.1-6.3,12.5-6.3c1.9,0,2.3,2.3,1.3,5.9l-2.5,9.8c-0.5,1.7-0.3,2.3,0.2,2.3c0.6,0,2.5-0.7,4.4-2.2l1.1,1.5
				C39.8,52.7,34.8,54.5,32.8,54.5L32.8,54.5z M32.8,54.5"/>
		</g>
	</g>
</g>
</svg>
