<?xml version="1.0" encoding="utf-8"?>
<!-- Generator: Adobe Illustrator 19.1.0, SVG Export Plug-In . SVG Version: 6.00 Build 0)  -->
<svg version="1.1" xmlns="http://www.w3.org/2000/svg" xmlns:xlink="http://www.w3.org/1999/xlink" x="0px" y="0px"
	 viewBox="0 0 72 74.2" style="enable-background:new 0 0 72 74.2;" xml:space="preserve">
<style type="text/css">
	.st0{fill:#8CC63F;}
	.st1{fill:#FFFFFF;}
	.st2{fill:#E20613;}
	.st3{fill:#CC0001;}
	.st4{fill:#FFFF33;}
	.st5{fill:#009540;}
	.st6{fill:#31287C;}
	.st7{fill:#1D1D1B;}
	.st8{fill:#FFCB00;}
	.st9{fill:#4D4D4D;}
	.st10{opacity:0.27;fill:none;stroke:#8CC63F;stroke-width:8;stroke-miterlimit:10;}
	.st11{opacity:7.000000e-002;fill:none;stroke:#8CC63F;stroke-width:8;stroke-miterlimit:10;}
	.st12{opacity:0.58;fill:none;stroke:#8CC63F;stroke-width:8;stroke-miterlimit:10;}
	.st13{opacity:0.8;fill:none;stroke:#8CC63F;stroke-width:8;stroke-miterlimit:10;}
	.st14{fill:#01267F;}
	.st15{fill:none;stroke:#66FFD0;stroke-width:7;stroke-miterlimit:10;}
	.st16{fill:none;stroke:#8CC63F;stroke-width:2;}
	.st17{opacity:0.73;}
	.st18{fill:none;stroke:#8CC63F;stroke-width:4;stroke-miterlimit:10;}
	.st19{fill:#F2F2F2;}
	.st20{fill:none;stroke:#4D4D4D;stroke-width:5;}
	.st21{fill:#FBB03B;}
	.st22{fill:#C1272D;}
	.st23{fill:#FFFFFF;stroke:#FFFFFF;stroke-width:4;stroke-miterlimit:10;}
	.st24{fill:#666666;}
	.st25{fill:#74A528;}
	.st26{fill:#FFFFFF;stroke:#FFFFFF;stroke-width:8;stroke-miterlimit:10;}
	.st27{opacity:0.64;fill:#666666;}
	.st28{fill:#FFFFFF;stroke:#C1272D;stroke-width:2;stroke-miterlimit:10;}
</style>
<g id="Capa_1">
	<g>
		<path class="st21" d="M8.4,38L8.4,38C8.4,22.6,21,10,36.5,10h0C51.9,10,64.5,22.6,64.5,38v0c0,15.4-12.6,28.1-28.1,28.1h0
			C21,66.1,8.4,53.4,8.4,38z"/>
		<g>
			<g>
				<path class="st1" d="M41.7,16.8c2.9,0,4.3,2,4.3,4.2c0,2.8-2.5,5.4-5.7,5.4c-2.7,0-4.3-1.6-4.2-4.3C36,19.8,37.9,16.8,41.7,16.8
					L41.7,16.8z M32.9,59.6c-2.3,0-3.9-1.4-2.3-7.6l2.6-10.9c0.5-1.7,0.5-2.4,0-2.4c-0.7,0-3.6,1.2-5.4,2.4l-1.1-1.9
					c5.5-4.7,11.9-7.4,14.6-7.4c2.3,0,2.6,2.7,1.5,6.9l-3,11.5c-0.5,2-0.3,2.7,0.2,2.7c0.7,0,2.9-0.8,5.1-2.6l1.3,1.7
					C41,57.5,35.1,59.6,32.9,59.6L32.9,59.6z M32.9,59.6"/>
			</g>
		</g>
	</g>
</g>
</svg>
