<?xml version="1.0" encoding="utf-8"?>
<!-- Generator: Adobe Illustrator 19.1.0, SVG Export Plug-In . SVG Version: 6.00 Build 0)  -->
<svg version="1.1" xmlns="http://www.w3.org/2000/svg" xmlns:xlink="http://www.w3.org/1999/xlink" x="0px" y="0px"
	 viewBox="0 0 72 74.2" style="enable-background:new 0 0 72 74.2;" xml:space="preserve">
<style type="text/css">
	.st0{fill:#FFFFFF;}
	.st1{fill:#E20613;}
	.st2{fill:#CC0001;}
	.st3{fill:#FFFF33;}
	.st4{fill:#009540;}
	.st5{fill:#31287C;}
	.st6{fill:#1D1D1B;}
	.st7{fill:#FFCB00;}
	.st8{fill:#8CC63F;}
	.st9{fill:none;stroke:#8CC63F;stroke-width:3;}
	.st10{opacity:0.27;fill:none;stroke:#8CC63F;stroke-width:8;stroke-miterlimit:10;}
	.st11{opacity:7.000000e-002;fill:none;stroke:#8CC63F;stroke-width:8;stroke-miterlimit:10;}
	.st12{opacity:0.58;fill:none;stroke:#8CC63F;stroke-width:8;stroke-miterlimit:10;}
	.st13{opacity:0.8;fill:none;stroke:#8CC63F;stroke-width:8;stroke-miterlimit:10;}
	.st14{fill:#01267F;}
	.st15{fill:none;stroke:#66FFD0;stroke-width:7;stroke-miterlimit:10;}
	.st16{fill:none;stroke:#8CC63F;stroke-width:2;}
	.st17{fill:none;stroke:#8CC63F;stroke-width:2;stroke-miterlimit:10;}
	.st18{fill:none;stroke:#8CC63F;stroke-width:5;}
</style>
<g id="Capa_2">
</g>
<g id="Capa_1">
	<g>
		<g>
			<path class="st0" d="M36,8.6C20.5,8.6,7.9,21.2,7.9,36.7S20.5,64.8,36,64.8s28.1-12.6,28.1-28.1S51.5,8.6,36,8.6z M36,61.6
				c-13.7,0-24.9-11.1-24.9-24.9c0-13.7,11.1-24.9,24.9-24.9s24.9,11.1,24.9,24.9C60.9,50.4,49.7,61.6,36,61.6z"/>
		</g>
		<g>
			<path class="st0" d="M51.9,29.5v16.2c-8.7-6.5-17.4,6.5-26.1,0V29.5C34.5,36,43.2,23,51.9,29.5L51.9,29.5z M23.2,22.5
				c-1.7,0-3.1,1.4-3.1,3.1c0,1.2,0.7,2.3,1.8,2.8v32.1h2.6V28.3c1-0.5,1.8-1.5,1.8-2.8C26.3,23.8,24.9,22.5,23.2,22.5L23.2,22.5z
				 M23.2,22.5"/>
		</g>
	</g>
</g>
</svg>
