<?xml version="1.0" encoding="utf-8"?>
<!-- Generator: Adobe Illustrator 24.2.1, SVG Export Plug-In . SVG Version: 6.00 Build 0)  -->
<svg version="1.1" id="Layer_1" xmlns="http://www.w3.org/2000/svg" xmlns:xlink="http://www.w3.org/1999/xlink" x="0px" y="0px"
	 viewBox="0 0 72 74.2" style="enable-background:new 0 0 72 74.2;" xml:space="preserve">
<style type="text/css">
	.st0{fill:#74A528;}
</style>
<g>
	<path class="st0" d="M36.5,10C20.9,10,8.4,22.5,8.4,38c0,15.5,12.5,28,28.1,28c15.5,0,28-12.5,28-28C64.5,22.5,52,10,36.5,10z
		 M29.8,49.9c0,0-9.7-9.7-10.4-10.4c-1.5-1.5-1.5-4.1,0-5.6c1.6-1.6,4.1-1.6,5.6,0l6.3,6.3c0.8,0.8,2,0.8,2.8,0l13.8-14
		c1.5-1.6,4.1-1.6,5.6,0c1.5,1.5,1.5,4,0,5.6c-15,15.2-17.8,18.1-17.8,18.1C34.1,51.5,31.4,51.5,29.8,49.9L29.8,49.9z"/>
</g>
</svg>
