<?xml version="1.0" encoding="utf-8"?>
<!-- Generator: Adobe Illustrator 25.2.3, SVG Export Plug-In . SVG Version: 6.00 Build 0)  -->
<svg version="1.1" id="Layer_1" xmlns="http://www.w3.org/2000/svg" xmlns:xlink="http://www.w3.org/1999/xlink" x="0px" y="0px"
	 viewBox="0 0 800 300" style="enable-background:new 0 0 800 300;" xml:space="preserve">
<style type="text/css">
	.st0{fill:#3A8DCC;}
</style>
<g id="Capa_1_1_" transform="translate(100, 0)">
	<g id="Capa_1" transform="scale(2)">
		<g id="gear1" transform="translate(195, 33)">
			<g transform="rotate(50)">
				<path class="st0" d="M80.3,35.5c-0.8-2.7-1.9-5.4-3.3-7.9l4-5c1.3-1.6,1.2-4-0.3-5.5l-6.9-6.9C72.3,8.8,70,8.7,68.3,10l-5,4
					c-2.6-1.5-5.3-2.6-8.2-3.5L54.5,4c-0.2-2.1-2-3.6-4.1-3.6l-9.7,0c-2.1,0-3.8,1.6-4.1,3.6l-0.7,6.2c-3.1,0.8-6,2-8.8,3.5
					l-4.8-3.8c-1.6-1.3-4-1.2-5.5,0.3l-6.9,6.9c-1.5,1.5-1.6,3.8-0.3,5.5l3.8,4.8c-1.6,2.7-2.8,5.6-3.6,8.6L4,36.6
					c-2.1,0.2-3.7,2-3.7,4.1l0,9.7c0,2.1,1.6,3.9,3.7,4.1l5.7,0.7c0.8,3,1.9,5.8,3.4,8.5l-3.5,4.4c-1.3,1.6-1.2,4,0.3,5.5l6.9,6.9
					c1.5,1.5,3.8,1.6,5.5,0.3l4.3-3.4c2.8,1.6,5.8,2.9,8.9,3.8l0.6,5.6c0.2,2.1,2,3.6,4.1,3.7l9.8,0c2.1,0,3.9-1.6,4.1-3.7l0.7-5.6
					c3.2-0.9,6.3-2.2,9.2-3.9l4.5,3.6c1.6,1.3,4,1.2,5.5-0.3l6.9-6.9c1.5-1.5,1.6-3.8,0.3-5.5l-3.7-4.7c1.5-2.7,2.6-5.6,3.4-8.6
					l6-0.7c2.1-0.2,3.7-2,3.6-4.1v-9.7c0-2.1-1.6-3.9-3.7-4.1L80.3,35.5z M45.1,61.8c-8.9,0-16.1-7.2-16.1-16.1
					c0-8.9,7.2-16.1,16.1-16.1c8.9,0,16.1,7.2,16.1,16.1v0C61.2,54.6,54,61.8,45.1,61.8L45.1,61.8z"/>
			</g>
		</g>
		<g id="gear2" transform="translate(125, 6)">
			<g transform="scale(0.6)">
				<g>
					<path class="st0" d="M80.3,35.5c-0.8-2.7-1.9-5.4-3.3-7.9l4-5c1.3-1.6,1.2-4-0.3-5.5l-6.9-6.9C72.3,8.8,70,8.7,68.3,10l-5,4
						c-2.6-1.5-5.3-2.6-8.2-3.5L54.5,4c-0.2-2.1-2-3.6-4.1-3.6h-9.7c-2.1,0-3.8,1.6-4.1,3.6l-0.7,6.2c-3.1,0.8-6,2-8.7,3.5l-4.8-3.8
						c-1.6-1.3-4-1.2-5.5,0.3l-6.9,6.9c-1.5,1.5-1.6,3.8-0.3,5.5l3.8,4.8c-1.6,2.7-2.8,5.6-3.6,8.6L4,36.6c-2.1,0.2-3.7,2-3.7,4.1
						v9.7c0,2.1,1.6,3.9,3.7,4.1l5.7,0.7c0.8,3,1.9,5.8,3.5,8.5l-3.5,4.4c-1.3,1.6-1.2,4,0.3,5.5l6.9,6.9c1.5,1.5,3.8,1.6,5.5,0.3
						l4.3-3.4c2.8,1.6,5.8,2.9,8.9,3.8l0.7,5.6c0.2,2.1,2,3.6,4.1,3.7H50c2.1,0,3.9-1.6,4.1-3.7l0.7-5.6c3.2-0.9,6.3-2.2,9.2-3.9
						l4.5,3.6c1.6,1.3,4,1.2,5.5-0.3l6.9-6.9c1.5-1.5,1.6-3.8,0.3-5.5l-3.7-4.7c1.5-2.7,2.6-5.6,3.4-8.6l6-0.7
						c2.1-0.2,3.7-2,3.6-4.1v-9.7c0-2.1-1.6-3.9-3.7-4.1L80.3,35.5z M45.1,61.8c-8.9,0-16.1-7.2-16.1-16.1c0-8.9,7.2-16.1,16.1-16.1
						c8.9,0,16.1,7.2,16.1,16.1v0C61.2,54.6,54,61.8,45.1,61.8L45.1,61.8z"/>
				</g>
			</g>
		</g>
		<g id="gear3" transform="translate(60, 31)">
			<g transform="scale(0.8)">
				<g>
					<path class="st0" d="M80.3,35.5c-0.8-2.7-1.9-5.4-3.3-7.9l4-5c1.3-1.6,1.2-4-0.3-5.5l-6.9-6.9C72.3,8.8,70,8.7,68.3,10l-5,4
						c-2.6-1.5-5.3-2.6-8.2-3.4L54.5,4c-0.2-2.1-2-3.6-4.1-3.6h-9.7c-2.1,0-3.8,1.6-4.1,3.6l-0.7,6.2c-3.1,0.8-6,2-8.8,3.5l-4.8-3.8
						c-1.6-1.3-4-1.2-5.5,0.3l-6.9,6.9c-1.5,1.5-1.6,3.8-0.3,5.5l3.8,4.8c-1.6,2.7-2.8,5.6-3.6,8.6L4,36.6c-2.1,0.2-3.7,2-3.7,4.1
						v9.7c0,2.1,1.6,3.9,3.7,4.1l5.7,0.7c0.8,3,1.9,5.8,3.4,8.5l-3.5,4.4c-1.3,1.6-1.2,4,0.3,5.5l6.9,6.9c1.5,1.5,3.8,1.6,5.5,0.3
						l4.3-3.4c2.8,1.6,5.8,2.9,8.9,3.8l0.7,5.6c0.2,2.1,2,3.6,4.1,3.7H50c2.1,0,3.9-1.6,4.1-3.7l0.7-5.6c3.2-0.9,6.3-2.2,9.2-3.9
						l4.5,3.6c1.6,1.3,4,1.2,5.5-0.3l6.9-6.9c1.5-1.5,1.6-3.8,0.3-5.5l-3.7-4.7c1.5-2.7,2.6-5.6,3.4-8.6l6-0.7
						c2.1-0.2,3.7-2,3.6-4.1v-9.7c0-2.1-1.6-3.9-3.7-4.1L80.3,35.5z M45.1,61.8c-8.9,0-16.1-7.2-16.1-16.1c0-8.9,7.2-16.1,16.1-16.1
						c8.9,0,16.1,7.2,16.1,16.1v0C61.2,54.6,54,61.8,45.1,61.8L45.1,61.8z"/>
				</g>
			</g>
		</g>
		<script>var angle1 = 360;
			var angle2 = 0;
			var angle3 = 360;
			var gear1 = document.getElementById(&quot;gear1&quot;);
			var gear2 = document.getElementById(&quot;gear2&quot;);
			var gear3 = document.getElementById(&quot;gear3&quot;);
			setInterval(move, 40);
			function move()
			{ 
				gear1.setAttribute(&apos;transform&apos;, &apos; translate(195, 33), rotate(&apos;+angle1+&apos;, -7, 63.7)&apos;);
				angle1-=1.5;	
				gear2.setAttribute(&apos;transform&apos;, &apos; translate(125, 5), rotate(&apos;+angle2+&apos;, 28, 26)&apos;);
				angle2+=1.5;	
				gear3.setAttribute(&apos;transform&apos;, &apos; translate(60, 30), rotate(&apos;+angle3+&apos;, 36, 35)&apos;);
				angle3-=1.5;							
			}
			</script>
	</g>
</g>
</svg>
