<?xml version="1.0" encoding="utf-8"?>
<!-- Generator: Adobe Illustrator 24.2.1, SVG Export Plug-In . SVG Version: 6.00 Build 0)  -->
<svg version="1.1" id="Layer_1" xmlns="http://www.w3.org/2000/svg" xmlns:xlink="http://www.w3.org/1999/xlink" x="0px" y="0px"
	 viewBox="0 0 872.7 500" style="enable-background:new 0 0 872.7 500;" xml:space="preserve">
<style type="text/css">
	.st0{fill:#8DD63D;}
	.st1{fill:#74A528;}
	.st2{fill:#85B533;}
	.st3{fill:#FFFFFF;}
	.st4{fill:#5D5D5D;}
	.st5{fill:#3E3E3E;}
	.st6{fill:#FF2C2C;}
	.st7{fill:#353535;}
	.st8{fill:#AEAEAE;}
	.st9{fill:#74A528;fill-opacity:0;}
</style>
<g transform="translate(0, 200)">
	<g id="city" transform="translate(-50, -180)">
		<g transform="scale(1.5)">
			<path class="st0" d="M204.4,61.3c-1.6-1.4-3.3-2.7-5.1-3.8c-0.4,1.8-0.6,3.6-1.1,5.3c-0.8,1.6-1.1,3.5-2.2,5
				c2.2,0.2,4.3,0.1,6.5-0.2c2.3-0.3,4.5-0.7,6.7-1.4C207.8,64.5,206.2,62.8,204.4,61.3z"/>
			<path class="st0" d="M194.4,70.3c-1,1.5-2.4,2.7-3.6,4.1c-1.5,1-2.8,2.3-4.4,3.2c1.8,1.2,3.7,2.2,5.7,3.1
				c2.1,0.9,4.3,1.7,6.5,2.2c-0.4-2.3-0.9-4.5-1.6-6.7C196.4,74.1,195.5,72.2,194.4,70.3z"/>
			<path class="st0" d="M173.2,81.3c1,1.9,2.1,3.7,3.4,5.4c1.3,1.9,2.8,3.6,4.5,5.2c0.8-2.1,1.5-4.3,2-6.6c0.5-2.1,0.7-4.3,0.7-6.4
				c-1.6,1-3.4,1.1-5.1,1.7C176.9,81.1,175,81.1,173.2,81.3z"/>
			<path class="st0" d="M159.9,77.9c-0.2,2.2-0.1,4.3,0.1,6.5c0.3,2.3,0.7,4.5,1.4,6.7c1.8-1.4,3.5-3,5-4.6c1.4-1.6,2.7-3.4,3.9-5.2
				c-1.8-0.2-3.6-0.6-5.3-1.1C163.2,79.5,161.5,78.8,159.9,77.9z"/>
			<path class="st0" d="M153.4,72.7c-1.2-1.3-2.3-2.8-3.2-4.4c-1.2,1.8-2.3,3.7-3.1,5.7c-0.9,2.1-1.6,4.2-2.2,6.4
				c2.3-0.3,4.5-0.8,6.6-1.5c2.1-0.7,4.1-1.5,6-2.6C156,75.3,154.6,74,153.4,72.7z"/>
			<path class="st0" d="M147.1,60.5c-0.4-1.8-0.6-3.6-0.6-5.4c-1.9,1-3.8,2.1-5.6,3.4c-1.8,1.4-3.5,2.9-5.1,4.5
				c2.1,0.8,4.3,1.5,6.5,2c2.1,0.4,4.3,0.7,6.5,0.8C148.1,64,147.5,62.2,147.1,60.5z"/>
			<path class="st0" d="M141.4,48.2c1.6,1.4,3.4,2.7,5.2,3.9c0.2-1.8,0.6-3.6,1.1-5.3c0.6-1.7,1.3-3.4,2.2-5
				c-2.2-0.2-4.3-0.1-6.5,0.1c-2.3,0.3-4.5,0.7-6.7,1.3C138.2,45,139.7,46.7,141.4,48.2z"/>
			<path class="st0" d="M147.5,26.7c0.3,2.2,0.8,4.5,1.5,6.6c0.7,2.1,1.5,4.1,2.6,6c1.1-1.5,2.3-2.9,3.6-4c1.3-1.2,2.8-2.3,4.4-3.3
				c-1.8-1.2-3.7-2.3-5.7-3.1C151.9,27.9,149.7,27.2,147.5,26.7z"/>
			<path class="st0" d="M165,17.7c-0.8,2.1-1.5,4.3-2,6.5c-0.4,2.1-0.7,4.3-0.8,6.5c1.7-0.7,3.4-1.3,5.2-1.7
				c1.8-0.4,3.6-0.5,5.4-0.6c-1-1.9-2.1-3.8-3.4-5.6C168.1,21,166.6,19.3,165,17.7z"/>
			<path class="st0" d="M184.7,18.7c-1.8,1.4-3.5,2.9-5,4.6c-1.4,1.6-2.7,3.4-3.9,5.2c1.8,0.2,3.6,0.6,5.3,1.1
				c1.7,0.6,3.4,1.3,5,2.2c0.2-2.2,0.1-4.3-0.1-6.5C185.8,23.1,185.4,20.9,184.7,18.7z"/>
			<path class="st0" d="M192.7,37.2c1.2,1.3,2.3,2.8,3.2,4.4c1.2-1.8,2.3-3.7,3.1-5.7c0.9-2.1,1.7-4.2,2.2-6.4
				c-2.2,0.3-4.4,0.8-6.6,1.5c-2.1,0.7-4.1,1.5-6,2.5C190.1,34.6,191.5,35.8,192.7,37.2z"/>
			<path class="st0" d="M198.9,49.4c0.3,1.8,0.5,3.6,0.6,5.4c1.9-1,3.8-2.1,5.6-3.3c1.8-1.4,3.5-2.9,5.1-4.5c-2.1-0.8-4.3-1.5-6.5-2
				c-2.1-0.4-4.3-0.7-6.5-0.8C197.9,45.9,198.5,47.6,198.9,49.4z"/>
			<circle class="st0" cx="173" cy="54.8" r="21.3"/>
			<path class="st0" d="M271.8,108.3c-3.4-2.6-5.4-6.5-5.4-10.8c0-0.1,0-0.1,0-0.2c-1,1.6-1.6,3.4-1.6,5.3c0,0.3,0,0.5,0,0.7
				c-8,0.7-14.3,6.4-14.3,13.5c0,7.5,7.1,12.8,15.8,12.8l38.7-0.1c8.7,0,13.3-4.9,13.3-11c0-2.2-0.6-4.4-1.9-6.2h-32.3
				C279.8,112.3,275.4,110.9,271.8,108.3z"/>
			<path class="st0" d="M331.5,92.9c-1.8-1.6-4.6-2.7-8.6-2.7c-0.8,0-1.5,0-2.3,0.1l-2,0.2l-0.3-2c-0.7-5.2-5.5-8.9-10.7-8.2
				c-1.8,0.2-3.4,1-4.8,2.1l-2.5,2.1l-0.8-3.2c-1-4-5.1-6.5-9.2-5.5c-3.4,0.8-5.7,3.9-5.7,7.3c0,0.2,0,0.3,0,0.6l0.1,2l-2,0.2
				c-7.2,0.6-12.4,5.7-12.4,11.4c0,3,1.5,5.8,3.9,7.6c2.9,2.1,6.3,3.2,9.9,3.1l38.7,0c4,0,6.8-1.1,8.6-2.7c3.4-3.3,3.6-8.7,0.3-12.1
				C331.8,93.1,331.7,93,331.5,92.9z"/>
			<polygon class="st0" points="75.6,141.8 73.3,126.6 64.2,125.9 66.2,141.5 			"/>
			<polygon class="st0" points="87.6,142.1 85.2,127.5 76.7,126.8 79,141.9 			"/>
			<polygon class="st0" points="98.9,142.5 96.3,128.3 88.3,127.7 90.8,142.2 			"/>
			<polygon class="st0" points="109.3,142.8 106.6,129.1 99.2,128.5 101.8,142.6 			"/>
			<polygon class="st0" points="68.9,161.6 78.4,161.3 76.1,145.2 66.7,145 			"/>
			<polygon class="st0" points="81.9,161.2 90.8,160.9 88.2,145.4 79.5,145.2 			"/>
			<polygon class="st0" points="99.4,145.6 91.4,145.5 94,160.9 102.2,160.6 			"/>
			<polygon class="st0" points="105.2,160.5 112.9,160.3 109.9,145.9 102.4,145.7 			"/>
			<polygon class="st0" points="69.4,165.3 71.7,183 81.5,182.1 79,164.9 			"/>
			<polygon class="st0" points="82.5,164.8 85.1,181.8 94.1,181 91.4,164.4 			"/>
			<polygon class="st0" points="105.8,179.9 102.8,164 94.6,164.3 97.4,180.7 			"/>
			<polygon class="st0" points="108.8,179.6 116.6,178.9 113.5,163.6 105.9,163.9 			"/>
			<polygon class="st0" points="133.8,129.1 131.1,110.6 119.9,109.7 122.4,128.8 			"/>
			<polygon class="st0" points="148.6,129.6 145.6,111.7 135.2,110.9 138,129.3 			"/>
			<polygon class="st0" points="162.4,130 159.2,112.7 149.5,112 152.5,129.7 			"/>
			<polygon class="st0" points="175.2,130.4 171.8,113.7 162.7,113 166,130.1 			"/>
			<polygon class="st0" points="125.7,153.4 137.4,153.1 134.5,133.3 123,133.1 			"/>
			<polygon class="st0" points="141.6,153 152.5,152.7 149.3,133.6 138.7,133.4 			"/>
			<polygon class="st0" points="163.1,133.9 153.2,133.7 156.4,152.5 166.5,152.3 			"/>
			<polygon class="st0" points="170.2,152.2 179.5,151.9 176,134.2 166.7,134 			"/>
			<polygon class="st0" points="126.3,158 129.1,179.7 141.1,178.6 138,157.5 			"/>
			<polygon class="st0" points="142.3,157.4 145.5,178.2 156.6,177.2 153.2,156.9 			"/>
			<polygon class="st0" points="170.9,175.9 167.3,156.4 157.2,156.8 160.6,176.8 			"/>
			<polygon class="st0" points="174.6,175.5 184.1,174.6 180.3,155.9 171,156.2 			"/>
			<path class="st0" d="M722.8,164.4c1.1,0.5,3.3-1.7,4.8-4.9s6.4-16,5.3-16.5s-7.8,11.4-9.3,14.6S721.7,163.9,722.8,164.4z"/>
			<path class="st0" d="M724.1,168.9c-1,0.7-0.2,3.7,1.9,6.6s10.7,13.5,11.7,12.8s-5.9-12.4-8-15.4S725.1,168.2,724.1,168.9z"/>
			<path class="st0" d="M712.5,169.2c3.6-0.3,6.4-1.6,6.3-2.8s-3.1-2-6.7-1.7s-17,2.5-16.9,3.7S708.9,169.6,712.5,169.2z"/>
			<path class="st0" d="M720.6,169.2c1,0.4,2.2,0,2.6-1c0.4-1,0-2.2-1-2.6c-1-0.4-2.1,0-2.6,1C719.1,167.5,719.6,168.7,720.6,169.2z
				"/>
			<path class="st0" d="M637.2,116c2.9-0.2,4.7-7.1,4-15.4s-5.4-39.3-8.3-39.1s-2.7,31.7-2,39.9S634.4,116.2,637.2,116z"/>
			<path class="st0" d="M656.1,134.7c2.8,1.3,8.5,3.7,14.7,6.1c-2,4.4-2.3,8.5-0.8,9.2s4.6-2.4,6.8-7l0,0c8.7,3.1,16.7,5.4,17.3,4.1
				s-6.5-6.2-14.5-11.1c2.6-6.9,5.6-15.8,4.5-16.3s-5.8,7.1-9.3,13.4c-5.8-3.4-11.5-6.4-14.3-7.8c-7.5-3.6-14.6-4.4-15.8-1.8
				S648.6,131.1,656.1,134.7z"/>
			<path class="st0" d="M622,137.4c6.8-4.7,11.1-10.4,9.5-12.8s-8.5-0.5-15.3,4.2s-31.3,24.4-29.7,26.8S615.2,142.1,622,137.4z"/>
			<path class="st0" d="M637.5,118.8c-2.6,0.2-4.5,2.5-4.4,5.1c0.2,2.6,2.5,4.5,5.1,4.4c2.6-0.2,4.5-2.5,4.4-5.1c0,0,0,0,0,0
				C642.4,120.5,640.1,118.6,637.5,118.8z"/>
			<path class="st0" d="M671.7,156.3c-1.4,1-0.3,5.2,2.7,9.4s15,19.1,16.5,18.1s-8.4-17.5-11.3-21.7S673.2,155.3,671.7,156.3z"/>
			<path class="st0" d="M669.3,151.5c-1.4-0.7-3.2-0.1-3.8,1.4c-0.7,1.4-0.1,3.2,1.4,3.8l0,0c1.4,0.7,3.2,0.1,3.8-1.4
				C671.4,153.9,670.7,152.2,669.3,151.5z"/>
			<path class="st0" d="M792.1,145.2l6.1-6.1c-0.8-2.9-2.3-5.6-4.4-7.8c-0.3-0.4-0.7-0.7-1.1-1c-1,2-3,4.8-4.7,8.7
				c0.4,0.6,0.9,1.3,1.3,1.9C790.3,142.2,791.2,143.6,792.1,145.2z"/>
			<path class="st0" d="M774.7,160c0.4,0.4,0.8,0.7,1.3,1l0.2,0.1l6.3-6.4c-0.6-1.2-1-2.5-1.4-3.8c-1.4-4.4-2-8.9-1.7-13.5l0,0
				c0.1,5.7,1.5,11.3,4,16.3l7.3-7.4c-3.9-6.6-8.7-10.6-9.6-21.5c-5.8,7.9-11.1,17.8-10.1,26.1C771.3,153.9,772.4,157.8,774.7,160z"
				/>
			<path class="st0" d="M916,194.5h-87.4v-22.3c0-0.2,0-0.3,0-0.5h4c3.2,0,3.9-1.8,1.6-4L808,142.4c-2.3-2.2-6-2.2-8.4,0l-26.1,25.3
				c-2.3,2.2-1.6,4,1.6,4h4c0,0.2,0,0.3,0,0.5v22.2h-52.9c-1.1-11-2.9-23.5-4.9-23.5s-3.8,12.5-4.9,23.5h-41.5
				c-1.5-15.9-4.1-35.1-7.1-35.1s-5.5,19.2-7,35.1h-10c-1-12.1-2.5-25.9-4.3-37.4c3.8,0,7.2-0.1,8.9-0.3c5-0.4,9-2.2,8.9-4
				s-4.4-2.8-9.4-2.4c-1.8,0.2-5.4,0.6-9.3,1.3c-2-11.2-4.3-19.2-6.8-19.1c-2.7,0-5.3,9.6-7.3,22.6c-0.2,0.1-0.4,0.3-0.4,0.5
				c0,0.1,0.1,0.3,0.3,0.3c-1.9,11.7-3.4,26-4.4,38.5h-58.6v-6.7c0.6-0.1,1.2-0.1,1.8-0.3c9.5-1.9,15.7-11.1,13.9-20.6
				s-11.1-15.7-20.6-13.9c-9.5,1.9-15.7,11.1-13.9,20.6c1.3,6.8,6.6,12.2,13.3,13.8c0.3,0.1,0.7,0.1,1,0.2v7h-29.5c0-2.2,0-4.9,0-7
				c6.1-2.5,9.2-12.8,9.2-21.1c0-9.6-8.4-42.3-12.3-42.2c-2.9,0-11.9,23.2-11.9,42.3c0,8.5,3.3,19,9.6,21.2v6.9h-19.7l-0.1-50
				c0-2.2-1.8-4-4-3.9l-34,0.1c-2.2,0-4,1.8-4,4l0.1,50h-12.2L455,71c0-2.2-1.8-4-4-4l-35,0.1c-2.2,0-4,1.8-4,4l0.2,123.4H400
				l-0.1-68.8c0-2.8-2.3-5.2-5.2-5.2h0l-44.3,0.1c-2.8,0-5.2,2.3-5.1,5.2c0,0,0,0,0,0l0.1,68.7h-10.7l-0.1-48.3c0-2.2-1.8-4-4-3.9
				l-34,0.1c-2.2,0-4,1.8-4,4l0.1,48.2h-29.7c-0.2-0.3-0.3-0.7-0.3-1.1v-6.8c0-1,0.8-1.9,1.8-2.1l0,0c9.5-1.9,15.7-11.1,13.9-20.6
				c-1.9-9.5-11.1-15.7-20.6-13.9c-9.5,1.9-15.7,11.1-13.9,20.6c1.3,6.8,6.6,12.2,13.3,13.8c0.3,0.1,0.6,0.1,1,0.2v8.8
				c0,0.4-0.1,0.8-0.4,1.2h-29.8c-0.3-0.4-0.5-0.9-0.5-1.4v-7.3c0-0.8,0.4-1.5,1.1-1.9c5.4-3.2,8.1-12.7,8.1-20.6
				c0-9.6-8.4-42.3-12.3-42.2c-2.9,0-11.9,23.2-11.9,42.3c0,8,2.9,17.6,8.4,20.7c0.7,0.4,1.2,1.1,1.2,1.9v8.6h-61.3v-13.2l-9,0.8
				c0,0,0,7.6,0,12.4H97.6c0-4.2,0-10.2,0-10.2l-7.4,0.6c0,0,0,5.6,0,9.5H-10 M809.8,175h6.5c1.4,0,2.6,1.2,2.6,2.6c0,0,0,0,0,0v6.5
				c0,1.4-1.2,2.6-2.6,2.6c0,0,0,0,0,0h-6.5c-1.4,0-2.6-1.2-2.6-2.6c0,0,0,0,0,0v-6.5C807.2,176.2,808.3,175,809.8,175
				C809.8,175,809.8,175,809.8,175z M502.4,172.2c0,1.4-1.1,2.6-2.6,2.6h-6.4c-1.4,0-2.6-1.1-2.6-2.6c0,0,0,0,0,0v-6.4
				c0-1.4,1.2-2.6,2.6-2.6h6.4c1.4,0,2.6,1.2,2.6,2.6L502.4,172.2L502.4,172.2z M493.4,146.3h6.4c1.4,0,2.6,1.1,2.6,2.6v6.4
				c0,1.4-1.1,2.6-2.6,2.6h-6.4c-1.4,0-2.6-1.1-2.6-2.6c0,0,0,0,0,0v-6.4C490.9,147.4,492,146.3,493.4,146.3L493.4,146.3z
				 M486.5,172.2c0,1.4-1.1,2.6-2.6,2.6h-6.4c-1.4,0-2.6-1.1-2.6-2.6c0,0,0,0,0,0v-6.4c0-1.4,1.2-2.6,2.6-2.6h6.4
				c1.4,0,2.6,1.2,2.6,2.6L486.5,172.2L486.5,172.2z M477.5,146.3h6.4c1.4,0,2.6,1.1,2.6,2.6v6.4c0,1.4-1.1,2.6-2.6,2.6h-6.4
				c-1.4,0-2.6-1.1-2.6-2.6c0,0,0,0,0,0v-6.4C474.9,147.5,476.1,146.3,477.5,146.3C477.5,146.3,477.5,146.3,477.5,146.3L477.5,146.3
				z M448.2,98.8c0,1.4-1.2,2.6-2.6,2.6h-6.4c-1.4,0-2.6-1.2-2.6-2.6v-6.3c0-1.4,1.2-2.6,2.6-2.6h6.4c1.4,0,2.6,1.2,2.6,2.6V98.8
				L448.2,98.8z M439.2,72.8h6.4c1.4,0,2.6,1.2,2.6,2.6v6.4c0,1.4-1.2,2.6-2.6,2.6h-6.4c-1.4,0-2.6-1.2-2.6-2.6v-6.4
				C436.6,74,437.8,72.9,439.2,72.8C439.2,72.9,439.2,72.9,439.2,72.8L439.2,72.8z M432.3,98.8c0,1.4-1.2,2.6-2.6,2.6h-6.4
				c-1.4,0-2.6-1.2-2.6-2.6v-6.4c0-1.4,1.1-2.6,2.6-2.6h0h6.4c1.4,0,2.6,1.2,2.6,2.6L432.3,98.8L432.3,98.8z M423.3,72.9h6.4
				c1.4,0,2.6,1.2,2.6,2.6v6.4c0,1.4-1.2,2.6-2.6,2.6h-6.4c-1.4,0-2.6-1.2-2.6-2.6v-6.4C420.7,74,421.9,72.9,423.3,72.9
				C423.3,72.9,423.3,72.9,423.3,72.9L423.3,72.9z M394.2,168.9c0,1.4-1.2,2.6-2.6,2.6h-6.4c-1.4,0-2.6-1.2-2.6-2.6v-6.4
				c0-1.4,1.1-2.6,2.6-2.6c0,0,0,0,0,0h6.4c1.4,0,2.6,1.2,2.6,2.6V168.9L394.2,168.9z M394.2,153.1c0,1.4-1.2,2.6-2.6,2.6h-6.4
				c-1.4,0-2.6-1.1-2.6-2.6v-6.3c0-1.4,1.2-2.6,2.6-2.6h6.4c1.4,0,2.6,1.1,2.6,2.6V153.1L394.2,153.1z M385.2,127.2h6.4
				c1.4,0,2.6,1.2,2.6,2.6v6.4c0,1.4-1.1,2.6-2.6,2.6c0,0,0,0,0,0h-6.4c-1.4,0-2.6-1.1-2.6-2.6c0,0,0,0,0,0v-6.4
				C382.6,128.4,383.8,127.2,385.2,127.2L385.2,127.2z M378.3,168.9c0,1.4-1.1,2.6-2.6,2.6h-6.4c-1.4,0-2.6-1.2-2.6-2.6v-6.3
				c0-1.4,1.1-2.6,2.6-2.6h0h6.4c1.4,0,2.6,1.2,2.6,2.6V168.9L378.3,168.9z M378.3,153.1c0,1.4-1.1,2.6-2.6,2.6h-6.4
				c-1.4,0-2.6-1.1-2.6-2.6v-6.4c0-1.4,1.1-2.6,2.6-2.6h6.4c1.4,0,2.6,1.1,2.6,2.6V153.1z M369.3,127.2h6.4c1.4,0,2.6,1.2,2.6,2.6
				v6.4c0,1.4-1.1,2.6-2.6,2.6c0,0,0,0,0,0h-6.4c-1.4,0-2.6-1.1-2.6-2.6c0,0,0,0,0,0v-6.4C366.7,128.4,367.9,127.3,369.3,127.2
				L369.3,127.2z M362.4,169c0,1.4-1.2,2.6-2.6,2.6h-6.4c-1.4,0-2.6-1.2-2.6-2.6v-6.4c0-1.4,1.1-2.6,2.6-2.6c0,0,0,0,0,0h6.4
				c1.4,0,2.6,1.1,2.6,2.6c0,0,0,0,0,0L362.4,169L362.4,169z M362.4,153.2c0,1.4-1.2,2.6-2.6,2.6h-6.4c-1.4,0-2.6-1.1-2.6-2.6v-6.4
				c0-1.4,1.2-2.6,2.6-2.6h6.4c1.4,0,2.6,1.1,2.6,2.6c0,0,0,0,0,0L362.4,153.2L362.4,153.2z M353.4,127.3h6.4c1.4,0,2.6,1.1,2.6,2.6
				c0,0,0,0,0,0v6.4c0,1.4-1.2,2.6-2.6,2.6h-6.4c-1.4,0-2.6-1.1-2.6-2.6v-6.4C350.8,128.5,351.9,127.3,353.4,127.3
				C353.3,127.3,353.3,127.3,353.4,127.3L353.4,127.3z M327.9,174c0,1.4-1.2,2.6-2.6,2.6h-6.4c-1.4,0-2.6-1.1-2.6-2.6c0,0,0,0,0,0
				v-6.4c0-1.4,1.2-2.6,2.6-2.6h6.4c1.4,0,2.6,1.2,2.6,2.6L327.9,174L327.9,174z M318.9,148.1h6.4c1.4,0,2.6,1.1,2.6,2.6v6.3
				c0,1.4-1.2,2.6-2.6,2.6h-6.4c-1.4,0-2.6-1.2-2.6-2.6v-6.4C316.3,149.2,317.4,148,318.9,148.1C318.8,148,318.9,148,318.9,148.1
				L318.9,148.1z M311.9,174c0,1.4-1.2,2.6-2.6,2.6H303c-1.4,0-2.6-1.1-2.6-2.6c0,0,0,0,0,0v-6.4c0-1.4,1.2-2.6,2.6-2.6h6.4
				c1.4,0,2.6,1.2,2.6,2.6L311.9,174L311.9,174z M302.9,148.1h6.4c1.4,0,2.6,1.1,2.6,2.6v6.3c0,1.4-1.2,2.6-2.6,2.6H303
				c-1.4,0-2.6-1.1-2.6-2.6v-6.4C300.4,149.2,301.5,148.1,302.9,148.1L302.9,148.1z"/>
			<rect x="12.3" y="194.5" class="st0" width="846" height="5.7"/>
		</g>
	</g>
	<g id="city2" transform="translate(1200, -180)">
		<g transform="scale(1.5)">
			<path class="st0" d="M204.4,61.3c-1.6-1.4-3.3-2.7-5.1-3.8c-0.4,1.8-0.6,3.6-1.1,5.3c-0.8,1.6-1.1,3.5-2.2,5
				c2.2,0.2,4.3,0.1,6.5-0.2c2.3-0.3,4.5-0.7,6.7-1.4C207.8,64.5,206.2,62.8,204.4,61.3z"/>
			<path class="st0" d="M194.4,70.3c-1,1.5-2.4,2.7-3.6,4.1c-1.5,1-2.8,2.3-4.4,3.2c1.8,1.2,3.7,2.2,5.7,3.1
				c2.1,0.9,4.3,1.7,6.5,2.2c-0.4-2.3-0.9-4.5-1.6-6.7C196.4,74.1,195.5,72.2,194.4,70.3z"/>
			<path class="st0" d="M173.2,81.3c1,1.9,2.1,3.7,3.4,5.4c1.3,1.9,2.8,3.6,4.5,5.2c0.8-2.1,1.5-4.3,2-6.6c0.5-2.1,0.7-4.3,0.7-6.4
				c-1.6,1-3.4,1.1-5.1,1.7C176.9,81.1,175,81.1,173.2,81.3z"/>
			<path class="st0" d="M159.9,77.9c-0.2,2.2-0.1,4.3,0.1,6.5c0.3,2.3,0.7,4.5,1.4,6.7c1.8-1.4,3.5-3,5-4.6c1.4-1.6,2.7-3.4,3.9-5.2
				c-1.8-0.2-3.6-0.6-5.3-1.1C163.2,79.5,161.5,78.8,159.9,77.9z"/>
			<path class="st0" d="M153.4,72.7c-1.2-1.3-2.3-2.8-3.2-4.4c-1.2,1.8-2.3,3.7-3.1,5.7c-0.9,2.1-1.6,4.2-2.2,6.4
				c2.3-0.3,4.5-0.8,6.6-1.5c2.1-0.7,4.1-1.5,6-2.6C156,75.3,154.6,74,153.4,72.7z"/>
			<path class="st0" d="M147.1,60.5c-0.4-1.8-0.6-3.6-0.6-5.4c-1.9,1-3.8,2.1-5.6,3.4c-1.8,1.4-3.5,2.9-5.1,4.5
				c2.1,0.8,4.3,1.5,6.5,2c2.1,0.4,4.3,0.7,6.5,0.8C148.1,64,147.5,62.2,147.1,60.5z"/>
			<path class="st0" d="M141.4,48.2c1.6,1.4,3.4,2.7,5.2,3.9c0.2-1.8,0.6-3.6,1.1-5.3c0.6-1.7,1.3-3.4,2.2-5
				c-2.2-0.2-4.3-0.1-6.5,0.1c-2.3,0.3-4.5,0.7-6.7,1.3C138.2,45,139.7,46.7,141.4,48.2z"/>
			<path class="st0" d="M147.5,26.7c0.3,2.2,0.8,4.5,1.5,6.6c0.7,2.1,1.5,4.1,2.6,6c1.1-1.5,2.3-2.9,3.6-4c1.3-1.2,2.8-2.3,4.4-3.3
				c-1.8-1.2-3.7-2.3-5.7-3.1C151.9,27.9,149.7,27.2,147.5,26.7z"/>
			<path class="st0" d="M165,17.7c-0.8,2.1-1.5,4.3-2,6.5c-0.4,2.1-0.7,4.3-0.8,6.5c1.7-0.7,3.4-1.3,5.2-1.7
				c1.8-0.4,3.6-0.5,5.4-0.6c-1-1.9-2.1-3.8-3.4-5.6C168.1,21,166.6,19.3,165,17.7z"/>
			<path class="st0" d="M184.7,18.7c-1.8,1.4-3.5,2.9-5,4.6c-1.4,1.6-2.7,3.4-3.9,5.2c1.8,0.2,3.6,0.6,5.3,1.1
				c1.7,0.6,3.4,1.3,5,2.2c0.2-2.2,0.1-4.3-0.1-6.5C185.8,23.1,185.4,20.9,184.7,18.7z"/>
			<path class="st0" d="M192.7,37.2c1.2,1.3,2.3,2.8,3.2,4.4c1.2-1.8,2.3-3.7,3.1-5.7c0.9-2.1,1.7-4.2,2.2-6.4
				c-2.2,0.3-4.4,0.8-6.6,1.5c-2.1,0.7-4.1,1.5-6,2.5C190.1,34.6,191.5,35.8,192.7,37.2z"/>
			<path class="st0" d="M198.9,49.4c0.3,1.8,0.5,3.6,0.6,5.4c1.9-1,3.8-2.1,5.6-3.3c1.8-1.4,3.5-2.9,5.1-4.5c-2.1-0.8-4.3-1.5-6.5-2
				c-2.1-0.4-4.3-0.7-6.5-0.8C197.9,45.9,198.5,47.6,198.9,49.4z"/>
			<circle class="st0" cx="173" cy="54.8" r="21.3"/>
			<path class="st0" d="M271.8,108.3c-3.4-2.6-5.4-6.5-5.4-10.8c0-0.1,0-0.1,0-0.2c-1,1.6-1.6,3.4-1.6,5.3c0,0.3,0,0.5,0,0.7
				c-8,0.7-14.3,6.4-14.3,13.5c0,7.5,7.1,12.8,15.8,12.8l38.7-0.1c8.7,0,13.3-4.9,13.3-11c0-2.2-0.6-4.4-1.9-6.2h-32.3
				C279.8,112.3,275.4,110.9,271.8,108.3z"/>
			<path class="st0" d="M331.5,92.9c-1.8-1.6-4.6-2.7-8.6-2.7c-0.8,0-1.5,0-2.3,0.1l-2,0.2l-0.3-2c-0.7-5.2-5.5-8.9-10.7-8.2
				c-1.8,0.2-3.4,1-4.8,2.1l-2.5,2.1l-0.8-3.2c-1-4-5.1-6.5-9.2-5.5c-3.4,0.8-5.7,3.9-5.7,7.3c0,0.2,0,0.3,0,0.6l0.1,2l-2,0.2
				c-7.2,0.6-12.4,5.7-12.4,11.4c0,3,1.5,5.8,3.9,7.6c2.9,2.1,6.3,3.2,9.9,3.1l38.7,0c4,0,6.8-1.1,8.6-2.7c3.4-3.3,3.6-8.7,0.3-12.1
				C331.8,93.1,331.7,93,331.5,92.9z"/>
			<polygon class="st0" points="75.6,141.8 73.3,126.6 64.2,125.9 66.2,141.5 			"/>
			<polygon class="st0" points="87.6,142.1 85.2,127.5 76.7,126.8 79,141.9 			"/>
			<polygon class="st0" points="98.9,142.5 96.3,128.3 88.3,127.7 90.8,142.2 			"/>
			<polygon class="st0" points="109.3,142.8 106.6,129.1 99.2,128.5 101.8,142.6 			"/>
			<polygon class="st0" points="68.9,161.6 78.4,161.3 76.1,145.2 66.7,145 			"/>
			<polygon class="st0" points="81.9,161.2 90.8,160.9 88.2,145.4 79.5,145.2 			"/>
			<polygon class="st0" points="99.4,145.6 91.4,145.5 94,160.9 102.2,160.6 			"/>
			<polygon class="st0" points="105.2,160.5 112.9,160.3 109.9,145.9 102.4,145.7 			"/>
			<polygon class="st0" points="69.4,165.3 71.7,183 81.5,182.1 79,164.9 			"/>
			<polygon class="st0" points="82.5,164.8 85.1,181.8 94.1,181 91.4,164.4 			"/>
			<polygon class="st0" points="105.8,179.9 102.8,164 94.6,164.3 97.4,180.7 			"/>
			<polygon class="st0" points="108.8,179.6 116.6,178.9 113.5,163.6 105.9,163.9 			"/>
			<polygon class="st0" points="133.8,129.1 131.1,110.6 119.9,109.7 122.4,128.8 			"/>
			<polygon class="st0" points="148.6,129.6 145.6,111.7 135.2,110.9 138,129.3 			"/>
			<polygon class="st0" points="162.4,130 159.2,112.7 149.5,112 152.5,129.7 			"/>
			<polygon class="st0" points="175.2,130.4 171.8,113.7 162.7,113 166,130.1 			"/>
			<polygon class="st0" points="125.7,153.4 137.4,153.1 134.5,133.3 123,133.1 			"/>
			<polygon class="st0" points="141.6,153 152.5,152.7 149.3,133.6 138.7,133.4 			"/>
			<polygon class="st0" points="163.1,133.9 153.2,133.7 156.4,152.5 166.5,152.3 			"/>
			<polygon class="st0" points="170.2,152.2 179.5,151.9 176,134.2 166.7,134 			"/>
			<polygon class="st0" points="126.3,158 129.1,179.7 141.1,178.6 138,157.5 			"/>
			<polygon class="st0" points="142.3,157.4 145.5,178.2 156.6,177.2 153.2,156.9 			"/>
			<polygon class="st0" points="170.9,175.9 167.3,156.4 157.2,156.8 160.6,176.8 			"/>
			<polygon class="st0" points="174.6,175.5 184.1,174.6 180.3,155.9 171,156.2 			"/>
			<path class="st0" d="M722.8,164.4c1.1,0.5,3.3-1.7,4.8-4.9s6.4-16,5.3-16.5s-7.8,11.4-9.3,14.6S721.7,163.9,722.8,164.4z"/>
			<path class="st0" d="M724.1,168.9c-1,0.7-0.2,3.7,1.9,6.6s10.7,13.5,11.7,12.8s-5.9-12.4-8-15.4S725.1,168.2,724.1,168.9z"/>
			<path class="st0" d="M712.5,169.2c3.6-0.3,6.4-1.6,6.3-2.8s-3.1-2-6.7-1.7s-17,2.5-16.9,3.7S708.9,169.6,712.5,169.2z"/>
			<path class="st0" d="M720.6,169.2c1,0.4,2.2,0,2.6-1c0.4-1,0-2.2-1-2.6c-1-0.4-2.1,0-2.6,1C719.1,167.5,719.6,168.7,720.6,169.2z
				"/>
			<path class="st0" d="M637.2,116c2.9-0.2,4.7-7.1,4-15.4s-5.4-39.3-8.3-39.1s-2.7,31.7-2,39.9S634.4,116.2,637.2,116z"/>
			<path class="st0" d="M656.1,134.7c2.8,1.3,8.5,3.7,14.7,6.1c-2,4.4-2.3,8.5-0.8,9.2s4.6-2.4,6.8-7l0,0c8.7,3.1,16.7,5.4,17.3,4.1
				s-6.5-6.2-14.5-11.1c2.6-6.9,5.6-15.8,4.5-16.3s-5.8,7.1-9.3,13.4c-5.8-3.4-11.5-6.4-14.3-7.8c-7.5-3.6-14.6-4.4-15.8-1.8
				S648.6,131.1,656.1,134.7z"/>
			<path class="st0" d="M622,137.4c6.8-4.7,11.1-10.4,9.5-12.8s-8.5-0.5-15.3,4.2s-31.3,24.4-29.7,26.8S615.2,142.1,622,137.4z"/>
			<path class="st0" d="M637.5,118.8c-2.6,0.2-4.5,2.5-4.4,5.1c0.2,2.6,2.5,4.5,5.1,4.4c2.6-0.2,4.5-2.5,4.4-5.1c0,0,0,0,0,0
				C642.4,120.5,640.1,118.6,637.5,118.8z"/>
			<path class="st0" d="M671.7,156.3c-1.4,1-0.3,5.2,2.7,9.4s15,19.1,16.5,18.1s-8.4-17.5-11.3-21.7S673.2,155.3,671.7,156.3z"/>
			<path class="st0" d="M669.3,151.5c-1.4-0.7-3.2-0.1-3.8,1.4c-0.7,1.4-0.1,3.2,1.4,3.8l0,0c1.4,0.7,3.2,0.1,3.8-1.4
				C671.4,153.9,670.7,152.2,669.3,151.5z"/>
			<path class="st0" d="M792.1,145.2l6.1-6.1c-0.8-2.9-2.3-5.6-4.4-7.8c-0.3-0.4-0.7-0.7-1.1-1c-1,2-3,4.8-4.7,8.7
				c0.4,0.6,0.9,1.3,1.3,1.9C790.3,142.2,791.2,143.6,792.1,145.2z"/>
			<path class="st0" d="M774.7,160c0.4,0.4,0.8,0.7,1.3,1l0.2,0.1l6.3-6.4c-0.6-1.2-1-2.5-1.4-3.8c-1.4-4.4-2-8.9-1.7-13.5l0,0
				c0.1,5.7,1.5,11.3,4,16.3l7.3-7.4c-3.9-6.6-8.7-10.6-9.6-21.5c-5.8,7.9-11.1,17.8-10.1,26.1C771.3,153.9,772.4,157.8,774.7,160z"
				/>
			<path class="st0" d="M916,194.5h-87.4v-22.3c0-0.2,0-0.3,0-0.5h4c3.2,0,3.9-1.8,1.6-4L808,142.4c-2.3-2.2-6-2.2-8.4,0l-26.1,25.3
				c-2.3,2.2-1.6,4,1.6,4h4c0,0.2,0,0.3,0,0.5v22.2h-52.9c-1.1-11-2.9-23.5-4.9-23.5s-3.8,12.5-4.9,23.5h-41.5
				c-1.5-15.9-4.1-35.1-7.1-35.1s-5.5,19.2-7,35.1h-10c-1-12.1-2.5-25.9-4.3-37.4c3.8,0,7.2-0.1,8.9-0.3c5-0.4,9-2.2,8.9-4
				s-4.4-2.8-9.4-2.4c-1.8,0.2-5.4,0.6-9.3,1.3c-2-11.2-4.3-19.2-6.8-19.1c-2.7,0-5.3,9.6-7.3,22.6c-0.2,0.1-0.4,0.3-0.4,0.5
				c0,0.1,0.1,0.3,0.3,0.3c-1.9,11.7-3.4,26-4.4,38.5h-58.6v-6.7c0.6-0.1,1.2-0.1,1.8-0.3c9.5-1.9,15.7-11.1,13.9-20.6
				s-11.1-15.7-20.6-13.9c-9.5,1.9-15.7,11.1-13.9,20.6c1.3,6.8,6.6,12.2,13.3,13.8c0.3,0.1,0.7,0.1,1,0.2v7h-29.5c0-2.2,0-4.9,0-7
				c6.1-2.5,9.2-12.8,9.2-21.1c0-9.6-8.4-42.3-12.3-42.2c-2.9,0-11.9,23.2-11.9,42.3c0,8.5,3.3,19,9.6,21.2v6.9h-19.7l-0.1-50
				c0-2.2-1.8-4-4-3.9l-34,0.1c-2.2,0-4,1.8-4,4l0.1,50h-12.2L455,71c0-2.2-1.8-4-4-4l-35,0.1c-2.2,0-4,1.8-4,4l0.2,123.4H400
				l-0.1-68.8c0-2.8-2.3-5.2-5.2-5.2h0l-44.3,0.1c-2.8,0-5.2,2.3-5.1,5.2c0,0,0,0,0,0l0.1,68.7h-10.7l-0.1-48.3c0-2.2-1.8-4-4-3.9
				l-34,0.1c-2.2,0-4,1.8-4,4l0.1,48.2h-29.7c-0.2-0.3-0.3-0.7-0.3-1.1v-6.8c0-1,0.8-1.9,1.8-2.1l0,0c9.5-1.9,15.7-11.1,13.9-20.6
				c-1.9-9.5-11.1-15.7-20.6-13.9c-9.5,1.9-15.7,11.1-13.9,20.6c1.3,6.8,6.6,12.2,13.3,13.8c0.3,0.1,0.6,0.1,1,0.2v8.8
				c0,0.4-0.1,0.8-0.4,1.2h-29.8c-0.3-0.4-0.5-0.9-0.5-1.4v-7.3c0-0.8,0.4-1.5,1.1-1.9c5.4-3.2,8.1-12.7,8.1-20.6
				c0-9.6-8.4-42.3-12.3-42.2c-2.9,0-11.9,23.2-11.9,42.3c0,8,2.9,17.6,8.4,20.7c0.7,0.4,1.2,1.1,1.2,1.9v8.6h-61.3v-13.2l-9,0.8
				c0,0,0,7.6,0,12.4H97.6c0-4.2,0-10.2,0-10.2l-7.4,0.6c0,0,0,5.6,0,9.5H-10 M809.8,175h6.5c1.4,0,2.6,1.2,2.6,2.6c0,0,0,0,0,0v6.5
				c0,1.4-1.2,2.6-2.6,2.6c0,0,0,0,0,0h-6.5c-1.4,0-2.6-1.2-2.6-2.6c0,0,0,0,0,0v-6.5C807.2,176.2,808.3,175,809.8,175
				C809.8,175,809.8,175,809.8,175z M502.4,172.2c0,1.4-1.1,2.6-2.6,2.6h-6.4c-1.4,0-2.6-1.1-2.6-2.6c0,0,0,0,0,0v-6.4
				c0-1.4,1.2-2.6,2.6-2.6h6.4c1.4,0,2.6,1.2,2.6,2.6L502.4,172.2L502.4,172.2z M493.4,146.3h6.4c1.4,0,2.6,1.1,2.6,2.6v6.4
				c0,1.4-1.1,2.6-2.6,2.6h-6.4c-1.4,0-2.6-1.1-2.6-2.6c0,0,0,0,0,0v-6.4C490.9,147.4,492,146.3,493.4,146.3L493.4,146.3z
				 M486.5,172.2c0,1.4-1.1,2.6-2.6,2.6h-6.4c-1.4,0-2.6-1.1-2.6-2.6c0,0,0,0,0,0v-6.4c0-1.4,1.2-2.6,2.6-2.6h6.4
				c1.4,0,2.6,1.2,2.6,2.6L486.5,172.2L486.5,172.2z M477.5,146.3h6.4c1.4,0,2.6,1.1,2.6,2.6v6.4c0,1.4-1.1,2.6-2.6,2.6h-6.4
				c-1.4,0-2.6-1.1-2.6-2.6c0,0,0,0,0,0v-6.4C474.9,147.5,476.1,146.3,477.5,146.3C477.5,146.3,477.5,146.3,477.5,146.3L477.5,146.3
				z M448.2,98.8c0,1.4-1.2,2.6-2.6,2.6h-6.4c-1.4,0-2.6-1.2-2.6-2.6v-6.3c0-1.4,1.2-2.6,2.6-2.6h6.4c1.4,0,2.6,1.2,2.6,2.6V98.8
				L448.2,98.8z M439.2,72.8h6.4c1.4,0,2.6,1.2,2.6,2.6v6.4c0,1.4-1.2,2.6-2.6,2.6h-6.4c-1.4,0-2.6-1.2-2.6-2.6v-6.4
				C436.6,74,437.8,72.9,439.2,72.8C439.2,72.9,439.2,72.9,439.2,72.8L439.2,72.8z M432.3,98.8c0,1.4-1.2,2.6-2.6,2.6h-6.4
				c-1.4,0-2.6-1.2-2.6-2.6v-6.4c0-1.4,1.1-2.6,2.6-2.6h0h6.4c1.4,0,2.6,1.2,2.6,2.6L432.3,98.8L432.3,98.8z M423.3,72.9h6.4
				c1.4,0,2.6,1.2,2.6,2.6v6.4c0,1.4-1.2,2.6-2.6,2.6h-6.4c-1.4,0-2.6-1.2-2.6-2.6v-6.4C420.7,74,421.9,72.9,423.3,72.9
				C423.3,72.9,423.3,72.9,423.3,72.9L423.3,72.9z M394.2,168.9c0,1.4-1.2,2.6-2.6,2.6h-6.4c-1.4,0-2.6-1.2-2.6-2.6v-6.4
				c0-1.4,1.1-2.6,2.6-2.6c0,0,0,0,0,0h6.4c1.4,0,2.6,1.2,2.6,2.6V168.9L394.2,168.9z M394.2,153.1c0,1.4-1.2,2.6-2.6,2.6h-6.4
				c-1.4,0-2.6-1.1-2.6-2.6v-6.3c0-1.4,1.2-2.6,2.6-2.6h6.4c1.4,0,2.6,1.1,2.6,2.6V153.1L394.2,153.1z M385.2,127.2h6.4
				c1.4,0,2.6,1.2,2.6,2.6v6.4c0,1.4-1.1,2.6-2.6,2.6c0,0,0,0,0,0h-6.4c-1.4,0-2.6-1.1-2.6-2.6c0,0,0,0,0,0v-6.4
				C382.6,128.4,383.8,127.2,385.2,127.2L385.2,127.2z M378.3,168.9c0,1.4-1.1,2.6-2.6,2.6h-6.4c-1.4,0-2.6-1.2-2.6-2.6v-6.3
				c0-1.4,1.1-2.6,2.6-2.6h0h6.4c1.4,0,2.6,1.2,2.6,2.6V168.9L378.3,168.9z M378.3,153.1c0,1.4-1.1,2.6-2.6,2.6h-6.4
				c-1.4,0-2.6-1.1-2.6-2.6v-6.4c0-1.4,1.1-2.6,2.6-2.6h6.4c1.4,0,2.6,1.1,2.6,2.6V153.1z M369.3,127.2h6.4c1.4,0,2.6,1.2,2.6,2.6
				v6.4c0,1.4-1.1,2.6-2.6,2.6c0,0,0,0,0,0h-6.4c-1.4,0-2.6-1.1-2.6-2.6c0,0,0,0,0,0v-6.4C366.7,128.4,367.9,127.3,369.3,127.2
				L369.3,127.2z M362.4,169c0,1.4-1.2,2.6-2.6,2.6h-6.4c-1.4,0-2.6-1.2-2.6-2.6v-6.4c0-1.4,1.1-2.6,2.6-2.6c0,0,0,0,0,0h6.4
				c1.4,0,2.6,1.1,2.6,2.6c0,0,0,0,0,0L362.4,169L362.4,169z M362.4,153.2c0,1.4-1.2,2.6-2.6,2.6h-6.4c-1.4,0-2.6-1.1-2.6-2.6v-6.4
				c0-1.4,1.2-2.6,2.6-2.6h6.4c1.4,0,2.6,1.1,2.6,2.6c0,0,0,0,0,0L362.4,153.2L362.4,153.2z M353.4,127.3h6.4c1.4,0,2.6,1.1,2.6,2.6
				c0,0,0,0,0,0v6.4c0,1.4-1.2,2.6-2.6,2.6h-6.4c-1.4,0-2.6-1.1-2.6-2.6v-6.4C350.8,128.5,351.9,127.3,353.4,127.3
				C353.3,127.3,353.3,127.3,353.4,127.3L353.4,127.3z M327.9,174c0,1.4-1.2,2.6-2.6,2.6h-6.4c-1.4,0-2.6-1.1-2.6-2.6c0,0,0,0,0,0
				v-6.4c0-1.4,1.2-2.6,2.6-2.6h6.4c1.4,0,2.6,1.2,2.6,2.6L327.9,174L327.9,174z M318.9,148.1h6.4c1.4,0,2.6,1.1,2.6,2.6v6.3
				c0,1.4-1.2,2.6-2.6,2.6h-6.4c-1.4,0-2.6-1.2-2.6-2.6v-6.4C316.3,149.2,317.4,148,318.9,148.1C318.8,148,318.9,148,318.9,148.1
				L318.9,148.1z M311.9,174c0,1.4-1.2,2.6-2.6,2.6H303c-1.4,0-2.6-1.1-2.6-2.6c0,0,0,0,0,0v-6.4c0-1.4,1.2-2.6,2.6-2.6h6.4
				c1.4,0,2.6,1.2,2.6,2.6L311.9,174L311.9,174z M302.9,148.1h6.4c1.4,0,2.6,1.1,2.6,2.6v6.3c0,1.4-1.2,2.6-2.6,2.6H303
				c-1.4,0-2.6-1.1-2.6-2.6v-6.4C300.4,149.2,301.5,148.1,302.9,148.1L302.9,148.1z"/>
			<rect x="12.3" y="194.5" class="st0" width="846" height="5.7"/>
		</g>
	</g>
	<g id="car" transform="translate(90, -20)">
		<g transform="scale(1.1)">
			<g>
				<g id="XMLID_12_">
					<g>
						<path class="st1" d="M70.6,158.8c-1.6-1-2.1-3.2-1.1-4.8c1-1.6,3.2-2.1,4.8-1l10.2,6.5l6.5-10.2l-10.2-6.5
							c-1.6-0.9-2.1-3.2-1.1-4.8c1.1-1.6,3.2-2.1,4.8-1.1l10.2,6.5l0.5-0.9c2.2-3.4,6.8-4.5,10.3-2.3l7.4,4.7l0.1,0.1
							c0.1,0.1,0.2,0.1,0.3,0.1c9,5.7,12.3,17.1,8.2,26.6c1.2,1.3,2.3,2.3,3.4,3c2.6,1.6,4.6,1.7,7.1,1c3.8-1,8.1-4.4,12.8-7
							c2.4-1.3,4.9-2.5,7.8-2.8c2.4-0.4,5-0.1,7.4,1.2c-0.1,2.4-0.2,4.7-0.3,7c-2-2-5.6-2.4-8-1.7c-3.6,1.1-8,4.5-12.8,7.1
							c-2.4,1.3-5.1,2.4-8.1,2.7c-3,0.3-6.1-0.3-9.2-2.3c-1.1-0.7-2.3-1.6-3.4-2.8c-6.8,8-18.7,10-27.9,4.2
							c-0.1-0.1-0.1-0.1-0.2-0.2c0,0-0.1,0-0.1,0l-7.4-4.7c-3.5-2.2-4.5-6.8-2.4-10.3l0.6-0.9L70.6,158.8z"/>
						<g id="car_1_">
							<path class="st1" d="M515.4,173.9c-0.7,19.8-2.5,37.3-2.5,37.3c-0.2,2.7-14.4,3.8-31.6,4.1c-4.4,0.1-8.9,0.1-13.5,0.1
								c-23.7-0.1-47.8-1.1-47.8-1.1l-29.6,0.3l-16.9,0.2l-108.1,1l-77.6,0.7l-24.9,0.2c0,0-7.4-40.8-2.2-55.4
								c5.2-14.6,0.3-17.1,1.8-22.5c1.2-4.2,14.1-10.2,14.1-10.2c52.4-72.9,168.8-52.1,190.9-44.7c12.7,4.3,51.4,37.8,51.4,37.8
								l29.2,2.2C507.5,134.6,515.4,173.9,515.4,173.9z"/>
							<path class="st2" d="M482.6,203.5c0,4.1-0.4,8-1.3,11.9c-4.4,0.1-8.9,0.1-13.5,0.1c-23.7-0.1-47.8-1.1-47.8-1.1l-29.6,0.3
								l-16.9,0.2c-0.8-3.6,0.7-16.3,0.9-20.2c1.7-25.1,22.6-46.2,53-46.2C457.9,148.4,482.6,173.1,482.6,203.5z"/>
							<path class="st2" d="M285.4,204.2c0,4.1-0.4,8-1.3,11.9c-4.4,0.1-8.9,0.1-13.5,0.1c-23.7-0.1-47.8-1.1-47.8-1.1l-29.6,0.3
								l-16.9,0.2c-0.8-3.6,0.7-16.3,0.9-20.2c1.7-25.1,22.6-46.2,53-46.2C260.7,149,285.4,173.7,285.4,204.2z"/>
							<path class="st3" d="M499.2,158.8c2.6-3.1-3.7-9.4-13-14.9c-6.7-4-12.1-3-13.3-0.6c-1.2,2.3-0.3,7.8,6.2,11.2
								C492,161.3,498.6,159.6,499.2,158.8z"/>
							<path class="st4" d="M398.8,121.7l-39.2-37.8c0,0,6.4,1.7,11.5,4.8c12.3,7.6,44.2,33.4,44.2,33.4L398.8,121.7z"/>
							<path class="st5" d="M238.9,88c0,0-31.2,10-36.5,28.8c0,0-2.4,9,1.2,9.7c3.6,0.7,47.8-0.1,47.8-0.1L238.9,88z"/>
							<path class="st4" d="M238.9,88c0,0-11.4,21.9-7.2,33.8c0,0,1.9,4.7,12.9,4.7c10.9,0,143.8-2.9,143.8-2.9l-37.7-39.4
								C350.7,84.1,293,72.6,238.9,88z"/>
							<path class="st5" d="M396.8,130c0,0-4.9,0.5-6.7-5.1c-1.7-5.6-1.2-14.2-6.6-12.7c-5.3,1.5-13.6,7-12,11
								c1.6,4,11.7,3.7,11.7,3.7s0.6,6.3,2.8,7.3c2.2,1,11.1,1.1,11.6-0.6C398.2,131.9,398.1,130.1,396.8,130z"/>
							<path class="st6" d="M162.3,140.6c0,0,18.5-4.9,19.9,1.7c1.3,6.6-20.2,20.9-21.1,18.2C160.1,157.7,162.3,140.6,162.3,140.6z"
								/>
							<path class="st4" d="M512.8,213.5c-0.8,1.6-18.2,2.7-45,3.4c-21.1,0.5-48.1,0.9-77.2,1c-40.9,0.2-86,0.1-125.2-0.1
								c-31.2-0.2-58.7-0.4-77.3-0.7c-14.2-0.2-23.3-0.4-25.1-0.5c-3.7-0.3-4.1-9.7-2.1-14.2c0.4-0.8,11.6-0.9,30-0.6
								c18.5,0.2,44.2,0.7,73.2,1.1c22.6,0.2,47.2,0.3,71.8,0.1c19.5-0.2,39.1-0.6,57.7-1.1c26.8-0.7,51.7-1.7,71.8-2.6
								c28.9-1.2,47.9-2.3,48.7-2.2C517.6,197.7,512.8,213.5,512.8,213.5z"/>
							<path class="st7" d="M265.4,217.9c-31.2-0.2-58.7-0.4-77.3-0.7c0.4-4,1.2-9.5,2.8-15.3c4.6-16.9,15.9-36.8,43.9-31.5
								c18.9,3.5,26.5,18.3,29.3,32.6C265,208.2,265.4,213.3,265.4,217.9z"/>
							<path class="st7" d="M467.8,216.9c-21.1,0.5-48.1,0.9-77.2,1c0.4-4.3,1.3-10,3-16c4.8-17.3,16.2-36.9,43.6-31.6
								c16.8,3.3,24.7,15.8,28.2,29C466.9,205.4,467.6,211.5,467.8,216.9z"/>
							<path class="st7" d="M342.5,138.8c0,1.3-1.1,2.4-2.4,2.4h-17c-1.3,0-2.4-1.1-2.4-2.4l0,0c0-1.3,1.1-2.4,2.4-2.4h17
								C341.4,136.4,342.5,137.5,342.5,138.8L342.5,138.8z"/>
						</g>
						<path class="st4" d="M258.6,205.3c0,17.2-14,31.2-31.2,31.2c-17.2,0-31.2-14-31.2-31.2c0-17.2,14-31.2,31.2-31.2
							C244.6,174.1,258.6,188.1,258.6,205.3z"/>
						<path class="st4" d="M461,205.3c0,17.2-14,31.2-31.2,31.2c-17.2,0-31.2-14-31.2-31.2c0-17.2,14-31.2,31.2-31.2
							C447.1,174.1,461,188.1,461,205.3z"/>
					</g>
				</g>
				<path id="llantaD_1_" class="st8" d="M449.7,205.3c0,11-8.9,19.9-19.9,19.9c-11,0-19.9-8.9-19.9-19.9c0-11,8.9-19.9,19.9-19.9
					C440.8,185.4,449.7,194.3,449.7,205.3z"/>
				<path id="llantaT_1_" class="st8" d="M247.3,205.3c0,11-8.9,19.9-19.9,19.9c-11,0-19.9-8.9-19.9-19.9c0-11,8.9-19.9,19.9-19.9
					C238.4,185.4,247.3,194.3,247.3,205.3z"/>
				<script>var angle = 0;
					var llantaD = document.getElementById(&quot;llantaD&quot;);
					var llantaT = document.getElementById(&quot;llantaT&quot;);
					setInterval(move, 50);
					function move()
					{ 
						llantaD.setAttribute(&apos;transform&apos;, &apos;translate(433, 207), rotate(&apos;+angle+&apos;)&apos;);
						llantaT.setAttribute(&apos;transform&apos;, &apos;translate(213, 207), rotate(&apos;+angle+&apos;)&apos;);
						angle+=3;								
					}
					</script>
			</g>
		</g>
	</g>
	<g transform="translate(780, 280) scale(0.25)">
		<path id="circle2" class="st9" d="M88.4,88c2.5-2.1,2.8-5.9,0.7-8.5c-6.3-7.4-9.7-16.8-9.7-26.5c0-22.6,18.4-41,41-41
			s41,18.4,41,41c0,9.7-3.5,19.2-9.8,26.6c-2.1,2.5-1.8,6.3,0.7,8.5c1.1,1,2.5,1.4,3.9,1.4c1.7,0,3.4-0.7,4.6-2.1
			c8.1-9.6,12.6-21.8,12.6-34.3c0-29.2-23.8-53-53-53s-53,23.8-53,53c0,12.6,4.5,24.7,12.6,34.3C82.1,89.8,85.9,90.1,88.4,88z"/>
		<path id="circle1" class="st9" d="M120.2,41.2c13.2,0,23.8,8.1,27.3,19.9c0.8-2.6,1.2-5.3,1.2-8.1c0-15.6-12.7-28.3-28.3-28.3
			C104.7,24.7,92,37.4,92,53c0,2.6,0.4,5.2,1,7.6C96.7,49.1,107.2,41.2,120.2,41.2z"/>
		<path class="st1" d="M234.2,169.9c-3.8-22.5-19.6-26-27-26.5c-2.3-0.1-4.5-1.3-5.8-3.3c-5.4-8.2-12.6-10.4-18.7-10.4
			c-4.4,0-8.2,1.1-10.4,1.9c-0.3,0.1-0.6,0.1-0.8,0.1c-0.9,0-1.7-0.5-2.2-1.3c-5.5-9.4-13.3-11.8-19.8-11.8c-3.8,0-7.2,0.8-9.5,1.6
			c-0.2,0.1-0.8,0.1-1,0.1c-1.3,0-2.6-1-2.6-2.4V69.8c0-11-8.2-16.6-16.5-16.6s-16.5,5.5-16.5,16.6v84.9c0,5-3.8,8.1-7.9,8.1
			c-2.5,0-4.9-1.1-6.6-3.7l-7.9-12.3c-3.5-5.8-8.6-8.2-13.6-8.2c-11.4,0-22.6,12.3-14.6,25.3L115,283.6c0.4,0.8,1.2,1.4,2.1,1.4
			h87.8c1.3,0,2.3-1.1,2.4-2.3l2.2-35.8c0-0.4,0.2-0.8,0.4-1.2C231.6,212.7,237.8,191.4,234.2,169.9z"/>
	</g>
	<script>var opacity1 = 0;
		var opacity2 = 0;
		var circle1 = document.getElementById(&quot;circle1&quot;);
		var circle2 = document.getElementById(&quot;circle2&quot;);
		var isFirstCity = true;
		var pos = -50;
		var pos2 = 1150;
		setInterval(moveCity, 40);
		setInterval(opacity, 50);
		function opacity()
		{ 
			if (opacity1 &lt; 1){
				circle1.setAttribute(&apos;opacity&apos;, opacity1);
				opacity1+=0.1;
			}
			else if (opacity2 &lt; 1){
				if (opacity1 &gt; 1 || opacity1 == 1){
					circle2.setAttribute(&apos;opacity&apos;, opacity2); 
					opacity2+=0.08;
				}
			}
			else if (opacity2 &gt; 1 || opacity2 == 1){
				opacity1=0;
				opacity2=0;
				circle1.setAttribute(&apos;opacity&apos;, opacity1);
				circle2.setAttribute(&apos;opacity&apos;, opacity2);
			
			}							
		}
		function moveCity()
		{
			if (pos % 1300 == -1250 || pos % 1300 == -1251 ){
					pos = 1150;
			}
			else if (pos2 % 1300 == -1250 || pos2 % 1300 == -1251 ){
					pos2 = 1150;
			}
			var city = document.getElementById(&quot;city&quot;);
			var trans = &apos; translate(&apos; + pos  + &apos;, -180 )&apos;;
			city.setAttribute(&apos;transform&apos;, trans);
			pos -=1;
			
			var city2 = document.getElementById(&quot;city2&quot;);
			var trans2 = &apos; translate(&apos; + pos2  + &apos;, -180 )&apos;;
			city2.setAttribute(&apos;transform&apos;, trans2);
			pos2 -=1;
		}
		</script>
</g>
</svg>
