<?xml version="1.0" encoding="utf-8"?>
<!-- Generator: Adobe Illustrator 25.2.3, SVG Export Plug-In . SVG Version: 6.00 Build 0)  -->
<svg version="1.1" id="Layer_1" xmlns="http://www.w3.org/2000/svg" xmlns:xlink="http://www.w3.org/1999/xlink" x="0px" y="0px"
	 viewBox="0 0 872.7 500" style="enable-background:new 0 0 872.7 500;" xml:space="preserve">
<style type="text/css">
	.st0{fill:#3A8DCC;}
	.st1{fill:#808285;}
	.st2{fill:#939598;}
	.st3{fill:#FFFFFF;}
	.st4{fill:#414042;}
	.st5{fill:#BCBEC0;}
	.st6{fill:#D1D3D4;}
	.st7{opacity:0.5;fill:#FFFFFF;enable-background:new    ;}
	.st8{fill:#E6E7E8;}
	.st9{fill:#ED1C24;}
	.st10{fill:#BE1E2D;}
	.st11{fill:#3A8DCC;fill-opacity:0;}
</style>
<g transform="translate(0, 200)">
	<g id="city" transform="translate(-50, -180)">
		<g transform="scale(1.5)">
			<path class="st0" d="M204.4,61.3c-1.6-1.4-3.3-2.7-5.1-3.8c-0.4,1.8-0.6,3.6-1.1,5.3c-0.8,1.6-1.1,3.5-2.2,5
				c2.2,0.2,4.3,0.1,6.5-0.2c2.3-0.3,4.5-0.7,6.7-1.4C207.8,64.5,206.2,62.8,204.4,61.3z"/>
			<path class="st0" d="M194.4,70.3c-1,1.5-2.4,2.7-3.6,4.1c-1.5,1-2.8,2.3-4.4,3.2c1.8,1.2,3.7,2.2,5.7,3.1
				c2.1,0.9,4.3,1.7,6.5,2.2c-0.4-2.3-0.9-4.5-1.6-6.7C196.4,74.1,195.5,72.2,194.4,70.3z"/>
			<path class="st0" d="M173.2,81.3c1,1.9,2.1,3.7,3.4,5.4c1.3,1.9,2.8,3.6,4.5,5.2c0.8-2.1,1.5-4.3,2-6.6c0.5-2.1,0.7-4.3,0.7-6.4
				c-1.6,1-3.4,1.1-5.1,1.7C176.9,81.1,175,81.1,173.2,81.3z"/>
			<path class="st0" d="M159.9,77.9c-0.2,2.2-0.1,4.3,0.1,6.5c0.3,2.3,0.7,4.5,1.4,6.7c1.8-1.4,3.5-3,5-4.6c1.4-1.6,2.7-3.4,3.9-5.2
				c-1.8-0.2-3.6-0.6-5.3-1.1C163.2,79.5,161.5,78.8,159.9,77.9z"/>
			<path class="st0" d="M153.4,72.7c-1.2-1.3-2.3-2.8-3.2-4.4c-1.2,1.8-2.3,3.7-3.1,5.7c-0.9,2.1-1.6,4.2-2.2,6.4
				c2.3-0.3,4.5-0.8,6.6-1.5s4.1-1.5,6-2.6C156,75.3,154.6,74,153.4,72.7z"/>
			<path class="st0" d="M147.1,60.5c-0.4-1.8-0.6-3.6-0.6-5.4c-1.9,1-3.8,2.1-5.6,3.4c-1.8,1.4-3.5,2.9-5.1,4.5
				c2.1,0.8,4.3,1.5,6.5,2c2.1,0.4,4.3,0.7,6.5,0.8C148.1,64,147.5,62.2,147.1,60.5z"/>
			<path class="st0" d="M141.4,48.2c1.6,1.4,3.4,2.7,5.2,3.9c0.2-1.8,0.6-3.6,1.1-5.3c0.6-1.7,1.3-3.4,2.2-5
				c-2.2-0.2-4.3-0.1-6.5,0.1c-2.3,0.3-4.5,0.7-6.7,1.3C138.2,45,139.7,46.7,141.4,48.2z"/>
			<path class="st0" d="M147.5,26.7c0.3,2.2,0.8,4.5,1.5,6.6s1.5,4.1,2.6,6c1.1-1.5,2.3-2.9,3.6-4c1.3-1.2,2.8-2.3,4.4-3.3
				c-1.8-1.2-3.7-2.3-5.7-3.1C151.9,27.9,149.7,27.2,147.5,26.7z"/>
			<path class="st0" d="M165,17.7c-0.8,2.1-1.5,4.3-2,6.5c-0.4,2.1-0.7,4.3-0.8,6.5c1.7-0.7,3.4-1.3,5.2-1.7
				c1.8-0.4,3.6-0.5,5.4-0.6c-1-1.9-2.1-3.8-3.4-5.6C168.1,21,166.6,19.3,165,17.7z"/>
			<path class="st0" d="M184.7,18.7c-1.8,1.4-3.5,2.9-5,4.6c-1.4,1.6-2.7,3.4-3.9,5.2c1.8,0.2,3.6,0.6,5.3,1.1
				c1.7,0.6,3.4,1.3,5,2.2c0.2-2.2,0.1-4.3-0.1-6.5C185.8,23.1,185.4,20.9,184.7,18.7z"/>
			<path class="st0" d="M192.7,37.2c1.2,1.3,2.3,2.8,3.2,4.4c1.2-1.8,2.3-3.7,3.1-5.7c0.9-2.1,1.7-4.2,2.2-6.4
				c-2.2,0.3-4.4,0.8-6.6,1.5c-2.1,0.7-4.1,1.5-6,2.5C190.1,34.6,191.5,35.8,192.7,37.2z"/>
			<path class="st0" d="M198.9,49.4c0.3,1.8,0.5,3.6,0.6,5.4c1.9-1,3.8-2.1,5.6-3.3c1.8-1.4,3.5-2.9,5.1-4.5c-2.1-0.8-4.3-1.5-6.5-2
				c-2.1-0.4-4.3-0.7-6.5-0.8C197.9,45.9,198.5,47.6,198.9,49.4z"/>
			<circle class="st0" cx="173" cy="54.8" r="21.3"/>
			<path class="st0" d="M271.8,108.3c-3.4-2.6-5.4-6.5-5.4-10.8c0-0.1,0-0.1,0-0.2c-1,1.6-1.6,3.4-1.6,5.3c0,0.3,0,0.5,0,0.7
				c-8,0.7-14.3,6.4-14.3,13.5c0,7.5,7.1,12.8,15.8,12.8l38.7-0.1c8.7,0,13.3-4.9,13.3-11c0-2.2-0.6-4.4-1.9-6.2h-32.3
				C279.8,112.3,275.4,110.9,271.8,108.3z"/>
			<path class="st0" d="M331.5,92.9c-1.8-1.6-4.6-2.7-8.6-2.7c-0.8,0-1.5,0-2.3,0.1l-2,0.2l-0.3-2c-0.7-5.2-5.5-8.9-10.7-8.2
				c-1.8,0.2-3.4,1-4.8,2.1l-2.5,2.1l-0.8-3.2c-1-4-5.1-6.5-9.2-5.5c-3.4,0.8-5.7,3.9-5.7,7.3c0,0.2,0,0.3,0,0.6l0.1,2l-2,0.2
				c-7.2,0.6-12.4,5.7-12.4,11.4c0,3,1.5,5.8,3.9,7.6c2.9,2.1,6.3,3.2,9.9,3.1h38.7c4,0,6.8-1.1,8.6-2.7c3.4-3.3,3.6-8.7,0.3-12.1
				C331.8,93.1,331.7,93,331.5,92.9z"/>
			<polygon class="st0" points="75.6,141.8 73.3,126.6 64.2,125.9 66.2,141.5 			"/>
			<polygon class="st0" points="87.6,142.1 85.2,127.5 76.7,126.8 79,141.9 			"/>
			<polygon class="st0" points="98.9,142.5 96.3,128.3 88.3,127.7 90.8,142.2 			"/>
			<polygon class="st0" points="109.3,142.8 106.6,129.1 99.2,128.5 101.8,142.6 			"/>
			<polygon class="st0" points="68.9,161.6 78.4,161.3 76.1,145.2 66.7,145 			"/>
			<polygon class="st0" points="81.9,161.2 90.8,160.9 88.2,145.4 79.5,145.2 			"/>
			<polygon class="st0" points="99.4,145.6 91.4,145.5 94,160.9 102.2,160.6 			"/>
			<polygon class="st0" points="105.2,160.5 112.9,160.3 109.9,145.9 102.4,145.7 			"/>
			<polygon class="st0" points="69.4,165.3 71.7,183 81.5,182.1 79,164.9 			"/>
			<polygon class="st0" points="82.5,164.8 85.1,181.8 94.1,181 91.4,164.4 			"/>
			<polygon class="st0" points="105.8,179.9 102.8,164 94.6,164.3 97.4,180.7 			"/>
			<polygon class="st0" points="108.8,179.6 116.6,178.9 113.5,163.6 105.9,163.9 			"/>
			<polygon class="st0" points="133.8,129.1 131.1,110.6 119.9,109.7 122.4,128.8 			"/>
			<polygon class="st0" points="148.6,129.6 145.6,111.7 135.2,110.9 138,129.3 			"/>
			<polygon class="st0" points="162.4,130 159.2,112.7 149.5,112 152.5,129.7 			"/>
			<polygon class="st0" points="175.2,130.4 171.8,113.7 162.7,113 166,130.1 			"/>
			<polygon class="st0" points="125.7,153.4 137.4,153.1 134.5,133.3 123,133.1 			"/>
			<polygon class="st0" points="141.6,153 152.5,152.7 149.3,133.6 138.7,133.4 			"/>
			<polygon class="st0" points="163.1,133.9 153.2,133.7 156.4,152.5 166.5,152.3 			"/>
			<polygon class="st0" points="170.2,152.2 179.5,151.9 176,134.2 166.7,134 			"/>
			<polygon class="st0" points="126.3,158 129.1,179.7 141.1,178.6 138,157.5 			"/>
			<polygon class="st0" points="142.3,157.4 145.5,178.2 156.6,177.2 153.2,156.9 			"/>
			<polygon class="st0" points="170.9,175.9 167.3,156.4 157.2,156.8 160.6,176.8 			"/>
			<polygon class="st0" points="174.6,175.5 184.1,174.6 180.3,155.9 171,156.2 			"/>
			<path class="st0" d="M722.8,164.4c1.1,0.5,3.3-1.7,4.8-4.9s6.4-16,5.3-16.5s-7.8,11.4-9.3,14.6S721.7,163.9,722.8,164.4z"/>
			<path class="st0" d="M724.1,168.9c-1,0.7-0.2,3.7,1.9,6.6s10.7,13.5,11.7,12.8s-5.9-12.4-8-15.4S725.1,168.2,724.1,168.9z"/>
			<path class="st0" d="M712.5,169.2c3.6-0.3,6.4-1.6,6.3-2.8s-3.1-2-6.7-1.7s-17,2.5-16.9,3.7S708.9,169.6,712.5,169.2z"/>
			<path class="st0" d="M720.6,169.2c1,0.4,2.2,0,2.6-1c0.4-1,0-2.2-1-2.6c-1-0.4-2.1,0-2.6,1C719.1,167.5,719.6,168.7,720.6,169.2z
				"/>
			<path class="st0" d="M637.2,116c2.9-0.2,4.7-7.1,4-15.4s-5.4-39.3-8.3-39.1s-2.7,31.7-2,39.9S634.4,116.2,637.2,116z"/>
			<path class="st0" d="M656.1,134.7c2.8,1.3,8.5,3.7,14.7,6.1c-2,4.4-2.3,8.5-0.8,9.2s4.6-2.4,6.8-7l0,0c8.7,3.1,16.7,5.4,17.3,4.1
				s-6.5-6.2-14.5-11.1c2.6-6.9,5.6-15.8,4.5-16.3s-5.8,7.1-9.3,13.4c-5.8-3.4-11.5-6.4-14.3-7.8c-7.5-3.6-14.6-4.4-15.8-1.8
				S648.6,131.1,656.1,134.7z"/>
			<path class="st0" d="M622,137.4c6.8-4.7,11.1-10.4,9.5-12.8s-8.5-0.5-15.3,4.2c-6.8,4.7-31.3,24.4-29.7,26.8
				S615.2,142.1,622,137.4z"/>
			<path class="st0" d="M637.5,118.8c-2.6,0.2-4.5,2.5-4.4,5.1c0.2,2.6,2.5,4.5,5.1,4.4c2.6-0.2,4.5-2.5,4.4-5.1l0,0
				C642.4,120.5,640.1,118.6,637.5,118.8z"/>
			<path class="st0" d="M671.7,156.3c-1.4,1-0.3,5.2,2.7,9.4s15,19.1,16.5,18.1s-8.4-17.5-11.3-21.7S673.2,155.3,671.7,156.3z"/>
			<path class="st0" d="M669.3,151.5c-1.4-0.7-3.2-0.1-3.8,1.4c-0.7,1.4-0.1,3.2,1.4,3.8l0,0c1.4,0.7,3.2,0.1,3.8-1.4
				C671.4,153.9,670.7,152.2,669.3,151.5z"/>
			<path class="st0" d="M792.1,145.2l6.1-6.1c-0.8-2.9-2.3-5.6-4.4-7.8c-0.3-0.4-0.7-0.7-1.1-1c-1,2-3,4.8-4.7,8.7
				c0.4,0.6,0.9,1.3,1.3,1.9C790.3,142.2,791.2,143.6,792.1,145.2z"/>
			<path class="st0" d="M774.7,160c0.4,0.4,0.8,0.7,1.3,1l0.2,0.1l6.3-6.4c-0.6-1.2-1-2.5-1.4-3.8c-1.4-4.4-2-8.9-1.7-13.5l0,0
				c0.1,5.7,1.5,11.3,4,16.3l7.3-7.4c-3.9-6.6-8.7-10.6-9.6-21.5c-5.8,7.9-11.1,17.8-10.1,26.1C771.3,153.9,772.4,157.8,774.7,160z"
				/>
			<path class="st0" d="M916,194.5h-87.4v-22.3c0-0.2,0-0.3,0-0.5h4c3.2,0,3.9-1.8,1.6-4L808,142.4c-2.3-2.2-6-2.2-8.4,0l-26.1,25.3
				c-2.3,2.2-1.6,4,1.6,4h4c0,0.2,0,0.3,0,0.5v22.2h-52.9c-1.1-11-2.9-23.5-4.9-23.5s-3.8,12.5-4.9,23.5h-41.5
				c-1.5-15.9-4.1-35.1-7.1-35.1s-5.5,19.2-7,35.1h-10c-1-12.1-2.5-25.9-4.3-37.4c3.8,0,7.2-0.1,8.9-0.3c5-0.4,9-2.2,8.9-4
				s-4.4-2.8-9.4-2.4c-1.8,0.2-5.4,0.6-9.3,1.3c-2-11.2-4.3-19.2-6.8-19.1c-2.7,0-5.3,9.6-7.3,22.6c-0.2,0.1-0.4,0.3-0.4,0.5
				c0,0.1,0.1,0.3,0.3,0.3c-1.9,11.7-3.4,26-4.4,38.5h-58.6v-6.7c0.6-0.1,1.2-0.1,1.8-0.3c9.5-1.9,15.7-11.1,13.9-20.6
				s-11.1-15.7-20.6-13.9c-9.5,1.9-15.7,11.1-13.9,20.6c1.3,6.8,6.6,12.2,13.3,13.8c0.3,0.1,0.7,0.1,1,0.2v7h-29.5c0-2.2,0-4.9,0-7
				c6.1-2.5,9.2-12.8,9.2-21.1c0-9.6-8.4-42.3-12.3-42.2c-2.9,0-11.9,23.2-11.9,42.3c0,8.5,3.3,19,9.6,21.2v6.9h-19.7l-0.1-50
				c0-2.2-1.8-4-4-3.9l-34,0.1c-2.2,0-4,1.8-4,4l0.1,50h-12.2L455,71c0-2.2-1.8-4-4-4l-35,0.1c-2.2,0-4,1.8-4,4l0.2,123.4H400
				l-0.1-68.8c0-2.8-2.3-5.2-5.2-5.2l0,0l-44.3,0.1c-2.8,0-5.2,2.3-5.1,5.2l0,0l0.1,68.7h-10.7l-0.1-48.3c0-2.2-1.8-4-4-3.9l-34,0.1
				c-2.2,0-4,1.8-4,4l0.1,48.2H263c-0.2-0.3-0.3-0.7-0.3-1.1v-6.8c0-1,0.8-1.9,1.8-2.1l0,0c9.5-1.9,15.7-11.1,13.9-20.6
				c-1.9-9.5-11.1-15.7-20.6-13.9c-9.5,1.9-15.7,11.1-13.9,20.6c1.3,6.8,6.6,12.2,13.3,13.8c0.3,0.1,0.6,0.1,1,0.2v8.8
				c0,0.4-0.1,0.8-0.4,1.2H228c-0.3-0.4-0.5-0.9-0.5-1.4V186c0-0.8,0.4-1.5,1.1-1.9c5.4-3.2,8.1-12.7,8.1-20.6
				c0-9.6-8.4-42.3-12.3-42.2c-2.9,0-11.9,23.2-11.9,42.3c0,8,2.9,17.6,8.4,20.7c0.7,0.4,1.2,1.1,1.2,1.9v8.6h-61.3v-13.2l-9,0.8
				c0,0,0,7.6,0,12.4H97.6c0-4.2,0-10.2,0-10.2l-7.4,0.6c0,0,0,5.6,0,9.5H-10 M809.8,175h6.5c1.4,0,2.6,1.2,2.6,2.6l0,0v6.5
				c0,1.4-1.2,2.6-2.6,2.6l0,0h-6.5c-1.4,0-2.6-1.2-2.6-2.6l0,0v-6.5C807.2,176.2,808.3,175,809.8,175L809.8,175z M502.4,172.2
				c0,1.4-1.1,2.6-2.6,2.6h-6.4c-1.4,0-2.6-1.1-2.6-2.6l0,0v-6.4c0-1.4,1.2-2.6,2.6-2.6h6.4c1.4,0,2.6,1.2,2.6,2.6V172.2
				L502.4,172.2z M493.4,146.3h6.4c1.4,0,2.6,1.1,2.6,2.6v6.4c0,1.4-1.1,2.6-2.6,2.6h-6.4c-1.4,0-2.6-1.1-2.6-2.6l0,0v-6.4
				C490.9,147.4,492,146.3,493.4,146.3L493.4,146.3z M486.5,172.2c0,1.4-1.1,2.6-2.6,2.6h-6.4c-1.4,0-2.6-1.1-2.6-2.6l0,0v-6.4
				c0-1.4,1.2-2.6,2.6-2.6h6.4c1.4,0,2.6,1.2,2.6,2.6V172.2L486.5,172.2z M477.5,146.3h6.4c1.4,0,2.6,1.1,2.6,2.6v6.4
				c0,1.4-1.1,2.6-2.6,2.6h-6.4c-1.4,0-2.6-1.1-2.6-2.6l0,0v-6.4C474.9,147.5,476.1,146.3,477.5,146.3L477.5,146.3L477.5,146.3z
				 M448.2,98.8c0,1.4-1.2,2.6-2.6,2.6h-6.4c-1.4,0-2.6-1.2-2.6-2.6v-6.3c0-1.4,1.2-2.6,2.6-2.6h6.4c1.4,0,2.6,1.2,2.6,2.6V98.8
				L448.2,98.8z M439.2,72.8h6.4c1.4,0,2.6,1.2,2.6,2.6v6.4c0,1.4-1.2,2.6-2.6,2.6h-6.4c-1.4,0-2.6-1.2-2.6-2.6v-6.4
				C436.6,74,437.8,72.9,439.2,72.8C439.2,72.9,439.2,72.9,439.2,72.8L439.2,72.8z M432.3,98.8c0,1.4-1.2,2.6-2.6,2.6h-6.4
				c-1.4,0-2.6-1.2-2.6-2.6v-6.4c0-1.4,1.1-2.6,2.6-2.6l0,0h6.4c1.4,0,2.6,1.2,2.6,2.6V98.8L432.3,98.8z M423.3,72.9h6.4
				c1.4,0,2.6,1.2,2.6,2.6v6.4c0,1.4-1.2,2.6-2.6,2.6h-6.4c-1.4,0-2.6-1.2-2.6-2.6v-6.4C420.7,74,421.9,72.9,423.3,72.9L423.3,72.9
				L423.3,72.9z M394.2,168.9c0,1.4-1.2,2.6-2.6,2.6h-6.4c-1.4,0-2.6-1.2-2.6-2.6v-6.4c0-1.4,1.1-2.6,2.6-2.6l0,0h6.4
				c1.4,0,2.6,1.2,2.6,2.6V168.9L394.2,168.9z M394.2,153.1c0,1.4-1.2,2.6-2.6,2.6h-6.4c-1.4,0-2.6-1.1-2.6-2.6v-6.3
				c0-1.4,1.2-2.6,2.6-2.6h6.4c1.4,0,2.6,1.1,2.6,2.6V153.1L394.2,153.1z M385.2,127.2h6.4c1.4,0,2.6,1.2,2.6,2.6v6.4
				c0,1.4-1.1,2.6-2.6,2.6l0,0h-6.4c-1.4,0-2.6-1.1-2.6-2.6l0,0v-6.4C382.6,128.4,383.8,127.2,385.2,127.2L385.2,127.2z
				 M378.3,168.9c0,1.4-1.1,2.6-2.6,2.6h-6.4c-1.4,0-2.6-1.2-2.6-2.6v-6.3c0-1.4,1.1-2.6,2.6-2.6l0,0h6.4c1.4,0,2.6,1.2,2.6,2.6
				V168.9L378.3,168.9z M378.3,153.1c0,1.4-1.1,2.6-2.6,2.6h-6.4c-1.4,0-2.6-1.1-2.6-2.6v-6.4c0-1.4,1.1-2.6,2.6-2.6h6.4
				c1.4,0,2.6,1.1,2.6,2.6V153.1z M369.3,127.2h6.4c1.4,0,2.6,1.2,2.6,2.6v6.4c0,1.4-1.1,2.6-2.6,2.6l0,0h-6.4
				c-1.4,0-2.6-1.1-2.6-2.6l0,0v-6.4C366.7,128.4,367.9,127.3,369.3,127.2L369.3,127.2z M362.4,169c0,1.4-1.2,2.6-2.6,2.6h-6.4
				c-1.4,0-2.6-1.2-2.6-2.6v-6.4c0-1.4,1.1-2.6,2.6-2.6l0,0h6.4c1.4,0,2.6,1.1,2.6,2.6l0,0V169L362.4,169z M362.4,153.2
				c0,1.4-1.2,2.6-2.6,2.6h-6.4c-1.4,0-2.6-1.1-2.6-2.6v-6.4c0-1.4,1.2-2.6,2.6-2.6h6.4c1.4,0,2.6,1.1,2.6,2.6l0,0V153.2
				L362.4,153.2z M353.4,127.3h6.4c1.4,0,2.6,1.1,2.6,2.6l0,0v6.4c0,1.4-1.2,2.6-2.6,2.6h-6.4c-1.4,0-2.6-1.1-2.6-2.6v-6.4
				C350.8,128.5,351.9,127.3,353.4,127.3C353.3,127.3,353.3,127.3,353.4,127.3L353.4,127.3z M327.9,174c0,1.4-1.2,2.6-2.6,2.6h-6.4
				c-1.4,0-2.6-1.1-2.6-2.6l0,0v-6.4c0-1.4,1.2-2.6,2.6-2.6h6.4c1.4,0,2.6,1.2,2.6,2.6V174L327.9,174z M318.9,148.1h6.4
				c1.4,0,2.6,1.1,2.6,2.6v6.3c0,1.4-1.2,2.6-2.6,2.6h-6.4c-1.4,0-2.6-1.2-2.6-2.6v-6.4C316.3,149.2,317.4,148,318.9,148.1
				C318.8,148,318.9,148,318.9,148.1L318.9,148.1z M311.9,174c0,1.4-1.2,2.6-2.6,2.6H303c-1.4,0-2.6-1.1-2.6-2.6l0,0v-6.4
				c0-1.4,1.2-2.6,2.6-2.6h6.4c1.4,0,2.6,1.2,2.6,2.6L311.9,174L311.9,174z M302.9,148.1h6.4c1.4,0,2.6,1.1,2.6,2.6v6.3
				c0,1.4-1.2,2.6-2.6,2.6H303c-1.4,0-2.6-1.1-2.6-2.6v-6.4C300.4,149.2,301.5,148.1,302.9,148.1L302.9,148.1z"/>
			<rect x="12.3" y="194.5" class="st0" width="846" height="5.7"/>
		</g>
	</g>
	<g id="city2" transform="translate(1200, -180)">
		<g transform="scale(1.5)">
			<path class="st0" d="M204.4,61.3c-1.6-1.4-3.3-2.7-5.1-3.8c-0.4,1.8-0.6,3.6-1.1,5.3c-0.8,1.6-1.1,3.5-2.2,5
				c2.2,0.2,4.3,0.1,6.5-0.2c2.3-0.3,4.5-0.7,6.7-1.4C207.8,64.5,206.2,62.8,204.4,61.3z"/>
			<path class="st0" d="M194.4,70.3c-1,1.5-2.4,2.7-3.6,4.1c-1.5,1-2.8,2.3-4.4,3.2c1.8,1.2,3.7,2.2,5.7,3.1
				c2.1,0.9,4.3,1.7,6.5,2.2c-0.4-2.3-0.9-4.5-1.6-6.7C196.4,74.1,195.5,72.2,194.4,70.3z"/>
			<path class="st0" d="M173.2,81.3c1,1.9,2.1,3.7,3.4,5.4c1.3,1.9,2.8,3.6,4.5,5.2c0.8-2.1,1.5-4.3,2-6.6c0.5-2.1,0.7-4.3,0.7-6.4
				c-1.6,1-3.4,1.1-5.1,1.7C176.9,81.1,175,81.1,173.2,81.3z"/>
			<path class="st0" d="M159.9,77.9c-0.2,2.2-0.1,4.3,0.1,6.5c0.3,2.3,0.7,4.5,1.4,6.7c1.8-1.4,3.5-3,5-4.6c1.4-1.6,2.7-3.4,3.9-5.2
				c-1.8-0.2-3.6-0.6-5.3-1.1C163.2,79.5,161.5,78.8,159.9,77.9z"/>
			<path class="st0" d="M153.4,72.7c-1.2-1.3-2.3-2.8-3.2-4.4c-1.2,1.8-2.3,3.7-3.1,5.7c-0.9,2.1-1.6,4.2-2.2,6.4
				c2.3-0.3,4.5-0.8,6.6-1.5s4.1-1.5,6-2.6C156,75.3,154.6,74,153.4,72.7z"/>
			<path class="st0" d="M147.1,60.5c-0.4-1.8-0.6-3.6-0.6-5.4c-1.9,1-3.8,2.1-5.6,3.4c-1.8,1.4-3.5,2.9-5.1,4.5
				c2.1,0.8,4.3,1.5,6.5,2c2.1,0.4,4.3,0.7,6.5,0.8C148.1,64,147.5,62.2,147.1,60.5z"/>
			<path class="st0" d="M141.4,48.2c1.6,1.4,3.4,2.7,5.2,3.9c0.2-1.8,0.6-3.6,1.1-5.3c0.6-1.7,1.3-3.4,2.2-5
				c-2.2-0.2-4.3-0.1-6.5,0.1c-2.3,0.3-4.5,0.7-6.7,1.3C138.2,45,139.7,46.7,141.4,48.2z"/>
			<path class="st0" d="M147.5,26.7c0.3,2.2,0.8,4.5,1.5,6.6s1.5,4.1,2.6,6c1.1-1.5,2.3-2.9,3.6-4c1.3-1.2,2.8-2.3,4.4-3.3
				c-1.8-1.2-3.7-2.3-5.7-3.1C151.9,27.9,149.7,27.2,147.5,26.7z"/>
			<path class="st0" d="M165,17.7c-0.8,2.1-1.5,4.3-2,6.5c-0.4,2.1-0.7,4.3-0.8,6.5c1.7-0.7,3.4-1.3,5.2-1.7
				c1.8-0.4,3.6-0.5,5.4-0.6c-1-1.9-2.1-3.8-3.4-5.6C168.1,21,166.6,19.3,165,17.7z"/>
			<path class="st0" d="M184.7,18.7c-1.8,1.4-3.5,2.9-5,4.6c-1.4,1.6-2.7,3.4-3.9,5.2c1.8,0.2,3.6,0.6,5.3,1.1
				c1.7,0.6,3.4,1.3,5,2.2c0.2-2.2,0.1-4.3-0.1-6.5C185.8,23.1,185.4,20.9,184.7,18.7z"/>
			<path class="st0" d="M192.7,37.2c1.2,1.3,2.3,2.8,3.2,4.4c1.2-1.8,2.3-3.7,3.1-5.7c0.9-2.1,1.7-4.2,2.2-6.4
				c-2.2,0.3-4.4,0.8-6.6,1.5c-2.1,0.7-4.1,1.5-6,2.5C190.1,34.6,191.5,35.8,192.7,37.2z"/>
			<path class="st0" d="M198.9,49.4c0.3,1.8,0.5,3.6,0.6,5.4c1.9-1,3.8-2.1,5.6-3.3c1.8-1.4,3.5-2.9,5.1-4.5c-2.1-0.8-4.3-1.5-6.5-2
				c-2.1-0.4-4.3-0.7-6.5-0.8C197.9,45.9,198.5,47.6,198.9,49.4z"/>
			<circle class="st0" cx="173" cy="54.8" r="21.3"/>
			<path class="st0" d="M271.8,108.3c-3.4-2.6-5.4-6.5-5.4-10.8c0-0.1,0-0.1,0-0.2c-1,1.6-1.6,3.4-1.6,5.3c0,0.3,0,0.5,0,0.7
				c-8,0.7-14.3,6.4-14.3,13.5c0,7.5,7.1,12.8,15.8,12.8l38.7-0.1c8.7,0,13.3-4.9,13.3-11c0-2.2-0.6-4.4-1.9-6.2h-32.3
				C279.8,112.3,275.4,110.9,271.8,108.3z"/>
			<path class="st0" d="M331.5,92.9c-1.8-1.6-4.6-2.7-8.6-2.7c-0.8,0-1.5,0-2.3,0.1l-2,0.2l-0.3-2c-0.7-5.2-5.5-8.9-10.7-8.2
				c-1.8,0.2-3.4,1-4.8,2.1l-2.5,2.1l-0.8-3.2c-1-4-5.1-6.5-9.2-5.5c-3.4,0.8-5.7,3.9-5.7,7.3c0,0.2,0,0.3,0,0.6l0.1,2l-2,0.2
				c-7.2,0.6-12.4,5.7-12.4,11.4c0,3,1.5,5.8,3.9,7.6c2.9,2.1,6.3,3.2,9.9,3.1h38.7c4,0,6.8-1.1,8.6-2.7c3.4-3.3,3.6-8.7,0.3-12.1
				C331.8,93.1,331.7,93,331.5,92.9z"/>
			<polygon class="st0" points="75.6,141.8 73.3,126.6 64.2,125.9 66.2,141.5 			"/>
			<polygon class="st0" points="87.6,142.1 85.2,127.5 76.7,126.8 79,141.9 			"/>
			<polygon class="st0" points="98.9,142.5 96.3,128.3 88.3,127.7 90.8,142.2 			"/>
			<polygon class="st0" points="109.3,142.8 106.6,129.1 99.2,128.5 101.8,142.6 			"/>
			<polygon class="st0" points="68.9,161.6 78.4,161.3 76.1,145.2 66.7,145 			"/>
			<polygon class="st0" points="81.9,161.2 90.8,160.9 88.2,145.4 79.5,145.2 			"/>
			<polygon class="st0" points="99.4,145.6 91.4,145.5 94,160.9 102.2,160.6 			"/>
			<polygon class="st0" points="105.2,160.5 112.9,160.3 109.9,145.9 102.4,145.7 			"/>
			<polygon class="st0" points="69.4,165.3 71.7,183 81.5,182.1 79,164.9 			"/>
			<polygon class="st0" points="82.5,164.8 85.1,181.8 94.1,181 91.4,164.4 			"/>
			<polygon class="st0" points="105.8,179.9 102.8,164 94.6,164.3 97.4,180.7 			"/>
			<polygon class="st0" points="108.8,179.6 116.6,178.9 113.5,163.6 105.9,163.9 			"/>
			<polygon class="st0" points="133.8,129.1 131.1,110.6 119.9,109.7 122.4,128.8 			"/>
			<polygon class="st0" points="148.6,129.6 145.6,111.7 135.2,110.9 138,129.3 			"/>
			<polygon class="st0" points="162.4,130 159.2,112.7 149.5,112 152.5,129.7 			"/>
			<polygon class="st0" points="175.2,130.4 171.8,113.7 162.7,113 166,130.1 			"/>
			<polygon class="st0" points="125.7,153.4 137.4,153.1 134.5,133.3 123,133.1 			"/>
			<polygon class="st0" points="141.6,153 152.5,152.7 149.3,133.6 138.7,133.4 			"/>
			<polygon class="st0" points="163.1,133.9 153.2,133.7 156.4,152.5 166.5,152.3 			"/>
			<polygon class="st0" points="170.2,152.2 179.5,151.9 176,134.2 166.7,134 			"/>
			<polygon class="st0" points="126.3,158 129.1,179.7 141.1,178.6 138,157.5 			"/>
			<polygon class="st0" points="142.3,157.4 145.5,178.2 156.6,177.2 153.2,156.9 			"/>
			<polygon class="st0" points="170.9,175.9 167.3,156.4 157.2,156.8 160.6,176.8 			"/>
			<polygon class="st0" points="174.6,175.5 184.1,174.6 180.3,155.9 171,156.2 			"/>
			<path class="st0" d="M722.8,164.4c1.1,0.5,3.3-1.7,4.8-4.9s6.4-16,5.3-16.5s-7.8,11.4-9.3,14.6S721.7,163.9,722.8,164.4z"/>
			<path class="st0" d="M724.1,168.9c-1,0.7-0.2,3.7,1.9,6.6s10.7,13.5,11.7,12.8s-5.9-12.4-8-15.4S725.1,168.2,724.1,168.9z"/>
			<path class="st0" d="M712.5,169.2c3.6-0.3,6.4-1.6,6.3-2.8s-3.1-2-6.7-1.7s-17,2.5-16.9,3.7S708.9,169.6,712.5,169.2z"/>
			<path class="st0" d="M720.6,169.2c1,0.4,2.2,0,2.6-1c0.4-1,0-2.2-1-2.6c-1-0.4-2.1,0-2.6,1C719.1,167.5,719.6,168.7,720.6,169.2z
				"/>
			<path class="st0" d="M637.2,116c2.9-0.2,4.7-7.1,4-15.4s-5.4-39.3-8.3-39.1s-2.7,31.7-2,39.9S634.4,116.2,637.2,116z"/>
			<path class="st0" d="M656.1,134.7c2.8,1.3,8.5,3.7,14.7,6.1c-2,4.4-2.3,8.5-0.8,9.2s4.6-2.4,6.8-7l0,0c8.7,3.1,16.7,5.4,17.3,4.1
				s-6.5-6.2-14.5-11.1c2.6-6.9,5.6-15.8,4.5-16.3s-5.8,7.1-9.3,13.4c-5.8-3.4-11.5-6.4-14.3-7.8c-7.5-3.6-14.6-4.4-15.8-1.8
				S648.6,131.1,656.1,134.7z"/>
			<path class="st0" d="M622,137.4c6.8-4.7,11.1-10.4,9.5-12.8s-8.5-0.5-15.3,4.2c-6.8,4.7-31.3,24.4-29.7,26.8
				S615.2,142.1,622,137.4z"/>
			<path class="st0" d="M637.5,118.8c-2.6,0.2-4.5,2.5-4.4,5.1c0.2,2.6,2.5,4.5,5.1,4.4c2.6-0.2,4.5-2.5,4.4-5.1l0,0
				C642.4,120.5,640.1,118.6,637.5,118.8z"/>
			<path class="st0" d="M671.7,156.3c-1.4,1-0.3,5.2,2.7,9.4s15,19.1,16.5,18.1s-8.4-17.5-11.3-21.7S673.2,155.3,671.7,156.3z"/>
			<path class="st0" d="M669.3,151.5c-1.4-0.7-3.2-0.1-3.8,1.4c-0.7,1.4-0.1,3.2,1.4,3.8l0,0c1.4,0.7,3.2,0.1,3.8-1.4
				C671.4,153.9,670.7,152.2,669.3,151.5z"/>
			<path class="st0" d="M792.1,145.2l6.1-6.1c-0.8-2.9-2.3-5.6-4.4-7.8c-0.3-0.4-0.7-0.7-1.1-1c-1,2-3,4.8-4.7,8.7
				c0.4,0.6,0.9,1.3,1.3,1.9C790.3,142.2,791.2,143.6,792.1,145.2z"/>
			<path class="st0" d="M774.7,160c0.4,0.4,0.8,0.7,1.3,1l0.2,0.1l6.3-6.4c-0.6-1.2-1-2.5-1.4-3.8c-1.4-4.4-2-8.9-1.7-13.5l0,0
				c0.1,5.7,1.5,11.3,4,16.3l7.3-7.4c-3.9-6.6-8.7-10.6-9.6-21.5c-5.8,7.9-11.1,17.8-10.1,26.1C771.3,153.9,772.4,157.8,774.7,160z"
				/>
			<path class="st0" d="M916,194.5h-87.4v-22.3c0-0.2,0-0.3,0-0.5h4c3.2,0,3.9-1.8,1.6-4L808,142.4c-2.3-2.2-6-2.2-8.4,0l-26.1,25.3
				c-2.3,2.2-1.6,4,1.6,4h4c0,0.2,0,0.3,0,0.5v22.2h-52.9c-1.1-11-2.9-23.5-4.9-23.5s-3.8,12.5-4.9,23.5h-41.5
				c-1.5-15.9-4.1-35.1-7.1-35.1s-5.5,19.2-7,35.1h-10c-1-12.1-2.5-25.9-4.3-37.4c3.8,0,7.2-0.1,8.9-0.3c5-0.4,9-2.2,8.9-4
				s-4.4-2.8-9.4-2.4c-1.8,0.2-5.4,0.6-9.3,1.3c-2-11.2-4.3-19.2-6.8-19.1c-2.7,0-5.3,9.6-7.3,22.6c-0.2,0.1-0.4,0.3-0.4,0.5
				c0,0.1,0.1,0.3,0.3,0.3c-1.9,11.7-3.4,26-4.4,38.5h-58.6v-6.7c0.6-0.1,1.2-0.1,1.8-0.3c9.5-1.9,15.7-11.1,13.9-20.6
				s-11.1-15.7-20.6-13.9c-9.5,1.9-15.7,11.1-13.9,20.6c1.3,6.8,6.6,12.2,13.3,13.8c0.3,0.1,0.7,0.1,1,0.2v7h-29.5c0-2.2,0-4.9,0-7
				c6.1-2.5,9.2-12.8,9.2-21.1c0-9.6-8.4-42.3-12.3-42.2c-2.9,0-11.9,23.2-11.9,42.3c0,8.5,3.3,19,9.6,21.2v6.9h-19.7l-0.1-50
				c0-2.2-1.8-4-4-3.9l-34,0.1c-2.2,0-4,1.8-4,4l0.1,50h-12.2L455,71c0-2.2-1.8-4-4-4l-35,0.1c-2.2,0-4,1.8-4,4l0.2,123.4H400
				l-0.1-68.8c0-2.8-2.3-5.2-5.2-5.2l0,0l-44.3,0.1c-2.8,0-5.2,2.3-5.1,5.2l0,0l0.1,68.7h-10.7l-0.1-48.3c0-2.2-1.8-4-4-3.9l-34,0.1
				c-2.2,0-4,1.8-4,4l0.1,48.2H263c-0.2-0.3-0.3-0.7-0.3-1.1v-6.8c0-1,0.8-1.9,1.8-2.1l0,0c9.5-1.9,15.7-11.1,13.9-20.6
				c-1.9-9.5-11.1-15.7-20.6-13.9c-9.5,1.9-15.7,11.1-13.9,20.6c1.3,6.8,6.6,12.2,13.3,13.8c0.3,0.1,0.6,0.1,1,0.2v8.8
				c0,0.4-0.1,0.8-0.4,1.2H228c-0.3-0.4-0.5-0.9-0.5-1.4V186c0-0.8,0.4-1.5,1.1-1.9c5.4-3.2,8.1-12.7,8.1-20.6
				c0-9.6-8.4-42.3-12.3-42.2c-2.9,0-11.9,23.2-11.9,42.3c0,8,2.9,17.6,8.4,20.7c0.7,0.4,1.2,1.1,1.2,1.9v8.6h-61.3v-13.2l-9,0.8
				c0,0,0,7.6,0,12.4H97.6c0-4.2,0-10.2,0-10.2l-7.4,0.6c0,0,0,5.6,0,9.5H-10 M809.8,175h6.5c1.4,0,2.6,1.2,2.6,2.6l0,0v6.5
				c0,1.4-1.2,2.6-2.6,2.6l0,0h-6.5c-1.4,0-2.6-1.2-2.6-2.6l0,0v-6.5C807.2,176.2,808.3,175,809.8,175L809.8,175z M502.4,172.2
				c0,1.4-1.1,2.6-2.6,2.6h-6.4c-1.4,0-2.6-1.1-2.6-2.6l0,0v-6.4c0-1.4,1.2-2.6,2.6-2.6h6.4c1.4,0,2.6,1.2,2.6,2.6V172.2
				L502.4,172.2z M493.4,146.3h6.4c1.4,0,2.6,1.1,2.6,2.6v6.4c0,1.4-1.1,2.6-2.6,2.6h-6.4c-1.4,0-2.6-1.1-2.6-2.6l0,0v-6.4
				C490.9,147.4,492,146.3,493.4,146.3L493.4,146.3z M486.5,172.2c0,1.4-1.1,2.6-2.6,2.6h-6.4c-1.4,0-2.6-1.1-2.6-2.6l0,0v-6.4
				c0-1.4,1.2-2.6,2.6-2.6h6.4c1.4,0,2.6,1.2,2.6,2.6V172.2L486.5,172.2z M477.5,146.3h6.4c1.4,0,2.6,1.1,2.6,2.6v6.4
				c0,1.4-1.1,2.6-2.6,2.6h-6.4c-1.4,0-2.6-1.1-2.6-2.6l0,0v-6.4C474.9,147.5,476.1,146.3,477.5,146.3L477.5,146.3L477.5,146.3z
				 M448.2,98.8c0,1.4-1.2,2.6-2.6,2.6h-6.4c-1.4,0-2.6-1.2-2.6-2.6v-6.3c0-1.4,1.2-2.6,2.6-2.6h6.4c1.4,0,2.6,1.2,2.6,2.6V98.8
				L448.2,98.8z M439.2,72.8h6.4c1.4,0,2.6,1.2,2.6,2.6v6.4c0,1.4-1.2,2.6-2.6,2.6h-6.4c-1.4,0-2.6-1.2-2.6-2.6v-6.4
				C436.6,74,437.8,72.9,439.2,72.8C439.2,72.9,439.2,72.9,439.2,72.8L439.2,72.8z M432.3,98.8c0,1.4-1.2,2.6-2.6,2.6h-6.4
				c-1.4,0-2.6-1.2-2.6-2.6v-6.4c0-1.4,1.1-2.6,2.6-2.6l0,0h6.4c1.4,0,2.6,1.2,2.6,2.6V98.8L432.3,98.8z M423.3,72.9h6.4
				c1.4,0,2.6,1.2,2.6,2.6v6.4c0,1.4-1.2,2.6-2.6,2.6h-6.4c-1.4,0-2.6-1.2-2.6-2.6v-6.4C420.7,74,421.9,72.9,423.3,72.9L423.3,72.9
				L423.3,72.9z M394.2,168.9c0,1.4-1.2,2.6-2.6,2.6h-6.4c-1.4,0-2.6-1.2-2.6-2.6v-6.4c0-1.4,1.1-2.6,2.6-2.6l0,0h6.4
				c1.4,0,2.6,1.2,2.6,2.6V168.9L394.2,168.9z M394.2,153.1c0,1.4-1.2,2.6-2.6,2.6h-6.4c-1.4,0-2.6-1.1-2.6-2.6v-6.3
				c0-1.4,1.2-2.6,2.6-2.6h6.4c1.4,0,2.6,1.1,2.6,2.6V153.1L394.2,153.1z M385.2,127.2h6.4c1.4,0,2.6,1.2,2.6,2.6v6.4
				c0,1.4-1.1,2.6-2.6,2.6l0,0h-6.4c-1.4,0-2.6-1.1-2.6-2.6l0,0v-6.4C382.6,128.4,383.8,127.2,385.2,127.2L385.2,127.2z
				 M378.3,168.9c0,1.4-1.1,2.6-2.6,2.6h-6.4c-1.4,0-2.6-1.2-2.6-2.6v-6.3c0-1.4,1.1-2.6,2.6-2.6l0,0h6.4c1.4,0,2.6,1.2,2.6,2.6
				V168.9L378.3,168.9z M378.3,153.1c0,1.4-1.1,2.6-2.6,2.6h-6.4c-1.4,0-2.6-1.1-2.6-2.6v-6.4c0-1.4,1.1-2.6,2.6-2.6h6.4
				c1.4,0,2.6,1.1,2.6,2.6V153.1z M369.3,127.2h6.4c1.4,0,2.6,1.2,2.6,2.6v6.4c0,1.4-1.1,2.6-2.6,2.6l0,0h-6.4
				c-1.4,0-2.6-1.1-2.6-2.6l0,0v-6.4C366.7,128.4,367.9,127.3,369.3,127.2L369.3,127.2z M362.4,169c0,1.4-1.2,2.6-2.6,2.6h-6.4
				c-1.4,0-2.6-1.2-2.6-2.6v-6.4c0-1.4,1.1-2.6,2.6-2.6l0,0h6.4c1.4,0,2.6,1.1,2.6,2.6l0,0V169L362.4,169z M362.4,153.2
				c0,1.4-1.2,2.6-2.6,2.6h-6.4c-1.4,0-2.6-1.1-2.6-2.6v-6.4c0-1.4,1.2-2.6,2.6-2.6h6.4c1.4,0,2.6,1.1,2.6,2.6l0,0V153.2
				L362.4,153.2z M353.4,127.3h6.4c1.4,0,2.6,1.1,2.6,2.6l0,0v6.4c0,1.4-1.2,2.6-2.6,2.6h-6.4c-1.4,0-2.6-1.1-2.6-2.6v-6.4
				C350.8,128.5,351.9,127.3,353.4,127.3C353.3,127.3,353.3,127.3,353.4,127.3L353.4,127.3z M327.9,174c0,1.4-1.2,2.6-2.6,2.6h-6.4
				c-1.4,0-2.6-1.1-2.6-2.6l0,0v-6.4c0-1.4,1.2-2.6,2.6-2.6h6.4c1.4,0,2.6,1.2,2.6,2.6V174L327.9,174z M318.9,148.1h6.4
				c1.4,0,2.6,1.1,2.6,2.6v6.3c0,1.4-1.2,2.6-2.6,2.6h-6.4c-1.4,0-2.6-1.2-2.6-2.6v-6.4C316.3,149.2,317.4,148,318.9,148.1
				C318.8,148,318.9,148,318.9,148.1L318.9,148.1z M311.9,174c0,1.4-1.2,2.6-2.6,2.6H303c-1.4,0-2.6-1.1-2.6-2.6l0,0v-6.4
				c0-1.4,1.2-2.6,2.6-2.6h6.4c1.4,0,2.6,1.2,2.6,2.6L311.9,174L311.9,174z M302.9,148.1h6.4c1.4,0,2.6,1.1,2.6,2.6v6.3
				c0,1.4-1.2,2.6-2.6,2.6H303c-1.4,0-2.6-1.1-2.6-2.6v-6.4C300.4,149.2,301.5,148.1,302.9,148.1L302.9,148.1z"/>
			<rect x="12.3" y="194.5" class="st0" width="846" height="5.7"/>
		</g>
	</g>
	<g id="car" transform="translate(90, -20)">
		<g transform="translate(50, -30)">
			<g transform="scale(1.8)">
				<g transform="translate(-40, 0)">
					<g id="car_1_">
						<g>
							<path d="M253.4,129.7c0,11.3,9.2,20.5,20.5,20.5s20.5-9.2,20.5-20.5s-9.1-20.5-20.5-20.5
								C262.6,109.2,253.4,118.4,253.4,129.7z M260.3,129.7c0-7.5,6.1-13.6,13.6-13.6s13.6,6.1,13.6,13.6c0,7.5-6.1,13.6-13.6,13.6
								S260.3,137.2,260.3,129.7z"/>
							<g>
								<path class="st1" d="M259.8,129.7c0,7.8,6.3,14.1,14.1,14.1c7.8,0,14.1-6.3,14.1-14.1s-6.3-14.1-14.1-14.1
									C266.1,115.6,259.8,121.9,259.8,129.7z M261.2,129.7c0-7,5.7-12.7,12.7-12.7s12.7,5.7,12.7,12.7c0,7-5.7,12.7-12.7,12.7
									S261.2,136.7,261.2,129.7z"/>
							</g>
						</g>
						<g>
							<circle class="st1" cx="273.9" cy="129.7" r="7.2"/>
							<ellipse transform="matrix(0.7071 -0.7071 0.7071 0.7071 -11.4635 231.6029)" cx="273.8" cy="129.6" rx="5.8" ry="5.8"/>
						</g>
						<g>
							<g>
								<path d="M126,129.7c0,11.3,9.2,20.5,20.5,20.5S167,141,167,129.7s-9.2-20.5-20.5-20.5S126,118.4,126,129.7z M132.9,129.7
									c0-7.5,6.1-13.6,13.6-13.6s13.6,6.1,13.6,13.6c0,7.5-6.1,13.6-13.6,13.6C138.9,143.3,132.9,137.2,132.9,129.7z"/>
								<g>
									<path class="st1" d="M132.3,129.7c0,7.8,6.3,14.1,14.1,14.1s14.1-6.3,14.1-14.1s-6.3-14.1-14.1-14.1
										S132.3,121.9,132.3,129.7z M133.8,129.7c0-7,5.7-12.7,12.7-12.7s12.7,5.7,12.7,12.7c0,7-5.7,12.7-12.7,12.7
										C139.4,142.4,133.8,136.7,133.8,129.7z"/>
								</g>
							</g>
							<g>
								<circle class="st1" cx="146.5" cy="129.7" r="7.2"/>
								<ellipse cx="146.5" cy="129.7" rx="5.8" ry="5.8"/>
							</g>
						</g>
						<path class="st2" d="M273.9,131.8c0.4,0,0.8-0.1,1.1-0.3c1-0.6,1.3-1.9,0.7-2.9L233.9,61c-0.6-1-1.9-1.3-2.9-0.7
							s-1.3,1.9-0.7,2.9l41.9,67.6C272.5,131.4,273.2,131.8,273.9,131.8z"/>
						<path class="st2" d="M230.9,60.4c1-0.6,2.3-0.3,2.9,0.7l39.6,63.9c-1,2-3.8,1.8-3.8,1.8l-39.4-63.6
							C229.6,62.3,229.9,61,230.9,60.4z"/>
						<g>
							<path d="M223.5,36.7h0.6c2.9,0,5.4,2.4,5.4,5.4l0,0c0,0.9,0.4,1.8,1.1,2.5l7.3,7.3l-0.7,0.7l-7.3-7.4
								c-0.7-0.7-1.6-1.1-2.5-1.1h-2.7c-2.4,0-4.3-1.9-4.3-4.3l0,0C220.4,38.1,221.8,36.7,223.5,36.7z"/>
							<path class="st3" d="M228.3,41.4c0-1.1-0.4-2.2-1.2-3.1c-0.4-0.4-0.9-0.7-1.4-0.9c-0.6-0.2-1.1-0.2-1.7-0.1
								c1.1,0.2,2,0.7,2.7,1.4C227.4,39.4,227.8,40.4,228.3,41.4z"/>
						</g>
						<path class="st0" d="M284.4,108.7c-3,9.6-11.9,16.5-22.4,16.5c-3.8,0-7.4-0.9-10.6-2.5c3-9.6,11.9-16.5,22.4-16.5
							C277.7,106.2,281.3,107.1,284.4,108.7z"/>
						<path class="st2" d="M273.9,106.2c0.7,0,1.4,0.1,2.2,0.1c-7.3,4.4-13.6,10.9-17.6,18.6c-2.5-0.4-4.8-1.1-7-2.2
							C254.4,113.1,263.4,106.2,273.9,106.2z"/>
						<path d="M146.5,106.4c-10.8,0-19.8,7.3-22.5,17.2c-0.4,1.6-1.9,2.8-3.6,2.8l0,0c0.8-15.8,14-28.4,30.2-28.4
							s29.4,12.6,30.2,28.4h-11.2C167.9,115.1,158.2,106.4,146.5,106.4z"/>
						<path d="M190.3,90.7c5.3,26.3,20.2,28.1,20.2,28.1l16.3,1.9c4.3,0.5,8.4-1.9,10.1-5.9l2.4-5.9c2.5-6.1,2.1-13.1-0.9-18.9
							l-10.8-20.4c-0.8-1.6-1.3-3.4-1.6-5.2l0,0c-0.9-7.3,4.7-13.7,12.1-13.7h2.6l-3.1,12.6V66l20.7,20.9l-15.2,43.2h-46.8v-7.8
							h-20.4L149,102.9V79.5L190.3,90.7z"/>
						<path class="st4" d="M132.9,83.6L194,94.3c2.4,0.4,4.6-1.4,4.6-3.8l0,0c0-5.6-4.5-10.2-10.1-10.3l-24.3-0.5l-21.3-4.3
							C137.6,74.3,132.9,78.3,132.9,83.6L132.9,83.6z"/>
						<path class="st1" d="M196.4,93.1c0-5.9-4.9-10.8-11-10.9l-26.6-0.6l-17-3.2c-2-0.4-1.6-3.4,0.4-3.2c0.2,0,0.4,0.1,0.6,0.1
							l21.3,4.2l24.3,0.5c5.6,0.1,10.1,4.7,10.1,10.3c0,1.6-0.9,2.9-2.2,3.6C196.4,93.6,196.4,93.4,196.4,93.1z"/>
						<g>
							<path d="M142.1,123.4L142.1,123.4l0.2-0.1c0.9-0.5,2.1-0.8,3.2-0.8c1.7-6.7,7.8-11.8,15-11.8h19.4c3,0,5.4,2.4,5.4,5.4l0,0
								c0,3.9,3.2,7.2,7.2,7.2h10.4c1.1-0.6,2.3-0.9,3.7-0.9h29c1.3,0,2.6,0.3,3.7,0.9h0.6c0.9,0,1.6,0.7,1.6,1.6l0,0
								c1.4,1.5,2.3,3.5,2.3,5.8l0,0c0,4.6-3.7,8.2-8.2,8.2h-29c-1.8,0-3.4-0.6-4.8-1.5H184c-1.3,0.9-3,1.5-4.8,1.5h-33.4
								c-4.6,0-8.2-3.7-8.2-8.2l0,0C137.8,127.6,139.5,124.8,142.1,123.4z"/>
							<path class="st1" d="M160.8,122.8h-4.7c-4.7,0-14.2,1.1-14.2,2.6l0,0h18.2c3.7,0,6.7,3,6.7,6.7c0,0.1,0,0.2,0,0.4
								c0.4-0.9,0.7-1.8,0.7-2.9l0,0C167.4,125.8,164.4,122.8,160.8,122.8z"/>
						</g>
						<path class="st0" d="M230,65.3h8.4c27.1,12.6,38.1,36.6,38.1,36.6l-14.1,11.8c-7.7,6.5-12.2,16-12.1,25.9l0,0
							c0,0-22.9,5.1-67.2-10.4c-1.9-0.7-3.4-1.9-4.6-3.6c-17.2-26.1-34.5-25.8-40.8-25.8c-20.5,0-7.6-3.4-9.5-7.1
							c-1.4-2.6-2.2-5.6-2.2-8.7v-0.3c0-5.6,6.6-6.1,9.9-5.3c14.6,3.1,42.9,9.3,56,32.7c3.5,6.2,9.6,10.7,16.6,11.9
							c7.7,1.3,18,2.6,27.8,1.8c3.5-0.3,6.5-2.7,7.4-6.1l7.3-26.1c0.8-2.9,0-6.1-2.1-8.2L230,65.3z"/>
						<path class="st0" d="M237.8,58.9L237.8,58.9c0-2.5-2-4.5-4.4-4.5l0,0c1.2-1.6,2.6-2.9,4.2-4l5-3.3l4.4,5.6
							c2.3,2.9,3.5,6.4,3.5,10.1c0,1-0.8,1.8-1.8,1.8h-18.6c0,0,0,0,0-0.1c0-2,1.7-3.6,3.7-3.6h2.1C236.9,61,237.8,60.1,237.8,58.9z
							"/>
						<path class="st5" d="M244.1,140.3L244.1,140.3c-9.6,0.5-30.1-0.3-61-11.1c-1.5-0.5-2.8-1.4-3.8-2.6
							c26.5,6.8,47.1,9.4,61.6,10.3C242.7,137.1,244.1,138.5,244.1,140.3z"/>
						<path class="st6" d="M167,101.9c-15.7-9.3-31.1-11.3-39.9-11.6c-0.7-2-1.1-4.1-1.1-6.2v-0.3c0-0.3,0-0.7,0.1-0.9
							c9.6,1.1,28.4,4.8,41.8,18.1C168.5,101.4,167.8,102.3,167,101.9z"/>
						<path class="st7" d="M276.5,101.9l-1.2,0.9c-3.4-5.3-14.4-21-33.1-32.8h4.9C267.9,83.2,276.5,101.9,276.5,101.9z"/>
						<path class="st7" d="M238.4,65.3c3.2,1.4,6.1,3.1,8.8,4.8h-4.9c-2.7-1.7-5.5-3.3-8.5-4.8H238.4z"/>
						<path class="st7" d="M242.6,47.1l-1.9,1.2l4.2,4.7c2.9,3.2,4.5,7.1,4.7,11.2c0.4-0.3,0.8-0.8,0.8-1.4c0-3.7-1.2-7.2-3.5-10.1
							L242.6,47.1z"/>
						<g>
							<g>
								<path class="st1" d="M222.3,60.1h12.1c1.1,0,1.9-0.9,1.9-1.9l0,0c0-1.1-0.9-1.9-1.9-1.9h-12.1c-1.1,0-1.9,0.9-1.9,1.9l0,0
									C220.4,59.2,221.3,60.1,222.3,60.1z"/>
								<path class="st4" d="M236.3,58.1L236.3,58.1c0,1.1-0.9,1.9-1.9,1.9h-12.1c-1.1,0-1.9-0.9-1.9-1.9l0,0H236.3z"/>
							</g>
							<ellipse class="st4" cx="222.3" cy="58.1" rx="1.9" ry="1.9"/>
							<circle class="st1" cx="222.3" cy="58.1" r="1.2"/>
						</g>
						<path class="st8" d="M249.1,56.2c0.8,1.8,1.2,3.8,1.3,5.8l-5.7-2.2c-1.5-0.6-2.5-2.1-2.5-3.7L249.1,56.2L249.1,56.2z"/>
						<path class="st1" d="M249.1,56.2c0.1,0.2,0.2,0.4,0.2,0.6h-6.1c0,1.1,0.4,2.1,1,2.8c-1.3-0.7-2.1-2-2.1-3.4H249.1z"/>
						<path class="st7" d="M191.9,111.1c3.5,6.2,9.6,10.7,16.6,11.9c7.7,1.3,18,2.6,27.8,1.8c1.4-0.1,2.7-0.6,3.9-1.3
							c-5.1,4.7-28,4.1-36.6,2.6c-7.8-1.4-14.5-6.3-18.4-13.2c-12.6-22.3-37.6-30.5-54.6-34.6c1.8-0.4,3.8-0.3,5.2,0
							C150.5,81.6,178.8,87.8,191.9,111.1z"/>
						<path class="st7" d="M284.4,108.7c-0.2,0.7-0.4,1.3-0.7,1.9c-1.4-0.6-2.9-1.1-4.4-1.4c-1.3-0.3-2.2-1.4-2.2-2.8l0,0
							C279.6,106.8,282.1,107.6,284.4,108.7z"/>
						<path class="st7" d="M156.6,100.3c-12.3-4.6-25-4.9-29-4.9c0.6-0.8,0.9-1.6,0.6-2.4C132.8,93.2,148,94.4,156.6,100.3z"/>
						<path class="st9" d="M126,82.8c1,0.1,2.1,0.2,3.3,0.4c2.8,0.4,4.9,2.9,4.9,5.8l0,0c0,1-0.9,1.8-1.9,1.7
							c-1.9-0.2-3.7-0.3-5.3-0.3c-0.7-2-1.1-4.1-1.1-6.2v-0.3C126,83.4,126,83.1,126,82.8z"/>
						<path class="st10" d="M128.5,85.2c-0.8-0.1-1.7-0.2-2.4-0.3c0-0.2-0.1-0.5-0.1-0.7v-0.3c0-0.3,0-0.7,0.1-0.9
							c1,0.1,2.1,0.2,3.3,0.4c2.8,0.4,4.9,2.9,4.9,5.8l0,0c0,0.6-0.3,1.1-0.7,1.4C133.3,87.7,131.3,85.6,128.5,85.2z"/>
					</g>
				</g>
			</g>
		</g>
	</g>
	<g transform="translate(780, 280) scale(0.25)">
		<path id="circle2" class="st11" d="M88.4,88c2.5-2.1,2.8-5.9,0.7-8.5c-6.3-7.4-9.7-16.8-9.7-26.5c0-22.6,18.4-41,41-41
			s41,18.4,41,41c0,9.7-3.5,19.2-9.8,26.6c-2.1,2.5-1.8,6.3,0.7,8.5c1.1,1,2.5,1.4,3.9,1.4c1.7,0,3.4-0.7,4.6-2.1
			c8.1-9.6,12.6-21.8,12.6-34.3c0-29.2-23.8-53-53-53s-53,23.8-53,53c0,12.6,4.5,24.7,12.6,34.3C82.1,89.8,85.9,90.1,88.4,88z"/>
		<path id="circle1" class="st11" d="M120.2,41.2c13.2,0,23.8,8.1,27.3,19.9c0.8-2.6,1.2-5.3,1.2-8.1c0-15.6-12.7-28.3-28.3-28.3
			C104.7,24.7,92,37.4,92,53c0,2.6,0.4,5.2,1,7.6C96.7,49.1,107.2,41.2,120.2,41.2z"/>
		<path class="st0" d="M234.2,169.9c-3.8-22.5-19.6-26-27-26.5c-2.3-0.1-4.5-1.3-5.8-3.3c-5.4-8.2-12.6-10.4-18.7-10.4
			c-4.4,0-8.2,1.1-10.4,1.9c-0.3,0.1-0.6,0.1-0.8,0.1c-0.9,0-1.7-0.5-2.2-1.3c-5.5-9.4-13.3-11.8-19.8-11.8c-3.8,0-7.2,0.8-9.5,1.6
			c-0.2,0.1-0.8,0.1-1,0.1c-1.3,0-2.6-1-2.6-2.4V69.8c0-11-8.2-16.6-16.5-16.6s-16.5,5.5-16.5,16.6v84.9c0,5-3.8,8.1-7.9,8.1
			c-2.5,0-4.9-1.1-6.6-3.7L81,146.8c-3.5-5.8-8.6-8.2-13.6-8.2c-11.4,0-22.6,12.3-14.6,25.3L115,283.6c0.4,0.8,1.2,1.4,2.1,1.4h87.8
			c1.3,0,2.3-1.1,2.4-2.3l2.2-35.8c0-0.4,0.2-0.8,0.4-1.2C231.6,212.7,237.8,191.4,234.2,169.9z"/>
	</g>
	<script>var opacity1 = 0;
		var opacity2 = 0;
		var circle1 = document.getElementById(&quot;circle1&quot;);
		var circle2 = document.getElementById(&quot;circle2&quot;);
		var isFirstCity = true;
		var pos = -50;
		var pos2 = 1150;
		setInterval(moveCity, 40);
		setInterval(opacity, 50);
		function opacity()
		{ 
			if (opacity1 &lt; 1){
				circle1.setAttribute(&apos;opacity&apos;, opacity1);
				opacity1+=0.1;
			}
			else if (opacity2 &lt; 1){
				if (opacity1 &gt; 1 || opacity1 == 1){
					circle2.setAttribute(&apos;opacity&apos;, opacity2); 
					opacity2+=0.08;
				}
			}
			else if (opacity2 &gt; 1 || opacity2 == 1){
				opacity1=0;
				opacity2=0;
				circle1.setAttribute(&apos;opacity&apos;, opacity1);
				circle2.setAttribute(&apos;opacity&apos;, opacity2);
			
			}							
		}
		function moveCity()
		{
			if (pos % 1300 == -1250 || pos % 1300 == -1251 ){
					pos = 1150;
			}
			else if (pos2 % 1300 == -1250 || pos2 % 1300 == -1251 ){
					pos2 = 1150;
			}
			var city = document.getElementById(&quot;city&quot;);
			var trans = &apos; translate(&apos; + pos  + &apos;, -180 )&apos;;
			city.setAttribute(&apos;transform&apos;, trans);
			pos -=1;
			
			var city2 = document.getElementById(&quot;city2&quot;);
			var trans2 = &apos; translate(&apos; + pos2  + &apos;, -180 )&apos;;
			city2.setAttribute(&apos;transform&apos;, trans2);
			pos2 -=1;
		}
		</script>
</g>
</svg>
