<?xml version="1.0" encoding="utf-8"?>
<!-- Generator: Adobe Illustrator 19.1.0, SVG Export Plug-In . SVG Version: 6.00 Build 0)  -->
<svg version="1.1"  xmlns="http://www.w3.org/2000/svg" xmlns:xlink="http://www.w3.org/1999/xlink" 
	 viewBox="0 0 600 300"  xml:space="preserve">
<style type="text/css">
	.st1{fill:#666666;}
	.st2{fill:white}
	.st5{fill:white;}
	.st6{fill:#C1272D;} 
	.st7{fill:#FFFFFF;}
	.st9{fill:url(#SVGID_5_);}
	.st10{opacity:0.24;}
	.st11{fill:none;stroke:#FFFFFF; stroke-opacity:0.3;}
</style>
<g >
	<g transform="translate(0, -20),scale(1.4)">

	<g>
		<g>
			<path class="st1" d="M407.7,91.7c0,41.5-33.7,75.2-75.2,75.2c-41.5,0-75.2-33.7-75.2-75.2c0-41.5,33.7-75.2,75.2-75.2
				C374.1,16.5,407.7,50.2,407.7,91.7z"/>
		</g>
	</g>
	<g>
		<g>
			<g>
				<g>
					
					<circle class="st9" cx="332.6" cy="91.7" r="62.1" fill="white"/>
					<g class="st4">
						<path class="st5" d="M11.2,224.1c0-86.5,69.9-156.6,156.1-156.6c86.2,0,156.1,70.1,156.1,156.6"/>
					</g>
				</g>
				<path class="st6" d="M22.2,224.1c0-80.5,65.3-145.8,145.8-145.8c80.5,0,145.8,65.3,145.8,145.8"/>

			</g>
			<g>
				<rect x="167" y="91.5" class="st7" width="3" height="11"/>
				
					<rect x="227.4" y="106.1" transform="matrix(0.8388 0.5445 -0.5445 0.8388 98.1683 -106.3445)" class="st7" width="2.6" height="13.1"/>
				
					<rect x="269.1" y="150.5" transform="matrix(0.5224 0.8527 -0.8527 0.5224 263.0316 -155.6253)" class="st7" width="2.6" height="13.1"/>
				
					<rect x="49.8" y="209.2" transform="matrix(2.929818e-002 -0.9996 0.9996 2.929818e-002 -166.0448 260.4939)" class="st7" width="2.6" height="13.1"/>
				
					<rect x="65.5" y="150.5" transform="matrix(0.5226 -0.8525 0.8525 0.5226 -101.9684 131.8569)" class="st7" width="2.6" height="13.1"/>
				<polygon class="st7" points="114.5,118.7 112.3,120.1 105.2,109.1 107.5,107.7 				"/>
				
					<rect x="286.1" y="209.2" transform="matrix(-1.071717e-002 0.9999 -0.9999 -1.071717e-002 506.2175 -69.3427)" class="st7" width="2.6" height="13.1"/>
				<g>
					
						<rect x="48.4" y="198.5" transform="matrix(-0.1044 0.9945 -0.9945 -0.1044 256.5899 174.2902)" class="st7" width="2.8" height="8.4"/>
					
						<rect x="50.4" y="186.1" transform="matrix(-0.208 0.9781 -0.9781 -0.208 248.7099 179.2707)" class="st7" width="2.8" height="8.4"/>
					<polygon class="st7" points="58.6,180.9 59.4,178.2 51.5,175.6 50.6,178.3 					"/>
					<polygon class="st7" points="62.7,169.6 63.9,167 56.2,163.6 55.1,166.2 					"/>
					
						<rect x="70.6" y="140.8" transform="matrix(-0.5879 0.8089 -0.8089 -0.5879 231.5469 171.9369)" class="st7" width="2.8" height="8.4"/>
					
						<rect x="78.5" y="131" transform="matrix(-0.6694 0.7429 -0.7429 -0.6694 233.7642 166.4298)" class="st7" width="2.8" height="8.4"/>
					
						<rect x="87.3" y="122.2" transform="matrix(-0.7434 0.6688 -0.6688 -0.7434 239.1579 161.0288)" class="st7" width="2.8" height="8.4"/>
					
						<rect x="97" y="114.3" transform="matrix(-0.8097 0.5869 -0.5869 -0.8097 247.6467 156.7254)" class="st7" width="2.8" height="8.4"/>
					
						<rect x="118.6" y="101.8" transform="matrix(-0.9139 0.406 -0.406 -0.9139 272.7799 154.1989)" class="st7" width="2.8" height="8.4"/>
					
						<rect x="130.3" y="97.4" transform="matrix(-0.9508 0.3098 -0.3098 -0.9508 288.4061 157.2967)" class="st7" width="2.8" height="8.4"/>
					
						<rect x="142.4" y="94.1" transform="matrix(-0.9781 0.2081 -0.2081 -0.9781 304.8887 164.561)" class="st7" width="2.8" height="8.4"/>
					
						<rect x="154.7" y="92.2" transform="matrix(-0.9944 0.1055 -0.1055 -0.9944 321.571 175.7188)" class="st7" width="2.8" height="8.4"/>
					
						<rect x="286" y="198.5" transform="matrix(-0.1044 -0.9945 0.9945 -0.1044 115.8795 509.7115)" class="st7" width="2.8" height="8.4"/>
					
						<rect x="284.1" y="186.1" transform="matrix(-0.2085 -0.978 0.978 -0.2085 158.8583 509.2203)" class="st7" width="2.8" height="8.4"/>
					
						<rect x="280.9" y="174.1" transform="matrix(-0.3083 -0.9513 0.9513 -0.3083 199.6945 501.7044)" class="st7" width="2.8" height="8.4"/>
					<polygon class="st7" points="273.4,167 274.5,169.6 282.2,166.2 281,163.6 					"/>
					
						<rect x="263.9" y="140.8" transform="matrix(-0.5886 -0.8084 0.8084 -0.5886 304.2529 444.7197)" class="st7" width="2.8" height="8.4"/>
					<polygon class="st7" points="253.4,137 255.2,139.1 261.4,133.5 259.6,131.4 					"/>
					
						<rect x="247.2" y="122.2" transform="matrix(-0.7429 -0.6694 0.6694 -0.7429 348.627 386.6717)" class="st7" width="2.8" height="8.4"/>
					
						<rect x="237.5" y="114.3" transform="matrix(-0.8099 -0.5866 0.5866 -0.8099 362.7463 354.6221)" class="st7" width="2.8" height="8.4"/>
					
						<rect x="215.8" y="101.8" transform="matrix(-0.9135 -0.4068 0.4068 -0.9135 372.5131 291.2632)" class="st7" width="2.8" height="8.4"/>
					
						<rect x="204.2" y="97.4" transform="matrix(-0.9508 -0.3098 0.3098 -0.9508 369.5072 261.7905)" class="st7" width="2.8" height="8.4"/>
					
						<rect x="192.1" y="94.1" transform="matrix(-0.9782 -0.2079 0.2079 -0.9782 362.2647 234.6942)" class="st7" width="2.8" height="8.4"/>
					
						<rect x="179.7" y="92.2" transform="matrix(-0.9944 -0.1054 0.1054 -0.9944 351.0581 211.2765)" class="st7" width="2.8" height="8.4"/>
				</g>
			</g>
			<g>
				<g transform="translate(0, 0.2)">
					<path class="st2" d="M119.5,224.1c0-28.6,23.1-50.2,51.7-50.2c28.5,0,51.7,21.6,51.7,50.2"/>
				</g>
			</g>
		</g>
	</g>
	<linearGradient id="SVGID_5_" gradientUnits="userSpaceOnUse" x1="270.4809" y1="91.6616" x2="394.6595" y2="91.6616">
		<stop  offset="8.711970e-002" style="stop-color:#ffffff"/>
		<stop  offset="1" style="stop-color:#ffffff"/>
	</linearGradient>
	<g class="st10">
		<g id="XMLID_19_">
			<g>
				<path class="st7" d="M205.4,133.7c0,4.8,0,9.6,0,14.3c0,1.7-1,2.7-2.7,2.8c-0.7,0-1.5,0-2.3,0c0,0.8,0,1.5,0,2.2
					c0,4.4-3.3,7.8-7.6,7.8c-14.9,0-29.7,0-44.6,0c-4.4,0-7.6 -3.4-7.6-7.8c0-8.2,0-16.4,0-24.5c0-4.4,3.3-7.8,7.7-7.8
					c14.8,0,29.6,0,44.4,0c4.4,0,7.7,3.4,7.7,7.8c0,0.7,0,1.4,0,2.2c0.8,0,1.4,0,2.1,0C204.4,130.8,205.4,131.8,205.4,133.7z
					 M200.1,145.9c0.8,0,0.9-0.2,0.9-1c0-2.1,0-4.1,0-6.2c0-1-0.1-2-0.1-3c-1,0-1.9-0.1-2.9-0.1c-0.7,0-1.3,0-2.1,0
					c0-0.4,0-0.6,0-0.9c0-2.2,0-4.4,0-6.5c0-2.1-1.5-3.1-4-2.6c-14.4,0-28.2,0-42.7,0c-2.7-0.6-4.2,0.4-4.3,2.6c0,3.2,0,6.4,0,9.7
					c0,5.1,0,10.2,0,15.3c0,1.6,1,2.7,2.6,2.7c15.2,0,30.5,0,45.7,0c1.5,0,2.5-1.1,2.6-2.6c0-2.2,0-4.4,0-6.7c0-0.3,0-0.5,0-0.8
					c0.3,0,0.5,0,0.8,0C197.8,145.9,198.9,145.8,200.1,145.9z"/>
			</g>
			<g>
				<path class="st11" d="M200.4,150.8c0,0.8,0,1.5,0,2.2c0,4.4-3.3,7.8-7.6,7.8c-14.9,0-29.7,0-44.6,0c-4.4,0-7.6-3.4-7.6-7.8
					c0-8.2,0-16.4,0-24.5c0-4.4,3.3-7.8,7.7-7.8c14.8,0,29.6,0,44.4,0c4.4,0,7.7,3.4,7.7,7.8c0,0.7,0,1.4,0,2.2c0.8,0,1.4,0,2.1,0
					c1.9,0,2.9,1,2.9,2.9c0,4.8,0,9.6,0,14.3c0,1.7-1,2.7-2.7,2.8C202,150.8,201.2,150.8,200.4,150.8z"/>
				<path class="st11" d="M195.9,135.7c0.8,0,1.4,0,2.1,0c1,0,1.9,0.1,2.9,0.1c0,1,0.1,2,0.1,3c0,2.1,0,4.1,0,6.2c0,0.7-0.1,1-0.9,1
					c-1.1-0.1-2.3,0-3.4,0c-0.2,0-0.5,0-0.8,0c0,0.3,0,0.6,0,0.8c0,2.2,0,4.4,0,6.7c0,1.5-1,2.6-2.6,2.6c-15.3,0-30.5,0-45.7,0
					c-1.6,0-2.6-1.1-2.6-2.7c0-5.1,0-10.2,0-15.3c0-3.2,0-6.4,0-9.7c0-2.2,1.6-3.2,4.3-2.6c14.4,0,28.2,0,42.7,0
					c2.5-0.5,4,0.5,4,2.6c0,2.2,0,4.3,0,6.5C195.9,135,195.9,135.3,195.9,135.7z"/>
			</g>
		</g>
	</g>
</g>
</g>
</svg>
