<?xml version="1.0" encoding="utf-8"?>
<!-- Generator: Adobe Illustrator 25.2.3, SVG Export Plug-In . SVG Version: 6.00 Build 0)  -->
<svg version="1.1" id="Capa_1" xmlns="http://www.w3.org/2000/svg" xmlns:xlink="http://www.w3.org/1999/xlink" x="0px" y="0px"
	 viewBox="0 0 600 300" style="enable-background:new 0 0 600 300;" xml:space="preserve">
<style type="text/css">
	.st0{fill:#666666;}
	.st1{fill:#FFFFFF;}
	.st2{fill:#2DA319;}
	.st3{fill:url(#SVGID_1_);}
	.st4{opacity:0.24;}
	.st5{fill:none;stroke:#FFFFFF;stroke-width:1.96;stroke-miterlimit:7.84;stroke-opacity:0.3;}
</style>
<g transform="translate(0, -20),scale(1.4)">
	<g>
		<g>
			<g>
				<path class="st0" d="M407.7,91.7c0,41.5-33.7,75.2-75.2,75.2s-75.2-33.7-75.2-75.2s33.7-75.2,75.2-75.2
					C374.1,16.5,407.7,50.2,407.7,91.7z"/>
				<path class="st0" d="M405.6,91.7c0,40.3-32.7,73-73,73s-73-32.7-73-73s32.7-73,73-73C372.9,18.7,405.6,51.4,405.6,91.7z"/>
				<path class="st0" d="M403.4,91.7c0,39.1-31.7,70.8-70.8,70.8s-70.8-31.7-70.8-70.8s31.7-70.8,70.8-70.8
					C371.7,20.9,403.4,52.6,403.4,91.7z"/>
				<path class="st0" d="M401.2,91.7c0,37.9-30.7,68.6-68.6,68.6S264,129.6,264,91.7s30.7-68.6,68.6-68.6
					C370.5,23,401.2,53.8,401.2,91.7z"/>
				<path class="st0" d="M399,91.7c0,36.7-29.8,66.4-66.4,66.4c-36.7,0-66.4-29.7-66.4-66.4s29.7-66.4,66.4-66.4
					C369.3,25.2,399,55,399,91.7z"/>
				<path class="st0" d="M396.8,91.7c0,35.5-28.8,64.3-64.3,64.3s-64.3-28.8-64.3-64.3s28.8-64.3,64.3-64.3
					C368.1,27.4,396.8,56.2,396.8,91.7z"/>
				<path class="st0" d="M394.7,91.7c0,34.3-27.8,62.1-62.1,62.1s-62.1-27.8-62.1-62.1s27.8-62.1,62.1-62.1
					C366.9,29.6,394.7,57.4,394.7,91.7z"/>
			</g>
		</g>
		<g>
			<g>
				<g>
					<g>
						<g>
							<path class="st1" d="M11.2,224.1c0-86.5,69.9-156.6,156.1-156.6s156.1,70.1,156.1,156.6"/>
						</g>
					</g>
					<path class="st2" d="M22.2,224.1c0-80.5,65.3-145.8,145.8-145.8s145.8,65.3,145.8,145.8"/>
				</g>
				<g>
					<rect x="167" y="91.5" class="st1" width="3" height="11"/>
					
						<rect x="222.1" y="111.4" transform="matrix(0.5445 -0.8388 0.8388 0.5445 9.6447 243.1501)" class="st1" width="13.1" height="2.6"/>
					
						<rect x="263.8" y="155.7" transform="matrix(0.8527 -0.5224 0.5224 0.8527 -42.198 164.3634)" class="st1" width="13.1" height="2.6"/>
					
						<rect x="49.8" y="209.2" transform="matrix(2.929646e-02 -0.9996 0.9996 2.929646e-02 -166.0194 260.5442)" class="st1" width="2.6" height="13.1"/>
					
						<rect x="65.5" y="150.4" transform="matrix(0.5226 -0.8526 0.8526 0.5226 -101.9538 131.8864)" class="st1" width="2.6" height="13.1"/>
					<polygon class="st1" points="114.5,118.7 112.3,120.1 105.2,109.1 107.5,107.7 					"/>
					
						<rect x="286.1" y="209.2" transform="matrix(1.071809e-02 -0.9999 0.9999 1.071809e-02 68.6272 500.8424)" class="st1" width="2.6" height="13.1"/>
					<g>
						
							<rect x="48.4" y="198.5" transform="matrix(0.1044 -0.9945 0.9945 0.1044 -156.9189 231.0774)" class="st1" width="2.8" height="8.4"/>
						
							<rect x="50.4" y="186.2" transform="matrix(0.208 -0.9781 0.9781 0.208 -145.1445 201.4774)" class="st1" width="2.8" height="8.4"/>
						<polygon class="st1" points="58.6,180.9 59.4,178.2 51.5,175.6 50.6,178.3 						"/>
						<polygon class="st1" points="62.7,169.6 63.9,167 56.2,163.6 55.1,166.2 						"/>
						
							<rect x="70.5" y="140.7" transform="matrix(0.5879 -0.8089 0.8089 0.5879 -87.62 117.8715)" class="st1" width="2.8" height="8.4"/>
						
							<rect x="78.4" y="131.1" transform="matrix(0.6694 -0.7429 0.7429 0.6694 -74.1425 104.0394)" class="st1" width="2.8" height="8.4"/>
						
							<rect x="87.3" y="122.2" transform="matrix(0.7434 -0.6688 0.6688 0.7434 -61.7693 91.7516)" class="st1" width="2.8" height="8.4"/>
						
							<rect x="97" y="114.3" transform="matrix(0.8097 -0.5869 0.5869 0.8097 -50.8306 80.3031)" class="st1" width="2.8" height="8.4"/>
						
							<rect x="118.7" y="101.8" transform="matrix(0.9139 -0.406 0.406 0.9139 -32.6912 57.8812)" class="st1" width="2.8" height="8.4"/>
						
							<rect x="130.3" y="97.3" transform="matrix(0.9508 -0.3098 0.3098 0.9508 -24.9661 45.795)" class="st1" width="2.8" height="8.4"/>
						
							<rect x="142.4" y="94.1" transform="matrix(0.9781 -0.2081 0.2081 0.9781 -17.3077 32.075)" class="st1" width="2.8" height="8.4"/>
						
							<rect x="154.8" y="92.1" transform="matrix(0.9944 -0.1055 0.1055 0.9944 -9.2877 17.0162)" class="st1" width="2.8" height="8.4"/>
						
							<rect x="283.3" y="201.3" transform="matrix(0.9945 -0.1044 0.1044 0.9945 -19.5905 31.1223)" class="st1" width="8.4" height="2.8"/>
						
							<rect x="281.2" y="188.9" transform="matrix(0.978 -0.2085 0.2085 0.978 -33.4074 63.6876)" class="st1" width="8.4" height="2.8"/>
						
							<rect x="278.1" y="176.8" transform="matrix(0.9513 -0.3083 0.3083 0.9513 -41.1853 95.7143)" class="st1" width="8.4" height="2.8"/>
						<polygon class="st1" points="273.4,167 274.5,169.6 282.2,166.2 281,163.6 						"/>
						
							<rect x="261.1" y="143.5" transform="matrix(0.8084 -0.5886 0.5886 0.8084 -34.4698 183.918)" class="st1" width="8.4" height="2.8"/>
						<polygon class="st1" points="253.4,137 255.2,139.1 261.4,133.5 259.6,131.4 						"/>
						
							<rect x="244.4" y="125" transform="matrix(0.6694 -0.7429 0.7429 0.6694 -11.6744 226.4695)" class="st1" width="8.4" height="2.8"/>
						
							<rect x="234.6" y="117.1" transform="matrix(0.5866 -0.8099 0.8099 0.5866 2.761 242.3695)" class="st1" width="8.4" height="2.8"/>
						
							<rect x="213" y="104.7" transform="matrix(0.4068 -0.9135 0.9135 0.4068 31.9301 261.3874)" class="st1" width="8.4" height="2.8"/>
						
							<rect x="201.3" y="100.1" transform="matrix(0.3098 -0.9508 0.9508 0.3098 45.3373 265.4452)" class="st1" width="8.4" height="2.8"/>
						
							<rect x="189.2" y="96.9" transform="matrix(0.2079 -0.9782 0.9782 0.2079 57.0355 267.0665)" class="st1" width="8.4" height="2.8"/>
						
							<rect x="176.9" y="95" transform="matrix(0.1054 -0.9944 0.9944 0.1054 66.1831 266.295)" class="st1" width="8.4" height="2.8"/>
					</g>
				</g>
				<g>
					<g transform="translate(0, 0.2)">
						<path class="st1" d="M119.5,224.1c0-28.6,23.1-50.2,51.7-50.2c28.5,0,51.7,21.6,51.7,50.2"/>
					</g>
				</g>
			</g>
		</g>
		
			<linearGradient id="SVGID_1_" gradientUnits="userSpaceOnUse" x1="-208.4329" y1="204.8615" x2="-84.2329" y2="204.8615" gradientTransform="matrix(1.96 0 0 1.96 679.0286 -309.8286)">
			<stop  offset="8.711969e-02" style="stop-color:#FFFFFF"/>
			<stop  offset="1" style="stop-color:#FFFFFF"/>
		</linearGradient>
		<circle class="st3" cx="332.6" cy="91.7" r="62.1"/>
		<g class="st4">
			<g id="XMLID_19_">
				<g>
					<path class="st1" d="M205.4,133.7c0,4.8,0,9.6,0,14.3c0,1.7-1,2.7-2.7,2.8c-0.7,0-1.5,0-2.3,0c0,0.8,0,1.5,0,2.2
						c0,4.4-3.3,7.8-7.6,7.8c-14.9,0-29.7,0-44.6,0c-4.4,0-7.6-3.4-7.6-7.8c0-8.2,0-16.4,0-24.5c0-4.4,3.3-7.8,7.7-7.8
						c14.8,0,29.6,0,44.4,0c4.4,0,7.7,3.4,7.7,7.8c0,0.7,0,1.4,0,2.2c0.8,0,1.4,0,2.1,0C204.4,130.8,205.4,131.8,205.4,133.7z
						 M200.1,145.9c0.8,0,0.9-0.2,0.9-1c0-2.1,0-4.1,0-6.2c0-1-0.1-2-0.1-3c-1,0-1.9-0.1-2.9-0.1c-0.7,0-1.3,0-2.1,0
						c0-0.4,0-0.6,0-0.9c0-2.2,0-4.4,0-6.5c0-2.1-1.5-3.1-4-2.6c-14.4,0-28.2,0-42.7,0c-2.7-0.6-4.2,0.4-4.3,2.6c0,3.2,0,6.4,0,9.7
						c0,5.1,0,10.2,0,15.3c0,1.6,1,2.7,2.6,2.7c15.2,0,30.5,0,45.7,0c1.5,0,2.5-1.1,2.6-2.6c0-2.2,0-4.4,0-6.7c0-0.3,0-0.5,0-0.8
						c0.3,0,0.5,0,0.8,0C197.8,145.9,198.9,145.8,200.1,145.9z"/>
				</g>
				<g>
					<path class="st5" d="M200.4,150.8c0,0.8,0,1.5,0,2.2c0,4.4-3.3,7.8-7.6,7.8c-14.9,0-29.7,0-44.6,0c-4.4,0-7.6-3.4-7.6-7.8
						c0-8.2,0-16.4,0-24.5c0-4.4,3.3-7.8,7.7-7.8c14.8,0,29.6,0,44.4,0c4.4,0,7.7,3.4,7.7,7.8c0,0.7,0,1.4,0,2.2c0.8,0,1.4,0,2.1,0
						c1.9,0,2.9,1,2.9,2.9c0,4.8,0,9.6,0,14.3c0,1.7-1,2.7-2.7,2.8C202,150.8,201.2,150.8,200.4,150.8z"/>
					<path class="st5" d="M195.9,135.7c0.8,0,1.4,0,2.1,0c1,0,1.9,0.1,2.9,0.1c0,1,0.1,2,0.1,3c0,2.1,0,4.1,0,6.2c0,0.7-0.1,1-0.9,1
						c-1.1-0.1-2.3,0-3.4,0c-0.2,0-0.5,0-0.8,0c0,0.3,0,0.6,0,0.8c0,2.2,0,4.4,0,6.7c0,1.5-1,2.6-2.6,2.6c-15.3,0-30.5,0-45.7,0
						c-1.6,0-2.6-1.1-2.6-2.7c0-5.1,0-10.2,0-15.3c0-3.2,0-6.4,0-9.7c0-2.2,1.6-3.2,4.3-2.6c14.4,0,28.2,0,42.7,0
						c2.5-0.5,4,0.5,4,2.6c0,2.2,0,4.3,0,6.5C195.9,135,195.9,135.3,195.9,135.7z"/>
				</g>
			</g>
		</g>
	</g>
</g>
</svg>
