<?xml version="1.0" encoding="utf-8"?>
<!-- Generator: Adobe Illustrator 19.1.0, SVG Export Plug-In . SVG Version: 6.00 Build 0)  -->
<svg version="1.1" id="Capa_1" xmlns="http://www.w3.org/2000/svg" xmlns:xlink="http://www.w3.org/1999/xlink" x="0px" y="0px"
	 viewBox="0 0 745 63" style="enable-background:new 0 0 679.3 64;" xml:space="preserve">
<style type="text/css">
	.st0{fill:url(#SVGID_1_);}
</style>
<g transform="scale(1.1);">
	<linearGradient id="SVGID_1_" gradientUnits="userSpaceOnUse" x1="3842.7146" y1="5269.5854" x2="3898.3345" y2="5269.5854" gradientTransform="matrix(2.839610e-011 1 -0.6325 4.489659e-011 3672.2205 -3839.0562)">
		<stop  offset="8.711970e-002" style="stop-color:#D9D9D9"/>
		<stop  offset="1" style="stop-color:#D9D9D9"/>
	</linearGradient>
	<path class="st0" d="M25.8,3.7h627.1c12.2,0,22.1,9.9,22.1,22.1v11.5c0,12.2-9.9,22.1-22.1,22.1H25.8c-12.2,0-22.1-9.9-22.1-22.1
		V25.7C3.7,13.5,13.6,3.7,25.8,3.7z"/>
	<linearGradient id="SVGID_2_" gradientUnits="userSpaceOnUse" x1="21.9141" y1="30.9684" x2="557.6804" y2="30.9684">
		<stop  offset="8.711970e-002" style="stop-color:#FFFFFF"/>
		<stop  offset="0.9347" style="stop-color:#FFFFFF"/>
		<stop  offset="0.9799" style="stop-color:#FFFFFF"/>
	</linearGradient>
	<path style="fill:url(#SVGID_2_);" d="M40.3,13.6h498.9c10.2,0,18.4,7.8,18.4,17.4v0c0,9.6-8.2,17.4-18.4,17.4H40.3
		c-10.2,0-18.4-7.8-18.4-17.4v0C21.9,21.4,30.2,13.6,40.3,13.6z"/>
</g>
</svg>
