<?xml version="1.0" encoding="utf-8"?>
<!-- Generator: Adobe Illustrator 25.2.3, SVG Export Plug-In . SVG Version: 6.00 Build 0)  -->
<svg version="1.1" id="Layer_1" xmlns="http://www.w3.org/2000/svg" xmlns:xlink="http://www.w3.org/1999/xlink" x="0px" y="0px"
	 viewBox="0 0 800 300" style="enable-background:new 0 0 800 300;" xml:space="preserve">
<style type="text/css">
	.st0{fill:#AEAEAE;}
	.st1{fill:#3E3E3E;}
	.st2{fill:#FFFFFF;}
	.st3{fill:#666666;}
	.st4{fill:#808285;}
	.st5{fill:#939598;}
	.st6{fill:#3A8DCC;}
	.st7{fill:#414042;}
	.st8{fill:#BCBEC0;}
	.st9{fill:#D1D3D4;}
	.st10{opacity:0.5;fill:#FFFFFF;enable-background:new    ;}
	.st11{fill:#E6E7E8;}
	.st12{fill:#ED1C24;}
	.st13{fill:#BE1E2D;}
</style>
<g transform="translate(50, -30)">
	<g transform="scale(1.8)">
		<g transform="translate(-40, 0)">
			<g>
				<rect x="63.6" y="52.2" class="st0" width="52.8" height="120.2"/>
				<circle class="st0" cx="90" cy="51.7" r="26.4"/>
				<circle class="st1" cx="90" cy="51.7" r="20.1"/>
				<polygon class="st2" points="88.9,43.4 92.5,43.4 90.1,51 94,51 88.6,60.4 90,53.8 86.5,53.8 				"/>
				<rect x="63.6" y="77" class="st3" width="52.8" height="88.4"/>
				<path class="st1" d="M101.8,92.8c0,0.8-0.6,1.4-1.4,1.4H79.5c-0.8,0-1.4-0.6-1.4-1.4l0,0c0-0.8,0.6-1.4,1.4-1.4h20.9
					C101.2,91.4,101.8,92,101.8,92.8L101.8,92.8z"/>
			</g>
			<g transform="scale(1.4)">
				<g transform="translate(40, 40)">
					<g id="connector">
						<animate attributeName="fill" values="#88BCE1;#3A8DCC;#88BCE1" dur="2s" repeatCount="indefinite" />
						<path d="M130.9,37.3c-0.1,0.3-0.4,0.5-0.7,0.4c-1-0.3-2.1-0.2-3.1,0.4c-1.7,0.8-3.6,2.9-5.6,4.7c-1,0.9-2.2,1.7-3.5,2.2
							c-1.5,0.5-3.1,0.5-4.5-0.1c-2-0.8-4.1-2.5-6.3-5.4l0,0c-0.7-0.7-1.3-1.4-1.9-2c-0.9-0.8-2.1-1-3.2-0.6c-1.5,0.5-2.9,1.4-4,2.5
							l0,0c-0.6,0.6-1.1,1.1-1.6,1.5l0,0l0,0L96.2,41l0,0c-1.4,1.4-3.2,2.4-5.1,3c-1.5,0.4-3.1,0.3-4.5-0.4c-1.4-0.8-2.6-1.8-3.6-3
							l0,0l-0.1-0.1c-2.2-2.8-3.9-4.2-5.2-4.7c-1.1-0.4-2.3-0.3-3.2,0.3c-1.7,0.9-3.5,3-5.6,4.8c-1.1,0.9-2.3,1.7-3.7,2.1
							c-1.6,0.4-3.2,0.3-4.7-0.3c-0.5-0.2-1-0.4-1.4-0.7c-0.3-0.2-0.7-0.1-0.8,0.2c-2.7,4.3-8.2,6.1-12.9,4.3l-0.1-0.1l0,0l-4.1-1.6
							c-1.9-0.7-2.9-2.9-2.1-4.8l0,0l0.2-0.5l-5.6-2.2c-0.9-0.4-1.3-1.4-1-2.3c0.3-0.9,1.3-1.3,2.2-1l0,0l5,2c0.3,0.1,0.7,0,0.8-0.3
							l0,0l1.7-4.5c0.1-0.3,0-0.7-0.3-0.8l0,0l-5-1.9c-0.9-0.3-1.3-1.3-1-2.2l0,0c0.3-0.9,1.3-1.3,2.2-1l5.6,2.2l0.2-0.5
							c0.8-1.9,2.9-2.9,4.8-2.1l4.1,1.6l0,0l0.1,0.1c4.8,1.8,7.6,6.8,6.7,11.8c0,0.2,0.1,0.5,0.3,0.6c0.5,0.4,1,0.7,1.6,0.9
							c1.2,0.5,2.5,0.4,3.6-0.2c1.7-0.8,3.6-2.9,5.6-4.7c1-0.9,2.2-1.7,3.5-2.2c1.5-0.5,3.1-0.5,4.5,0.1c2,0.8,4.1,2.5,6.3,5.4l0,0
							c0.7,0.7,1.3,1.4,1.9,2c0.9,0.8,2.1,1.1,3.2,0.7c1.5-0.5,2.9-1.4,4-2.5l0,0c0.6-0.6,1.1-1.1,1.6-1.5l0,0l0,0l0.2-0.2l0,0
							c1.4-1.4,3.2-2.4,5.1-3c1.5-0.4,3.1-0.3,4.5,0.4c1.4,0.8,2.6,1.8,3.6,3l0,0l0.1,0.1c2.2,2.8,3.9,4.2,5.2,4.7
							c1.1,0.4,2.3,0.3,3.3-0.4c1.7-0.9,3.5-3,5.6-4.8c1.1-0.9,2.3-1.7,3.7-2.1c1.3-0.4,2.7-0.4,4.1,0c0.3,0.1,0.5,0.4,0.4,0.8l0,0
							L130.9,37.3z"/>
					</g>
				</g>
			</g>
			<g id="car_1_">
				<g>
					<path d="M312.9,148.3c0,11.3,9.2,20.5,20.5,20.5c11.3,0,20.5-9.2,20.5-20.5s-9.2-20.5-20.5-20.5
						C322,127.8,312.9,137,312.9,148.3z M319.8,148.3c0-7.5,6.1-13.6,13.6-13.6s13.6,6.1,13.6,13.6s-6.1,13.6-13.6,13.6
						C325.8,161.9,319.8,155.8,319.8,148.3z"/>
					<g>
						<path class="st4" d="M319.2,148.3c0,7.8,6.3,14.1,14.1,14.1c7.8,0,14.1-6.3,14.1-14.1c0-7.8-6.3-14.1-14.1-14.1
							C325.5,134.2,319.2,140.5,319.2,148.3z M320.6,148.3c0-7,5.7-12.7,12.7-12.7c7,0,12.7,5.7,12.7,12.7c0,7-5.7,12.7-12.7,12.7
							C326.3,161.1,320.6,155.3,320.6,148.3z"/>
					</g>
				</g>
				<g>
					<circle class="st4" cx="333.3" cy="148.3" r="7.2"/>
					<ellipse transform="matrix(0.7071 -0.7071 0.7071 0.7071 -7.274 279.1388)" cx="333.3" cy="148.3" rx="5.8" ry="5.8"/>
				</g>
				<g>
					<g>
						<path d="M185.4,148.3c0,11.3,9.2,20.5,20.5,20.5s20.5-9.2,20.5-20.5s-9.2-20.5-20.5-20.5S185.4,137,185.4,148.3z M192.3,148.3
							c0-7.5,6.1-13.6,13.6-13.6s13.6,6.1,13.6,13.6s-6.1,13.6-13.6,13.6C198.4,161.9,192.3,155.8,192.3,148.3z"/>
						<g>
							<path class="st4" d="M191.8,148.3c0,7.8,6.3,14.1,14.1,14.1c7.8,0,14.1-6.3,14.1-14.1c0-7.8-6.3-14.1-14.1-14.1
								C198.1,134.2,191.8,140.5,191.8,148.3z M193.2,148.3c0-7,5.7-12.7,12.7-12.7c7,0,12.7,5.7,12.7,12.7c0,7-5.7,12.7-12.7,12.7
								C198.9,161.1,193.2,155.3,193.2,148.3z"/>
						</g>
					</g>
					<g>
						<circle class="st4" cx="205.9" cy="148.3" r="7.2"/>
						<ellipse cx="205.9" cy="148.3" rx="5.8" ry="5.8"/>
					</g>
				</g>
				<path class="st5" d="M333.3,150.4c0.4,0,0.8-0.1,1.1-0.3c1-0.6,1.3-1.9,0.7-2.9l-41.8-67.6c-0.6-1-1.9-1.3-2.9-0.7
					c-1,0.6-1.3,1.9-0.7,2.9l41.9,67.6C332,150.1,332.6,150.4,333.3,150.4z"/>
				<path class="st5" d="M290.4,79c1-0.6,2.3-0.3,2.9,0.7l39.6,63.9c-1,2-3.8,1.8-3.8,1.8l-39.4-63.6
					C289.1,80.9,289.4,79.6,290.4,79z"/>
				<g>
					<path d="M282.9,55.3h0.6c2.9,0,5.4,2.4,5.4,5.4l0,0c0,0.9,0.4,1.8,1.1,2.5l7.3,7.3l-0.7,0.7l-7.3-7.4c-0.7-0.7-1.6-1.1-2.5-1.1
						h-2.7c-2.4,0-4.3-1.9-4.3-4.3l0,0C279.8,56.7,281.2,55.3,282.9,55.3z"/>
					<path class="st2" d="M287.7,60.1c0-1.1-0.4-2.2-1.2-3.1c-0.4-0.4-0.9-0.7-1.4-0.9c-0.6-0.2-1.1-0.2-1.7-0.1
						c1.1,0.2,2,0.7,2.7,1.4C286.8,58.1,287.2,59,287.7,60.1z"/>
				</g>
				<path class="st6" d="M343.9,127.3c-3,9.6-11.9,16.5-22.4,16.5c-3.8,0-7.4-0.9-10.6-2.5c3-9.6,11.9-16.5,22.4-16.5
					C337.1,124.8,340.7,125.7,343.9,127.3z"/>
				<path class="st5" d="M333.3,124.8c0.7,0,1.4,0.1,2.2,0.1c-7.3,4.4-13.6,10.9-17.6,18.6c-2.5-0.4-4.8-1.1-7-2.2
					C313.9,131.7,322.8,124.8,333.3,124.8z"/>
				<path d="M205.9,125c-10.8,0-19.8,7.3-22.5,17.2c-0.4,1.6-1.9,2.8-3.6,2.8l0,0c0.8-15.8,14-28.4,30.2-28.4
					c16.2,0,29.4,12.6,30.2,28.4h-11.2C227.4,133.7,217.6,125,205.9,125z"/>
				<path d="M249.7,109.3c5.3,26.3,20.2,28.1,20.2,28.1l16.3,1.9c4.3,0.5,8.4-1.9,10.1-5.9l2.4-5.9c2.5-6.1,2.1-13.1-0.9-18.9
					L287,88.2c-0.8-1.6-1.3-3.4-1.6-5.2l0,0c-0.9-7.3,4.7-13.7,12.1-13.7h2.6L297,81.9v2.7l20.7,20.9l-15.2,43.2h-46.8v-7.8h-20.4
					l-26.9-19.4V98.1L249.7,109.3z"/>
				<path class="st7" d="M192.3,102.2l61.1,10.7c2.4,0.4,4.6-1.4,4.6-3.8l0,0c0-5.6-4.5-10.2-10.1-10.3l-24.3-0.5l-21.3-4.2
					C197.1,92.9,192.3,96.9,192.3,102.2L192.3,102.2z"/>
				<path class="st4" d="M255.9,111.7c0-5.9-4.9-10.8-11-10.9l-26.6-0.6l-17-3.2c-2-0.4-1.6-3.4,0.4-3.2c0.2,0,0.4,0.1,0.6,0.1
					l21.3,4.2l24.3,0.5c5.6,0.1,10.1,4.7,10.1,10.3c0,1.6-0.9,2.9-2.2,3.6C255.8,112.2,255.9,112,255.9,111.7z"/>
				<g>
					<path d="M201.6,142.1L201.6,142.1l0.2-0.1c0.9-0.5,2.1-0.8,3.2-0.8c1.7-6.7,7.8-11.8,15-11.8h19.4c3,0,5.4,2.4,5.4,5.4l0,0
						c0,3.9,3.2,7.2,7.2,7.2h10.4c1.1-0.6,2.3-0.9,3.7-0.9h29c1.3,0,2.6,0.3,3.7,0.9h0.6c0.9,0,1.6,0.7,1.6,1.6l0,0
						c1.4,1.5,2.3,3.5,2.3,5.8l0,0c0,4.6-3.7,8.2-8.2,8.2h-29c-1.8,0-3.4-0.6-4.8-1.5h-17.8c-1.3,0.9-3,1.5-4.8,1.5h-33.4
						c-4.6,0-8.2-3.7-8.2-8.2l0,0C197.2,146.2,199,143.4,201.6,142.1z"/>
					<path class="st4" d="M220.2,141.4h-4.7c-4.7,0-14.2,1.1-14.2,2.6l0,0h18.2c3.7,0,6.7,3,6.7,6.7c0,0.1,0,0.2,0,0.4
						c0.4-0.9,0.7-1.8,0.7-2.9l0,0C226.9,144.4,223.9,141.4,220.2,141.4z"/>
				</g>
				<path class="st6" d="M289.4,83.9h8.4c27.1,12.6,38.1,36.6,38.1,36.6l-14.1,11.8c-7.7,6.5-12.2,16-12.1,25.9l0,0
					c0,0-22.9,5.1-67.2-10.4c-1.9-0.7-3.4-1.9-4.6-3.6c-17.2-26.1-34.5-25.8-40.8-25.8c-20.5,0-7.6-3.4-9.5-7.1
					c-1.4-2.6-2.2-5.6-2.2-8.7v-0.3c0-5.6,6.6-6.1,9.9-5.3c14.6,3.1,42.9,9.3,56,32.7c3.5,6.2,9.6,10.7,16.6,11.9
					c7.7,1.3,18,2.6,27.8,1.8c3.5-0.3,6.5-2.7,7.4-6.1l7.3-26.1c0.8-2.9,0-6.1-2.1-8.2L289.4,83.9z"/>
				<path class="st6" d="M297.3,77.5v-0.1c0-2.4-2-4.4-4.4-4.4l0,0c1.2-1.6,2.6-2.9,4.2-4l5-3.3l4.4,5.6c2.3,2.9,3.5,6.4,3.5,10.1
					c0,1-0.8,1.8-1.8,1.8h-18.6c0,0,0,0,0-0.1c0-2,1.7-3.6,3.7-3.6h2.1C296.3,79.6,297.3,78.7,297.3,77.5z"/>
				<path class="st8" d="M303.5,158.9L303.5,158.9c-9.6,0.5-30.1-0.3-61-11.1c-1.5-0.5-2.8-1.4-3.8-2.6c26.5,6.8,47.1,9.4,61.6,10.3
					C302.1,155.7,303.5,157.1,303.5,158.9z"/>
				<path class="st9" d="M226.5,120.5c-15.7-9.3-31.1-11.3-39.9-11.6c-0.7-2-1.1-4.1-1.1-6.2v-0.3c0-0.3,0-0.7,0.1-0.9
					c9.6,1.1,28.4,4.8,41.8,18.1C227.9,120,227.2,120.9,226.5,120.5z"/>
				<path class="st10" d="M335.9,120.5l-1.2,0.9c-3.4-5.3-14.4-21-33.1-32.8h4.9C327.4,101.8,335.9,120.5,335.9,120.5z"/>
				<path class="st10" d="M297.9,83.9c3.2,1.4,6.1,3.1,8.8,4.8h-4.9c-2.7-1.7-5.5-3.3-8.5-4.8H297.9z"/>
				<path class="st10" d="M302,65.7l-1.9,1.2l4.2,4.7c2.9,3.2,4.5,7.1,4.7,11.2c0.4-0.3,0.8-0.8,0.8-1.4c0-3.7-1.2-7.2-3.5-10.1
					L302,65.7z"/>
				<g>
					<g>
						<path class="st4" d="M281.8,78.7h12.1c1.1,0,1.9-0.9,1.9-1.9l0,0c0-1.1-0.9-1.9-1.9-1.9h-12.1c-1.1,0-1.9,0.9-1.9,1.9l0,0
							C279.8,77.8,280.7,78.7,281.8,78.7z"/>
						<path class="st7" d="M295.8,76.7L295.8,76.7c0,1.1-0.9,1.9-1.9,1.9h-12.1c-1.1,0-1.9-0.9-1.9-1.9l0,0H295.8z"/>
					</g>
					<ellipse class="st7" cx="281.7" cy="76.7" rx="1.9" ry="1.9"/>
					<circle class="st4" cx="281.8" cy="76.7" r="1.2"/>
				</g>
				<path class="st11" d="M308.5,74.8c0.8,1.8,1.2,3.8,1.3,5.8l-5.7-2.2c-1.5-0.6-2.5-2.1-2.5-3.7L308.5,74.8L308.5,74.8z"/>
				<path class="st4" d="M308.5,74.8c0.1,0.2,0.2,0.4,0.2,0.6h-6.1c0,1.1,0.4,2.1,1,2.8c-1.3-0.7-2.1-2-2.1-3.4H308.5z"/>
				<path class="st10" d="M251.4,129.7c3.5,6.2,9.6,10.7,16.6,11.9c7.7,1.3,18,2.6,27.8,1.8c1.4-0.1,2.7-0.6,3.9-1.3
					c-5.1,4.7-28,4.1-36.6,2.6c-7.8-1.4-14.5-6.3-18.4-13.2c-12.6-22.3-37.6-30.5-54.6-34.6c1.8-0.4,3.8-0.3,5.2,0
					C209.9,100.2,238.2,106.4,251.4,129.7z"/>
				<path class="st10" d="M343.9,127.3c-0.2,0.7-0.4,1.3-0.7,1.9c-1.4-0.6-2.9-1.1-4.4-1.4c-1.3-0.3-2.2-1.4-2.2-2.8l0,0
					C339.1,125.4,341.6,126.2,343.9,127.3z"/>
				<path class="st10" d="M216.1,118.9c-12.3-4.6-25-4.9-29-4.9c0.6-0.8,0.9-1.6,0.6-2.4C192.2,111.8,207.5,113,216.1,118.9z"/>
				<path class="st12" d="M185.5,101.4c1,0.1,2.1,0.2,3.3,0.4c2.8,0.4,4.9,2.9,4.9,5.8l0,0c0,1-0.9,1.8-1.9,1.7
					c-1.9-0.2-3.7-0.3-5.3-0.3c-0.7-2-1.1-4.1-1.1-6.2v-0.3C185.4,102.1,185.4,101.7,185.5,101.4z"/>
				<path class="st13" d="M187.9,103.8c-0.8-0.1-1.7-0.2-2.4-0.3c0-0.2-0.1-0.5-0.1-0.7v-0.3c0-0.3,0-0.7,0.1-0.9
					c1,0.1,2.1,0.2,3.3,0.4c2.8,0.4,4.9,2.9,4.9,5.8l0,0c0,0.6-0.3,1.1-0.7,1.4C192.8,106.3,190.7,104.2,187.9,103.8z"/>
			</g>
		</g>
	</g>
</g>
</svg>
