<?xml version="1.0" encoding="utf-8"?>
<!-- Generator: Adobe Illustrator 25.2.3, SVG Export Plug-In . SVG Version: 6.00 Build 0)  -->
<svg version="1.1" id="Layer_1" xmlns="http://www.w3.org/2000/svg" xmlns:xlink="http://www.w3.org/1999/xlink" x="0px" y="0px"
	 viewBox="0 0 800 300" style="enable-background:new 0 0 800 300;" xml:space="preserve">
<style type="text/css">
	.st0{fill:#AEAEAE;}
	.st1{fill:#3E3E3E;}
	.st2{fill:#FFFFFF;}
	.st3{fill:#666666;}
	.st4{fill:#B6B7B7;}
	.st5{fill:#434444;}
	.st6{fill:#3A8DCC;}
	.st7{fill:#8B8E8E;}
	.st8{fill:#4F5151;}
</style>
<g transform="translate(50, -30)">
	<g transform="scale(1.8)">
		<g transform="translate(-40, 0)">
			<g>
				<rect x="63.6" y="52.2" class="st0" width="52.8" height="120.2"/>
				<circle class="st0" cx="90" cy="51.7" r="26.4"/>
				<circle class="st1" cx="90" cy="51.7" r="20.1"/>
				<polygon class="st2" points="88.9,43.4 92.5,43.4 90.1,51 94,51 88.6,60.4 90,53.8 86.5,53.8 				"/>
				<rect x="63.6" y="77" class="st3" width="52.8" height="88.4"/>
				<path class="st1" d="M101.8,92.8c0,0.8-0.6,1.4-1.4,1.4H79.5c-0.8,0-1.4-0.6-1.4-1.4l0,0c0-0.8,0.6-1.4,1.4-1.4h20.9
					C101.2,91.4,101.8,92,101.8,92.8L101.8,92.8z"/>
			</g>
			<g transform="scale(1.4)">
				<g transform="translate(40, 40)">
					<g id="connector">
						<script>var isUp = true;
								var colorFrom = 4289029;
								var colorTo = 10864731;
								var color = colorFrom;
								var connector = document.getElementById(&quot;connector&quot;);
								var count = 0; 
								setInterval(move, 150);
								connector.setAttribute(&apos;fill&apos;, &apos;#417205&apos;);
								
								function move()
								{ 
									if (isUp){
										++count;
										color = colorFrom + count*1118481;
										var colorHex = color.toString(16);
										if(color &lt; colorTo){
											connector.setAttribute(&apos;fill&apos;, &apos;#&apos;+colorHex);
										}
										else{
											isUp = false;
										}
									}
									else{
										--count;
										color = colorFrom + count*1118481;
										var colorHex = color.toString(16);
										if(color &gt; colorFrom){
											connector.setAttribute(&apos;fill&apos;, &apos;#&apos;+colorHex);
										}
										else{
											isUp = true;
										}
									}
								}
							</script>
						<path d="M130.9,41.3c-0.1,0.3-0.4,0.5-0.7,0.4c-1-0.3-2.1-0.2-3.1,0.4c-1.7,0.8-3.6,2.9-5.6,4.7c-1,0.9-2.2,1.7-3.5,2.2
							c-1.5,0.5-3.1,0.5-4.5-0.1c-2-0.8-4.1-2.5-6.3-5.4l0,0c-0.7-0.7-1.3-1.4-1.9-2c-0.9-0.8-2.1-1-3.2-0.6c-1.5,0.5-2.9,1.4-4,2.5
							l0,0c-0.6,0.6-1.1,1.1-1.6,1.5l0,0l0,0L96.2,45l0,0c-1.4,1.4-3.2,2.4-5.1,3c-1.5,0.4-3.1,0.3-4.5-0.4c-1.4-0.8-2.6-1.8-3.6-3
							l0,0l-0.1-0.1c-2.2-2.8-3.9-4.2-5.2-4.7c-1.1-0.4-2.3-0.3-3.2,0.3c-1.7,0.9-3.5,3-5.6,4.8c-1.1,0.9-2.3,1.7-3.7,2.1
							c-1.6,0.4-3.2,0.3-4.7-0.3c-0.5-0.2-1-0.4-1.4-0.7c-0.3-0.2-0.7-0.1-0.8,0.2c-2.7,4.3-8.2,6.1-12.9,4.3l-0.1-0.1l0,0l-4.1-1.6
							c-1.9-0.7-2.9-2.9-2.1-4.8l0,0l0.2-0.5l-5.6-2.2c-0.9-0.4-1.3-1.4-1-2.3c0.3-0.9,1.3-1.3,2.2-1l0,0l5,2c0.3,0.1,0.7,0,0.8-0.3
							l0,0l1.7-4.5c0.1-0.3,0-0.7-0.3-0.8l0,0l-5-1.9c-0.9-0.3-1.3-1.3-1-2.2l0,0c0.3-0.9,1.3-1.3,2.2-1l5.6,2.2l0.2-0.5
							c0.8-1.9,2.9-2.9,4.8-2.1l4.1,1.6l0,0l0.1,0.1c4.8,1.8,7.6,6.8,6.7,11.8c0,0.2,0.1,0.5,0.3,0.6c0.5,0.4,1,0.7,1.6,0.9
							c1.2,0.5,2.5,0.4,3.6-0.2c1.7-0.8,3.6-2.9,5.6-4.7c1-0.9,2.2-1.7,3.5-2.2c1.5-0.5,3.1-0.5,4.5,0.1c2,0.8,4.1,2.5,6.3,5.4l0,0
							c0.7,0.7,1.3,1.4,1.9,2c0.9,0.8,2.1,1.1,3.2,0.7c1.5-0.5,2.9-1.4,4-2.5l0,0c0.6-0.6,1.1-1.1,1.6-1.5l0,0l0,0l0.2-0.2l0,0
							c1.4-1.4,3.2-2.4,5.1-3c1.5-0.4,3.1-0.3,4.5,0.4c1.4,0.8,2.6,1.8,3.6,3l0,0l0.1,0.1c2.2,2.8,3.9,4.2,5.2,4.7
							c1.1,0.4,2.3,0.3,3.3-0.4c1.7-0.9,3.5-3,5.6-4.8c1.1-0.9,2.3-1.7,3.7-2.1c1.3-0.4,2.7-0.4,4.1,0c0.3,0.1,0.5,0.4,0.4,0.8l0,0
							L130.9,41.3z"/>
					</g>
				</g>
			</g>
			<g id="car_1_">
				<g>
					<path class="st4" d="M302.5,64.9c0.7,1,1,2.2,1.2,3.4c0.2,1,0.3,2.1,0,3.2c-0.3,1-1.2,1.9-2.3,2c-0.2,0-0.5,0-0.7-0.2
						c-0.2-0.1-0.2-0.3-0.3-0.5c-0.9-2.2-1.1-4.6-1.3-6.9c-0.1-0.8-0.1-2.4,0.9-2.6C301,63.1,302,64.3,302.5,64.9z"/>
				</g>
				<g>
					<path class="st5" d="M282.5,56.6c0.3-0.2,0.7-0.3,1-0.3c0.4,0.1,0.8,0.3,1.1,0.7c0.3,0.4,0.4,0.8,0.5,1.2
						c0.3,1.1,0.2,2.3,0,3.4c-0.1,0.4-0.2,0.8-0.6,1c-0.2,0.1-0.4,0.2-0.6,0.3c-0.5,0.2-1.2,0.3-1.6,0c-0.4-0.2-0.6-0.7-0.7-1.1
						c-0.3-1-0.1-2-0.1-3C281.5,58,281.6,57.2,282.5,56.6z"/>
				</g>
				<g>
					<path class="st5" d="M288.9,60c-2.2-1-4.7-1.5-7.1-1.9c-2.4-0.4-4.9-0.9-7.3-1.1c-0.9-0.1-1.8-0.1-2.6,0.3
						c-0.8,0.4-1.3,1.5-0.8,2.2c0.5,0.7,1.5,0.8,2.3,0.8c3.5-0.1,7.1,0.2,10.4,1.4c3.3,1.2,6.3,3.5,7.9,6.6c0.5,0.9,1.1,2.2,2.1,2
						c0.9-0.2,1.2-1.2,1.2-2.1C295,64.5,292,61.4,288.9,60z"/>
				</g>
				<g>
					<path class="st6" d="M205.5,101.1l4.9-7.8l40.3,1c0,0-0.6,15.2,1.4,24.8c2.7,13.5,12.6,25.9,12.6,25.9l-32.6-1.6L205.5,101.1z"
						/>
				</g>
				<g>
					<g>
						<path class="st7" d="M332.1,148.3c0,3.3-2.6,5.9-5.9,5.9c-3.3,0-5.9-2.6-5.9-5.9s2.6-5.9,5.9-5.9
							C329.5,142.4,332.1,145,332.1,148.3z"/>
					</g>
					<g>
						<path class="st7" d="M322.2,136.3c0,0.1,2.1,7.8,2.1,7.8l5.3,0.7l3.8-7.1l-5.3-2.2L322.2,136.3z"/>
					</g>
					<g>
						<path class="st7" d="M338.9,150.9c-0.1,0-7.8-2.2-7.8-2.2l-3.3,4.1l4.1,6.9l4.6-3.5L338.9,150.9z"/>
					</g>
					<g>
						<path class="st7" d="M319.6,159.5c0.1-0.1,4.6-6.7,4.6-6.7l-2.9-4.5l-7.8,1.7l1.8,5.5L319.6,159.5z"/>
					</g>
					<g>
						<path class="st4" d="M330.3,148.3c0,2.2-1.8,4-4,4c-2.2,0-4-1.8-4-4s1.8-4,4-4C328.5,144.3,330.3,146.1,330.3,148.3z"/>
					</g>
					<g>
						<g>
							<path class="st4" d="M326.2,162.6c-7.9,0-14.3-6.4-14.3-14.3c0-7.9,6.4-14.3,14.3-14.3c7.9,0,14.3,6.4,14.3,14.3
								C340.6,156.2,334.1,162.6,326.2,162.6z M326.2,136.5c-6.5,0-11.8,5.3-11.8,11.8c0,6.5,5.3,11.8,11.8,11.8
								c6.5,0,11.8-5.3,11.8-11.8C338,141.8,332.7,136.5,326.2,136.5z"/>
						</g>
					</g>
					<g>
						<path class="st8" d="M326.2,131.2c-9.4,0-17.1,7.6-17.1,17.1s7.6,17.1,17.1,17.1c9.4,0,17.1-7.6,17.1-17.1
							S335.7,131.2,326.2,131.2z M326.2,161.3c-7.2,0-13-5.8-13-13c0-7.2,5.8-13,13-13c7.2,0,13,5.8,13,13
							C339.3,155.5,333.4,161.3,326.2,161.3z"/>
					</g>
					<g>
						<g>
							<path class="st5" d="M313.2,148.3c0-7.2,5.8-13,13-13c4,0,7.7,1.8,10.1,4.7c-2.4-3.4-6.3-5.6-10.7-5.6c-7.2,0-13,5.8-13,13
								c0,3.1,1.1,6,3,8.3C314.1,153.6,313.2,151,313.2,148.3z"/>
						</g>
						<g>
							<path class="st5" d="M339.5,137.6c2,2.8,3.1,6.2,3.1,9.8c0,9.4-7.6,17.1-17.1,17.1c-5.4,0-10.2-2.5-13.3-6.4
								c3.1,4.4,8.2,7.2,13.9,7.2c9.4,0,17.1-7.6,17.1-17.1C343.3,144.2,341.9,140.5,339.5,137.6z"/>
						</g>
					</g>
				</g>
				<g>
					<g>
						<path class="st7" d="M203.3,146.7c0,3.3-2.6,5.9-5.9,5.9c-3.3,0-5.9-2.6-5.9-5.9s2.6-5.9,5.9-5.9
							C200.6,140.8,203.3,143.5,203.3,146.7z"/>
					</g>
					<g>
						<path class="st7" d="M193.3,134.7c0,0.1,2.1,7.8,2.1,7.8l5.3,0.7l3.8-7.1l-5.3-2.2L193.3,134.7z"/>
					</g>
					<g>
						<path class="st7" d="M210,149.3c-0.1,0-7.8-2.2-7.8-2.2l-3.3,4.1l4.1,6.9l4.6-3.5L210,149.3z"/>
					</g>
					<g>
						<path class="st7" d="M190.8,157.9c0.1-0.1,4.6-6.7,4.6-6.7l-2.9-4.5l-7.8,1.7l1.8,5.5L190.8,157.9z"/>
					</g>
					<g>
						<path class="st4" d="M201.4,146.7c0,2.2-1.8,4-4,4s-4-1.8-4-4c0-2.2,1.8-4,4-4S201.4,144.5,201.4,146.7z"/>
					</g>
					<g>
						<g>
							<path class="st4" d="M197.4,161c-7.9,0-14.3-6.4-14.3-14.3c0-7.9,6.4-14.3,14.3-14.3c7.9,0,14.3,6.4,14.3,14.3
								C211.7,154.6,205.3,161,197.4,161z M197.4,135c-6.5,0-11.8,5.3-11.8,11.8s5.3,11.8,11.8,11.8c6.5,0,11.8-5.3,11.8-11.8
								S203.9,135,197.4,135z"/>
						</g>
					</g>
					<g>
						<path class="st8" d="M197.4,129.7c-9.4,0-17.1,7.6-17.1,17.1c0,9.4,7.6,17.1,17.1,17.1c9.4,0,17.1-7.6,17.1-17.1
							C214.4,137.3,206.8,129.7,197.4,129.7z M197.4,159.7c-7.2,0-13-5.8-13-13c0-7.2,5.8-13,13-13c7.2,0,13,5.8,13,13
							C210.4,153.9,204.6,159.7,197.4,159.7z"/>
					</g>
					<g>
						<g>
							<path class="st5" d="M184.4,146.7c0-7.2,5.8-13,13-13c4,0,7.7,1.8,10.1,4.7c-2.4-3.4-6.3-5.6-10.7-5.6c-7.2,0-13,5.8-13,13
								c0,3.1,1.1,6,3,8.3C185.2,152,184.4,149.5,184.4,146.7z"/>
						</g>
						<g>
							<path class="st5" d="M210.7,136c2,2.8,3.1,6.2,3.1,9.8c0,9.4-7.6,17.1-17.1,17.1c-5.4,0-10.2-2.5-13.3-6.4
								c3.1,4.4,8.2,7.2,13.9,7.2c9.4,0,17.1-7.6,17.1-17.1C214.4,142.7,213,138.9,210.7,136z"/>
						</g>
					</g>
				</g>
				<g>
					<path class="st6" d="M335.8,127.7c-6-3.8-21-4.2-27.5,4.4c-6.1,8.1-5.7,17.8-5.7,17.8l7.6-0.3c0-0.4-0.1-0.9-0.1-1.3
						c0-9.2,7.4-16.6,16.6-16.6c5.8,0,11.7,4.3,14.6,9.5c1.8,0.9,3.1,0,3.1,0S344.3,133.1,335.8,127.7z"/>
				</g>
				<g>
					<path class="st6" d="M206.9,127.7c-6-3.8-21-4.2-27.5,4.4c-6.1,8.1-5.7,17.8-5.7,17.8l7.6-0.3c0-0.4-0.1-0.9-0.1-1.3
						c0-9.2,7.4-16.6,16.6-16.6c5.8,0,11.7,4.3,14.6,9.5c1.8,0.9,3.1,0,3.1,0S215.4,133.1,206.9,127.7z"/>
				</g>
				<g>
					<path class="st5" d="M310.6,117.4l13.6,30.9c0,0,1.1,2.5,3,1.6c1.4-0.7,0.6-3,0.6-3l-13.3-31.6L310.6,117.4z"/>
				</g>
				<g>
					<path class="st5" d="M315.5,117.7c0,0-12.9,3.4-14.5-0.1c-1-2.3-8.9-32.4-7.3-35c1.6-2.5,5.8-4.3,5.8-4.3L315.5,117.7z"/>
				</g>
				<g>
					<path class="st6" d="M299.4,78.3c0,0,4.4-0.9,6.8,1.7c2.4,2.6,13.3,26.9,13.5,30c0.2,3.1-4.3,7.7-4.3,7.7L299.4,78.3z"/>
				</g>
				<g>
					<path class="st6" d="M319.7,109.8c-0.2-3.1-11.1-27.4-13.5-30c-0.6-0.7-1.3-1.1-2.1-1.4c0,0,0,0,0.1,0.1
						c2.4,2.6,13.3,26.9,13.5,30c0.2,2.1-1.9,5-3.3,6.5l1,2.4C315.5,117.4,320,112.9,319.7,109.8z"/>
				</g>
				<g>
					<path class="st5" d="M298.3,76.1c0,0-6.2-0.3-7-1.3c-0.8-1-1.1-8.1-0.8-8.9c0.9-1.9,5.7-3.3,5.7-3.3L298.3,76.1z"/>
				</g>
				<g>
					<path class="st6" d="M296.2,62.5c0,0,3.9-1.1,4.9,1.5c1,2.5,1.7,8,1.6,9.3c-0.1,1.3-4.3,2.8-4.3,2.8L296.2,62.5z"/>
				</g>
				<g>
					<path class="st5" d="M298.4,128.6l3.9,1.6c1.2,0.5,1.8,1.9,1.3,3.1l-6.8,17.7c-0.4,0.9-1.3,1.6-2.3,1.6h-68.6
						c-1.3,0-2.4-1-2.5-2.3c-0.2-4.6-1.2-14.7-4.5-19.2c-4.4-5.9-9.2-4.8-11.5-7.6c-2.4-2.8-1.4-14.4-3-17.4c-1-2-11-1.8-17.5-1.5
						c-2.1,0.1-4.9-4-3.5-5.6c0,0,28.2-0.3,31,0.8c2.9,1.2,6.7,18.3,9.3,19.3c2.6,1,11.6-0.2,13.1,2.8c4.2,8.3,3.2,19.7,7,20.4
						c3.8,0.6,38.5,1.8,42.7,0.3c3.1-1.1,7-8.9,8.7-12.8C295.7,128.7,297.2,128.1,298.4,128.6z"/>
				</g>
				<g>
					<path class="st5" d="M303.8,116.6c-0.1,0.3-6.3,14.1-6.3,14.1l4.3,2l7.1-15.1L303.8,116.6z"/>
				</g>
				<g>
					<polygon class="st5" points="293,73.9 295.5,84.1 299.4,83 296.2,73.1 					"/>
				</g>
				<g>
					<path class="st5" d="M211.2,119.7c-0.2,0.3-15.6,26.1-15.6,26.1s-0.7,1.4,0,2.4c0.7,1,3.3,1,3.3,1l30.7-1v-5.9
						c0,0-29.6,5.2-30.1,4.3s16.1-23.2,16.1-23.2L211.2,119.7z"/>
				</g>
				<g>
					<path class="st7" d="M209.5,122.4c6.9-0.3,13.8-0.3,20.7,0.1c0.9,0,1.8,0.1,2.6,0.4c0.8,0.3,1.6,0.8,2,1.7
						c0.2,0.4,0.4,1,0.8,0.9c0.8-1,0.2-2.6-0.8-3.4c-1.1-0.7-2.4-0.8-3.7-0.9c-1.5-0.1-2.9-0.2-4.4-0.2c-3.5-0.2-7.1-0.4-10.6-0.6
						c-2.2-0.1-4.5-0.3-6.8,0C207.1,120.6,207.2,122.5,209.5,122.4z"/>
				</g>
				<g>
					<path class="st7" d="M285.6,147.1h-59.3c-0.5,0-0.9-0.4-0.9-0.9l0,0c0-0.5,0.4-0.9,0.9-0.9h59.3c0.5,0,0.9,0.4,0.9,0.9l0,0
						C286.5,146.7,286.1,147.1,285.6,147.1z"/>
				</g>
				<g>
					<path class="st6" d="M243.6,106.3c4.3,6.1,7.2,13,10.5,19.7c-0.8-2.2-1.5-4.5-1.9-6.8c-2-9.6-1.4-24.8-1.4-24.8l-40.3-1l-1.9,3
						c6.7-0.2,13.5,0.2,20.2,1c2.7,0.4,5.4,0.8,7.8,2.1C239.5,101,241.8,103.6,243.6,106.3z"/>
				</g>
				<g>
					<path class="st5" d="M207.9,89.6c-0.9,0.7-1.2,1.9-1.2,3c0,0.7,0.1,1.5,0.6,2c0.6,0.6,1.5,0.7,2.3,0.8
						c13.8,0.8,27.5,1.2,41.3,1c0.5,0,0.9,0,1.3-0.2c0.4-0.2,0.7-0.5,0.9-0.9c0.7-1.1,0.7-2.6,0.2-3.8c-0.6-1.2-1.7-2.1-3-2.3
						c-0.9-0.2-1.8,0-2.7,0.1c-7.1,1-14.2,1.5-21.4,1.3c-3.5-0.1-7-0.6-10.6-0.7c-1.3,0-2.4,0-3.7-0.2
						C210.7,89.4,209.1,88.7,207.9,89.6z"/>
				</g>
			</g>
		</g>
	</g>
</g>
</svg>
