<?xml version="1.0" encoding="utf-8"?>
<!-- Generator: Adobe Illustrator 25.2.3, SVG Export Plug-In . SVG Version: 6.00 Build 0)  -->
<svg version="1.1" id="Layer_1" xmlns="http://www.w3.org/2000/svg" xmlns:xlink="http://www.w3.org/1999/xlink" x="0px" y="0px"
	 viewBox="0 0 800 300" style="enable-background:new 0 0 800 300;" xml:space="preserve">
<style type="text/css">
	.st0{fill:#AEAEAE;}
	.st1{fill:#3E3E3E;}
	.st2{fill:#FFFFFF;}
	.st3{fill:#666666;}
	.st4{fill:#8BBCE1;}
	.st5{fill:#B6B7B7;}
	.st6{fill:#434444;}
	.st7{fill:#3A8DCC;}
	.st8{fill:#8B8E8E;}
	.st9{fill:#4F5151;}
	.st10{fill:#808285;}
	.st11{fill:#939598;}
	.st12{fill:#F15A29;}
	.st13{fill:#414042;}
	.st14{fill:#BCBEC0;}
	.st15{fill:#D1D3D4;}
	.st16{opacity:0.5;fill:#FFFFFF;}
	.st17{fill:#E6E7E8;}
	.st18{fill:#ED1C24;}
	.st19{fill:#BE1E2D;}
</style>
<g transform="translate(50, -30)">
	<g transform="scale(1.8)">
		<g transform="translate(-40, 0)">
			<g>
				<rect x="63.6" y="52.1" class="st0" width="52.8" height="120.2"/>
				<circle class="st0" cx="90" cy="51.8" r="26.4"/>
				<circle class="st1" cx="90" cy="51.8" r="20.1"/>
				<polygon class="st2" points="88.8,43.4 92.5,43.4 90.1,51.1 94,51.1 88.6,60.5 90,53.9 86.5,53.9 				"/>
				<rect x="63.6" y="76.9" class="st3" width="52.8" height="88.4"/>
				<path class="st1" d="M101.8,92.6c0,0.8-0.6,1.4-1.4,1.4H79.5c-0.8,0-1.4-0.6-1.4-1.4l0,0c0-0.8,0.6-1.4,1.4-1.4h20.9
					C101.2,91.3,101.8,91.9,101.8,92.6L101.8,92.6z"/>
			</g>
			<g transform="scale(1.4)">
				<g id="connector" transform="translate(80, 40)">
					<path class="st4" d="M115,38.5c-0.1,0.3-0.4,0.5-0.7,0.4c-1-0.3-2.1-0.2-3.1,0.4c-1.7,0.8-3.6,2.9-5.6,4.7
						c-1,0.9-2.2,1.7-3.5,2.2c-1.5,0.5-3.1,0.5-4.5-0.1c-2-0.8-4.1-2.5-6.3-5.4l0,0c-0.7-0.7-1.3-1.4-1.9-2c-0.9-0.8-2.1-1-3.2-0.6
						c-1.5,0.5-2.9,1.4-4,2.5l0,0c-0.6,0.6-1.1,1.1-1.6,1.5l0,0l0,0l-0.3,0.1l0,0c-1.4,1.4-3.2,2.4-5.1,3c-1.5,0.4-3.1,0.3-4.5-0.4
						c-1.4-0.8-2.6-1.8-3.6-3l0,0L67,41.7c-2.2-2.8-3.9-4.2-5.2-4.7c-1.1-0.4-2.3-0.3-3.2,0.3c-1.7,0.9-3.5,3-5.6,4.8
						c-1.1,0.9-2.3,1.7-3.7,2.1c-1.6,0.4-3.2,0.3-4.7-0.3c-0.5-0.2-1-0.4-1.4-0.7c-0.3-0.2-0.7-0.1-0.8,0.2
						c-2.7,4.3-8.2,6.1-12.9,4.3l-0.1-0.1l0,0L25.3,46c-1.9-0.7-2.9-2.9-2.1-4.8l0,0l0.2-0.5l-5.6-2.2c-0.9-0.4-1.3-1.4-1-2.3
						c0.3-0.9,1.3-1.3,2.2-1l0,0l5,2c0.3,0.1,0.7,0,0.8-0.3l0,0l1.7-4.5c0.1-0.3,0-0.7-0.3-0.8l0,0l-5-1.9c-0.9-0.3-1.3-1.3-1-2.2
						l0,0c0.3-0.9,1.3-1.3,2.2-1l5.6,2.2l0.2-0.5c0.8-1.9,2.9-2.9,4.8-2.1l4.1,1.6l0,0l0.1,0.1c4.8,1.8,7.6,6.8,6.7,11.8
						c0,0.2,0.1,0.5,0.3,0.6c0.5,0.4,1,0.7,1.6,0.9c1.2,0.5,2.5,0.4,3.6-0.2c1.7-0.8,3.6-2.9,5.6-4.7c1-0.9,2.2-1.7,3.5-2.2
						c1.5-0.5,3.1-0.5,4.5,0.1c2,0.8,4.1,2.5,6.3,5.4l0,0c0.7,0.7,1.3,1.4,1.9,2c0.9,0.8,2.1,1.1,3.2,0.7c1.5-0.5,2.9-1.4,4-2.5l0,0
						c0.6-0.6,1.1-1.1,1.6-1.5l0,0l0,0l0.2-0.2l0,0c1.4-1.4,3.2-2.4,5.1-3c1.5-0.4,3.1-0.3,4.5,0.4c1.4,0.8,2.6,1.8,3.6,3l0,0
						l0.1,0.1c2.2,2.8,3.9,4.2,5.2,4.7c1.1,0.4,2.3,0.3,3.3-0.4c1.7-0.9,3.5-3,5.6-4.8c1.1-0.9,2.3-1.7,3.7-2.1
						c1.3-0.4,2.7-0.4,4.1,0c0.3,0.1,0.5,0.4,0.4,0.8l0,0L115,38.5z"/>
					<script>var startX = 80;
					var endX = 40;
					var y = 40;
					var x = startX;
					var connector = document.getElementById(&quot;connector&quot;);
					setInterval(move, 50);
					function move()
					{ 
						if(x &gt; endX){
							x = x-1;
							connector.setAttribute(&apos;transform&apos;, &apos;translate(&apos;+ x +&apos;,&apos; + y +&apos;)&apos;);
						}
						else
							x = startX;
					}
						</script>
				</g>
			</g>
			<g id="car_1_">
				<g>
					<path class="st5" d="M325.9,61.9c0.7,1,1,2.2,1.2,3.4c0.2,1,0.3,2.1,0,3.2c-0.3,1-1.2,1.9-2.3,2c-0.2,0-0.5,0-0.7-0.2
						c-0.2-0.1-0.2-0.3-0.3-0.5c-0.9-2.2-1.1-4.6-1.3-6.9c-0.1-0.8-0.1-2.4,0.9-2.6C324.3,60,325.4,61.2,325.9,61.9z"/>
				</g>
				<g>
					<path class="st6" d="M305.8,53.6c0.3-0.2,0.7-0.3,1-0.3c0.4,0.1,0.8,0.3,1.1,0.7c0.3,0.4,0.4,0.8,0.5,1.2
						c0.3,1.1,0.2,2.3,0,3.4c-0.1,0.4-0.2,0.8-0.6,1c-0.2,0.1-0.4,0.2-0.6,0.3c-0.5,0.2-1.2,0.3-1.6,0c-0.4-0.2-0.6-0.7-0.7-1.1
						c-0.3-1-0.1-2-0.1-3C304.9,54.9,304.9,54.1,305.8,53.6z"/>
				</g>
				<g>
					<path class="st6" d="M312.2,56.9c-2.2-1-4.7-1.5-7.1-1.9s-4.9-0.9-7.3-1.1c-0.9-0.1-1.8-0.1-2.6,0.3c-0.8,0.4-1.3,1.5-0.8,2.2
						s1.5,0.8,2.3,0.8c3.5-0.1,7.1,0.2,10.4,1.4s6.3,3.5,7.9,6.6c0.5,0.9,1.1,2.2,2.1,2c0.9-0.2,1.2-1.2,1.2-2.1
						C318.4,61.5,315.3,58.4,312.2,56.9z"/>
				</g>
				<g>
					<path class="st7" d="M228.8,98.1l4.9-7.8l40.3,1c0,0-0.6,15.2,1.4,24.8C278.2,129.6,288,142,288,142l-32.6-1.6L228.8,98.1z"/>
				</g>
				<g>
					<g>
						<path class="st8" d="M355.5,145.2c0,3.3-2.6,5.9-5.9,5.9s-5.9-2.6-5.9-5.9s2.6-5.9,5.9-5.9C352.8,139.3,355.5,142,355.5,145.2
							z"/>
					</g>
					<g>
						<path class="st8" d="M345.5,133.3c0,0.1,2.1,7.8,2.1,7.8l5.3,0.7l3.8-7.1l-5.3-2.2L345.5,133.3z"/>
					</g>
					<g>
						<path class="st8" d="M362.2,147.8c-0.1,0-7.8-2.2-7.8-2.2l-3.3,4.1l4.1,6.9l4.6-3.5L362.2,147.8z"/>
					</g>
					<g>
						<path class="st8" d="M343,156.4c0.1-0.1,4.6-6.7,4.6-6.7l-2.9-4.5l-7.8,1.7l1.8,5.5L343,156.4z"/>
					</g>
					<g>
						<path class="st5" d="M353.6,145.2c0,2.2-1.8,4-4,4s-4-1.8-4-4s1.8-4,4-4C351.8,141.2,353.6,143,353.6,145.2z"/>
					</g>
					<g>
						<g>
							<path class="st5" d="M349.6,159.5c-7.9,0-14.3-6.4-14.3-14.3c0-7.9,6.4-14.3,14.3-14.3s14.3,6.4,14.3,14.3
								S357.5,159.5,349.6,159.5z M349.6,133.5c-6.5,0-11.8,5.3-11.8,11.8s5.3,11.8,11.8,11.8s11.8-5.3,11.8-11.8
								C361.3,138.7,356.1,133.5,349.6,133.5z"/>
						</g>
					</g>
					<g>
						<path class="st9" d="M349.6,128.2c-9.4,0-17.1,7.6-17.1,17.1c0,9.4,7.6,17.1,17.1,17.1c9.4,0,17.1-7.6,17.1-17.1
							C366.6,135.8,359,128.2,349.6,128.2z M349.6,158.3c-7.2,0-13-5.8-13-13s5.8-13,13-13s13,5.8,13,13
							C362.6,152.4,356.8,158.3,349.6,158.3z"/>
					</g>
					<g>
						<g>
							<path class="st6" d="M336.6,145.2c0-7.2,5.8-13,13-13c4,0,7.7,1.8,10.1,4.7c-2.4-3.4-6.3-5.6-10.7-5.6c-7.2,0-13,5.8-13,13
								c0,3.1,1.1,6,3,8.3C337.4,150.6,336.6,148,336.6,145.2z"/>
						</g>
						<g>
							<path class="st6" d="M362.9,134.5c2,2.8,3.1,6.2,3.1,9.8c0,9.4-7.6,17.1-17.1,17.1c-5.4,0-10.2-2.5-13.3-6.4
								c3.1,4.4,8.2,7.2,13.9,7.2c9.4,0,17.1-7.6,17.1-17.1C366.6,141.2,365.2,137.5,362.9,134.5z"/>
						</g>
					</g>
				</g>
				<g>
					<g>
						<path class="st8" d="M226.6,143.7c0,3.3-2.6,5.9-5.9,5.9c-3.3,0-5.9-2.6-5.9-5.9s2.6-5.9,5.9-5.9S226.6,140.4,226.6,143.7z"/>
					</g>
					<g>
						<path class="st8" d="M216.7,131.7c0,0.1,2.1,7.8,2.1,7.8l5.3,0.7l3.8-7.1l-5.3-2.2L216.7,131.7z"/>
					</g>
					<g>
						<path class="st8" d="M233.4,146.3c-0.1,0-7.8-2.2-7.8-2.2l-3.3,4.1l4.1,6.9l4.6-3.5L233.4,146.3z"/>
					</g>
					<g>
						<path class="st8" d="M214.1,154.8c0.1-0.1,4.6-6.7,4.6-6.7l-2.9-4.5l-7.8,1.7l1.8,5.5L214.1,154.8z"/>
					</g>
					<g>
						<path class="st5" d="M224.7,143.7c0,2.2-1.8,4-4,4s-4-1.8-4-4s1.8-4,4-4C222.9,139.6,224.7,141.4,224.7,143.7z"/>
					</g>
					<g>
						<g>
							<path class="st5" d="M220.7,158c-7.9,0-14.3-6.4-14.3-14.3s6.4-14.3,14.3-14.3c7.9,0,14.3,6.4,14.3,14.3S228.6,158,220.7,158
								z M220.7,131.9c-6.5,0-11.8,5.3-11.8,11.8s5.3,11.8,11.8,11.8s11.8-5.3,11.8-11.8S227.2,131.9,220.7,131.9z"/>
						</g>
					</g>
					<g>
						<path class="st9" d="M220.7,126.6c-9.4,0-17.1,7.6-17.1,17.1c0,9.4,7.6,17.1,17.1,17.1c9.4,0,17.1-7.6,17.1-17.1
							S230.1,126.6,220.7,126.6z M220.7,156.7c-7.2,0-13-5.8-13-13s5.8-13,13-13s13,5.8,13,13C233.8,150.9,227.9,156.7,220.7,156.7z
							"/>
					</g>
					<g>
						<g>
							<path class="st6" d="M207.7,143.7c0-7.2,5.8-13,13-13c4,0,7.7,1.8,10.1,4.7c-2.4-3.4-6.3-5.6-10.7-5.6c-7.2,0-13,5.8-13,13
								c0,3.1,1.1,6,3,8.3C208.6,149,207.7,146.4,207.7,143.7z"/>
						</g>
						<g>
							<path class="st6" d="M234,133c2,2.8,3.1,6.2,3.1,9.8c0,9.4-7.6,17.1-17.1,17.1c-5.4,0-10.2-2.5-13.3-6.4
								c3.1,4.4,8.2,7.2,13.9,7.2c9.4,0,17.1-7.6,17.1-17.1C237.8,139.6,236.4,135.9,234,133z"/>
						</g>
					</g>
				</g>
				<g>
					<path class="st7" d="M359.1,124.6c-6-3.8-21-4.2-27.5,4.4c-6.1,8.1-5.7,17.8-5.7,17.8l7.6-0.3c0-0.4-0.1-0.9-0.1-1.3
						c0-9.2,7.4-16.6,16.6-16.6c5.8,0,11.7,4.3,14.6,9.5c1.8,0.9,3.1,0,3.1,0S367.6,130,359.1,124.6z"/>
				</g>
				<g>
					<path class="st7" d="M230.2,124.6c-6-3.8-21-4.2-27.5,4.4c-6.1,8.1-5.7,17.8-5.7,17.8l7.6-0.3c0-0.4-0.1-0.9-0.1-1.3
						c0-9.2,7.4-16.6,16.6-16.6c5.8,0,11.7,4.3,14.6,9.5c1.8,0.9,3.1,0,3.1,0S238.8,130,230.2,124.6z"/>
				</g>
				<g>
					<path class="st6" d="M334,114.4l13.6,30.9c0,0,1.1,2.5,3,1.6c1.4-0.7,0.6-3,0.6-3l-13.3-31.6L334,114.4z"/>
				</g>
				<g>
					<path class="st6" d="M338.8,114.6c0,0-12.9,3.4-14.5-0.1c-1-2.3-8.9-32.4-7.3-35c1.6-2.5,5.8-4.3,5.8-4.3L338.8,114.6z"/>
				</g>
				<g>
					<path class="st7" d="M322.8,75.2c0,0,4.4-0.9,6.8,1.7s13.3,26.9,13.5,30s-4.3,7.7-4.3,7.7L322.8,75.2z"/>
				</g>
				<g>
					<path class="st7" d="M343.1,106.7c-0.2-3.1-11.1-27.4-13.5-30c-0.6-0.7-1.3-1.1-2.1-1.4c0,0,0,0,0.1,0.1
						c2.4,2.6,13.3,26.9,13.5,30c0.2,2.1-1.9,5-3.3,6.5l1,2.4C338.8,114.4,343.3,109.8,343.1,106.7z"/>
				</g>
				<g>
					<path class="st6" d="M321.6,73c0,0-6.2-0.3-7-1.3s-1.1-8.1-0.8-8.9c0.9-1.9,5.7-3.3,5.7-3.3L321.6,73z"/>
				</g>
				<g>
					<path class="st7" d="M319.5,59.5c0,0,3.9-1.1,4.9,1.5c1,2.5,1.7,8,1.6,9.3s-4.3,2.8-4.3,2.8L319.5,59.5z"/>
				</g>
				<g>
					<path class="st6" d="M321.7,125.6l3.9,1.6c1.2,0.5,1.8,1.9,1.3,3.1l-6.8,17.7c-0.4,0.9-1.3,1.6-2.3,1.6h-68.6
						c-1.3,0-2.4-1-2.5-2.3c-0.2-4.6-1.2-14.7-4.5-19.2c-4.4-5.9-9.2-4.8-11.5-7.6c-2.4-2.8-1.4-14.4-3-17.4c-1-2-11-1.8-17.5-1.5
						c-2.1,0.1-4.9-4-3.5-5.6c0,0,28.2-0.3,31,0.8c2.9,1.2,6.7,18.3,9.3,19.3s11.6-0.2,13.1,2.8c4.2,8.3,3.2,19.7,7,20.4
						c3.8,0.6,38.5,1.8,42.7,0.3c3.1-1.1,7-8.9,8.7-12.8C319.1,125.6,320.5,125.1,321.7,125.6z"/>
				</g>
				<g>
					<path class="st6" d="M327.1,113.6c-0.1,0.3-6.3,14.1-6.3,14.1l4.3,2l7.1-15.1L327.1,113.6z"/>
				</g>
				<g>
					<polygon class="st6" points="316.3,70.9 318.9,81 322.7,80 319.5,70.1 					"/>
				</g>
				<g>
					<path class="st6" d="M234.6,116.7c-0.2,0.3-15.6,26.1-15.6,26.1s-0.7,1.4,0,2.4s3.3,1,3.3,1l30.7-1v-5.9c0,0-29.6,5.2-30.1,4.3
						s16.1-23.2,16.1-23.2L234.6,116.7z"/>
				</g>
				<g>
					<path class="st8" d="M232.8,119.4c6.9-0.3,13.8-0.3,20.7,0.1c0.9,0,1.8,0.1,2.6,0.4c0.8,0.3,1.6,0.8,2,1.7
						c0.2,0.4,0.4,1,0.8,0.9c0.8-1,0.2-2.6-0.8-3.4c-1.1-0.7-2.4-0.8-3.7-0.9c-1.5-0.1-2.9-0.2-4.4-0.2c-3.5-0.2-7.1-0.4-10.6-0.6
						c-2.2-0.1-4.5-0.3-6.8,0C230.4,117.5,230.6,119.5,232.8,119.4z"/>
				</g>
				<g>
					<path class="st8" d="M309,144.1h-59.3c-0.5,0-0.9-0.4-0.9-0.9l0,0c0-0.5,0.4-0.9,0.9-0.9H309c0.5,0,0.9,0.4,0.9,0.9l0,0
						C309.9,143.7,309.5,144.1,309,144.1z"/>
				</g>
				<g>
					<path class="st7" d="M267,103.2c4.3,6.1,7.2,13,10.5,19.7c-0.8-2.2-1.5-4.5-1.9-6.8c-2-9.6-1.4-24.8-1.4-24.8l-40.3-1l-1.9,3
						c6.7-0.2,13.5,0.2,20.2,1c2.7,0.4,5.4,0.8,7.8,2.1C262.9,97.9,265.1,100.5,267,103.2z"/>
				</g>
				<g>
					<path class="st6" d="M231.2,86.6c-0.9,0.7-1.2,1.9-1.2,3c0,0.7,0.1,1.5,0.6,2c0.6,0.6,1.5,0.7,2.3,0.8
						c13.8,0.8,27.5,1.2,41.3,1c0.5,0,0.9,0,1.3-0.2s0.7-0.5,0.9-0.9c0.7-1.1,0.7-2.6,0.2-3.8c-0.6-1.2-1.7-2.1-3-2.3
						c-0.9-0.2-1.8,0-2.7,0.1c-7.1,1-14.2,1.5-21.4,1.3c-3.5-0.1-7-0.6-10.6-0.7c-1.3,0-2.4,0-3.7-0.2
						C234.1,86.3,232.5,85.7,231.2,86.6z"/>
				</g>
			</g>
		</g>
	</g>
</g>
<g>
	<g>
		<path d="M545.5,201.2c0,20.4,16.5,36.9,36.9,36.9c20.4,0,36.9-16.5,36.9-36.9c0-20.4-16.5-36.9-36.9-36.9
			C562,164.3,545.5,180.8,545.5,201.2z M557.9,201.2c0-13.5,11-24.5,24.5-24.5c13.5,0,24.5,11,24.5,24.5c0,13.5-11,24.5-24.5,24.5
			C568.8,225.7,557.9,214.7,557.9,201.2z"/>
		<g>
			<path class="st10" d="M556.9,201.2c0,14.1,11.4,25.4,25.4,25.4c14.1,0,25.4-11.4,25.4-25.4c0-14.1-11.4-25.4-25.4-25.4
				C568.3,175.7,556.9,187.1,556.9,201.2z M559.5,201.2c0-12.6,10.2-22.9,22.9-22.9c12.6,0,22.9,10.2,22.9,22.9
				c0,12.6-10.2,22.9-22.9,22.9C569.7,224.1,559.5,213.8,559.5,201.2z"/>
		</g>
	</g>
	<g>
		<circle class="st10" cx="582.3" cy="201.2" r="13"/>
		<ellipse transform="matrix(0.7071 -0.7071 0.7071 0.7071 28.3011 470.7055)" cx="582.3" cy="201.2" rx="10.4" ry="10.4"/>
	</g>
	<g>
		<g>
			<path d="M316.1,201.2c0,20.4,16.5,36.9,36.9,36.9s36.9-16.5,36.9-36.9c0-20.4-16.5-36.9-36.9-36.9S316.1,180.8,316.1,201.2z
				 M328.5,201.2c0-13.5,11-24.5,24.5-24.5c13.5,0,24.5,11,24.5,24.5c0,13.5-11,24.5-24.5,24.5C339.4,225.7,328.5,214.7,328.5,201.2
				z"/>
			<g>
				<path class="st10" d="M327.5,201.2c0,14.1,11.4,25.4,25.4,25.4c14.1,0,25.4-11.4,25.4-25.4c0-14.1-11.4-25.4-25.4-25.4
					C338.9,175.7,327.5,187.1,327.5,201.2z M330.1,201.2c0-12.6,10.2-22.9,22.9-22.9c12.6,0,22.9,10.2,22.9,22.9
					c0,12.6-10.2,22.9-22.9,22.9C340.3,224.1,330.1,213.8,330.1,201.2z"/>
			</g>
		</g>
		<g>
			<circle class="st10" cx="353" cy="201.2" r="13"/>
			<ellipse transform="matrix(0.9732 -0.2298 0.2298 0.9732 -36.7822 86.4733)" cx="353" cy="201.2" rx="10.4" ry="10.4"/>
		</g>
	</g>
	<path class="st11" d="M582.3,205c0.7,0,1.4-0.2,2-0.6c1.8-1.1,2.3-3.4,1.2-5.2L510.2,77.6c-1.1-1.8-3.4-2.3-5.2-1.2
		c-1.8,1.1-2.3,3.4-1.2,5.2l75.4,121.6C579.9,204.3,581.1,205,582.3,205z"/>
	<path class="st11" d="M505,76.4c1.8-1.1,4.1-0.6,5.2,1.2l71.3,115.1c-1.8,3.6-6.8,3.3-6.8,3.3L503.8,81.6
		C502.7,79.8,503.2,77.5,505,76.4z"/>
	<g>
		<path d="M491.6,33.7h1.1c5.3,0,9.7,4.3,9.7,9.7l0,0c0,1.7,0.7,3.3,1.9,4.5l13.2,13.2l-1.2,1.2L503.1,49c-1.2-1.2-2.8-1.9-4.5-1.9
			h-4.8c-4.3,0-7.8-3.5-7.8-7.8l0,0C486,36.2,488.5,33.7,491.6,33.7z"/>
		<path class="st2" d="M500.2,42.3c0-2-0.7-4-2.2-5.5c-0.7-0.7-1.6-1.3-2.6-1.6c-1-0.3-2-0.4-3-0.2c2,0.4,3.6,1.2,4.9,2.5
			C498.6,38.7,499.4,40.4,500.2,42.3z"/>
	</g>
	<path class="st12" d="M601.3,163.3c-5.4,17.2-21.4,29.7-40.4,29.7c-6.8,0-13.3-1.6-19-4.5c5.4-17.2,21.4-29.7,40.4-29.7
		C589.2,158.8,595.6,160.5,601.3,163.3z"/>
	<path class="st11" d="M582.3,158.8c1.3,0,2.6,0.1,3.9,0.2c-13.2,7.9-24.4,19.7-31.7,33.5c-4.5-0.7-8.7-2-12.6-4
		C547.3,171.3,563.4,158.8,582.3,158.8z"/>
	<path d="M353,159.2c-19.4,0-35.7,13.1-40.5,31c-0.8,2.9-3.4,5-6.5,5l0,0c1.5-28.5,25.2-51.2,54.4-51.2c29.1,0,52.9,22.7,54.4,51.2
		h-20.1C391.6,174.8,374.1,159.2,353,159.2z"/>
	<path d="M431.8,130.9c9.5,47.4,36.4,50.5,36.4,50.5l29.4,3.5c7.8,0.9,15.2-3.5,18.2-10.7l4.3-10.6c4.5-11,3.8-23.5-1.7-34
		l-19.4-36.7c-1.5-2.9-2.4-6.1-2.8-9.3l0,0c-1.6-13.1,8.5-24.6,21.7-24.6h4.7l-5.6,22.7v4.9l37.3,37.6L527,201.9h-84.2v-14H406
		l-48.4-34.9v-42.2L431.8,130.9z"/>
	<path class="st13" d="M328.5,118.1l110,19.2c4.3,0.8,8.3-2.6,8.3-6.9v0c0-10.1-8.1-18.3-18.1-18.5l-43.8-0.9l-38.4-7.5
		C337.1,101.5,328.5,108.6,328.5,118.1L328.5,118.1z"/>
	<path class="st10" d="M442.9,135.3c0-10.7-8.8-19.4-19.8-19.6l-47.9-1l-30.6-5.8c-3.6-0.7-2.8-6.1,0.8-5.7c0.3,0,0.7,0.1,1,0.2
		l38.4,7.5l43.8,0.9c10.1,0.2,18.1,8.4,18.1,18.5c0,2.8-1.7,5.2-4,6.4C442.8,136.2,442.9,135.8,442.9,135.3z"/>
	<g>
		<path d="M345.2,189.9v-0.1h0.3c1.7-0.9,3.7-1.4,5.7-1.5c3-12.1,14-21.2,27-21.2h35c5.4,0,9.8,4.4,9.8,9.8v0
			c0,7.1,5.8,12.9,12.9,12.9h18.8c2-1,4.2-1.6,6.6-1.6h52.2c2.4,0,4.6,0.6,6.6,1.6h1.1c1.6,0,2.8,1.3,2.8,2.8v0
			c2.6,2.7,4.2,6.3,4.2,10.4l0,0c0,8.2-6.6,14.8-14.8,14.8h-52.2c-3.2,0-6.1-1-8.6-2.7h-32.1c-2.4,1.7-5.4,2.7-8.6,2.7h-60.1
			c-8.2,0-14.8-6.6-14.8-14.8l0,0C337.3,197.3,340.5,192.4,345.2,189.9z"/>
		<path class="st10" d="M378.7,188.8h-8.4c-8.5,0-25.5,2-25.5,4.6l0,0h32.7c6.7,0,12.1,5.4,12.1,12.1c0,0.2,0,0.4,0,0.7
			c0.8-1.6,1.2-3.3,1.2-5.2v0C390.7,194.2,385.3,188.8,378.7,188.8z"/>
	</g>
	<path class="st12" d="M503.3,85.2h15.2c48.8,22.7,68.5,65.9,68.5,65.9l-25.4,21.3c-13.9,11.7-21.9,28.8-21.7,46.7v0
		c0,0-41.2,9.1-121-18.8c-3.4-1.2-6.2-3.5-8.2-6.4c-30.9-46.9-62.1-46.4-73.5-46.4c-36.9,0-13.6-6.2-17.1-12.7
		c-2.6-4.7-4-10.1-4-15.6v-0.6c0-10.1,11.8-10.9,17.9-9.6c26.3,5.6,77.2,16.8,100.8,58.8c6.3,11.2,17.2,19.2,29.9,21.4
		c13.9,2.4,32.4,4.6,50,3.3c6.3-0.5,11.7-4.8,13.4-11l13.2-47c1.5-5.2,0-10.9-3.8-14.7L503.3,85.2z"/>
	<path class="st12" d="M517.4,73.7v-0.2c0-4.4-3.6-8-8-8l0,0c2.1-2.8,4.6-5.2,7.6-7.2l9-6l7.9,10c4.1,5.2,6.3,11.6,6.3,18.2
		c0,1.8-1.5,3.2-3.3,3.2h-33.5c0,0,0,0,0-0.1c0-3.6,3-6.4,6.6-6.4h3.8C515.7,77.4,517.4,75.8,517.4,73.7z"/>
	<path class="st14" d="M528.7,220.3L528.7,220.3c-17.2,0.9-54.1-0.5-109.8-20c-2.7-0.9-5-2.5-6.8-4.7c47.7,12.3,84.8,17,110.9,18.5
		C526.2,214.4,528.7,217,528.7,220.3z"/>
	<path class="st15" d="M390,151.1c-28.3-16.7-55.9-20.3-71.9-20.8c-1.3-3.6-2-7.3-2-11.2v-0.6c0-0.6,0-1.2,0.1-1.7
		c17.2,1.9,51.2,8.6,75.3,32.5C392.6,150.2,391.3,151.9,390,151.1z"/>
	<path class="st16" d="M587,151.1l-2.1,1.7c-6.2-9.6-26-37.8-59.6-59h8.9C571.6,117.4,587,151.1,587,151.1z"/>
	<path class="st16" d="M518.5,85.2c5.7,2.6,10.9,5.6,15.8,8.6h-8.9c-4.8-3-9.9-6-15.3-8.6H518.5z"/>
	<path class="st16" d="M526,52.4l-3.4,2.2l7.6,8.5c5.2,5.8,8.1,12.8,8.4,20.1c0.8-0.6,1.4-1.5,1.4-2.6c0-6.6-2.2-13-6.3-18.2
		L526,52.4z"/>
	<g>
		<g>
			<path class="st10" d="M489.5,75.8h21.7c1.9,0,3.5-1.6,3.5-3.5l0,0c0-1.9-1.6-3.5-3.5-3.5h-21.7c-1.9,0-3.5,1.6-3.5,3.5l0,0
				C486,74.2,487.6,75.8,489.5,75.8z"/>
			<path class="st13" d="M514.7,72.3C514.7,72.3,514.7,72.3,514.7,72.3c0,2-1.6,3.5-3.5,3.5h-21.7c-1.9,0-3.5-1.6-3.5-3.5
				c0,0,0,0,0,0H514.7z"/>
		</g>
		
			<ellipse transform="matrix(0.9732 -0.2298 0.2298 0.9732 -3.5182 114.3986)" class="st13" cx="489.5" cy="72.3" rx="3.5" ry="3.5"/>
		<circle class="st10" cx="489.5" cy="72.3" r="2.2"/>
	</g>
	<path class="st17" d="M537.7,68.8c1.4,3.3,2.2,6.8,2.4,10.4l-10.2-3.9c-2.7-1-4.5-3.7-4.5-6.6H537.7z"/>
	<path class="st10" d="M537.7,68.8c0.2,0.4,0.3,0.7,0.4,1.1h-10.9c0,1.9,0.7,3.7,1.8,5.1c-2.3-1.2-3.8-3.6-3.8-6.2H537.7z"/>
	<path class="st16" d="M434.8,167.7c6.3,11.2,17.2,19.2,29.9,21.4c13.9,2.4,32.4,4.6,50,3.3c2.6-0.2,4.9-1,7-2.3
		c-9.1,8.5-50.4,7.4-65.8,4.7c-14.1-2.5-26.1-11.3-33.1-23.8c-22.6-40.1-67.6-54.9-98.2-62.2c3.3-0.7,6.9-0.6,9.4,0
		C360.2,114.5,411.1,125.7,434.8,167.7z"/>
	<path class="st16" d="M601.3,163.3c-0.4,1.2-0.8,2.3-1.2,3.4c-2.6-1.1-5.2-2-8-2.5c-2.3-0.5-4-2.6-4-5l0,0
		C592.7,159.9,597.2,161.3,601.3,163.3z"/>
	<path class="st16" d="M371.3,148.2c-22.1-8.3-45-8.9-52.2-8.8c1-1.4,1.7-2.8,1.1-4.3C328.4,135.5,355.8,137.6,371.3,148.2z"/>
	<path class="st18" d="M316.2,116.7c1.8,0.2,3.8,0.4,5.9,0.8c5.1,0.8,8.9,5.2,8.9,10.4v0c0,1.8-1.6,3.3-3.4,3.1
		c-3.5-0.3-6.7-0.5-9.6-0.6c-1.3-3.6-2-7.3-2-11.2v-0.6C316.1,117.9,316.1,117.3,316.2,116.7z"/>
	<path class="st19" d="M320.6,121c-1.5-0.2-3-0.4-4.4-0.6c0-0.4-0.1-0.9-0.1-1.3v-0.6c0-0.6,0-1.2,0.1-1.7c1.8,0.2,3.8,0.4,5.9,0.8
		c5.1,0.8,8.9,5.2,8.9,10.4l0,0c0,1-0.5,2-1.3,2.5C329.3,125.6,325.6,121.7,320.6,121z"/>
</g>
</svg>
