<?xml version="1.0" encoding="utf-8"?>
<!-- Generator: Adobe Illustrator 25.2.3, SVG Export Plug-In . SVG Version: 6.00 Build 0)  -->
<svg version="1.1" id="Layer_1" xmlns="http://www.w3.org/2000/svg" xmlns:xlink="http://www.w3.org/1999/xlink" x="0px" y="0px"
	 viewBox="0 0 800 300" style="enable-background:new 0 0 800 300;" xml:space="preserve">
<style type="text/css">
	.st0{fill:#AEAEAE;}
	.st1{fill:#3E3E3E;}
	.st2{fill:#FFFFFF;}
	.st3{fill:#666666;}
	.st4{fill:#8BBCE1;}
	.st5{fill:#808285;}
	.st6{fill:#939598;}
	.st7{fill:#3A8DCC;}
	.st8{fill:#414042;}
	.st9{fill:#BCBEC0;}
	.st10{fill:#D1D3D4;}
	.st11{opacity:0.5;fill:#FFFFFF;enable-background:new    ;}
	.st12{fill:#E6E7E8;}
	.st13{fill:#ED1C24;}
	.st14{fill:#BE1E2D;}
</style>
<g transform="translate(50, -30)">
	<g transform="scale(1.8)">
		<g transform="translate(-40, 0)">
			<g>
				<rect x="63.6" y="52.1" class="st0" width="52.8" height="120.2"/>
				<circle class="st0" cx="90" cy="51.8" r="26.4"/>
				<circle class="st1" cx="90" cy="51.8" r="20.1"/>
				<polygon class="st2" points="88.8,43.4 92.5,43.4 90.1,51.1 94,51.1 88.6,60.5 90,53.9 86.5,53.9 				"/>
				<rect x="63.6" y="76.9" class="st3" width="52.8" height="88.4"/>
				<path class="st1" d="M101.8,92.6c0,0.8-0.6,1.4-1.4,1.4H79.5c-0.8,0-1.4-0.6-1.4-1.4l0,0c0-0.8,0.6-1.4,1.4-1.4h20.9
					C101.2,91.3,101.8,91.9,101.8,92.6L101.8,92.6z"/>
			</g>
			<g transform="scale(1.4)">
				<g id="connector" transform="translate(80, 40)">
					<path class="st4" d="M119,38.5c-0.1,0.3-0.4,0.5-0.7,0.4c-1-0.3-2.1-0.2-3.1,0.4c-1.7,0.8-3.6,2.9-5.6,4.7
						c-1,0.9-2.2,1.7-3.5,2.2c-1.5,0.5-3.1,0.5-4.5-0.1c-2-0.8-4.1-2.5-6.3-5.4l0,0c-0.7-0.7-1.3-1.4-1.9-2c-0.9-0.8-2.1-1-3.2-0.6
						c-1.5,0.5-2.9,1.4-4,2.5l0,0c-0.6,0.6-1.1,1.1-1.6,1.5l0,0l0,0l-0.3,0.1l0,0c-1.4,1.4-3.2,2.4-5.1,3c-1.5,0.4-3.1,0.3-4.5-0.4
						c-1.4-0.8-2.6-1.8-3.6-3l0,0L71,41.7c-2.2-2.8-3.9-4.2-5.2-4.7c-1.1-0.4-2.3-0.3-3.2,0.3c-1.7,0.9-3.5,3-5.6,4.8
						c-1.1,0.9-2.3,1.7-3.7,2.1c-1.6,0.4-3.2,0.3-4.7-0.3c-0.5-0.2-1-0.4-1.4-0.7c-0.3-0.2-0.7-0.1-0.8,0.2
						c-2.7,4.3-8.2,6.1-12.9,4.3l-0.1-0.1l0,0L29.3,46c-1.9-0.7-2.9-2.9-2.1-4.8l0,0l0.2-0.5l-5.6-2.2c-0.9-0.4-1.3-1.4-1-2.3
						c0.3-0.9,1.3-1.3,2.2-1l0,0l5,2c0.3,0.1,0.7,0,0.8-0.3l0,0l1.7-4.5c0.1-0.3,0-0.7-0.3-0.8l0,0l-5-1.9c-0.9-0.3-1.3-1.3-1-2.2
						l0,0c0.3-0.9,1.3-1.3,2.2-1l5.6,2.2l0.2-0.5c0.8-1.9,2.9-2.9,4.8-2.1l4.1,1.6l0,0l0.1,0.1c4.8,1.8,7.6,6.8,6.7,11.8
						c0,0.2,0.1,0.5,0.3,0.6c0.5,0.4,1,0.7,1.6,0.9c1.2,0.5,2.5,0.4,3.6-0.2c1.7-0.8,3.6-2.9,5.6-4.7c1-0.9,2.2-1.7,3.5-2.2
						c1.5-0.5,3.1-0.5,4.5,0.1c2,0.8,4.1,2.5,6.3,5.4l0,0c0.7,0.7,1.3,1.4,1.9,2c0.9,0.8,2.1,1.1,3.2,0.7c1.5-0.5,2.9-1.4,4-2.5l0,0
						c0.6-0.6,1.1-1.1,1.6-1.5l0,0l0,0l0.2-0.2l0,0c1.4-1.4,3.2-2.4,5.1-3c1.5-0.4,3.1-0.3,4.5,0.4c1.4,0.8,2.6,1.8,3.6,3l0,0
						l0.1,0.1c2.2,2.8,3.9,4.2,5.2,4.7c1.1,0.4,2.3,0.3,3.3-0.4c1.7-0.9,3.5-3,5.6-4.8c1.1-0.9,2.3-1.7,3.7-2.1
						c1.3-0.4,2.7-0.4,4.1,0c0.3,0.1,0.5,0.4,0.4,0.8l0,0L119,38.5z"/>
					<script>var startX = 80;
					var endX = 40;
					var y = 40;
					var x = startX;
					var connector = document.getElementById(&quot;connector&quot;);
					setInterval(move, 50);
					function move()
					{ 
						if(x &gt; endX){
							x = x-1;
							connector.setAttribute(&apos;transform&apos;, &apos;translate(&apos;+ x +&apos;,&apos; + y +&apos;)&apos;);
						}
						else
							x = startX;
					}
						</script>
				</g>
			</g>
			<g id="car_1_">
				<g>
					<path d="M347.5,150.5c0,11.3,9.2,20.5,20.5,20.5s20.5-9.2,20.5-20.5S379.4,130,368,130C356.7,130,347.5,139.2,347.5,150.5z
						 M354.4,150.5c0-7.5,6.1-13.6,13.6-13.6s13.6,6.1,13.6,13.6s-6.1,13.6-13.6,13.6S354.4,158,354.4,150.5z"/>
					<g>
						<path class="st5" d="M353.9,150.5c0,7.8,6.3,14.1,14.1,14.1c7.8,0,14.1-6.3,14.1-14.1s-6.3-14.1-14.1-14.1
							C360.2,136.4,353.9,142.7,353.9,150.5z M355.3,150.5c0-7,5.7-12.7,12.7-12.7s12.7,5.7,12.7,12.7s-5.7,12.7-12.7,12.7
							S355.3,157.5,355.3,150.5z"/>
					</g>
				</g>
				<g>
					<circle class="st5" cx="368" cy="150.5" r="7.2"/>
					<ellipse transform="matrix(0.7071 -0.7071 0.7071 0.7071 1.353 304.267)" cx="368" cy="150.5" rx="5.8" ry="5.8"/>
				</g>
				<g>
					<g>
						<path d="M220.1,150.5c0,11.3,9.2,20.5,20.5,20.5s20.5-9.2,20.5-20.5s-9.2-20.5-20.5-20.5S220.1,139.2,220.1,150.5z M227,150.5
							c0-7.5,6.1-13.6,13.6-13.6s13.6,6.1,13.6,13.6s-6.1,13.6-13.6,13.6C233,164.1,227,158,227,150.5z"/>
						<g>
							<path class="st5" d="M226.4,150.5c0,7.8,6.3,14.1,14.1,14.1s14.1-6.3,14.1-14.1s-6.3-14.1-14.1-14.1S226.4,142.7,226.4,150.5
								z M227.9,150.5c0-7,5.7-12.7,12.7-12.7s12.7,5.7,12.7,12.7s-5.7,12.7-12.7,12.7C233.5,163.2,227.9,157.5,227.9,150.5z"/>
						</g>
					</g>
					<g>
						<circle class="st5" cx="240.6" cy="150.5" r="7.2"/>
						<ellipse cx="240.6" cy="150.5" rx="5.8" ry="5.8"/>
					</g>
				</g>
				<path class="st6" d="M368,152.6c0.4,0,0.8-0.1,1.1-0.3c1-0.6,1.3-1.9,0.7-2.9L328,81.8c-0.6-1-1.9-1.3-2.9-0.7s-1.3,1.9-0.7,2.9
					l41.9,67.6C366.6,152.2,367.3,152.6,368,152.6z"/>
				<path class="st6" d="M325,81.2c1-0.6,2.3-0.3,2.9,0.7l39.6,63.9c-1,2-3.8,1.8-3.8,1.8L324.3,84C323.7,83.1,324,81.8,325,81.2z"
					/>
				<g>
					<path d="M317.6,57.5h0.6c2.9,0,5.4,2.4,5.4,5.4l0,0c0,0.9,0.4,1.8,1.1,2.5l7.3,7.3l-0.7,0.7L324,66c-0.7-0.7-1.6-1.1-2.5-1.1
						h-2.7c-2.4,0-4.3-1.9-4.3-4.3l0,0C314.5,58.9,315.9,57.5,317.6,57.5z"/>
					<path class="st2" d="M322.4,62.2c0-1.1-0.4-2.2-1.2-3.1c-0.4-0.4-0.9-0.7-1.4-0.9c-0.6-0.2-1.1-0.2-1.7-0.1
						c1.1,0.2,2,0.7,2.7,1.4C321.5,60.2,321.9,61.2,322.4,62.2z"/>
				</g>
				<path class="st7" d="M378.5,129.5c-3,9.6-11.9,16.5-22.4,16.5c-3.8,0-7.4-0.9-10.6-2.5c3-9.6,11.9-16.5,22.4-16.5
					C371.8,127,375.4,127.9,378.5,129.5z"/>
				<path class="st6" d="M368,127c0.7,0,1.4,0.1,2.2,0.1c-7.3,4.4-13.6,10.9-17.6,18.6c-2.5-0.4-4.8-1.1-7-2.2
					C348.5,133.9,357.5,127,368,127z"/>
				<path d="M240.6,127.2c-10.8,0-19.8,7.3-22.5,17.2c-0.4,1.6-1.9,2.8-3.6,2.8l0,0c0.8-15.8,14-28.4,30.2-28.4s29.4,12.6,30.2,28.4
					h-11.2C262,135.9,252.3,127.2,240.6,127.2z"/>
				<path d="M284.4,111.5c5.3,26.3,20.2,28.1,20.2,28.1l16.3,1.9c4.3,0.5,8.4-1.9,10.1-5.9l2.4-5.9c2.5-6.1,2.1-13.1-0.9-18.9
					l-10.8-20.4c-0.8-1.6-1.3-3.4-1.6-5.2l0,0c-0.9-7.3,4.7-13.7,12.1-13.7h2.6l-3.1,12.6v2.7l20.7,20.9l-15.2,43.2h-46.8v-7.8H270
					l-26.9-19.4v-23.4L284.4,111.5z"/>
				<path class="st8" d="M227,104.4l61.1,10.7c2.4,0.4,4.6-1.4,4.6-3.8l0,0c0-5.6-4.5-10.2-10.1-10.3l-24.3-0.5L237,96.2
					C231.7,95.1,227,99.1,227,104.4L227,104.4z"/>
				<path class="st5" d="M290.5,113.9c0-5.9-4.9-10.8-11-10.9l-26.6-0.6l-17-3.2c-2-0.4-1.6-3.4,0.4-3.2c0.2,0,0.4,0.1,0.6,0.1
					l21.3,4.2l24.3,0.5c5.6,0.1,10.1,4.7,10.1,10.3c0,1.6-0.9,2.9-2.2,3.6C290.5,114.4,290.5,114.2,290.5,113.9z"/>
				<g>
					<path d="M236.2,144.2L236.2,144.2l0.2-0.1c0.9-0.5,2.1-0.8,3.2-0.8c1.7-6.7,7.8-11.8,15-11.8H274c3,0,5.4,2.4,5.4,5.4l0,0
						c0,3.9,3.2,7.2,7.2,7.2H297c1.1-0.6,2.3-0.9,3.7-0.9h29c1.3,0,2.6,0.3,3.7,0.9h0.6c0.9,0,1.6,0.7,1.6,1.6l0,0
						c1.4,1.5,2.3,3.5,2.3,5.8l0,0c0,4.6-3.7,8.2-8.2,8.2h-29c-1.8,0-3.4-0.6-4.8-1.5h-17.8c-1.3,0.9-3,1.5-4.8,1.5h-33.4
						c-4.6,0-8.2-3.7-8.2-8.2l0,0C231.9,148.4,233.6,145.6,236.2,144.2z"/>
					<path class="st5" d="M254.9,143.6h-4.7c-4.7,0-14.2,1.1-14.2,2.6l0,0h18.2c3.7,0,6.7,3,6.7,6.7c0,0.1,0,0.2,0,0.4
						c0.4-0.9,0.7-1.8,0.7-2.9l0,0C261.5,146.6,258.5,143.6,254.9,143.6z"/>
				</g>
				<path class="st7" d="M324.1,86.1h8.4c27.1,12.6,38.1,36.6,38.1,36.6l-14.1,11.8c-7.7,6.5-12.2,16-12.1,25.9l0,0
					c0,0-22.9,5.1-67.2-10.4c-1.9-0.7-3.4-1.9-4.6-3.6c-17.2-26.1-34.5-25.8-40.8-25.8c-20.5,0-7.6-3.4-9.5-7.1
					c-1.4-2.6-2.2-5.6-2.2-8.7v-0.3c0-5.6,6.6-6.1,9.9-5.3c14.6,3.1,42.9,9.3,56,32.7c3.5,6.2,9.6,10.7,16.6,11.9
					c7.7,1.3,18,2.6,27.8,1.8c3.5-0.3,6.5-2.7,7.4-6.1l7.3-26.1c0.8-2.9,0-6.1-2.1-8.2L324.1,86.1z"/>
				<path class="st7" d="M331.9,79.7L331.9,79.7c0-2.5-2-4.5-4.4-4.5l0,0c1.2-1.6,2.6-2.9,4.2-4l5-3.3l4.4,5.6
					c2.3,2.9,3.5,6.4,3.5,10.1c0,1-0.8,1.8-1.8,1.8h-18.6c0,0,0,0,0-0.1c0-2,1.7-3.6,3.7-3.6h2.1C331,81.8,331.9,80.9,331.9,79.7z"
					/>
				<path class="st9" d="M338.2,161.1L338.2,161.1c-9.6,0.5-30.1-0.3-61-11.1c-1.5-0.5-2.8-1.4-3.8-2.6c26.5,6.8,47.1,9.4,61.6,10.3
					C336.8,157.9,338.2,159.3,338.2,161.1z"/>
				<path class="st10" d="M261.1,122.7c-15.7-9.3-31.1-11.3-39.9-11.6c-0.7-2-1.1-4.1-1.1-6.2v-0.3c0-0.3,0-0.7,0.1-0.9
					c9.6,1.1,28.4,4.8,41.8,18.1C262.6,122.2,261.9,123.1,261.1,122.7z"/>
				<path class="st11" d="M370.6,122.7l-1.2,0.9c-3.4-5.3-14.4-21-33.1-32.8h4.9C362,104,370.6,122.7,370.6,122.7z"/>
				<path class="st11" d="M332.5,86.1c3.2,1.4,6.1,3.1,8.8,4.8h-4.9c-2.7-1.7-5.5-3.3-8.5-4.8H332.5z"/>
				<path class="st11" d="M336.7,67.9l-1.9,1.2l4.2,4.7c2.9,3.2,4.5,7.1,4.7,11.2c0.4-0.3,0.8-0.8,0.8-1.4c0-3.7-1.2-7.2-3.5-10.1
					L336.7,67.9z"/>
				<g>
					<g>
						<path class="st5" d="M316.4,80.9h12.1c1.1,0,1.9-0.9,1.9-1.9l0,0c0-1.1-0.9-1.9-1.9-1.9h-12.1c-1.1,0-1.9,0.9-1.9,1.9l0,0
							C314.5,80,315.4,80.9,316.4,80.9z"/>
						<path class="st8" d="M330.4,78.9L330.4,78.9c0,1.1-0.9,1.9-1.9,1.9h-12.1c-1.1,0-1.9-0.9-1.9-1.9l0,0H330.4z"/>
					</g>
					<ellipse class="st8" cx="316.4" cy="78.9" rx="1.9" ry="1.9"/>
					<circle class="st5" cx="316.4" cy="78.9" r="1.2"/>
				</g>
				<path class="st12" d="M343.2,77c0.8,1.8,1.2,3.8,1.3,5.8l-5.7-2.2c-1.5-0.6-2.5-2.1-2.5-3.7L343.2,77L343.2,77z"/>
				<path class="st5" d="M343.2,77c0.1,0.2,0.2,0.4,0.2,0.6h-6.1c0,1.1,0.4,2.1,1,2.8c-1.3-0.7-2.1-2-2.1-3.4H343.2z"/>
				<path class="st11" d="M286,131.9c3.5,6.2,9.6,10.7,16.6,11.9c7.7,1.3,18,2.6,27.8,1.8c1.4-0.1,2.7-0.6,3.9-1.3
					c-5.1,4.7-28,4.1-36.6,2.6c-7.8-1.4-14.5-6.3-18.4-13.2c-12.6-22.3-37.6-30.5-54.6-34.6c1.8-0.4,3.8-0.3,5.2,0
					C244.6,102.4,272.9,108.6,286,131.9z"/>
				<path class="st11" d="M378.5,129.5c-0.2,0.7-0.4,1.3-0.7,1.9c-1.4-0.6-2.9-1.1-4.4-1.4c-1.3-0.3-2.2-1.4-2.2-2.8l0,0
					C373.7,127.6,376.2,128.4,378.5,129.5z"/>
				<path class="st11" d="M250.7,121.1c-12.3-4.6-25-4.9-29-4.9c0.6-0.8,0.9-1.6,0.6-2.4C226.9,114,242.1,115.2,250.7,121.1z"/>
				<path class="st13" d="M220.1,103.6c1,0.1,2.1,0.2,3.3,0.4c2.8,0.4,4.9,2.9,4.9,5.8l0,0c0,1-0.9,1.8-1.9,1.7
					c-1.9-0.2-3.7-0.3-5.3-0.3c-0.7-2-1.1-4.1-1.1-6.2v-0.3C220.1,104.2,220.1,103.9,220.1,103.6z"/>
				<path class="st14" d="M222.6,106c-0.8-0.1-1.7-0.2-2.4-0.3c0-0.2-0.1-0.5-0.1-0.7v-0.3c0-0.3,0-0.7,0.1-0.9
					c1,0.1,2.1,0.2,3.3,0.4c2.8,0.4,4.9,2.9,4.9,5.8l0,0c0,0.6-0.3,1.1-0.7,1.4C227.4,108.5,225.4,106.4,222.6,106z"/>
			</g>
		</g>
	</g>
</g>
</svg>
