<?xml version="1.0" encoding="utf-8"?>
<!-- Generator: Adobe Illustrator 25.2.3, SVG Export Plug-In . SVG Version: 6.00 Build 0)  -->
<svg version="1.1" id="Layer_1" xmlns="http://www.w3.org/2000/svg" xmlns:xlink="http://www.w3.org/1999/xlink" x="0px" y="0px"
	 viewBox="0 0 800 300" style="enable-background:new 0 0 800 300;" xml:space="preserve">
<style type="text/css">
	.st0{fill:#AEAEAE;}
	.st1{fill:#3E3E3E;}
	.st2{fill:#FFFFFF;}
	.st3{fill:#666666;}
	.st4{fill:#808285;}
	.st5{fill:#939598;}
	.st6{fill:#3A8DCC;}
	.st7{fill:#414042;}
	.st8{fill:#BCBEC0;}
	.st9{fill:#D1D3D4;}
	.st10{opacity:0.5;fill:#FFFFFF;enable-background:new    ;}
	.st11{fill:#E6E7E8;}
	.st12{fill:#ED1C24;}
	.st13{fill:#BE1E2D;}
</style>
<g transform="translate(50, -30)">
	<g transform="scale(1.8)">
		<g transform="translate(-40, 0)">
			<g>
				<rect x="63.6" y="52.2" class="st0" width="52.8" height="120.2"/>
				<circle class="st0" cx="90" cy="51.7" r="26.4"/>
				<circle class="st1" cx="90" cy="51.7" r="20.1"/>
				<polygon class="st2" points="88.9,43.4 92.5,43.4 90.1,51 94,51 88.6,60.4 90,53.8 86.5,53.8 				"/>
				<rect x="63.6" y="77" class="st3" width="52.8" height="88.4"/>
				<path class="st1" d="M101.8,92.8c0,0.8-0.6,1.4-1.4,1.4H79.5c-0.8,0-1.4-0.6-1.4-1.4l0,0c0-0.8,0.6-1.4,1.4-1.4h20.9
					C101.2,91.4,101.8,92,101.8,92.8L101.8,92.8z"/>
			</g>
			<g transform="scale(1.4)">
				<g id="connector" transform="translate(80, 40)">
					<script>var startX = 80;
					var endX = 40;
					var y = 40;
					var x = startX;
					var connector = document.getElementById(&quot;connector&quot;);
					connector.setAttribute(&apos;fill&apos;, &apos;#88BCE1&apos;);
					setInterval(move, 50);

					function move()
					{
						if(x &gt; endX){
							x = x-1;
							connector.setAttribute(&apos;transform&apos;, &apos;translate(&apos;+ x +&apos;,&apos; + y +&apos;)&apos;);
							connector.setAttribute(&apos;fill&apos;, &apos;#88BCE1&apos;);
						}
						else{
							if (x &gt; endX*0.2){
								x = x-1;
								connector.setAttribute(&apos;fill&apos;, &apos;#800000&apos;);
							}
							else{
								x = startX;
							}
						}
					}
						</script>
					<path d="M119.4,35.1c-0.1,0.3-0.4,0.5-0.7,0.4c-1-0.3-2.1-0.2-3.1,0.4c-1.7,0.8-3.6,2.9-5.6,4.7c-1,0.9-2.2,1.7-3.5,2.2
						c-1.5,0.5-3.1,0.5-4.5-0.1c-2-0.8-4.1-2.5-6.3-5.4l0,0c-0.7-0.7-1.3-1.4-1.9-2c-0.9-0.8-2.1-1-3.2-0.6c-1.5,0.5-2.9,1.4-4,2.5
						l0,0c-0.6,0.6-1.1,1.1-1.6,1.5l0,0l0,0l-0.3,0.1l0,0c-1.4,1.4-3.2,2.4-5.1,3c-1.5,0.4-3.1,0.3-4.5-0.4c-1.4-0.8-2.6-1.8-3.6-3
						l0,0l-0.1-0.1c-2.2-2.8-3.9-4.2-5.2-4.7c-1.1-0.4-2.3-0.3-3.2,0.3c-1.7,0.9-3.5,3-5.6,4.8c-1.1,0.9-2.3,1.7-3.7,2.1
						c-1.6,0.4-3.2,0.3-4.7-0.3c-0.5-0.2-1-0.4-1.4-0.7c-0.3-0.2-0.7-0.1-0.8,0.2c-2.7,4.3-8.2,6.1-12.9,4.3l-0.1-0.1l0,0l-4.1-1.6
						c-1.9-0.7-2.9-2.9-2.1-4.8l0,0l0.2-0.5l-5.6-2.2c-0.9-0.4-1.3-1.4-1-2.3c0.3-0.9,1.3-1.3,2.2-1l0,0l5,2c0.3,0.1,0.7,0,0.8-0.3
						l0,0l1.7-4.5c0.1-0.3,0-0.7-0.3-0.8l0,0l-5-1.9c-0.9-0.3-1.3-1.3-1-2.2l0,0c0.3-0.9,1.3-1.3,2.2-1l5.6,2.2l0.2-0.5
						c0.8-1.9,2.9-2.9,4.8-2.1l4.1,1.6l0,0l0.1,0.1c4.8,1.8,7.6,6.8,6.7,11.8c0,0.2,0.1,0.5,0.3,0.6c0.5,0.4,1,0.7,1.6,0.9
						c1.2,0.5,2.5,0.4,3.6-0.2c1.7-0.8,3.6-2.9,5.6-4.7c1-0.9,2.2-1.7,3.5-2.2c1.5-0.5,3.1-0.5,4.5,0.1c2,0.8,4.1,2.5,6.3,5.4l0,0
						c0.7,0.7,1.3,1.4,1.9,2c0.9,0.8,2.1,1.1,3.2,0.7c1.5-0.5,2.9-1.4,4-2.5l0,0c0.6-0.6,1.1-1.1,1.6-1.5l0,0l0,0l0.2-0.2l0,0
						c1.4-1.4,3.2-2.4,5.1-3c1.5-0.4,3.1-0.3,4.5,0.4c1.4,0.8,2.6,1.8,3.6,3l0,0l0.1,0.1c2.2,2.8,3.9,4.2,5.2,4.7
						c1.1,0.4,2.3,0.3,3.3-0.4c1.7-0.9,3.5-3,5.6-4.8c1.1-0.9,2.3-1.7,3.7-2.1c1.3-0.4,2.7-0.4,4.1,0c0.3,0.1,0.5,0.4,0.4,0.8l0,0
						L119.4,35.1z"/>
				</g>
			</g>
			<g id="car_1_">
				<g>
					<path d="M347.7,147c0,11.3,9.2,20.5,20.5,20.5c11.3,0,20.5-9.2,20.5-20.5s-9.2-20.5-20.5-20.5
						C356.9,126.5,347.7,135.6,347.7,147z M354.6,147c0-7.5,6.1-13.6,13.6-13.6s13.6,6.1,13.6,13.6s-6.1,13.6-13.6,13.6
						C360.6,160.6,354.6,154.5,354.6,147z"/>
					<g>
						<path class="st4" d="M354,147c0,7.8,6.3,14.1,14.1,14.1c7.8,0,14.1-6.3,14.1-14.1c0-7.8-6.3-14.1-14.1-14.1
							C360.4,132.8,354,139.1,354,147z M355.5,147c0-7,5.7-12.7,12.7-12.7c7,0,12.7,5.7,12.7,12.7c0,7-5.7,12.7-12.7,12.7
							C361.1,159.7,355.5,154,355.5,147z"/>
					</g>
				</g>
				<g>
					<circle class="st4" cx="368.1" cy="147" r="7.2"/>
					<ellipse transform="matrix(0.7071 -0.7071 0.7071 0.7071 3.9029 303.3633)" cx="368.1" cy="147" rx="5.8" ry="5.8"/>
				</g>
				<g>
					<g>
						<path d="M220.2,147c0,11.3,9.2,20.5,20.5,20.5s20.5-9.2,20.5-20.5s-9.2-20.5-20.5-20.5S220.2,135.6,220.2,147z M227.1,147
							c0-7.5,6.1-13.6,13.6-13.6s13.6,6.1,13.6,13.6s-6.1,13.6-13.6,13.6C233.2,160.6,227.1,154.5,227.1,147z"/>
						<g>
							<path class="st4" d="M226.6,147c0,7.8,6.3,14.1,14.1,14.1c7.8,0,14.1-6.3,14.1-14.1c0-7.8-6.3-14.1-14.1-14.1
								C232.9,132.8,226.6,139.1,226.6,147z M228,147c0-7,5.7-12.7,12.7-12.7c7,0,12.7,5.7,12.7,12.7c0,7-5.7,12.7-12.7,12.7
								C233.7,159.7,228,154,228,147z"/>
						</g>
					</g>
					<g>
						<circle class="st4" cx="240.7" cy="147" r="7.2"/>
						<ellipse cx="240.7" cy="146.9" rx="5.8" ry="5.8"/>
					</g>
				</g>
				<path class="st5" d="M368.1,149.1c0.4,0,0.8-0.1,1.1-0.3c1-0.6,1.3-1.9,0.7-2.9l-41.8-67.6c-0.6-1-1.9-1.3-2.9-0.7
					s-1.3,1.9-0.7,2.9l41.9,67.6C366.8,148.7,367.5,149.1,368.1,149.1z"/>
				<path class="st5" d="M325.2,77.6c1-0.6,2.3-0.3,2.9,0.7l39.6,63.9c-1,2-3.8,1.8-3.8,1.8l-39.4-63.6
					C323.9,79.5,324.2,78.2,325.2,77.6z"/>
				<g>
					<path d="M317.7,53.9h0.6c2.9,0,5.4,2.4,5.4,5.4l0,0c0,0.9,0.4,1.8,1.1,2.5l7.3,7.3l-0.7,0.7l-7.3-7.4c-0.7-0.7-1.6-1.1-2.5-1.1
						H319c-2.4,0-4.3-1.9-4.3-4.3l0,0C314.6,55.3,316,53.9,317.7,53.9z"/>
					<path class="st2" d="M322.5,58.7c0-1.1-0.4-2.2-1.2-3.1c-0.4-0.4-0.9-0.7-1.4-0.9c-0.6-0.2-1.1-0.2-1.7-0.1
						c1.1,0.2,2,0.7,2.7,1.4C321.6,56.7,322.1,57.6,322.5,58.7z"/>
				</g>
				<path class="st6" d="M378.7,125.9c-3,9.6-11.9,16.5-22.4,16.5c-3.8,0-7.4-0.9-10.6-2.5c3-9.6,11.9-16.5,22.4-16.5
					C372,123.4,375.5,124.3,378.7,125.9z"/>
				<path class="st5" d="M368.1,123.4c0.7,0,1.4,0.1,2.2,0.1c-7.3,4.4-13.6,10.9-17.6,18.6c-2.5-0.4-4.8-1.1-7-2.2
					C348.7,130.3,357.6,123.4,368.1,123.4z"/>
				<path d="M240.7,123.6c-10.8,0-19.8,7.3-22.5,17.2c-0.4,1.6-1.9,2.8-3.6,2.8l0,0c0.8-15.8,14-28.4,30.2-28.4
					c16.2,0,29.4,12.6,30.2,28.4h-11.2C262.2,132.3,252.5,123.6,240.7,123.6z"/>
				<path d="M284.5,107.9c5.3,26.3,20.2,28.1,20.2,28.1l16.3,1.9c4.3,0.5,8.4-1.9,10.1-5.9l2.4-5.9c2.5-6.1,2.1-13.1-0.9-18.9
					l-10.8-20.4c-0.8-1.6-1.3-3.4-1.6-5.2l0,0C319.4,74.3,325,68,332.4,68h2.6l-3.1,12.6v2.7l20.7,20.9l-15.2,43.2h-46.8v-7.8h-20.4
					l-26.9-19.4V96.7L284.5,107.9z"/>
				<path class="st7" d="M227.1,100.8l61.1,10.7c2.4,0.4,4.6-1.4,4.6-3.8l0,0c0-5.6-4.5-10.2-10.1-10.3l-24.3-0.5l-21.3-4.2
					C231.9,91.6,227.1,95.5,227.1,100.8L227.1,100.8z"/>
				<path class="st4" d="M290.7,110.3c0-5.9-4.9-10.8-11-10.9l-26.6-0.6l-17-3.2c-2-0.4-1.6-3.4,0.4-3.2c0.2,0,0.4,0.1,0.6,0.1
					l21.3,4.2l24.3,0.5c5.6,0.1,10.1,4.7,10.1,10.3c0,1.6-0.9,2.9-2.2,3.6C290.6,110.8,290.7,110.6,290.7,110.3z"/>
				<g>
					<path d="M236.4,140.7L236.4,140.7l0.2-0.1c0.9-0.5,2.1-0.8,3.2-0.8c1.7-6.7,7.8-11.8,15-11.8h19.4c3,0,5.4,2.4,5.4,5.4l0,0
						c0,3.9,3.2,7.2,7.2,7.2h10.4c1.1-0.6,2.3-0.9,3.7-0.9h29c1.3,0,2.6,0.3,3.7,0.9h0.6c0.9,0,1.6,0.7,1.6,1.6l0,0
						c1.4,1.5,2.3,3.5,2.3,5.8l0,0c0,4.6-3.7,8.2-8.2,8.2h-29c-1.8,0-3.4-0.6-4.8-1.5h-17.8c-1.3,0.9-3,1.5-4.8,1.5h-33.4
						c-4.6,0-8.2-3.7-8.2-8.2l0,0C232,144.8,233.8,142.1,236.4,140.7z"/>
					<path class="st4" d="M255,140.1h-4.7c-4.7,0-14.2,1.1-14.2,2.6l0,0h18.2c3.7,0,6.7,3,6.7,6.7c0,0.1,0,0.2,0,0.4
						c0.4-0.9,0.7-1.8,0.7-2.9l0,0C261.7,143.1,258.7,140.1,255,140.1z"/>
				</g>
				<path class="st6" d="M324.2,82.5h8.4c27.1,12.6,38.1,36.6,38.1,36.6L356.6,131c-7.7,6.5-12.2,16-12.1,25.9l0,0
					c0,0-22.9,5.1-67.2-10.4c-1.9-0.7-3.4-1.9-4.6-3.6c-17.2-26.1-34.5-25.8-40.8-25.8c-20.5,0-7.6-3.4-9.5-7.1
					c-1.4-2.6-2.2-5.6-2.2-8.7v-0.3c0-5.6,6.6-6.1,9.9-5.3c14.6,3.1,42.9,9.3,56,32.7c3.5,6.2,9.6,10.7,16.6,11.9
					c7.7,1.3,18,2.6,27.8,1.8c3.5-0.3,6.5-2.7,7.4-6.1l7.3-26.1c0.8-2.9,0-6.1-2.1-8.2L324.2,82.5z"/>
				<path class="st6" d="M332.1,76.1V76c0-2.4-2-4.4-4.4-4.4l0,0c1.2-1.6,2.6-2.9,4.2-4l5-3.3l4.4,5.6c2.3,2.9,3.5,6.4,3.5,10.1
					c0,1-0.8,1.8-1.8,1.8h-18.6c0,0,0,0,0-0.1c0-2,1.7-3.6,3.7-3.6h2.1C331.1,78.2,332.1,77.3,332.1,76.1z"/>
				<path class="st8" d="M338.4,157.6L338.4,157.6c-9.6,0.5-30.1-0.3-61-11.1c-1.5-0.5-2.8-1.4-3.8-2.6c26.5,6.8,47.1,9.4,61.6,10.3
					C337,154.3,338.4,155.7,338.4,157.6z"/>
				<path class="st9" d="M261.3,119.1c-15.7-9.3-31.1-11.3-39.9-11.6c-0.7-2-1.1-4.1-1.1-6.2V101c0-0.3,0-0.7,0.1-0.9
					c9.6,1.1,28.4,4.8,41.8,18.1C262.7,118.6,262,119.6,261.3,119.1z"/>
				<path class="st10" d="M370.7,119.1l-1.2,0.9c-3.4-5.3-14.4-21-33.1-32.8h4.9C362.2,100.4,370.7,119.1,370.7,119.1z"/>
				<path class="st10" d="M332.7,82.5c3.2,1.4,6.1,3.1,8.8,4.8h-4.9c-2.7-1.7-5.5-3.3-8.5-4.8H332.7z"/>
				<path class="st10" d="M336.9,64.3l-1.9,1.2l4.2,4.7c2.9,3.2,4.5,7.1,4.7,11.2c0.4-0.3,0.8-0.8,0.8-1.4c0-3.7-1.2-7.2-3.5-10.1
					L336.9,64.3z"/>
				<g>
					<g>
						<path class="st4" d="M316.6,77.3h12.1c1.1,0,1.9-0.9,1.9-1.9l0,0c0-1.1-0.9-1.9-1.9-1.9h-12.1c-1.1,0-1.9,0.9-1.9,1.9l0,0
							C314.6,76.4,315.5,77.3,316.6,77.3z"/>
						<path class="st7" d="M330.6,75.3L330.6,75.3c0,1.1-0.9,1.9-1.9,1.9h-12.1c-1.1,0-1.9-0.9-1.9-1.9l0,0H330.6z"/>
					</g>
					<ellipse class="st7" cx="316.6" cy="75.3" rx="1.9" ry="1.9"/>
					<circle class="st4" cx="316.6" cy="75.3" r="1.2"/>
				</g>
				<path class="st11" d="M343.4,73.4c0.8,1.8,1.2,3.8,1.3,5.8L339,77c-1.5-0.6-2.5-2.1-2.5-3.7L343.4,73.4L343.4,73.4z"/>
				<path class="st4" d="M343.4,73.4c0.1,0.2,0.2,0.4,0.2,0.6h-6.1c0,1.1,0.4,2.1,1,2.8c-1.3-0.7-2.1-2-2.1-3.4H343.4z"/>
				<path class="st10" d="M286.2,128.3c3.5,6.2,9.6,10.7,16.6,11.9c7.7,1.3,18,2.6,27.8,1.8c1.4-0.1,2.7-0.6,3.9-1.3
					c-5.1,4.7-28,4.1-36.6,2.6c-7.8-1.4-14.5-6.3-18.4-13.2C267,107.9,242,99.7,225,95.6c1.8-0.4,3.8-0.3,5.2,0
					C244.7,98.8,273,105,286.2,128.3z"/>
				<path class="st10" d="M378.7,125.9c-0.2,0.7-0.4,1.3-0.7,1.9c-1.4-0.6-2.9-1.1-4.4-1.4c-1.3-0.3-2.2-1.4-2.2-2.8l0,0
					C373.9,124,376.4,124.8,378.7,125.9z"/>
				<path class="st10" d="M250.9,117.5c-12.3-4.6-25-4.9-29-4.9c0.6-0.8,0.9-1.6,0.6-2.4C227.1,110.5,242.3,111.6,250.9,117.5z"/>
				<path class="st12" d="M220.3,100c1,0.1,2.1,0.2,3.3,0.4c2.8,0.4,4.9,2.9,4.9,5.8l0,0c0,1-0.9,1.8-1.9,1.7
					c-1.9-0.2-3.7-0.3-5.3-0.3c-0.7-2-1.1-4.1-1.1-6.2v-0.3C220.2,100.7,220.2,100.3,220.3,100z"/>
				<path class="st13" d="M222.7,102.4c-0.8-0.1-1.7-0.2-2.4-0.3c0-0.2-0.1-0.5-0.1-0.7V101c0-0.3,0-0.7,0.1-0.9
					c1,0.1,2.1,0.2,3.3,0.4c2.8,0.4,4.9,2.9,4.9,5.8l0,0c0,0.6-0.3,1.1-0.7,1.4C227.6,105,225.5,102.8,222.7,102.4z"/>
			</g>
		</g>
	</g>
</g>
</svg>
