<?xml version="1.0" encoding="utf-8"?>
<!-- Generator: Adobe Illustrator 25.2.3, SVG Export Plug-In . SVG Version: 6.00 Build 0)  -->
<svg version="1.1" id="Layer_1" xmlns="http://www.w3.org/2000/svg" xmlns:xlink="http://www.w3.org/1999/xlink" x="0px" y="0px"
	 viewBox="0 0 800 300" style="enable-background:new 0 0 800 300;" xml:space="preserve">
<style type="text/css">
	.st0{fill:#AEAEAE;}
	.st1{fill:#3E3E3E;}
	.st2{fill:#FFFFFF;}
	.st3{fill:#666666;}
	.st4{fill:#B6B7B7;}
	.st5{fill:#434444;}
	.st6{fill:#3A8DCC;}
	.st7{fill:#8B8E8E;}
	.st8{fill:#4F5151;}
</style>
<g transform="translate(50, -30)">
	<g transform="scale(1.8)">
		<g transform="translate(-40, 0)">
			<g>
				<rect x="63.6" y="52.2" class="st0" width="52.8" height="120.2"/>
				<circle class="st0" cx="90" cy="51.7" r="26.4"/>
				<circle class="st1" cx="90" cy="51.7" r="20.1"/>
				<polygon class="st2" points="88.9,43.4 92.5,43.4 90.1,51 94,51 88.6,60.4 90,53.8 86.5,53.8 				"/>
				<rect x="63.6" y="77" class="st3" width="52.8" height="88.4"/>
				<path class="st1" d="M101.8,92.8c0,0.8-0.6,1.4-1.4,1.4H79.5c-0.8,0-1.4-0.6-1.4-1.4l0,0c0-0.8,0.6-1.4,1.4-1.4h20.9
					C101.2,91.4,101.8,92,101.8,92.8L101.8,92.8z"/>
			</g>
			<g transform="scale(1.4)">
				<g id="connector" transform="translate(80, 40)">
					<script>var startX = 80;
					var endX = 40;
					var y = 40;
					var x = startX;
					var connector = document.getElementById(&quot;connector&quot;);
					connector.setAttribute(&apos;fill&apos;, &apos;#666666&apos;);
					setInterval(move, 50);
					
					function move()
					{ 
						if(x &gt; endX){
							x = x-1;
							connector.setAttribute(&apos;transform&apos;, &apos;translate(&apos;+ x +&apos;,&apos; + y +&apos;)&apos;);
							connector.setAttribute(&apos;fill&apos;, &apos;#666666&apos;);
						}
						else{
							if (x &gt; endX*0.2){
								x = x-1;
								connector.setAttribute(&apos;fill&apos;, &apos;#74A528&apos;);
							}
							else{
								x = startX;
							}
						}
					}
						</script>
					<path d="M123,41.3c-0.1,0.3-0.4,0.5-0.7,0.4c-1-0.3-2.1-0.2-3.1,0.4c-1.7,0.8-3.6,2.9-5.6,4.7c-1,0.9-2.2,1.7-3.5,2.2
						c-1.5,0.5-3.1,0.5-4.5-0.1c-2-0.8-4.1-2.5-6.3-5.4l0,0c-0.7-0.7-1.3-1.4-1.9-2c-0.9-0.8-2.1-1-3.2-0.6c-1.5,0.5-2.9,1.4-4,2.5
						l0,0c-0.6,0.6-1.1,1.1-1.6,1.5l0,0l0,0L88.3,45l0,0c-1.4,1.4-3.2,2.4-5.1,3c-1.5,0.4-3.1,0.3-4.5-0.4c-1.4-0.8-2.6-1.8-3.6-3
						l0,0L75,44.5c-2.2-2.8-3.9-4.2-5.2-4.7c-1.1-0.4-2.3-0.3-3.2,0.3c-1.7,0.9-3.5,3-5.6,4.8c-1.1,0.9-2.3,1.7-3.7,2.1
						c-1.6,0.4-3.2,0.3-4.7-0.3c-0.5-0.2-1-0.4-1.4-0.7c-0.3-0.2-0.7-0.1-0.8,0.2c-2.7,4.3-8.2,6.1-12.9,4.3l-0.1-0.1l0,0l-4.1-1.6
						c-1.9-0.7-2.9-2.9-2.1-4.8l0,0l0.2-0.5l-5.6-2.2c-0.9-0.4-1.3-1.4-1-2.3c0.3-0.9,1.3-1.3,2.2-1l0,0l5,2c0.3,0.1,0.7,0,0.8-0.3
						l0,0l1.7-4.5c0.1-0.3,0-0.7-0.3-0.8l0,0l-5-1.9c-0.9-0.3-1.3-1.3-1-2.2l0,0c0.3-0.9,1.3-1.3,2.2-1l5.6,2.2l0.2-0.5
						c0.8-1.9,2.9-2.9,4.8-2.1l4.1,1.6l0,0l0.1,0.1c4.8,1.8,7.6,6.8,6.7,11.8c0,0.2,0.1,0.5,0.3,0.6c0.5,0.4,1,0.7,1.6,0.9
						c1.2,0.5,2.5,0.4,3.6-0.2c1.7-0.8,3.6-2.9,5.6-4.7c1-0.9,2.2-1.7,3.5-2.2c1.5-0.5,3.1-0.5,4.5,0.1c2,0.8,4.1,2.5,6.3,5.4l0,0
						c0.7,0.7,1.3,1.4,1.9,2c0.9,0.8,2.1,1.1,3.2,0.7c1.5-0.5,2.9-1.4,4-2.5l0,0c0.6-0.6,1.1-1.1,1.6-1.5l0,0l0,0l0.2-0.2l0,0
						c1.4-1.4,3.2-2.4,5.1-3c1.5-0.4,3.1-0.3,4.5,0.4c1.4,0.8,2.6,1.8,3.6,3l0,0l0.1,0.1c2.2,2.8,3.9,4.2,5.2,4.7
						c1.1,0.4,2.3,0.3,3.3-0.4c1.7-0.9,3.5-3,5.6-4.8c1.1-0.9,2.3-1.7,3.7-2.1c1.3-0.4,2.7-0.4,4.1,0c0.3,0.1,0.5,0.4,0.4,0.8l0,0
						L123,41.3z"/>
				</g>
			</g>
			<g id="car_1_">
				<g>
					<path class="st4" d="M339.2,65.5c0.7,1,1,2.2,1.2,3.4c0.2,1,0.3,2.1,0,3.2c-0.3,1-1.2,1.9-2.3,2c-0.2,0-0.5,0-0.7-0.2
						c-0.2-0.1-0.2-0.3-0.3-0.5c-0.9-2.2-1.1-4.6-1.3-6.9c-0.1-0.8-0.1-2.4,0.9-2.6C337.6,63.6,338.7,64.8,339.2,65.5z"/>
				</g>
				<g>
					<path class="st5" d="M319.1,57.2c0.3-0.2,0.7-0.3,1-0.3c0.4,0.1,0.8,0.3,1.1,0.7c0.3,0.4,0.4,0.8,0.5,1.2
						c0.3,1.1,0.2,2.3,0,3.4c-0.1,0.4-0.2,0.8-0.6,1c-0.2,0.1-0.4,0.2-0.6,0.3c-0.5,0.2-1.2,0.3-1.6,0c-0.4-0.2-0.6-0.7-0.7-1.1
						c-0.3-1-0.1-2-0.1-3C318.2,58.5,318.3,57.7,319.1,57.2z"/>
				</g>
				<g>
					<path class="st5" d="M325.5,60.6c-2.2-1-4.7-1.5-7.1-1.9c-2.4-0.4-4.9-0.9-7.3-1.1c-0.9-0.1-1.8-0.1-2.6,0.3
						c-0.8,0.4-1.3,1.5-0.8,2.2c0.5,0.7,1.5,0.8,2.3,0.8c3.5-0.1,7.1,0.2,10.4,1.4c3.3,1.2,6.3,3.5,7.9,6.6c0.5,0.9,1.1,2.2,2.1,2
						c0.9-0.2,1.2-1.2,1.2-2.1C331.7,65.1,328.7,62,325.5,60.6z"/>
				</g>
				<g>
					<path class="st6" d="M242.1,101.7l4.9-7.8l40.3,1c0,0-0.6,15.2,1.4,24.8c2.7,13.5,12.6,25.9,12.6,25.9l-32.6-1.6L242.1,101.7z"
						/>
				</g>
				<g>
					<g>
						<path class="st7" d="M368.8,148.8c0,3.3-2.6,5.9-5.9,5.9c-3.3,0-5.9-2.6-5.9-5.9c0-3.3,2.6-5.9,5.9-5.9
							C366.2,142.9,368.8,145.6,368.8,148.8z"/>
					</g>
					<g>
						<path class="st7" d="M358.8,136.9c0,0.1,2.1,7.8,2.1,7.8l5.3,0.7l3.8-7.1l-5.3-2.2L358.8,136.9z"/>
					</g>
					<g>
						<path class="st7" d="M375.6,151.4c-0.1,0-7.8-2.2-7.8-2.2l-3.3,4.1l4.1,6.9l4.6-3.5L375.6,151.4z"/>
					</g>
					<g>
						<path class="st7" d="M356.3,160c0.1-0.1,4.6-6.7,4.6-6.7l-2.9-4.5l-7.8,1.7l1.8,5.5L356.3,160z"/>
					</g>
					<g>
						<path class="st4" d="M366.9,148.8c0,2.2-1.8,4-4,4c-2.2,0-4-1.8-4-4c0-2.2,1.8-4,4-4C365.1,144.8,366.9,146.6,366.9,148.8z"/>
					</g>
					<g>
						<g>
							<path class="st4" d="M362.9,163.1c-7.9,0-14.3-6.4-14.3-14.3c0-7.9,6.4-14.3,14.3-14.3c7.9,0,14.3,6.4,14.3,14.3
								C377.2,156.7,370.8,163.1,362.9,163.1z M362.9,137.1c-6.5,0-11.8,5.3-11.8,11.8c0,6.5,5.3,11.8,11.8,11.8
								c6.5,0,11.8-5.3,11.8-11.8C374.7,142.4,369.4,137.1,362.9,137.1z"/>
						</g>
					</g>
					<g>
						<path class="st8" d="M362.9,131.8c-9.4,0-17.1,7.6-17.1,17.1c0,9.4,7.6,17.1,17.1,17.1c9.4,0,17.1-7.6,17.1-17.1
							C380,139.4,372.3,131.8,362.9,131.8z M362.9,161.9c-7.2,0-13-5.8-13-13c0-7.2,5.8-13,13-13c7.2,0,13,5.8,13,13
							C375.9,156,370.1,161.9,362.9,161.9z"/>
					</g>
					<g>
						<g>
							<path class="st5" d="M349.9,148.8c0-7.2,5.8-13,13-13c4,0,7.7,1.8,10.1,4.7c-2.4-3.4-6.3-5.6-10.7-5.6c-7.2,0-13,5.8-13,13
								c0,3.1,1.1,6,3,8.3C350.7,154.2,349.9,151.6,349.9,148.8z"/>
						</g>
						<g>
							<path class="st5" d="M376.2,138.1c2,2.8,3.1,6.2,3.1,9.8c0,9.4-7.6,17.1-17.1,17.1c-5.4,0-10.2-2.5-13.3-6.4
								c3.1,4.4,8.2,7.2,13.9,7.2c9.4,0,17.1-7.6,17.1-17.1C380,144.8,378.6,141.1,376.2,138.1z"/>
						</g>
					</g>
				</g>
				<g>
					<g>
						<path class="st7" d="M239.9,147.3c0,3.3-2.6,5.9-5.9,5.9c-3.3,0-5.9-2.6-5.9-5.9s2.6-5.9,5.9-5.9
							C237.3,141.4,239.9,144,239.9,147.3z"/>
					</g>
					<g>
						<path class="st7" d="M230,135.3c0,0.1,2.1,7.8,2.1,7.8l5.3,0.7l3.8-7.1l-5.3-2.2L230,135.3z"/>
					</g>
					<g>
						<path class="st7" d="M246.7,149.9c-0.1,0-7.8-2.2-7.8-2.2l-3.3,4.1l4.1,6.9l4.6-3.5L246.7,149.9z"/>
					</g>
					<g>
						<path class="st7" d="M227.5,158.4c0.1-0.1,4.6-6.7,4.6-6.7l-2.9-4.5l-7.8,1.7l1.8,5.5L227.5,158.4z"/>
					</g>
					<g>
						<path class="st4" d="M238.1,147.3c0,2.2-1.8,4-4,4s-4-1.8-4-4c0-2.2,1.8-4,4-4S238.1,145,238.1,147.3z"/>
					</g>
					<g>
						<g>
							<path class="st4" d="M234.1,161.6c-7.9,0-14.3-6.4-14.3-14.3c0-7.9,6.4-14.3,14.3-14.3c7.9,0,14.3,6.4,14.3,14.3
								C248.4,155.2,241.9,161.6,234.1,161.6z M234.1,135.5c-6.5,0-11.8,5.3-11.8,11.8s5.3,11.8,11.8,11.8c6.5,0,11.8-5.3,11.8-11.8
								S240.5,135.5,234.1,135.5z"/>
						</g>
					</g>
					<g>
						<path class="st8" d="M234.1,130.2c-9.4,0-17.1,7.6-17.1,17.1c0,9.4,7.6,17.1,17.1,17.1c9.4,0,17.1-7.6,17.1-17.1
							C251.1,137.8,243.5,130.2,234.1,130.2z M234.1,160.3c-7.2,0-13-5.8-13-13c0-7.2,5.8-13,13-13c7.2,0,13,5.8,13,13
							C247.1,154.5,241.2,160.3,234.1,160.3z"/>
					</g>
					<g>
						<g>
							<path class="st5" d="M221,147.3c0-7.2,5.8-13,13-13c4,0,7.7,1.8,10.1,4.7c-2.4-3.4-6.3-5.6-10.7-5.6c-7.2,0-13,5.8-13,13
								c0,3.1,1.1,6,3,8.3C221.9,152.6,221,150,221,147.3z"/>
						</g>
						<g>
							<path class="st5" d="M247.3,136.6c2,2.8,3.1,6.2,3.1,9.8c0,9.4-7.6,17.1-17.1,17.1c-5.4,0-10.2-2.5-13.3-6.4
								c3.1,4.4,8.2,7.2,13.9,7.2c9.4,0,17.1-7.6,17.1-17.1C251.1,143.2,249.7,139.5,247.3,136.6z"/>
						</g>
					</g>
				</g>
				<g>
					<path class="st6" d="M372.5,128.2c-6-3.8-21-4.2-27.5,4.4c-6.1,8.1-5.7,17.8-5.7,17.8l7.6-0.3c0-0.4-0.1-0.9-0.1-1.3
						c0-9.2,7.4-16.6,16.6-16.6c5.8,0,11.7,4.3,14.6,9.5c1.8,0.9,3.1,0,3.1,0S381,133.7,372.5,128.2z"/>
				</g>
				<g>
					<path class="st6" d="M243.6,128.2c-6-3.8-21-4.2-27.5,4.4c-6.1,8.1-5.7,17.8-5.7,17.8l7.6-0.3c0-0.4-0.1-0.9-0.1-1.3
						c0-9.2,7.4-16.6,16.6-16.6c5.8,0,11.7,4.3,14.6,9.5c1.8,0.9,3.1,0,3.1,0S252.1,133.7,243.6,128.2z"/>
				</g>
				<g>
					<path class="st5" d="M347.3,118l13.6,30.9c0,0,1.1,2.5,3,1.6c1.4-0.7,0.6-3,0.6-3l-13.3-31.6L347.3,118z"/>
				</g>
				<g>
					<path class="st5" d="M352.2,118.2c0,0-12.9,3.4-14.5-0.1c-1-2.3-8.9-32.4-7.3-35c1.6-2.5,5.8-4.3,5.8-4.3L352.2,118.2z"/>
				</g>
				<g>
					<path class="st6" d="M336.1,78.8c0,0,4.4-0.9,6.8,1.7c2.4,2.6,13.3,26.9,13.5,30c0.2,3.1-4.3,7.7-4.3,7.7L336.1,78.8z"/>
				</g>
				<g>
					<path class="st6" d="M356.4,110.3c-0.2-3.1-11.1-27.4-13.5-30c-0.6-0.7-1.3-1.1-2.1-1.4c0,0,0,0,0.1,0.1
						c2.4,2.6,13.3,26.9,13.5,30c0.2,2.1-1.9,5-3.3,6.5l1,2.4C352.1,118,356.6,113.4,356.4,110.3z"/>
				</g>
				<g>
					<path class="st5" d="M334.9,76.6c0,0-6.2-0.3-7-1.3c-0.8-1-1.1-8.1-0.8-8.9c0.9-1.9,5.7-3.3,5.7-3.3L334.9,76.6z"/>
				</g>
				<g>
					<path class="st6" d="M332.8,63.1c0,0,3.9-1.1,4.9,1.5c1,2.5,1.7,8,1.6,9.3c-0.1,1.3-4.3,2.8-4.3,2.8L332.8,63.1z"/>
				</g>
				<g>
					<path class="st5" d="M335.1,129.2l3.9,1.6c1.2,0.5,1.8,1.9,1.3,3.1l-6.8,17.7c-0.4,0.9-1.3,1.6-2.3,1.6h-68.6
						c-1.3,0-2.4-1-2.5-2.3c-0.2-4.6-1.2-14.7-4.5-19.2c-4.4-5.9-9.2-4.8-11.5-7.6c-2.4-2.8-1.4-14.4-3-17.4c-1-2-11-1.8-17.5-1.5
						c-2.1,0.1-4.9-4-3.5-5.6c0,0,28.2-0.3,31,0.8c2.9,1.2,6.7,18.3,9.3,19.3c2.6,1,11.6-0.2,13.1,2.8c4.2,8.3,3.2,19.7,7,20.4
						c3.8,0.6,38.5,1.8,42.7,0.3c3.1-1.1,7-8.9,8.7-12.8C332.4,129.2,333.8,128.7,335.1,129.2z"/>
				</g>
				<g>
					<path class="st5" d="M340.4,117.2c-0.1,0.3-6.3,14.1-6.3,14.1l4.3,2l7.1-15.1L340.4,117.2z"/>
				</g>
				<g>
					<polygon class="st5" points="329.6,74.5 332.2,84.6 336,83.6 332.8,73.7 					"/>
				</g>
				<g>
					<path class="st5" d="M247.9,120.3c-0.2,0.3-15.6,26.1-15.6,26.1s-0.7,1.4,0,2.4c0.7,1,3.3,1,3.3,1l30.7-1v-5.9
						c0,0-29.6,5.2-30.1,4.3c-0.5-0.9,16.1-23.2,16.1-23.2L247.9,120.3z"/>
				</g>
				<g>
					<path class="st7" d="M246.1,123c6.9-0.3,13.8-0.3,20.7,0.1c0.9,0,1.8,0.1,2.6,0.4c0.8,0.3,1.6,0.8,2,1.7c0.2,0.4,0.4,1,0.8,0.9
						c0.8-1,0.2-2.6-0.8-3.4c-1.1-0.7-2.4-0.8-3.7-0.9c-1.5-0.1-2.9-0.2-4.4-0.2c-3.5-0.2-7.1-0.4-10.6-0.6c-2.2-0.1-4.5-0.3-6.8,0
						C243.8,121.1,243.9,123.1,246.1,123z"/>
				</g>
				<g>
					<path class="st7" d="M322.3,147.7H263c-0.5,0-0.9-0.4-0.9-0.9l0,0c0-0.5,0.4-0.9,0.9-0.9h59.3c0.5,0,0.9,0.4,0.9,0.9l0,0
						C323.2,147.3,322.8,147.7,322.3,147.7z"/>
				</g>
				<g>
					<path class="st6" d="M280.3,106.8c4.3,6.1,7.2,13,10.5,19.7c-0.8-2.2-1.5-4.5-1.9-6.8c-2-9.6-1.4-24.8-1.4-24.8l-40.3-1l-1.9,3
						c6.7-0.2,13.5,0.2,20.2,1c2.7,0.4,5.4,0.8,7.8,2.1C276.2,101.5,278.4,104.1,280.3,106.8z"/>
				</g>
				<g>
					<path class="st5" d="M244.6,90.2c-0.9,0.7-1.2,1.9-1.2,3c0,0.7,0.1,1.5,0.6,2c0.6,0.6,1.5,0.7,2.3,0.8
						c13.8,0.8,27.5,1.2,41.3,1c0.5,0,0.9,0,1.3-0.2c0.4-0.2,0.7-0.5,0.9-0.9c0.7-1.1,0.7-2.6,0.2-3.8c-0.6-1.2-1.7-2.1-3-2.3
						c-0.9-0.2-1.8,0-2.7,0.1c-7.1,1-14.2,1.5-21.4,1.3c-3.5-0.1-7-0.6-10.6-0.7c-1.3,0-2.4,0-3.7-0.2
						C247.4,89.9,245.8,89.3,244.6,90.2z"/>
				</g>
			</g>
		</g>
	</g>
</g>
</svg>
