<?xml version="1.0" encoding="utf-8"?>
<!-- Generator: Adobe Illustrator 19.1.0, SVG Export Plug-In . SVG Version: 6.00 Build 0)  -->
<svg version="1.1" id="Capa_1" xmlns="http://www.w3.org/2000/svg" xmlns:xlink="http://www.w3.org/1999/xlink" x="0px" y="0px"
	 viewBox="0 0 175 215" style="enable-background:new 0 0 166.7 210.7;" xml:space="preserve">
<style type="text/css">
	.st0{fill:#F2F2F2;}
	.st1{fill:#C1272D;}
	.st170{fill:none;stroke:#F2F2F2;stroke-width:5;stroke-miterlimit:10;}
	.st171{fill:none;stroke:#F2F2F2;stroke-width:3;stroke-miterlimit:10;}
	.red{fill:#C1272D;}
	.white{fill:#ffffff;}
	.grey{fill:#666666;}
	.sgrey{stroke:#666666;stroke-width:5;stroke-miterlimit:10;}
	.sred{stroke:#C1272D;stroke-width:5;stroke-miterlimit:10;}
	.st170{fill:none;stroke:#F2F2F2;stroke-width:5;stroke-miterlimit:10;}
	.a{fill:#5d5d5d;}
	.b{fill:#C1272D;}
</style>
<g transform="translate(0, -5)">
	<g>
		<path class="grey" d="M147.5,205.9H18c-6.6,0-12-5.4-12-12v-177c0-6.6,5.4-12,12-12h129.5c6.6,0,12,5.4,12,12v177
			C159.5,200.5,154.1,205.9,147.5,205.9z"/>
	</g>
	<g>
		<g>
			<polygon class="st170" points="34.4,68.1 33.4,69.3 32.4,70.6 31.5,71.8 30.8,73.1 30,74.5 29.1,75.8 28.4,77.2 27.7,78.7 
				27.1,80 26.3,81.5 25.8,82.8 25.2,84.3 24.8,85.8 24.1,87.3 23.8,88.8 23.4,90.3 23.1,91.8 22.8,93.3 22.4,94.9 22.1,96.4 
				22,97.9 21.8,99.5 21.7,101 21.7,102.5 21.7,104.1 21.7,105.6 21.7,107.3 21.8,108.8 22,110.2 22.1,111.9 22.4,113.4 22.6,114.9 
				22.9,116.4 23.4,118 23.7,119.5 24.1,121 24.6,122.5 25.1,123.8 25.7,125.3 26.3,126.8 26.9,128.1 27.5,129.6 28.3,130.9 
				29.1,132.3 29.8,133.8 30.6,135 31.5,136.3 32.3,137.7 33.2,138.8 34.3,140.2 35.2,141.4 36.3,142.6 37.2,143.8 38.4,144.8 
				39.5,146 40.6,147 41.8,148.1 43.1,149.1 44.3,150.2 45.5,151.1 46.8,151.9 48.1,152.8 49.4,153.7 50.7,154.6 52.1,155.4 
				53.5,156.1 54.9,156.9 56.4,157.6 57.8,158.2 59.4,158.8 60.7,159.4 62.3,160 63.8,160.4 65.4,160.9 66.9,161.3 68.4,161.6 
				70,162.1 71.5,162.4 73.2,162.7 74.7,162.8 76.3,163 78,163.1 79.5,163.3 81,163.3 82.7,163.3 84.3,163.3 85.8,163.3 87.5,163.1 
				89,163 90.7,162.8 92.3,162.7 93.8,162.4 95.4,162.1 96.9,161.6 98.6,161.3 100.1,160.9 101.5,160.4 103,160 104.6,159.4 
				106.1,158.8 107.5,158.2 109,157.6 110.4,156.9 111.8,156.1 113.2,155.4 114.6,154.6 116,153.7 117.4,152.8 118.6,151.9 
				120,151.1 121.2,150.2 122.4,149.1 123.7,148.1 124.7,147 126,146 127,144.8 128.1,143.8 129.2,142.6 130.1,141.4 131.2,140.2 
				132.1,138.8 133,137.7 134,136.3 134.7,135 135.7,133.8 136.4,132.3 137.2,130.9 137.8,129.6 138.4,128.1 139.2,126.8 
				139.7,125.3 140.3,123.8 140.7,122.5 141.2,121 141.7,119.5 142.1,118 142.4,116.4 142.7,114.9 143,113.4 143.2,111.9 
				143.3,110.2 143.5,108.8 143.7,107.3 143.7,105.6 143.8,104.1 143.7,102.5 143.7,101 143.5,99.5 143.3,97.9 143.2,96.4 143,94.9 
				142.7,93.3 142.4,91.8 142,90.3 141.7,88.8 141.2,87.3 140.7,85.8 140.1,84.3 139.7,82.8 139,81.5 138.4,80 137.7,78.7 137,77.2 
				136.3,75.8 135.5,74.5 134.6,73.1 133.8,71.8 132.9,70.6 132,69.3 131,68.1 130.6,67.6 130.3,67.2 129.8,66.6 129.4,66.1 
				128.9,65.8 128.4,65.4 128,65 127.4,64.5 126.9,64.2 126.4,63.8 125.8,63.5 125.3,63.2 124.7,62.7 124.3,62.4 123.7,62.1 123,62 
				122.4,61.7 122,61.4 121.3,61.2 120.7,60.9 120.1,60.8 119.5,60.6 118.9,60.5 118.3,60.3 117.7,60.2 116.9,60 116.3,60 
				115.7,59.9 115,59.9 114.4,59.9 113.8,59.9 51.7,59.9 51.1,59.9 50.3,59.9 49.7,59.9 49.1,60 48.4,60 47.8,60.2 47.2,60.3 
				46.6,60.5 46,60.6 45.4,60.8 44.8,60.9 44.1,61.2 43.5,61.4 42.9,61.7 42.3,62 41.7,62.1 41.2,62.4 40.6,62.7 40.1,63.2 
				39.5,63.5 39.1,63.8 38.4,64.2 38,64.5 37.5,65 37.1,65.4 36.6,65.8 36.1,66.1 35.7,66.6 35.2,67.2 34.7,67.6 		"/>
			<path class="st170" d="M36.8,104.6c0-6.9,5.8-12.6,13-12.6c7.2,0,13,5.6,13,12.6c0,6.9-5.8,12.6-13,12.6
				C42.6,117.2,36.8,111.6,36.8,104.6z"/>
			<path class="st170" d="M69.7,104.6c0-6.9,5.8-12.6,13-12.6c7.2,0,13,5.6,13,12.6c0,6.9-5.8,12.6-13,12.6
				C75.5,117.2,69.7,111.6,69.7,104.6z"/>
			<path class="st170" d="M102.6,104.6c0-6.9,5.8-12.6,13-12.6c7.2,0,13,5.6,13,12.6c0,6.9-5.8,12.6-13,12.6
				C108.4,117.2,102.6,111.6,102.6,104.6z"/>
			<path class="st170" d="M86.2,132.3c0-6.9,5.8-12.6,13-12.6c7.2,0,13,5.6,13,12.6c0,6.9-5.8,12.6-13,12.6
				C92,144.9,86.2,139.3,86.2,132.3z"/>
			<path class="st170" d="M53.3,132.3c0-6.9,5.8-12.6,13-12.6c7.2,0,13,5.6,13,12.6c0,6.9-5.8,12.6-13,12.6
				C59.1,144.9,53.3,139.3,53.3,132.3z"/>
			<path class="st170" d="M58,82.3c0-4.4,3.7-8,8.3-8s8.3,3.6,8.3,8c0,4.4-3.7,8-8.3,8S58,86.8,58,82.3z"/>
			<path class="st170" d="M90.8,82.3c0-4.4,3.7-8,8.3-8s8.3,3.6,8.3,8c0,4.4-3.7,8-8.3,8S90.8,86.8,90.8,82.3z"/>
		</g>
	</g>
	<g transform="translate(80, 125)">
		<circle cx="50" cy="50" r="40" class="white sred" />
		<g transform="scale(0.7)">
			<g id="Capa_1" transform="translate(14, 16)">
				<path class="a" d="M46.37,99.54h1.89V99.8a2.2,2.2,0,0,0,.17,1,0.61,0.61,0,0,0,.58.3,0.64,0.64,0,0,0,.52-0.23,0.93,0.93,0,0,0,.19-0.62A1.6,1.6,0,0,0,48.79,99l-0.23-.15-0.1-.06a6.87,6.87,0,0,1-1.55-1.26,2.49,2.49,0,0,1-.33-0.72A3.18,3.18,0,0,1,46.47,96a2.43,2.43,0,0,1,.67-1.82A2.52,2.52,0,0,1,49,93.49a2.71,2.71,0,0,1,2,.65A2.48,2.48,0,0,1,51.62,96s0,0.08,0,.14,0,0.11,0,.14H49.75V96.19a1.72,1.72,0,0,0-.18-0.88A0.58,0.58,0,0,0,49,95a0.59,0.59,0,0,0-.47.21,0.83,0.83,0,0,0-.18.55,1.7,1.7,0,0,0,1,1.19l0.28,0.18,0.22,0.14a4.75,4.75,0,0,1,1.39,1.16,2.48,2.48,0,0,1,.29.69,3.35,3.35,0,0,1,.1.84,2.83,2.83,0,0,1-.69,2,2.6,2.6,0,0,1-2,.72,2.71,2.71,0,0,1-2-.69,2.79,2.79,0,0,1-.67-2q0-.09,0-0.18T46.37,99.54Z"/>
				<path class="a" d="M53.88,102.53V95.42H52.23V93.7h5.46v1.71H56v7.12H53.88Z"/>
				<path class="a" d="M58.35,98.12a16.71,16.71,0,0,1,.11-2.33,3,3,0,0,1,.38-1.15,2.33,2.33,0,0,1,1-.87,3.49,3.49,0,0,1,1.47-.28,3.45,3.45,0,0,1,1.47.28,2.34,2.34,0,0,1,1,.87,2.93,2.93,0,0,1,.39,1.15,23.55,23.55,0,0,1,0,4.64,2.93,2.93,0,0,1-.39,1.16,2.32,2.32,0,0,1-1,.87,3.92,3.92,0,0,1-2.95,0,2.36,2.36,0,0,1-1-.87,3,3,0,0,1-.38-1.15A16.73,16.73,0,0,1,58.35,98.12Zm3.81,0.8V97.32A5.09,5.09,0,0,0,62,95.5a0.7,0.7,0,0,0-.67-0.35,0.68,0.68,0,0,0-.66.36,5.18,5.18,0,0,0-.18,1.81v1.59a5.18,5.18,0,0,0,.18,1.8,0.8,0.8,0,0,0,1.34,0A5.17,5.17,0,0,0,62.16,98.91Z"/>
				<path class="a" d="M65.54,102.53V93.7h2a10.19,10.19,0,0,1,1.66.1,2.56,2.56,0,0,1,.9.33,1.88,1.88,0,0,1,.74.89,3.5,3.5,0,0,1,.26,1.4,2.74,2.74,0,0,1-.71,2,2.85,2.85,0,0,1-2.08.7H67.61v3.38H65.54Zm2.08-5h0.28a1.19,1.19,0,0,0,.89-0.29,1.32,1.32,0,0,0,.28-0.93,0.93,0.93,0,0,0-.29-0.77,1.57,1.57,0,0,0-1-.23H67.61V97.5Z"/>
				<path class="a" d="M97.73,41.11l-2.52,1.21c6.48,16-.05,36-13.74,43.81a19.63,19.63,0,0,1,1.68,2.26c15.25-8.95,21.43-29.56,14.58-47.29"/>
				<path class="a" d="M34.08,86C20.66,78,14,56.54,20.86,42.56l-2.51-1.22c-7.51,15.46-.71,38,14,46.87A19.71,19.71,0,0,1,34.08,86"/>
				<path class="a" d="M25.86,34.15l-7.94-5.48a41.84,41.84,0,0,1,5.29-6.45l1.34,1.31a39.68,39.68,0,0,0-3,3.42l1.38,1.11a38.24,38.24,0,0,1,2.67-3L27,26.35a36.75,36.75,0,0,0-2.55,2.92l1.64,1.32a34.78,34.78,0,0,1,2.64-3L30.1,29a33.57,33.57,0,0,0-4.25,5.18"/>
				<path class="a" d="M31.34,27.75l-6.59-7a40.25,40.25,0,0,1,3.66-3.12c1.41,1,2.1,1.5,3.44,2.55l0.57,0.54,1.09,1.05s-0.35-.77-0.58-1.29-0.35-.8-0.37-0.86C32,18,31.77,17.16,31.3,15.51a40,40,0,0,1,4-2.36l4.51,8.54c-0.89.47-1.33,0.72-2.2,1.26-1.48-2.59-2.22-3.89-3.67-6.5a73,73,0,0,0,2.33,7.37c-0.68.46-1,.7-1.69,1.2a68.66,68.66,0,0,0-6.21-4.59c2,2.23,3,3.34,4.94,5.59-0.8.66-1.2,1-2,1.73"/>
				<path class="a" d="M41.49,20.85l-4.1-8.74a40.4,40.4,0,0,1,7.17-2.68l0.52,1.8a39,39,0,0,0-4,1.34l0.64,1.65c1.4-.54,2.11-0.78,3.54-1.2l0.55,1.86c-1.37.4-2.05,0.63-3.39,1.15l0.77,2a34.15,34.15,0,0,1,3.5-1.17l0.54,1.88a32.48,32.48,0,0,0-5.76,2.15"/>
				<path class="a" d="M48.83,18.28l-2.3-9.37c1.43-.35,2.15-0.49,3.6-0.73a14.42,14.42,0,0,1,2.6-.24,3.49,3.49,0,0,1,1.34.27A2.2,2.2,0,0,1,55,9a2.3,2.3,0,0,1,.36,1.16,2.44,2.44,0,0,1-.3,1.42,5.47,5.47,0,0,1-1.11,1c0,0.07,1.48,1,1.57,2.08v0c0,0.12,0,.29,0,0.52a2.59,2.59,0,0,0,.75,2c-1.22.06-1.83,0.11-3,.26a3.62,3.62,0,0,1-.23-0.61,4.93,4.93,0,0,1-.14-0.69c0-.15,0-0.34-0.06-0.56s0-.36,0-0.43A1.84,1.84,0,0,0,52.37,14a1.35,1.35,0,0,0-1.1-.17l-0.58.1,0.67,3.8c-1,.18-1.53.28-2.54,0.53m1.56-6.07,0.19,0,0.18,0A2.43,2.43,0,0,0,52,11.69a1.11,1.11,0,0,0,.26-1,1,1,0,0,0-.51-0.82,2.55,2.55,0,0,0-1.41-.05l-0.18,0L50,9.9Z"/>
				<path class="a" d="M65.11,12.42l-0.82,5.22c-0.71-.11-1.07-0.16-1.78-0.23,0-.24,0-0.37-0.05-0.61a2.84,2.84,0,0,1-.93.49,3.07,3.07,0,0,1-1.08.11,3.84,3.84,0,0,1-1.25-.27,3.21,3.21,0,0,1-1-.65,2.94,2.94,0,0,1-.79-1.36,12.9,12.9,0,0,1-.3-2.9,11.88,11.88,0,0,1,.12-2.34,2.76,2.76,0,0,1,.55-1.32,3.27,3.27,0,0,1,1.52-.94,6.28,6.28,0,0,1,2.28-.22,4.64,4.64,0,0,1,3,1.08,2.63,2.63,0,0,1,.67,2.42s0,0.09,0,.17,0,0.14,0,.18C64,11.09,63.44,11,62.29,10.92V10.8a2.15,2.15,0,0,0-.14-1.21,0.89,0.89,0,0,0-.78-0.42,0.94,0.94,0,0,0-.93.39,5.12,5.12,0,0,0-.34,2c0,0.38,0,.57,0,1l0,0.66a6,6,0,0,0,.12,2,0.78,0.78,0,0,0,.73.46,0.91,0.91,0,0,0,.83-0.31,2.2,2.2,0,0,0,.36-1.17c0-.12,0-0.22,0-0.29s0-.13,0-0.19L61,13.67,61.12,12a37.69,37.69,0,0,1,4,.44"/>
				<path class="a" d="M66,17.94l1.91-9.46a41,41,0,0,1,7.31,2.05L74.53,12.3a39.47,39.47,0,0,0-4-1.26l-0.46,1.71c1.44,0.39,2.15.61,3.55,1.11L73,15.67c-1.34-.48-2-0.69-3.4-1.06l-0.55,2a34.45,34.45,0,0,1,3.5,1.11l-0.68,1.84A32.93,32.93,0,0,0,66,17.94"/>
				<path class="a" d="M73.35,20.18l3.72-8.9c1.26,0.52,1.89.81,3.12,1.42a53.29,53.29,0,0,1-.55,6.46q0.62-1.38,1.1-2.36t0.84-1.64l0.75-1.32c1,0.58,1.54.89,2.54,1.53l-5.26,8.1c-0.94-.61-1.42-0.9-2.39-1.43a52.77,52.77,0,0,0,.69-6.54q-0.37,1.15-.79,2.2t-0.89,2l-0.72,1.46c-0.86-.42-1.29-0.61-2.17-1"/>
				<path class="a" d="M87.38,24.8c0.87,0.8,1.29,1.22,2.11,2.1L89.36,27l-0.22.21a3.42,3.42,0,0,1-2.58,1.1A4.73,4.73,0,0,1,83.87,27a6.2,6.2,0,0,1-1.29-1.48,3.25,3.25,0,0,1-.47-1.55,3,3,0,0,1,.32-1.32,14.81,14.81,0,0,1,1.35-2.17,12.88,12.88,0,0,1,1.62-2,2.56,2.56,0,0,1,1.22-.66,3.42,3.42,0,0,1,1.83.21,6.8,6.8,0,0,1,2,1.28,5.43,5.43,0,0,1,2,3.1,3,3,0,0,1-1.09,2.67l-0.07.06c-0.86-.92-1.3-1.36-2.2-2.2a2.37,2.37,0,0,0,.7-1.24,1.22,1.22,0,0,0-.51-1,1.12,1.12,0,0,0-1.14-.33,6.54,6.54,0,0,0-1.85,1.8l-0.12.14a8.41,8.41,0,0,0-1.54,2.28,1,1,0,0,0,.39,1,1,1,0,0,0,.92.33,2.54,2.54,0,0,0,1.11-.83l0.29-.31"/>
				<path class="a" d="M88.88,31.91l3.19-2.56a46.52,46.52,0,0,0,2.11-6.09c1,1.1,1.5,1.68,2.43,2.87-0.6,1.22-.91,1.81-1.56,3,1.31-.28,2-0.4,3.32-0.6,0.89,1.28,1.31,1.95,2.11,3.33A40,40,0,0,0,94,32l-3.38,2.31c-0.67-1-1-1.45-1.74-2.36"/>
				<circle class="b" cx="58.16" cy="55.72" r="31.19"/>
			</g>
		</g>
	</g>
</g>
</svg>

