<?xml version="1.0" encoding="utf-8"?>
<!-- Generator: Adobe Illustrator 19.1.0, SVG Export Plug-In . SVG Version: 6.00 Build 0)  -->
<svg version="1.1" id="Capa_1" xmlns="http://www.w3.org/2000/svg" xmlns:xlink="http://www.w3.org/1999/xlink" x="0px" y="0px"
	 viewBox="0 0 175 215" style="enable-background:new 0 0 166.7 210.7;" xml:space="preserve">
<style type="text/css">	
	.st170{fill:none;stroke:#F2F2F2;stroke-width:5;stroke-miterlimit:10;}
	.st171{fill:none;stroke:#F2F2F2;stroke-width:3;stroke-miterlimit:10;}
	.white{fill:#ffffff;}
	.grey{fill:#999999;}
	.blue{fill:#00CED1;}
	.sblue{stroke:#00CED1;stroke-width:5;stroke-miterlimit:10;}
	.sgrey{stroke:#666666;stroke-width:5;stroke-miterlimit:10;}
	.st170{fill:none;stroke:#F2F2F2;stroke-width:5;stroke-miterlimit:10;}
</style>
<g transform="translate(0, -5)">
	<g>
		<path class="grey" d="M147.5,205.9H18c-6.6,0-12-5.4-12-12v-177c0-6.6,5.4-12,12-12h129.5c6.6,0,12,5.4,12,12v177
			C159.5,200.5,154.1,205.9,147.5,205.9z"/>
	</g>
	<g>
		<g>
			<polygon class="st170" points="34.4,68.1 33.4,69.3 32.4,70.6 31.5,71.8 30.8,73.1 30,74.5 29.1,75.8 28.4,77.2 27.7,78.7 
				27.1,80 26.3,81.5 25.8,82.8 25.2,84.3 24.8,85.8 24.1,87.3 23.8,88.8 23.4,90.3 23.1,91.8 22.8,93.3 22.4,94.9 22.1,96.4 
				22,97.9 21.8,99.5 21.7,101 21.7,102.5 21.7,104.1 21.7,105.6 21.7,107.3 21.8,108.8 22,110.2 22.1,111.9 22.4,113.4 22.6,114.9 
				22.9,116.4 23.4,118 23.7,119.5 24.1,121 24.6,122.5 25.1,123.8 25.7,125.3 26.3,126.8 26.9,128.1 27.5,129.6 28.3,130.9 
				29.1,132.3 29.8,133.8 30.6,135 31.5,136.3 32.3,137.7 33.2,138.8 34.3,140.2 35.2,141.4 36.3,142.6 37.2,143.8 38.4,144.8 
				39.5,146 40.6,147 41.8,148.1 43.1,149.1 44.3,150.2 45.5,151.1 46.8,151.9 48.1,152.8 49.4,153.7 50.7,154.6 52.1,155.4 
				53.5,156.1 54.9,156.9 56.4,157.6 57.8,158.2 59.4,158.8 60.7,159.4 62.3,160 63.8,160.4 65.4,160.9 66.9,161.3 68.4,161.6 
				70,162.1 71.5,162.4 73.2,162.7 74.7,162.8 76.3,163 78,163.1 79.5,163.3 81,163.3 82.7,163.3 84.3,163.3 85.8,163.3 87.5,163.1 
				89,163 90.7,162.8 92.3,162.7 93.8,162.4 95.4,162.1 96.9,161.6 98.6,161.3 100.1,160.9 101.5,160.4 103,160 104.6,159.4 
				106.1,158.8 107.5,158.2 109,157.6 110.4,156.9 111.8,156.1 113.2,155.4 114.6,154.6 116,153.7 117.4,152.8 118.6,151.9 
				120,151.1 121.2,150.2 122.4,149.1 123.7,148.1 124.7,147 126,146 127,144.8 128.1,143.8 129.2,142.6 130.1,141.4 131.2,140.2 
				132.1,138.8 133,137.7 134,136.3 134.7,135 135.7,133.8 136.4,132.3 137.2,130.9 137.8,129.6 138.4,128.1 139.2,126.8 
				139.7,125.3 140.3,123.8 140.7,122.5 141.2,121 141.7,119.5 142.1,118 142.4,116.4 142.7,114.9 143,113.4 143.2,111.9 
				143.3,110.2 143.5,108.8 143.7,107.3 143.7,105.6 143.8,104.1 143.7,102.5 143.7,101 143.5,99.5 143.3,97.9 143.2,96.4 143,94.9 
				142.7,93.3 142.4,91.8 142,90.3 141.7,88.8 141.2,87.3 140.7,85.8 140.1,84.3 139.7,82.8 139,81.5 138.4,80 137.7,78.7 137,77.2 
				136.3,75.8 135.5,74.5 134.6,73.1 133.8,71.8 132.9,70.6 132,69.3 131,68.1 130.6,67.6 130.3,67.2 129.8,66.6 129.4,66.1 
				128.9,65.8 128.4,65.4 128,65 127.4,64.5 126.9,64.2 126.4,63.8 125.8,63.5 125.3,63.2 124.7,62.7 124.3,62.4 123.7,62.1 123,62 
				122.4,61.7 122,61.4 121.3,61.2 120.7,60.9 120.1,60.8 119.5,60.6 118.9,60.5 118.3,60.3 117.7,60.2 116.9,60 116.3,60 
				115.7,59.9 115,59.9 114.4,59.9 113.8,59.9 51.7,59.9 51.1,59.9 50.3,59.9 49.7,59.9 49.1,60 48.4,60 47.8,60.2 47.2,60.3 
				46.6,60.5 46,60.6 45.4,60.8 44.8,60.9 44.1,61.2 43.5,61.4 42.9,61.7 42.3,62 41.7,62.1 41.2,62.4 40.6,62.7 40.1,63.2 
				39.5,63.5 39.1,63.8 38.4,64.2 38,64.5 37.5,65 37.1,65.4 36.6,65.8 36.1,66.1 35.7,66.6 35.2,67.2 34.7,67.6 		"/>
			<path class="st170" d="M36.8,104.6c0-6.9,5.8-12.6,13-12.6c7.2,0,13,5.6,13,12.6c0,6.9-5.8,12.6-13,12.6
				C42.6,117.2,36.8,111.6,36.8,104.6z"/>
			<path class="st170" d="M69.7,104.6c0-6.9,5.8-12.6,13-12.6c7.2,0,13,5.6,13,12.6c0,6.9-5.8,12.6-13,12.6
				C75.5,117.2,69.7,111.6,69.7,104.6z"/>
			<path class="st170" d="M102.6,104.6c0-6.9,5.8-12.6,13-12.6c7.2,0,13,5.6,13,12.6c0,6.9-5.8,12.6-13,12.6
				C108.4,117.2,102.6,111.6,102.6,104.6z"/>
			<path class="st170" d="M86.2,132.3c0-6.9,5.8-12.6,13-12.6c7.2,0,13,5.6,13,12.6c0,6.9-5.8,12.6-13,12.6
				C92,144.9,86.2,139.3,86.2,132.3z"/>
			<path class="st170" d="M53.3,132.3c0-6.9,5.8-12.6,13-12.6c7.2,0,13,5.6,13,12.6c0,6.9-5.8,12.6-13,12.6
				C59.1,144.9,53.3,139.3,53.3,132.3z"/>
			<path class="st170" d="M58,82.3c0-4.4,3.7-8,8.3-8s8.3,3.6,8.3,8c0,4.4-3.7,8-8.3,8S58,86.8,58,82.3z"/>
			<path class="st170" d="M90.8,82.3c0-4.4,3.7-8,8.3-8s8.3,3.6,8.3,8c0,4.4-3.7,8-8.3,8S90.8,86.8,90.8,82.3z"/>
		</g>
	</g>
	<g transform="translate(80, 125)">
		<circle cx="50" cy="50" r="40" class="white sblue" />
		<g transform="translate(-58, -58)">
			<g transform="scale(1.2)">
				<path class="blue" d="M77.36,74.88V69.76a1.28,1.28,0,1,1,2.56,0v5.12a1.28,1.28,0,1,1-2.56,0h0Zm21.78,1.28a1.28,1.28,0,0,0,1.28-1.28V69.76a1.28,1.28,0,1,0-2.56,0v5.12a1.28,1.28,0,0,0,1.28,1.28h0Zm14.09,23.06A10.25,10.25,0,1,1,103,89a10.25,10.25,0,0,1,10.25,10.25h0Zm-2.56,0a7.69,7.69,0,1,0-7.69,7.69,7.7,7.7,0,0,0,7.69-7.69h0ZM82.48,83.85H77.36V89h5.12V83.85ZM77.36,96.67h5.12V91.54H77.36v5.13ZM85,89h5.12V83.85H85V89Zm0,7.69h5.12V91.54H85v5.13ZM74.79,99V81.29H103v5.12h2.56v-10a2.8,2.8,0,0,0-2.78-2.82H101.7v1.28a2.56,2.56,0,1,1-5.12,0V73.6H81.2v1.28a2.56,2.56,0,1,1-5.13,0V73.6H75a2.8,2.8,0,0,0-2.78,2.82V99A2.8,2.8,0,0,0,75,101.79H90.17V99.23H75A0.24,0.24,0,0,1,74.79,99h0ZM97.86,89V83.85H92.73V89h5.12Zm9,10.25H103V95.38a1.28,1.28,0,1,0-2.56,0v5.12a1.28,1.28,0,0,0,1.28,1.28h5.13a1.28,1.28,0,0,0,0-2.56h0Zm0,0"/>

			</g>
		</g>
	</g>
</g>
</svg>

