<?xml version="1.0" encoding="utf-8"?>
<!-- Generator: Adobe Illustrator 19.1.0, SVG Export Plug-In . SVG Version: 6.00 Build 0)  -->
<svg version="1.1" id="Capa_1" xmlns="http://www.w3.org/2000/svg" xmlns:xlink="http://www.w3.org/1999/xlink" x="0px" y="0px"
	 viewBox="0 0 175 215" style="enable-background:new 0 0 166.7 210.7;" xml:space="preserve">
<style type="text/css">
	.st0{fill:#F2F2F2;}
	.st1{fill:#C1272D;}
	.st170{fill:none;stroke:#F2F2F2;stroke-width:5;stroke-miterlimit:10;}
	.st171{fill:none;stroke:#F2F2F2;stroke-width:3;stroke-miterlimit:10;}
	.red{fill:#C1272D;}
	.white{fill:#ffffff;}
	.grey{fill:#666666;}
	.greyC{fill:#666666;}
	.sgrey{stroke:#666666;stroke-width:5;stroke-miterlimit:10;}
	.sred{stroke:#C1272D;stroke-width:5;stroke-miterlimit:10;}
	.st170{fill:none;stroke:#F2F2F2;stroke-width:5;stroke-miterlimit:10;}
	.green{fill:#74A528;}
	.sgreen{stroke:#74A528;stroke-width:5;stroke-miterlimit:10;}
</style>
<g transform="translate(0, -5)">
	<g class="grey" transform="translate(7.000000,205.000000) scale(0.02300000,-0.02300000)" stroke="none">
	<path d="M420 8543 c-146 -23 -297 -134 -365 -268 -58 -116 -55 32 -55 -2347
	0 -2090 1 -2188 18 -2188 10 0 26 6 37 13 11 7 36 19 55 26 19 7 53 21 75 31
	98 45 133 60 175 79 25 10 71 31 103 45 32 14 63 26 70 26 7 0 17 4 23 9 5 5
	63 33 129 61 66 29 134 58 150 65 17 7 84 37 150 65 148 64 201 87 240 105 17
	8 64 28 105 45 41 18 94 40 118 51 23 10 63 28 90 40 96 42 97 43 100 101 13
	276 64 611 117 773 67 203 248 501 394 646 20 20 50 52 68 70 26 29 85 82 136
	124 108 89 254 175 392 229 39 16 81 34 95 41 14 7 41 16 60 20 19 4 40 11 45
	15 12 9 201 71 410 135 50 16 116 37 148 47 64 21 218 26 274 9 41 -12 131
	-72 163 -108 45 -50 124 -176 165 -261 33 -70 43 -83 60 -78 38 9 120 39 161
	57 22 11 46 19 53 19 6 0 22 6 34 14 12 8 38 17 57 21 19 4 40 11 45 15 6 4
	55 25 110 45 136 50 204 76 240 91 49 21 116 44 188 66 60 19 73 20 123 9 162
	-37 229 -239 119 -359 -37 -40 -81 -65 -195 -107 -41 -16 -94 -36 -118 -46
	-24 -10 -58 -21 -77 -25 -19 -3 -35 -10 -35 -14 0 -4 -19 -12 -42 -19 -24 -7
	-56 -18 -73 -26 -28 -13 -214 -84 -280 -107 -16 -6 -44 -17 -62 -24 -17 -8
	-35 -14 -40 -14 -5 0 -17 -6 -27 -13 -16 -12 -17 -15 -1 -57 9 -25 20 -52 25
	-61 5 -9 23 -54 41 -100 17 -46 40 -102 50 -124 10 -22 21 -53 25 -70 4 -16
	11 -35 15 -41 5 -6 16 -31 25 -55 29 -78 61 -163 84 -219 12 -30 29 -77 37
	-105 9 -27 23 -61 31 -75 9 -14 16 -26 17 -27 1 -3 100 33 120 44 11 6 38 16
	60 23 22 6 59 20 82 31 24 10 49 19 56 19 7 0 17 4 23 9 5 5 34 18 64 29 30
	11 80 30 110 42 30 12 78 30 105 40 28 10 75 28 105 40 191 76 222 82 300 53
	59 -22 95 -56 125 -120 31 -65 31 -100 0 -169 -37 -81 -78 -115 -189 -154
	-106 -37 -142 -51 -161 -60 -11 -5 -58 -23 -105 -40 -47 -18 -93 -36 -102 -41
	-28 -14 -197 -79 -207 -79 -5 0 -22 -6 -38 -14 -68 -33 -123 -55 -158 -62 -36
	-6 -37 -7 -30 -43 4 -20 13 -54 22 -76 15 -43 36 -110 59 -190 22 -76 29 -204
	14 -263 -15 -64 -82 -138 -155 -171 -27 -13 -131 -63 -230 -111 -256 -126
	-353 -170 -370 -170 -8 0 -15 -4 -15 -8 0 -5 -19 -15 -42 -22 -24 -8 -48 -17
	-53 -21 -11 -8 -50 -23 -185 -70 -358 -124 -784 -111 -1155 36 -69 27 -123 52
	-145 66 -8 5 -30 16 -48 25 -61 27 -249 167 -342 253 -30 28 -62 56 -70 63 -8
	6 -74 70 -147 141 l-132 130 -43 -18 c-24 -10 -61 -26 -83 -36 -145 -62 -267
	-115 -313 -135 -29 -13 -56 -24 -59 -24 -4 0 -26 -9 -50 -20 -24 -11 -62 -29
	-86 -40 -24 -11 -48 -20 -53 -20 -5 0 -29 -10 -54 -22 -25 -12 -63 -29 -85
	-39 -22 -9 -61 -27 -86 -38 -25 -12 -49 -21 -53 -21 -4 0 -33 -12 -64 -26 -31
	-14 -77 -35 -102 -46 -25 -10 -58 -25 -75 -32 -16 -8 -59 -26 -95 -41 -36 -15
	-78 -33 -95 -40 -150 -65 -296 -128 -372 -161 l-93 -39 0 -1371 c0 -1232 2
	-1376 16 -1425 60 -203 222 -342 426 -369 98 -13 5538 -13 5636 0 204 27 374
	181 428 390 12 48 14 574 12 3900 l-3 3845 -22 58 c-45 118 -123 212 -234 279
	-121 73 119 68 -3006 67 -1544 -1 -2819 -4 -2833 -6z"/>
	<path d="M3605 6325 c-22 -8 -58 -18 -80 -24 -22 -5 -60 -17 -85 -25 -25 -8
	-112 -36 -195 -62 -82 -25 -164 -52 -182 -60 -17 -8 -35 -14 -40 -14 -18 0
	-229 -88 -288 -120 -33 -18 -71 -39 -83 -46 -34 -17 -233 -184 -257 -214 -11
	-13 -44 -52 -74 -85 -122 -136 -261 -386 -306 -550 -12 -46 -33 -156 -46 -245
	-23 -158 -23 -161 -6 -247 40 -191 151 -459 233 -559 38 -48 152 -159 269
	-263 93 -84 238 -184 288 -200 20 -7 37 -15 39 -19 8 -17 277 -96 371 -108
	122 -16 288 -18 412 -4 81 9 371 93 385 111 3 3 16 10 30 14 26 7 36 12 250
	113 69 33 136 63 150 67 14 4 27 11 30 15 3 4 43 25 90 48 47 22 102 56 123
	75 l37 34 -24 89 c-22 80 -75 236 -136 399 -12 33 -28 80 -36 105 -8 25 -18
	54 -24 65 -5 11 -16 38 -24 60 -8 22 -25 69 -39 105 -13 36 -41 110 -61 165
	-20 55 -43 114 -50 130 -8 17 -17 41 -21 55 -3 14 -12 39 -20 55 -38 85 -65
	154 -65 167 0 8 -4 18 -9 23 -5 6 -26 53 -46 105 -20 52 -42 109 -50 125 -7
	17 -25 62 -40 100 -14 39 -34 88 -45 110 -10 22 -30 67 -45 100 -74 165 -154
	314 -194 366 -50 64 -65 69 -136 44z"/>
	</g>
	<g transform="translate(80, 125)">
		<circle cx="50" cy="50" r="40" class="white sgreen" />
		<g transform="translate(27, 28)">
			<g transform="scale(1)">
				<path class="green" d="M20.687,38.332c-2.072,2.072-5.434,2.072-7.505,0L1.554,26.704c-2.072-2.071-2.072-5.433,0-7.504
					c2.071-2.072,5.433-2.072,7.505,0l6.928,6.927c0.523,0.522,1.372,0.522,1.896,0L36.642,7.368c2.071-2.072,5.433-2.072,7.505,0
					c0.995,0.995,1.554,2.345,1.554,3.752c0,1.407-0.559,2.757-1.554,3.752L20.687,38.332z"/>
				
			</g>
		</g>
	</g>
</g>
</svg>

