<?xml version="1.0" encoding="utf-8"?>
<!-- Generator: Adobe Illustrator 22.0.1, SVG Export Plug-In . SVG Version: 6.00 Build 0)  -->
<svg version="1.1" id="Capa_1" xmlns="http://www.w3.org/2000/svg" xmlns:xlink="http://www.w3.org/1999/xlink" x="0px" y="0px"
	 viewBox="0 0 175 215" style="enable-background:new 0 0 175 215;" xml:space="preserve">
<style type="text/css">
	.st0{fill:#666666;}
	.st1{fill:none;stroke:#F2F2F2;stroke-width:5;stroke-miterlimit:10;}
	.st2{fill:#FFFFFF;stroke:#C1272D;stroke-width:5;stroke-miterlimit:10;}
	.st3{fill:#C1272D;}
</style>
<g>
	<g>
		<path class="st0" d="M147.5,200.9H18c-6.6,0-12-5.4-12-12v-177c0-6.6,5.4-12,12-12h129.5c6.6,0,12,5.4,12,12v177
			C159.5,195.5,154.1,200.9,147.5,200.9z"/>
	</g>
	<g>
		<path class="st1" d="M98.1,121.7c19.8-6.9,34-25.7,34-47.8c0-28-22.7-50.6-50.6-50.6S30.9,45.9,30.9,73.9
			c0,20.8,12.5,38.6,30.4,46.4l0,10.5l36.8,0.3L98.1,121.7z"/>
		<circle class="st1" cx="81.5" cy="74.3" r="38.8"/>
		<path class="st1" d="M95.8,84.9c0-3.1,2.7-5.7,5.9-5.7c3.2,0,5.9,2.6,5.9,5.7s-2.7,5.7-5.9,5.7C98.5,90.6,95.8,88.1,95.8,84.9z"/>
		<path class="st1" d="M53.2,85.7c0-3.1,2.7-5.7,5.9-5.7s5.9,2.6,5.9,5.7c0,3.1-2.7,5.7-5.9,5.7S53.2,88.9,53.2,85.7z"/>
		<path class="st1" d="M86.6,60.8c0-4.9,4.1-8.9,9.3-8.9s9.3,4,9.3,8.9c0,5-4.2,8.9-9.3,8.9C90.7,69.8,86.6,65.8,86.6,60.8z"/>
		<path class="st1" d="M55.7,60.8c0-4.9,4.1-8.9,9.3-8.9c5.1,0,9.3,4,9.3,8.9c0,5-4.2,8.9-9.3,8.9C59.8,69.8,55.7,65.8,55.7,60.8z"
			/>
		<path class="st1" d="M71.3,94.6c0-4.9,4.1-8.9,9.3-8.9s9.3,4,9.3,8.9c0,5-4.2,8.9-9.3,8.9C75.4,103.6,71.3,99.6,71.3,94.6z"/>
		<path class="st1" d="M47.5,152c0-6.1,5.1-11,11.4-11c6.4,0,11.4,5,11.4,11c0,6.1-5.1,11.1-11.4,11.1
			C52.6,163.1,47.5,158.2,47.5,152z"/>
		<path class="st1" d="M91.4,152c0-6.1,5.1-11,11.4-11c6.4,0,11.4,5,11.4,11c0,6.1-5.1,11.1-11.4,11.1
			C96.5,163.1,91.4,158.2,91.4,152z"/>
		<path class="st1" d="M64.9,121.7"/>
		<path class="st1" d="M103.9,173.9H57.1c-11.8,0-21.4-9.6-21.4-21.4v0c0-11.8,9.6-21.4,21.4-21.4h46.8c11.8,0,21.4,9.6,21.4,21.4v0
			C125.3,164.3,115.7,173.9,103.9,173.9z"/>
	</g>
	<g transform="translate(80, 125)">
		<circle class="st2" cx="50" cy="45" r="40"/>
		<g transform="translate(-63, -46)">
			<g transform="scale(1.2)">
				<path class="st3" d="M88.9,89.9l0.1-0.5c0-0.9-0.2-1.9-0.5-2.7l16.1-16.1c0.9,0.3,1.8,0.5,2.7,0.5h0.5c4.3-0.2,7.6-3.9,7.3-8.2
					c-0.1-1-0.3-2.1-0.8-3l-5.2,5.2c-0.3,0.3-0.6,0.5-0.9,0.6c-1.3,0.5-2.8-0.2-3.4-1.5c-0.1-0.3-0.2-0.6-0.2-0.9
					c0-0.3,0.1-0.6,0.2-0.9c0.1-0.4,0.3-0.7,0.6-0.9l5.2-5.2c-1-0.5-2.2-0.8-3.4-0.8c-4.1,0-7.6,3.2-7.8,7.3l-0.1,0.5
					c0,0.9,0.2,1.8,0.5,2.7L83.8,82.1c-0.9-0.3-1.8-0.5-2.7-0.5h-0.5c-4.1,0.3-7.3,3.7-7.3,7.8c0,1.2,0.3,2.4,0.8,3.4l5.2-5.2
					c0.3-0.3,0.6-0.5,0.9-0.6c1.4-0.5,2.9,0.2,3.4,1.5c0.1,0.3,0.2,0.6,0.2,0.9c0,0.7-0.3,1.4-0.8,1.8l-5.2,5.2
					c3.9,1.9,8.5,0.3,10.4-3.6C88.6,92,88.9,91,88.9,89.9L88.9,89.9z"/>
			</g>
		</g>
	</g>
</g>
</svg>
