<?xml version="1.0" encoding="utf-8"?>
<!-- Generator: Adobe Illustrator 22.0.1, SVG Export Plug-In . SVG Version: 6.00 Build 0)  -->
<svg version="1.1" id="Capa_1" xmlns="http://www.w3.org/2000/svg" xmlns:xlink="http://www.w3.org/1999/xlink" x="0px" y="0px"
	 viewBox="0 0 175 215" style="enable-background:new 0 0 175 215;" xml:space="preserve">
<style type="text/css">
	.st0{fill:#666666;}
	.st1{fill:none;stroke:#F2F2F2;stroke-width:5;stroke-miterlimit:10;}
	.st2{fill:#FFFFFF;stroke:#74A528;stroke-width:5;stroke-miterlimit:10;}
	.st3{fill:#74A528;}
</style>
<g>
	<g>
		<path class="st0" d="M147.5,200.9H18c-6.6,0-12-5.4-12-12v-177c0-6.6,5.4-12,12-12h129.5c6.6,0,12,5.4,12,12v177
			C159.5,195.5,154.1,200.9,147.5,200.9z"/>
	</g>
	<g>
		<path class="st1" d="M99.8,120.7c19.8-6.9,34-25.7,34-47.8c0-28-22.7-50.6-50.6-50.6S32.6,44.9,32.6,72.8
			c0,20.8,12.5,38.6,30.4,46.4l0,10.5l36.8,0.3L99.8,120.7z"/>
		<circle class="st1" cx="83.2" cy="73.2" r="38.8"/>
		<path class="st1" d="M97.6,83.8c0-3.1,2.7-5.7,5.9-5.7c3.2,0,5.9,2.6,5.9,5.7s-2.7,5.7-5.9,5.7C100.2,89.5,97.6,87,97.6,83.8z"/>
		<path class="st1" d="M54.9,84.6c0-3.1,2.7-5.7,5.9-5.7c3.2,0,5.9,2.6,5.9,5.7s-2.7,5.7-5.9,5.7C57.6,90.3,54.9,87.8,54.9,84.6z"/>
		<path class="st1" d="M88.3,59.8c0-4.9,4.1-8.9,9.3-8.9s9.3,4,9.3,8.9c0,5-4.2,8.9-9.3,8.9C92.4,68.8,88.3,64.7,88.3,59.8z"/>
		<path class="st1" d="M57.4,59.8c0-4.9,4.1-8.9,9.3-8.9c5.1,0,9.3,4,9.3,8.9c0,5-4.2,8.9-9.3,8.9C61.5,68.8,57.4,64.7,57.4,59.8z"
			/>
		<path class="st1" d="M73,93.6c0-4.9,4.1-8.9,9.3-8.9s9.3,4,9.3,8.9c0,5-4.2,8.9-9.3,8.9C77.1,102.6,73,98.5,73,93.6z"/>
		<path class="st1" d="M49.2,151c0-6.1,5.1-11,11.4-11c6.4,0,11.4,5,11.4,11c0,6.1-5.1,11.1-11.4,11.1C54.4,162,49.2,157.1,49.2,151
			z"/>
		<path class="st1" d="M93.1,151c0-6.1,5.1-11,11.4-11c6.4,0,11.4,5,11.4,11c0,6.1-5.1,11.1-11.4,11.1C98.3,162,93.1,157.1,93.1,151
			z"/>
		<path class="st1" d="M66.7,120.7"/>
		<path class="st1" d="M105.7,172.9H58.9c-11.8,0-21.4-9.6-21.4-21.4v0c0-11.8,9.6-21.4,21.4-21.4h46.8c11.8,0,21.4,9.6,21.4,21.4v0
			C127.1,163.3,117.4,172.9,105.7,172.9z"/>
	</g>
	<g transform="translate(80, 125)">
		<circle class="st2" cx="50" cy="45" r="40"/>
		<g transform="translate(27, 28)">
			<g transform="scale(1)">
				<path class="st3" d="M20.7,33.3c-2.1,2.1-5.4,2.1-7.5,0L1.6,21.7c-2.1-2.1-2.1-5.4,0-7.5c2.1-2.1,5.4-2.1,7.5,0l6.9,6.9
					c0.5,0.5,1.4,0.5,1.9,0L36.6,2.4c2.1-2.1,5.4-2.1,7.5,0c1,1,1.6,2.3,1.6,3.8s-0.6,2.8-1.6,3.8L20.7,33.3z"/>
			</g>
		</g>
	</g>
</g>
</svg>
