<?xml version="1.0" encoding="utf-8"?>
<!-- Generator: Adobe Illustrator 22.0.1, SVG Export Plug-In . SVG Version: 6.00 Build 0)  -->
<svg version="1.1" id="Capa_1" xmlns="http://www.w3.org/2000/svg" xmlns:xlink="http://www.w3.org/1999/xlink" x="0px" y="0px"
	 viewBox="0 0 175 215" style="enable-background:new 0 0 175 215;" xml:space="preserve">
<style type="text/css">
	.st0{fill:#999999;}
	.st1{fill:none;stroke:#F2F2F2;stroke-width:5;stroke-miterlimit:10;}
	.st2{fill:#FFFFFF;stroke:#0267C3;stroke-width:5;stroke-miterlimit:10;}
	.st3{fill:#0267C3;}
</style>
<g>
	<g>
		<path class="st0" d="M147.5,200.9H18c-6.6,0-12-5.4-12-12v-177c0-6.6,5.4-12,12-12h129.5c6.6,0,12,5.4,12,12v177
			C159.5,195.5,154.1,200.9,147.5,200.9z"/>
	</g>
	<g>
		<path class="st1" d="M97.8,120.5c19.8-6.9,34-25.7,34-47.8c0-28-22.7-50.6-50.6-50.6S30.6,44.7,30.6,72.7
			c0,20.8,12.5,38.6,30.4,46.4l0,10.5l36.8,0.3L97.8,120.5z"/>
		<circle class="st1" cx="81.2" cy="73.1" r="38.8"/>
		<path class="st1" d="M95.6,83.7c0-3.1,2.7-5.7,5.9-5.7c3.2,0,5.9,2.6,5.9,5.7c0,3.1-2.7,5.7-5.9,5.7
			C98.2,89.4,95.6,86.9,95.6,83.7z"/>
		<path class="st1" d="M52.9,84.5c0-3.1,2.7-5.7,5.9-5.7s5.9,2.6,5.9,5.7s-2.7,5.7-5.9,5.7S52.9,87.7,52.9,84.5z"/>
		<path class="st1" d="M86.3,59.6c0-4.9,4.1-8.9,9.3-8.9s9.3,4,9.3,8.9c0,5-4.2,8.9-9.3,8.9C90.4,68.6,86.3,64.6,86.3,59.6z"/>
		<path class="st1" d="M55.4,59.6c0-4.9,4.1-8.9,9.3-8.9c5.1,0,9.3,4,9.3,8.9c0,5-4.2,8.9-9.3,8.9C59.5,68.6,55.4,64.6,55.4,59.6z"
			/>
		<path class="st1" d="M71,93.4c0-4.9,4.1-8.9,9.3-8.9s9.3,4,9.3,8.9c0,5-4.2,8.9-9.3,8.9C75.1,102.4,71,98.4,71,93.4z"/>
		<path class="st1" d="M47.2,150.8c0-6.1,5.1-11,11.4-11c6.4,0,11.4,5,11.4,11c0,6.1-5.1,11.1-11.4,11.1
			C52.4,161.9,47.2,157,47.2,150.8z"/>
		<path class="st1" d="M91.1,150.8c0-6.1,5.1-11,11.4-11c6.4,0,11.4,5,11.4,11c0,6.1-5.1,11.1-11.4,11.1
			C96.3,161.9,91.1,157,91.1,150.8z"/>
		<path class="st1" d="M64.7,120.5"/>
		<path class="st1" d="M103.7,172.7H56.9c-11.8,0-21.4-9.6-21.4-21.4v0c0-11.8,9.6-21.4,21.4-21.4h46.8c11.8,0,21.4,9.6,21.4,21.4v0
			C125.1,163.1,115.4,172.7,103.7,172.7z"/>
	</g>
	<g transform="translate(80, 125)">
		<circle class="st2" cx="50" cy="45" r="40"/>
		<g transform="translate(23, 20)">
			<g transform="scale(0.11)">
				<path class="st3" d="M99,101.5v51.1h-3.4c-21.4,0-38.8,17.4-38.8,38.8v213.7c0,21.4,17.4,38.8,38.8,38.8h298.2
					c21.4,0,38.8-17.4,38.8-38.8V191.3c0-21.4-17.4-38.8-38.8-38.8h-1v-51.1c0-81-65.9-146.9-146.9-146.9
					C164.9-45.4,99,20.5,99,101.5z M267.7,307.7c-3,2.2-3.8,4.3-3.8,7.8c0.1,15.7,0.1,31.3,0.1,47l0,0c0.3,6.5-3,12.9-8.8,15.8
					c-13.7,7-27.4-2.8-27.4-15.8v-0.1c0-15.7,0-31.4,0.1-47.1c0-3.2-0.7-5.3-3.5-7.4c-14.2-10.5-18.9-28.4-11.8-44.1
					c6.9-15.3,23.8-24.3,39.7-21.1c17.7,3.6,30,17.8,30.2,35.5C282.5,290.5,277.6,300.5,267.7,307.7z M163.3,101.5
					c0-45.6,37.1-82.6,82.6-82.6c45.6,0,82.6,37.1,82.6,82.6v51.1H163.3V101.5z"/>
			</g>
		</g>
	</g>
</g>
</svg>
