<?xml version="1.0" encoding="utf-8"?>
<!-- Generator: Adobe Illustrator 22.0.1, SVG Export Plug-In . SVG Version: 6.00 Build 0)  -->
<svg version="1.1" id="Capa_1" xmlns="http://www.w3.org/2000/svg" xmlns:xlink="http://www.w3.org/1999/xlink" x="0px" y="0px"
	 viewBox="0 0 175 215" style="enable-background:new 0 0 175 215;" xml:space="preserve">
<style type="text/css">
	.st0{fill:#999999;}
	.st1{fill:none;stroke:#F2F2F2;stroke-width:5;stroke-miterlimit:10;}
	.st2{fill:#FFFFFF;stroke:#C1272D;stroke-width:5;stroke-miterlimit:10;}
	.st3{fill:#C1272D;}
</style>
<g>
	<g>
		<path class="st0" d="M147.5,200.9H18c-6.6,0-12-5.4-12-12v-177c0-6.6,5.4-12,12-12h129.5c6.6,0,12,5.4,12,12v177
			C159.5,195.5,154.1,200.9,147.5,200.9z"/>
	</g>
	<g>
		<path class="st1" d="M99.3,121.3c19.8-6.9,34-25.7,34-47.8c0-28-22.7-50.6-50.6-50.6S32.1,45.5,32.1,73.5
			c0,20.8,12.5,38.6,30.4,46.4l0,10.5l36.8,0.3L99.3,121.3z"/>
		<circle class="st1" cx="82.7" cy="73.9" r="38.8"/>
		<path class="st1" d="M97,84.4c0-3.1,2.7-5.7,5.9-5.7c3.2,0,5.9,2.6,5.9,5.7c0,3.1-2.7,5.7-5.9,5.7C99.7,90.2,97,87.7,97,84.4z"/>
		<path class="st1" d="M54.4,85.2c0-3.1,2.7-5.7,5.9-5.7s5.9,2.6,5.9,5.7S63.5,91,60.2,91S54.4,88.5,54.4,85.2z"/>
		<path class="st1" d="M87.8,60.4c0-4.9,4.1-8.9,9.3-8.9s9.3,4,9.3,8.9c0,5-4.2,8.9-9.3,8.9C91.9,69.4,87.8,65.4,87.8,60.4z"/>
		<path class="st1" d="M56.9,60.4c0-4.9,4.1-8.9,9.3-8.9c5.1,0,9.3,4,9.3,8.9c0,5-4.2,8.9-9.3,8.9C61,69.4,56.9,65.4,56.9,60.4z"/>
		<path class="st1" d="M72.5,94.2c0-4.9,4.1-8.9,9.3-8.9c5.1,0,9.3,4,9.3,8.9c0,5-4.2,8.9-9.3,8.9C76.6,103.2,72.5,99.2,72.5,94.2z"
			/>
		<path class="st1" d="M48.7,151.6c0-6.1,5.1-11,11.4-11c6.4,0,11.4,5,11.4,11c0,6.1-5.1,11.1-11.4,11.1
			C53.8,162.6,48.7,157.7,48.7,151.6z"/>
		<path class="st1" d="M92.6,151.6c0-6.1,5.1-11,11.4-11c6.4,0,11.4,5,11.4,11c0,6.1-5.1,11.1-11.4,11.1
			C97.7,162.6,92.6,157.7,92.6,151.6z"/>
		<path class="st1" d="M66.1,121.3"/>
		<path class="st1" d="M105.1,173.5H58.3c-11.8,0-21.4-9.6-21.4-21.4v0c0-11.8,9.6-21.4,21.4-21.4h46.8c11.8,0,21.4,9.6,21.4,21.4v0
			C126.5,163.9,116.9,173.5,105.1,173.5z"/>
	</g>
	<g transform="translate(80, 125)">
		<circle class="st2" cx="50" cy="45" r="40"/>
		<g transform="translate(-63, -46)">
			<g transform="scale(1.2)">
				<path class="st3" d="M88.9,89.9l0.1-0.5c0-0.9-0.2-1.9-0.5-2.7l16.1-16.1c0.9,0.3,1.8,0.5,2.7,0.5h0.5c4.3-0.2,7.6-3.9,7.3-8.2
					c-0.1-1-0.3-2.1-0.8-3l-5.2,5.2c-0.3,0.3-0.6,0.5-0.9,0.6c-1.3,0.5-2.8-0.2-3.4-1.5c-0.1-0.3-0.2-0.6-0.2-0.9
					c0-0.3,0.1-0.6,0.2-0.9c0.1-0.4,0.3-0.7,0.6-0.9l5.2-5.2c-1-0.5-2.2-0.8-3.4-0.8c-4.1,0-7.6,3.2-7.8,7.3l-0.1,0.5
					c0,0.9,0.2,1.8,0.5,2.7L83.8,82.1c-0.9-0.3-1.8-0.5-2.7-0.5h-0.5c-4.1,0.3-7.3,3.7-7.3,7.8c0,1.2,0.3,2.4,0.8,3.4l5.2-5.2
					c0.3-0.3,0.6-0.5,0.9-0.6c1.4-0.5,2.9,0.2,3.4,1.5c0.1,0.3,0.2,0.6,0.2,0.9c0,0.7-0.3,1.4-0.8,1.8l-5.2,5.2
					c3.9,1.9,8.5,0.3,10.4-3.6C88.6,92,88.9,91,88.9,89.9L88.9,89.9z"/>
			</g>
		</g>
	</g>
</g>
</svg>
