<?xml version="1.0" encoding="utf-8"?>
<!-- Generator: Adobe Illustrator 22.0.1, SVG Export Plug-In . SVG Version: 6.00 Build 0)  -->
<svg version="1.1" id="Capa_1" xmlns="http://www.w3.org/2000/svg" xmlns:xlink="http://www.w3.org/1999/xlink" x="0px" y="0px"
	 viewBox="0 0 175 215" style="enable-background:new 0 0 175 215;" xml:space="preserve">
<style type="text/css">
	.st0{fill:#999999;}
	.st1{fill:none;stroke:#F2F2F2;stroke-width:5;stroke-miterlimit:10;}
	.st2{fill:#FFFFFF;stroke:#74A528;stroke-width:5;stroke-miterlimit:10;}
	.st3{fill:#74A528;}
</style>
<g>
	<g>
		<path class="st0" d="M147.5,200.9H18c-6.6,0-12-5.4-12-12v-177c0-6.6,5.4-12,12-12h129.5c6.6,0,12,5.4,12,12v177
			C159.5,195.5,154.1,200.9,147.5,200.9z"/>
	</g>
	<g>
		<path class="st1" d="M98.3,123.5c19.8-6.9,34-25.7,34-47.8c0-28-22.7-50.6-50.6-50.6S31.1,47.7,31.1,75.7
			c0,20.8,12.5,38.6,30.4,46.4l0,10.5l36.8,0.3L98.3,123.5z"/>
		<circle class="st1" cx="81.7" cy="76.1" r="38.8"/>
		<path class="st1" d="M96,86.7c0-3.1,2.7-5.7,5.9-5.7c3.2,0,5.9,2.6,5.9,5.7c0,3.1-2.7,5.7-5.9,5.7C98.7,92.4,96,89.9,96,86.7z"/>
		<path class="st1" d="M53.4,87.5c0-3.1,2.7-5.7,5.9-5.7s5.9,2.6,5.9,5.7s-2.7,5.7-5.9,5.7S53.4,90.7,53.4,87.5z"/>
		<path class="st1" d="M86.8,62.6c0-4.9,4.1-8.9,9.3-8.9s9.3,4,9.3,8.9c0,5-4.2,8.9-9.3,8.9C90.9,71.6,86.8,67.6,86.8,62.6z"/>
		<path class="st1" d="M55.9,62.6c0-4.9,4.1-8.9,9.3-8.9c5.1,0,9.3,4,9.3,8.9c0,5-4.2,8.9-9.3,8.9C60,71.6,55.9,67.6,55.9,62.6z"/>
		<path class="st1" d="M71.5,96.4c0-4.9,4.1-8.9,9.3-8.9c5.1,0,9.3,4,9.3,8.9c0,5-4.2,8.9-9.3,8.9C75.6,105.4,71.5,101.4,71.5,96.4z
			"/>
		<path class="st1" d="M47.7,153.8c0-6.1,5.1-11,11.4-11c6.4,0,11.4,5,11.4,11c0,6.1-5.1,11.1-11.4,11.1
			C52.8,164.9,47.7,160,47.7,153.8z"/>
		<path class="st1" d="M91.6,153.8c0-6.1,5.1-11,11.4-11c6.4,0,11.4,5,11.4,11c0,6.1-5.1,11.1-11.4,11.1
			C96.7,164.9,91.6,160,91.6,153.8z"/>
		<path class="st1" d="M65.1,123.5"/>
		<path class="st1" d="M104.1,175.7H57.3c-11.8,0-21.4-9.6-21.4-21.4v0c0-11.8,9.6-21.4,21.4-21.4h46.8c11.8,0,21.4,9.6,21.4,21.4v0
			C125.5,166.1,115.9,175.7,104.1,175.7z"/>
	</g>
	<g transform="translate(80, 125)">
		<circle class="st2" cx="50" cy="45" r="40"/>
		<g transform="translate(27, 28)">
			<g transform="scale(1)">
				<path class="st3" d="M20.7,33.3c-2.1,2.1-5.4,2.1-7.5,0L1.6,21.7c-2.1-2.1-2.1-5.4,0-7.5c2.1-2.1,5.4-2.1,7.5,0l6.9,6.9
					c0.5,0.5,1.4,0.5,1.9,0L36.6,2.4c2.1-2.1,5.4-2.1,7.5,0c1,1,1.6,2.3,1.6,3.8s-0.6,2.8-1.6,3.8L20.7,33.3z"/>
			</g>
		</g>
	</g>
</g>
</svg>
