<?xml version="1.0" encoding="utf-8"?>
<!-- Generator: Adobe Illustrator 22.0.1, SVG Export Plug-In . SVG Version: 6.00 Build 0)  -->
<svg version="1.1" id="Capa_1" xmlns="http://www.w3.org/2000/svg" xmlns:xlink="http://www.w3.org/1999/xlink" x="0px" y="0px"
	 viewBox="0 0 175 215" style="enable-background:new 0 0 175 215;" xml:space="preserve">
<style type="text/css">
	.st0{fill:#999999;}
	.st1{fill:none;stroke:#F2F2F2;stroke-width:5;stroke-miterlimit:10;}
	.st2{fill:#FFFFFF;stroke:#00CED1;stroke-width:5;stroke-miterlimit:10;}
	.st3{fill:#00CED1;}
</style>
<g transform="translate(0, -5)">
	<g>
		<path class="st0" d="M147.5,205.9H18c-6.6,0-12-5.4-12-12v-177c0-6.6,5.4-12,12-12h129.5c6.6,0,12,5.4,12,12v177
			C159.5,200.5,154.1,205.9,147.5,205.9z"/>
	</g>
	<g>
		<path class="st1" d="M99.3,125.5c19.8-6.9,34-25.7,34-47.8c0-28-22.7-50.6-50.6-50.6S32.1,49.7,32.1,77.7
			c0,20.8,12.5,38.6,30.4,46.4l0,10.5l36.8,0.3L99.3,125.5z"/>
		<circle class="st1" cx="82.7" cy="78.1" r="38.8"/>
		<path class="st1" d="M97,88.6c0-3.1,2.7-5.7,5.9-5.7c3.2,0,5.9,2.6,5.9,5.7s-2.7,5.7-5.9,5.7C99.7,94.4,97,91.9,97,88.6z"/>
		<path class="st1" d="M54.4,89.4c0-3.1,2.7-5.7,5.9-5.7s5.9,2.6,5.9,5.7c0,3.1-2.7,5.7-5.9,5.7S54.4,92.7,54.4,89.4z"/>
		<path class="st1" d="M87.8,64.6c0-4.9,4.1-8.9,9.3-8.9s9.3,4,9.3,8.9c0,5-4.2,8.9-9.3,8.9C91.9,73.6,87.8,69.6,87.8,64.6z"/>
		<path class="st1" d="M56.9,64.6c0-4.9,4.1-8.9,9.3-8.9c5.1,0,9.3,4,9.3,8.9c0,5-4.2,8.9-9.3,8.9C61,73.6,56.9,69.6,56.9,64.6z"/>
		<path class="st1" d="M72.5,98.4c0-4.9,4.1-8.9,9.3-8.9c5.1,0,9.3,4,9.3,8.9c0,5-4.2,8.9-9.3,8.9C76.6,107.4,72.5,103.4,72.5,98.4z
			"/>
		<path class="st1" d="M48.7,155.8c0-6.1,5.1-11,11.4-11c6.4,0,11.4,5,11.4,11c0,6.1-5.1,11.1-11.4,11.1
			C53.8,166.8,48.7,161.9,48.7,155.8z"/>
		<path class="st1" d="M92.6,155.8c0-6.1,5.1-11,11.4-11c6.4,0,11.4,5,11.4,11c0,6.1-5.1,11.1-11.4,11.1
			C97.8,166.8,92.6,161.9,92.6,155.8z"/>
		<path class="st1" d="M66.2,125.5"/>
		<path class="st1" d="M105.2,177.7H58.4c-11.8,0-21.4-9.6-21.4-21.4v0c0-11.8,9.6-21.4,21.4-21.4h46.8c11.8,0,21.4,9.6,21.4,21.4v0
			C126.6,168.1,116.9,177.7,105.2,177.7z"/>
	</g>
	<g transform="translate(80, 125)">
		<circle class="st2" cx="50" cy="50" r="40"/>
		<g transform="translate(-58, -58)">
			<g transform="scale(1.2)">
				<path class="st3" d="M77.4,74.9v-5.1c0-0.7,0.6-1.3,1.3-1.3s1.3,0.6,1.3,1.3c0,0,0,0,0,0v5.1c0,0.7-0.6,1.3-1.3,1.3
					S77.4,75.6,77.4,74.9C77.4,74.9,77.4,74.9,77.4,74.9C77.4,74.9,77.4,74.9,77.4,74.9z M99.1,76.2c0.7,0,1.3-0.6,1.3-1.3v-5.1
					c0-0.7-0.6-1.3-1.3-1.3s-1.3,0.6-1.3,1.3c0,0,0,0,0,0v5.1C97.9,75.6,98.4,76.2,99.1,76.2C99.1,76.2,99.1,76.2,99.1,76.2z
					 M113.2,99.2c0,5.7-4.6,10.3-10.2,10.3c-5.7,0-10.3-4.6-10.3-10.2c0-5.7,4.6-10.3,10.2-10.3c0,0,0,0,0,0
					C108.7,89,113.3,93.6,113.2,99.2L113.2,99.2L113.2,99.2z M110.7,99.2c0-4.2-3.4-7.7-7.7-7.7c-4.2,0-7.7,3.4-7.7,7.7
					c0,4.2,3.4,7.7,7.7,7.7C107.2,106.9,110.7,103.5,110.7,99.2L110.7,99.2z M82.5,83.8h-5.1V89h5.1V83.8z M77.4,96.7h5.1v-5.1h-5.1
					V96.7z M85,89h5.1v-5.2H85V89z M85,96.7h5.1v-5.2H85V96.7L85,96.7z M74.8,99V81.3H103v5.1h2.6v-10c0-1.5-1.2-2.8-2.8-2.8
					c0,0,0,0,0,0h-1.1v1.3c0,1.4-1.1,2.6-2.6,2.6c-1.4,0-2.6-1.1-2.6-2.6v-1.3H81.2v1.3c0,1.4-1.1,2.6-2.6,2.6
					c-1.4,0-2.6-1.1-2.6-2.6v-1.3H75c-1.5,0-2.8,1.3-2.8,2.8c0,0,0,0,0,0V99c0,1.5,1.2,2.8,2.8,2.8h15.2v-2.6H75
					C74.9,99.2,74.8,99.1,74.8,99L74.8,99z M97.9,89v-5.2h-5.1V89H97.9L97.9,89z M106.9,99.2H103v-3.9c0-0.7-0.6-1.3-1.3-1.3
					s-1.3,0.6-1.3,1.3c0,0,0,0,0,0v5.1c0,0.7,0.6,1.3,1.3,1.3h5.1c0.7,0,1.3-0.6,1.3-1.3C108.1,99.8,107.6,99.2,106.9,99.2
					L106.9,99.2L106.9,99.2z"/>
			</g>
		</g>
	</g>
</g>
</svg>
