<?xml version="1.0" encoding="utf-8"?>
<!-- Generator: Adobe Illustrator 22.0.1, SVG Export Plug-In . SVG Version: 6.00 Build 0)  -->
<svg version="1.1" id="Capa_1" xmlns="http://www.w3.org/2000/svg" xmlns:xlink="http://www.w3.org/1999/xlink" x="0px" y="0px"
	 viewBox="0 0 175 215" style="enable-background:new 0 0 175 215;" xml:space="preserve">
<style type="text/css">
	.st0{fill:#999999;}
	.st1{fill:none;stroke:#F2F2F2;stroke-width:5;stroke-miterlimit:10;}
	.st2{fill:#FFFFFF;stroke:#666666;stroke-width:5;stroke-miterlimit:10;}
</style>
<g>
	<g>
		<path class="st0" d="M147.5,200.9H18c-6.6,0-12-5.4-12-12v-177c0-6.6,5.4-12,12-12h129.5c6.6,0,12,5.4,12,12v177
			C159.5,195.5,154.1,200.9,147.5,200.9z"/>
	</g>
	<g>
		<path class="st1" d="M96.4,122.6c19.8-6.9,34-25.7,34-47.8c0-28-22.7-50.6-50.6-50.6S29.2,46.8,29.2,74.7
			c0,20.8,12.5,38.6,30.4,46.4l0,10.5l36.8,0.3L96.4,122.6z"/>
		<circle class="st1" cx="79.9" cy="75.1" r="38.8"/>
		<path class="st1" d="M94.2,85.7c0-3.1,2.7-5.7,5.9-5.7c3.2,0,5.9,2.6,5.9,5.7s-2.7,5.7-5.9,5.7C96.8,91.4,94.2,89,94.2,85.7z"/>
		<path class="st1" d="M51.5,86.5c0-3.1,2.7-5.7,5.9-5.7s5.9,2.6,5.9,5.7s-2.7,5.7-5.9,5.7S51.5,89.8,51.5,86.5z"/>
		<path class="st1" d="M84.9,61.7c0-4.9,4.1-8.9,9.3-8.9s9.3,4,9.3,8.9c0,5-4.2,8.9-9.3,8.9C89,70.7,84.9,66.7,84.9,61.7z"/>
		<path class="st1" d="M54,61.7c0-4.9,4.1-8.9,9.3-8.9s9.3,4,9.3,8.9c0,5-4.2,8.9-9.3,8.9C58.1,70.7,54,66.7,54,61.7z"/>
		<path class="st1" d="M69.6,95.5c0-4.9,4.1-8.9,9.3-8.9c5.1,0,9.3,4,9.3,8.9c0,5-4.2,8.9-9.3,8.9C73.7,104.5,69.6,100.5,69.6,95.5z
			"/>
		<path class="st1" d="M45.8,152.9c0-6.1,5.1-11,11.4-11c6.4,0,11.4,5,11.4,11c0,6.1-5.1,11.1-11.4,11.1
			C51,163.9,45.8,159,45.8,152.9z"/>
		<path class="st1" d="M89.8,152.9c0-6.1,5.1-11,11.4-11c6.4,0,11.4,5,11.4,11c0,6.1-5.1,11.1-11.4,11.1
			C94.9,163.9,89.8,159,89.8,152.9z"/>
		<path class="st1" d="M63.3,122.6"/>
		<path class="st1" d="M102.3,174.8H55.5c-11.8,0-21.4-9.6-21.4-21.4v0c0-11.8,9.6-21.4,21.4-21.4h46.8c11.8,0,21.4,9.6,21.4,21.4v0
			C123.7,165.2,114.1,174.8,102.3,174.8z"/>
	</g>
	<g transform="translate(80, 125)">
		<circle class="st2" cx="50" cy="45" r="40"/>
		<g transform="translate(-70, -73)">
			<g transform="scale(1.3)">
				<path class="st0" d="M105.1,99.4l-8.4-8.8l8.4-8.8c1.4-1.5,1.4-3.9-0.1-5.3c-1.5-1.4-3.9-1.4-5.3,0.1l0,0l-7.5,7.9l-7.5-7.9
					c-1.4-1.5-3.8-1.7-5.3-0.3c-1.5,1.4-1.7,3.8-0.3,5.3c0,0.1,0.1,0.1,0.1,0.1l8.4,8.8l-8.4,8.8c-1.4,1.5-1.4,3.9,0.1,5.3
					s3.9,1.4,5.3-0.1l0,0l7.5-7.9l7.5,7.9c1.4,1.6,3.7,1.7,5.3,0.4c1.6-1.4,1.7-3.7,0.4-5.3C105.3,99.6,105.2,99.5,105.1,99.4z"/>
			</g>
		</g>
	</g>
</g>
</svg>
