<?xml version="1.0" encoding="utf-8"?>
<!-- Generator: Adobe Illustrator 22.0.1, SVG Export Plug-In . SVG Version: 6.00 Build 0)  -->
<svg version="1.1" id="Capa_1" xmlns="http://www.w3.org/2000/svg" xmlns:xlink="http://www.w3.org/1999/xlink" x="0px" y="0px"
	 viewBox="0 0 175 215" style="enable-background:new 0 0 175 215;" xml:space="preserve">
<style type="text/css">
	.st0{fill:#999999;}
	.st1{fill:none;stroke:#F2F2F2;stroke-width:5;stroke-miterlimit:10;}
	.st2{fill:#FFFFFF;stroke:#0267C3;stroke-width:5;stroke-miterlimit:10;}
	.st3{fill:#0267C3;}
</style>
<g>
	<g>
		<path class="st0" d="M147.5,200.9H18c-6.6,0-12-5.4-12-12v-177c0-6.6,5.4-12,12-12h129.5c6.6,0,12,5.4,12,12v177
			C159.5,195.5,154.1,200.9,147.5,200.9z"/>
	</g>
	<g>
		<path class="st1" d="M96.8,123.5c19.8-6.9,34-25.7,34-47.8c0-28-22.7-50.6-50.6-50.6S29.6,47.7,29.6,75.7
			c0,20.8,12.5,38.6,30.4,46.4l0,10.5l36.8,0.3L96.8,123.5z"/>
		<circle class="st1" cx="80.2" cy="76.1" r="38.8"/>
		<path class="st1" d="M94.6,86.7c0-3.1,2.7-5.7,5.9-5.7c3.2,0,5.9,2.6,5.9,5.7c0,3.1-2.7,5.7-5.9,5.7
			C97.2,92.4,94.6,89.9,94.6,86.7z"/>
		<path class="st1" d="M51.9,87.5c0-3.1,2.7-5.7,5.9-5.7s5.9,2.6,5.9,5.7s-2.7,5.7-5.9,5.7S51.9,90.7,51.9,87.5z"/>
		<path class="st1" d="M85.3,62.6c0-4.9,4.1-8.9,9.3-8.9s9.3,4,9.3,8.9c0,5-4.2,8.9-9.3,8.9C89.4,71.6,85.3,67.6,85.3,62.6z"/>
		<path class="st1" d="M54.4,62.6c0-4.9,4.1-8.9,9.3-8.9s9.3,4,9.3,8.9c0,5-4.2,8.9-9.3,8.9C58.5,71.6,54.4,67.6,54.4,62.6z"/>
		<path class="st1" d="M70,96.4c0-4.9,4.1-8.9,9.3-8.9s9.3,4,9.3,8.9c0,5-4.2,8.9-9.3,8.9C74.1,105.4,70,101.4,70,96.4z"/>
		<path class="st1" d="M46.2,153.8c0-6.1,5.1-11,11.4-11c6.4,0,11.4,5,11.4,11c0,6.1-5.1,11.1-11.4,11.1
			C51.4,164.9,46.2,160,46.2,153.8z"/>
		<path class="st1" d="M90.1,153.8c0-6.1,5.1-11,11.4-11c6.4,0,11.4,5,11.4,11c0,6.1-5.1,11.1-11.4,11.1
			C95.3,164.9,90.1,160,90.1,153.8z"/>
		<path class="st1" d="M63.7,123.5"/>
		<path class="st1" d="M102.7,175.7H55.9c-11.8,0-21.4-9.6-21.4-21.4v0c0-11.8,9.6-21.4,21.4-21.4h46.8c11.8,0,21.4,9.6,21.4,21.4v0
			C124.1,166.1,114.4,175.7,102.7,175.7z"/>
	</g>
	<g transform="translate(80, 125)">
		<circle class="st2" cx="50" cy="45" r="40"/>
		<g transform="translate(-63, -46)">
			<g transform="translate(79, 62)">
				<g transform="scale(0.18)">
					<path class="st3" d="M297.5,122.6c-1.4-2.1-4-3.2-6.5-2.6l-73.3,16.5L240-20.8c0.4-2.8-1.2-5.5-3.8-6.6
						c-2.6-1.1-5.6-0.2-7.3,2.1L71.2,189.9c-1.5,2-1.6,4.8-0.2,6.9c1.3,2.1,3.8,3.2,6.3,2.8l79.6-14.8l-23.3,148.8
						c-0.4,2.8,1.1,5.5,3.7,6.6c0.8,0.3,1.6,0.5,2.4,0.5c1.9,0,3.8-0.9,5-2.5l152.7-208.6C298.8,127.5,298.9,124.7,297.5,122.6z"/>
				</g>
			</g>
		</g>
	</g>
</g>
</svg>
