<?xml version="1.0" encoding="utf-8"?>
<!-- Generator: Adobe Illustrator 22.0.1, SVG Export Plug-In . SVG Version: 6.00 Build 0)  -->
<svg version="1.1" id="Capa_1" xmlns="http://www.w3.org/2000/svg" xmlns:xlink="http://www.w3.org/1999/xlink" x="0px" y="0px"
	 viewBox="0 0 175 215" style="enable-background:new 0 0 175 215;" xml:space="preserve">
<style type="text/css">
	.st0{fill:#666666;}
	.st1{fill:none;stroke:#F2F2F2;stroke-width:5;stroke-miterlimit:10;}
	.st2{fill:#FFFFFF;stroke:#0267C3;stroke-width:5;stroke-miterlimit:10;}
	.st3{fill:#0267C3;}
</style>
<g>
	<path class="st0" d="M147.5,200.9H18c-6.6,0-12-5.4-12-12v-177c0-6.6,5.4-12,12-12h129.5c6.6,0,12,5.4,12,12v177
		C159.5,195.5,154.1,200.9,147.5,200.9z"/>
</g>
<g>
	<path class="st1" d="M99.3,121.8c19.8-6.9,34-25.7,34-47.8c0-28-22.7-50.6-50.6-50.6S32.1,46,32.1,73.9c0,20.8,12.5,38.6,30.4,46.4
		l0,10.5l36.8,0.3L99.3,121.8z"/>
	<circle class="st1" cx="82.7" cy="74.3" r="38.8"/>
	<path class="st1" d="M97,84.9c0-3.1,2.7-5.7,5.9-5.7c3.2,0,5.9,2.6,5.9,5.7s-2.7,5.7-5.9,5.7C99.7,90.6,97,88.1,97,84.9z"/>
	<path class="st1" d="M54.4,85.7c0-3.1,2.7-5.7,5.9-5.7s5.9,2.6,5.9,5.7s-2.7,5.7-5.9,5.7S54.4,89,54.4,85.7z"/>
	<path class="st1" d="M87.8,60.9c0-4.9,4.1-8.9,9.3-8.9s9.3,4,9.3,8.9c0,5-4.2,8.9-9.3,8.9C91.9,69.9,87.8,65.9,87.8,60.9z"/>
	<path class="st1" d="M56.9,60.9c0-4.9,4.1-8.9,9.3-8.9c5.1,0,9.3,4,9.3,8.9c0,5-4.2,8.9-9.3,8.9C61,69.9,56.9,65.9,56.9,60.9z"/>
	<path class="st1" d="M72.5,94.7c0-4.9,4.1-8.9,9.3-8.9c5.1,0,9.3,4,9.3,8.9c0,5-4.2,8.9-9.3,8.9C76.6,103.7,72.5,99.7,72.5,94.7z"
		/>
	<path class="st1" d="M48.7,152.1c0-6.1,5.1-11,11.4-11c6.4,0,11.4,5,11.4,11c0,6.1-5.1,11.1-11.4,11.1
		C53.8,163.1,48.7,158.2,48.7,152.1z"/>
	<path class="st1" d="M92.6,152.1c0-6.1,5.1-11,11.4-11c6.4,0,11.4,5,11.4,11c0,6.1-5.1,11.1-11.4,11.1
		C97.7,163.1,92.6,158.2,92.6,152.1z"/>
	<path class="st1" d="M66.1,121.8"/>
	<path class="st1" d="M105.1,174H58.3c-11.8,0-21.4-9.6-21.4-21.4v0c0-11.8,9.6-21.4,21.4-21.4h46.8c11.8,0,21.4,9.6,21.4,21.4v0
		C126.5,164.4,116.9,174,105.1,174z"/>
</g>
<g transform="translate(80, 125)">
	<circle class="st2" cx="50" cy="45" r="40"/>
	<g transform="translate(23, 20)">
		<g transform="scale(0.11)">
			<path class="st3" d="M99,101.5v51.1h-3.4c-21.4,0-38.8,17.4-38.8,38.8v213.7c0,21.4,17.4,38.8,38.8,38.8h298.2
				c21.4,0,38.8-17.4,38.8-38.8V191.3c0-21.4-17.4-38.8-38.8-38.8h-1v-51.1c0-81-65.9-146.9-146.9-146.9
				C164.9-45.4,99,20.5,99,101.5z M267.7,307.7c-3,2.2-3.8,4.3-3.8,7.8c0.1,15.7,0.1,31.3,0.1,47l0,0c0.3,6.5-3,12.9-8.8,15.8
				c-13.7,7-27.4-2.8-27.4-15.8v-0.1c0-15.7,0-31.4,0.1-47.1c0-3.2-0.7-5.3-3.5-7.4c-14.2-10.5-18.9-28.4-11.8-44.1
				c6.9-15.3,23.8-24.3,39.7-21.1c17.7,3.6,30,17.8,30.2,35.5C282.5,290.5,277.6,300.5,267.7,307.7z M163.3,101.5
				c0-45.6,37.1-82.6,82.6-82.6c45.6,0,82.6,37.1,82.6,82.6v51.1H163.3V101.5z"/>
		</g>
	</g>
</g>
</svg>
