<?xml version="1.0" encoding="utf-8"?>
<!-- Generator: Adobe Illustrator 19.1.0, SVG Export Plug-In . SVG Version: 6.00 Build 0)  -->
<svg version="1.1" id="Capa_1" xmlns="http://www.w3.org/2000/svg" xmlns:xlink="http://www.w3.org/1999/xlink" x="0px" y="0px"
	 viewBox="0 0 175 215" style="enable-background:new 0 0 166.7 210.7;" xml:space="preserve">
<style type="text/css">
	.red{fill:#C1272D;}
	.white{fill:#ffffff;}
	.grey{fill:#666666;}
	.sgrey{stroke:#666666;stroke-width:5;stroke-miterlimit:10;}
	.sred{stroke:#C1272D;stroke-width:5;stroke-miterlimit:10;}
	.st170{fill:none;stroke:#F2F2F2;stroke-width:5;stroke-miterlimit:10;}
</style>
<g transform="translate(0, -5)">
	<g>
		<path class="grey" d="M147.5,205.9H18c-6.6,0-12-5.4-12-12v-177c0-6.6,5.4-12,12-12h129.5c6.6,0,12,5.4,12,12v177
			C159.5,200.5,154.1,205.9,147.5,205.9z"/>
	</g>
	<g>
		<g>
			<polygon class="st170" points="40.4,42.7 39.4,43.7 38.6,44.9 37.8,46 37.1,47.2 36.4,48.4 35.6,49.6 35.1,50.8 34.4,52.1 
				33.8,53.3 33.1,54.6 32.7,55.8 32.2,57.1 31.8,58.4 31.2,59.8 31,61.1 30.6,62.4 30.3,63.7 30,65 29.7,66.5 29.5,67.8 29.3,69.1 
				29.2,70.6 29,71.9 29,73.2 29,74.7 29,76 29,77.5 29.2,78.8 29.3,80.1 29.5,81.6 29.7,82.9 29.9,84.2 30.1,85.5 30.6,87 
				30.8,88.3 31.2,89.6 31.6,91 32.1,92.1 32.6,93.5 33.1,94.8 33.7,96 34.2,97.3 34.9,98.5 35.6,99.7 36.3,101 37,102.1 37.8,103.3 
				38.5,104.4 39.3,105.5 40.2,106.7 41.1,107.7 42,108.8 42.8,109.9 43.9,110.8 44.9,111.8 45.8,112.8 46.9,113.7 48,114.6 
				49.1,115.5 50.2,116.3 51.3,117.1 52.5,117.9 53.6,118.7 54.9,119.5 56.1,120.2 57.3,120.8 58.5,121.5 59.9,122.2 61.1,122.7 
				62.5,123.2 63.7,123.8 65.1,124.3 66.5,124.7 67.8,125.1 69.2,125.5 70.6,125.7 71.9,126.1 73.3,126.4 74.8,126.7 76.2,126.8 
				77.5,126.9 79,127.1 80.4,127.2 81.8,127.2 83.3,127.2 84.6,127.2 86,127.2 87.5,127.1 88.8,126.9 90.4,126.8 91.7,126.7 
				93.1,126.4 94.5,126.1 95.8,125.7 97.3,125.5 98.7,125.1 99.9,124.7 101.3,124.3 102.6,123.8 104,123.2 105.2,122.7 106.6,122.2 
				107.8,121.5 109.1,120.8 110.3,120.2 111.5,119.5 112.8,118.7 114,117.9 115.1,117.1 116.3,116.3 117.4,115.5 118.5,114.6 
				119.6,113.7 120.5,112.8 121.6,111.8 122.6,110.8 123.5,109.9 124.5,108.8 125.3,107.7 126.3,106.7 127.1,105.5 127.9,104.4 
				128.7,103.3 129.4,102.1 130.2,101 130.9,99.7 131.6,98.5 132.1,97.3 132.7,96 133.4,94.8 133.8,93.5 134.3,92.1 134.7,91 
				135.1,89.6 135.5,88.3 136,87 136.2,85.5 136.5,84.2 136.8,82.9 136.9,81.6 137,80.1 137.2,78.8 137.3,77.5 137.3,76 137.5,74.7 
				137.3,73.2 137.3,71.9 137.2,70.6 137,69.1 136.9,67.8 136.8,66.5 136.5,65 136.2,63.7 135.8,62.4 135.5,61.1 135.1,59.8 
				134.7,58.4 134.2,57.1 133.8,55.8 133.2,54.6 132.7,53.3 132,52.1 131.5,50.8 130.8,49.6 130.1,48.4 129.3,47.2 128.6,46 
				127.8,44.9 126.9,43.7 126.1,42.7 125.7,42.3 125.4,41.9 125,41.4 124.6,41 124.2,40.7 123.8,40.3 123.4,39.9 122.9,39.5 
				122.4,39.2 122,38.9 121.5,38.6 121.1,38.3 120.5,37.9 120.1,37.7 119.6,37.4 119,37.3 118.5,37 118.1,36.7 117.5,36.6 117,36.3 
				116.4,36.2 115.9,36.1 115.3,35.9 114.8,35.8 114.2,35.7 113.6,35.6 113,35.6 112.5,35.4 111.9,35.4 111.4,35.4 110.8,35.4 
				55.7,35.4 55.1,35.4 54.4,35.4 53.9,35.4 53.4,35.6 52.8,35.6 52.3,35.7 51.7,35.8 51.2,35.9 50.6,36.1 50.1,36.2 49.5,36.3 
				49,36.6 48.4,36.7 47.9,37 47.3,37.3 46.8,37.4 46.4,37.7 45.8,37.9 45.4,38.3 44.9,38.6 44.5,38.9 43.9,39.2 43.5,39.5 
				43.1,39.9 42.7,40.3 42.3,40.7 41.9,41 41.5,41.4 41.1,41.9 40.7,42.3 		"/>
			<path class="st170" d="M71.7,75.1C71.7,69,76.8,64,83.2,64c6.4,0,11.5,5,11.5,11.1c0,6.2-5.2,11.1-11.5,11.1
				C76.8,86.3,71.7,81.3,71.7,75.1z"/>
			<path class="st170" d="M97.8,149.4c0-7.6,6.4-13.7,14.2-13.7c7.8,0,14.2,6.2,14.2,13.7c0,7.6-6.4,13.8-14.2,13.8
				C104.1,163.1,97.8,157,97.8,149.4z"/>
			<path class="st170" d="M38.4,149.4c0-7.6,6.4-13.7,14.2-13.7c7.9,0,14.2,6.2,14.2,13.7c0,7.6-6.4,13.8-14.2,13.8
				C44.8,163.1,38.4,157,38.4,149.4z"/>
			<path class="st170" d="M61.3,55.3c0-3.9,3.3-7.1,7.3-7.1s7.3,3.2,7.3,7.1c0,3.9-3.3,7.1-7.3,7.1S61.3,59.3,61.3,55.3z"/>
			<path class="st170" d="M90.4,55.3c0-3.9,3.3-7.1,7.3-7.1s7.4,3.2,7.4,7.1c0,3.9-3.3,7.1-7.4,7.1S90.4,59.3,90.4,55.3z"/>
		</g>
		<path class="st170" d="M118.2,172.5h-73c-10.6,0-19.2-8.7-19.2-19.2v-7c0-10.6,8.7-19.2,19.2-19.2h73c10.6,0,19.2,8.7,19.2,19.2v7
			C137.5,163.9,128.8,172.5,118.2,172.5z"/>
	</g>
	<g transform="translate(80, 125)">
		<circle cx="50" cy="50" r="40" class="white sred" />
		<g transform="translate(-63, -46)">
			<g transform="scale(1.2)">
				<path class="red" d="M88.91,94.1L89,93.58a7.81,7.81,0,0,0-.51-2.73L104.6,74.71a7.72,7.72,0,0,0,2.73.51l0.52,0A7.8,7.8,0,0,0,114.41,64l-5.24,5.22a2.39,2.39,0,0,1-.93.59,2.6,2.6,0,0,1-3.53-2.43,2.4,2.4,0,0,1,.18-0.91,2.48,2.48,0,0,1,.59-0.95l5.22-5.22a7.68,7.68,0,0,0-3.37-.79,7.85,7.85,0,0,0-7.82,7.34l-0.05.54a8,8,0,0,0,.51,2.71L83.82,86.22a7.91,7.91,0,0,0-2.71-.51l-0.54,0a7.86,7.86,0,0,0-7.34,7.82A7.67,7.67,0,0,0,74,96.95l5.22-5.22a2.74,2.74,0,0,1,.93-0.6,2.62,2.62,0,0,1,3.53,2.46,2.77,2.77,0,0,1-.77,1.85l-5.22,5.23A7.8,7.8,0,0,0,88.91,94.1h0Zm0,0"/>

			</g>
		</g>
	</g>
</g>
</svg>
