<?xml version="1.0" encoding="utf-8"?>
<!-- Generator: Adobe Illustrator 19.1.0, SVG Export Plug-In . SVG Version: 6.00 Build 0)  -->
<svg version="1.1" id="Capa_1" xmlns="http://www.w3.org/2000/svg" xmlns:xlink="http://www.w3.org/1999/xlink" x="0px" y="0px"
	 viewBox="0 0 175 215" style="enable-background:new 0 0 166.7 210.7;" xml:space="preserve">
<style type="text/css">
	.blue{fill:#00CED1;}
	.sblue{stroke:#00CED1;stroke-width:5;stroke-miterlimit:10;}
	.st0{fill:#F2F2F2;}
	.st1{fill:#C1272D;}
	.st170{fill:none;stroke:#F2F2F2;stroke-width:5;stroke-miterlimit:10;}
	.st171{fill:none;stroke:#F2F2F2;stroke-width:3;stroke-miterlimit:10;}
	.red{fill:#C1272D;}
	.white{fill:#ffffff;}
	.grey{fill:#666666;}
	.sgrey{stroke:#666666;stroke-width:5;stroke-miterlimit:10;}
	.sred{stroke:#C1272D;stroke-width:5;stroke-miterlimit:10;}
	.st170{fill:none;stroke:#F2F2F2;stroke-width:5;stroke-miterlimit:10;}
</style>
<g transform="translate(0, -5)">
	<g>
		<path class="grey" d="M147.5,205.9H18c-6.6,0-12-5.4-12-12v-177c0-6.6,5.4-12,12-12h129.5c6.6,0,12,5.4,12,12v177
			C159.5,200.5,154.1,205.9,147.5,205.9z"/>
	</g>
	<g>
		<g>
		<circle class="st170" cx="82.7" cy="72" r="15.1"/>
		<g>
			<path class="st0" d="M56.1,83.9c-11.8,0-21.4,9.6-21.4,21.4c0,11.8,9.6,21.4,21.4,21.4s21.4-9.6,21.4-21.4
				C77.5,93.4,67.9,83.9,56.1,83.9z M56.1,118.8c-7.5,0-13.6-6.1-13.6-13.6c0-7.5,6.1-13.6,13.6-13.6s13.6,6.1,13.6,13.6
				C69.7,112.7,63.6,118.8,56.1,118.8z"/>
			<path class="st0" d="M108.4,83.9c-11.8,0-21.4,9.6-21.4,21.4c0,11.8,9.6,21.4,21.4,21.4s21.4-9.6,21.4-21.4
				C129.8,93.4,120.2,83.9,108.4,83.9z M108.4,118.8c-7.5,0-13.6-6.1-13.6-13.6c0-7.5,6.1-13.6,13.6-13.6c7.5,0,13.6,6.1,13.6,13.6
				C122,112.7,115.9,118.8,108.4,118.8z"/>
			<circle class="st171" cx="82.2" cy="62.6" r="4.7"/>
			<circle class="st171" cx="82.7" cy="81.9" r="4.7"/>
			<circle class="st171" cx="92.7" cy="71.9" r="4.7"/>
			<circle class="st171" cx="72.3" cy="72" r="4.7"/>
			<circle class="st170" cx="82.7" cy="140.5" r="15.1"/>
			<circle class="st171" cx="82.2" cy="131.1" r="4.7"/>
			<circle class="st171" cx="82.7" cy="150.4" r="4.7"/>
			<circle class="st171" cx="92.7" cy="140.4" r="4.7"/>
			<circle class="st171" cx="72.3" cy="140.5" r="4.7"/>
			<circle class="st170" cx="82.7" cy="105.4" r="60.3"/>
		</g>
	</g>
	</g>
	<g transform="translate(80, 125)">
		<circle cx="50" cy="50" r="40" class="white sblue" />
		<g transform="translate(-58, -58)">
			<g transform="scale(1.2)">
				<path class="blue" d="M77.36,74.88V69.76a1.28,1.28,0,1,1,2.56,0v5.12a1.28,1.28,0,1,1-2.56,0h0Zm21.78,1.28a1.28,1.28,0,0,0,1.28-1.28V69.76a1.28,1.28,0,1,0-2.56,0v5.12a1.28,1.28,0,0,0,1.28,1.28h0Zm14.09,23.06A10.25,10.25,0,1,1,103,89a10.25,10.25,0,0,1,10.25,10.25h0Zm-2.56,0a7.69,7.69,0,1,0-7.69,7.69,7.7,7.7,0,0,0,7.69-7.69h0ZM82.48,83.85H77.36V89h5.12V83.85ZM77.36,96.67h5.12V91.54H77.36v5.13ZM85,89h5.12V83.85H85V89Zm0,7.69h5.12V91.54H85v5.13ZM74.79,99V81.29H103v5.12h2.56v-10a2.8,2.8,0,0,0-2.78-2.82H101.7v1.28a2.56,2.56,0,1,1-5.12,0V73.6H81.2v1.28a2.56,2.56,0,1,1-5.13,0V73.6H75a2.8,2.8,0,0,0-2.78,2.82V99A2.8,2.8,0,0,0,75,101.79H90.17V99.23H75A0.24,0.24,0,0,1,74.79,99h0ZM97.86,89V83.85H92.73V89h5.12Zm9,10.25H103V95.38a1.28,1.28,0,1,0-2.56,0v5.12a1.28,1.28,0,0,0,1.28,1.28h5.13a1.28,1.28,0,0,0,0-2.56h0Zm0,0"/>

			</g>
		</g>
	</g>
</g>
</svg>
