<?xml version="1.0" encoding="utf-8"?>
<!-- Generator: Adobe Illustrator 19.1.0, SVG Export Plug-In . SVG Version: 6.00 Build 0)  -->
<svg version="1.1" id="Capa_1" xmlns="http://www.w3.org/2000/svg" xmlns:xlink="http://www.w3.org/1999/xlink" x="0px" y="0px"
	 viewBox="0 0 175 215" style="enable-background:new 0 0 166.7 210.7;" xml:space="preserve">
<style type="text/css">
	.st0{fill:#F2F2F2;}
	.st1{fill:#C1272D;}
	.st170{fill:none;stroke:#F2F2F2;stroke-width:5;stroke-miterlimit:10;}
	.st171{fill:none;stroke:#F2F2F2;stroke-width:3;stroke-miterlimit:10;}
	.red{fill:#C1272D;}
	.white{fill:#ffffff;}
	.grey{fill:#999999;}
	.greyC{fill:#666666;}
	.sgrey{stroke:#666666;stroke-width:5;stroke-miterlimit:10;}
	.sred{stroke:#C1272D;stroke-width:5;stroke-miterlimit:10;}
	.st170{fill:none;stroke:#F2F2F2;stroke-width:5;stroke-miterlimit:10;}
	.green{fill:#74A528;}
	.sgreen{stroke:#74A528;stroke-width:5;stroke-miterlimit:10;}
</style>

<g transform="translate(0, -5)">
	<g>
		<path class="grey" d="M147.5,205.9H18c-6.6,0-12-5.4-12-12v-177c0-6.6,5.4-12,12-12h129.5c6.6,0,12,5.4,12,12v177
			C159.5,200.5,154.1,205.9,147.5,205.9z"/>
	</g>
	<g>
		<circle class="st170" cx="82.7" cy="72" r="15.1"/>
		<g>
			<path class="st0" d="M56.1,83.9c-11.8,0-21.4,9.6-21.4,21.4c0,11.8,9.6,21.4,21.4,21.4s21.4-9.6,21.4-21.4
				C77.5,93.4,67.9,83.9,56.1,83.9z M56.1,118.8c-7.5,0-13.6-6.1-13.6-13.6c0-7.5,6.1-13.6,13.6-13.6s13.6,6.1,13.6,13.6
				C69.7,112.7,63.6,118.8,56.1,118.8z"/>
			<path class="st0" d="M108.4,83.9c-11.8,0-21.4,9.6-21.4,21.4c0,11.8,9.6,21.4,21.4,21.4s21.4-9.6,21.4-21.4
				C129.8,93.4,120.2,83.9,108.4,83.9z M108.4,118.8c-7.5,0-13.6-6.1-13.6-13.6c0-7.5,6.1-13.6,13.6-13.6c7.5,0,13.6,6.1,13.6,13.6
				C122,112.7,115.9,118.8,108.4,118.8z"/>
			<circle class="st171" cx="82.2" cy="62.6" r="4.7"/>
			<circle class="st171" cx="82.7" cy="81.9" r="4.7"/>
			<circle class="st171" cx="92.7" cy="71.9" r="4.7"/>
			<circle class="st171" cx="72.3" cy="72" r="4.7"/>
			<circle class="st170" cx="82.7" cy="140.5" r="15.1"/>
			<circle class="st171" cx="82.2" cy="131.1" r="4.7"/>
			<circle class="st171" cx="82.7" cy="150.4" r="4.7"/>
			<circle class="st171" cx="92.7" cy="140.4" r="4.7"/>
			<circle class="st171" cx="72.3" cy="140.5" r="4.7"/>
			<circle class="st170" cx="82.7" cy="105.4" r="60.3"/>
		</g>
	</g>
	<g transform="translate(80, 125)">
		<circle cx="50" cy="50" r="40" class="white sgreen" />
		<g transform="translate(27, 28)">
			<g transform="scale(1)">
				<path class="green" d="M20.687,38.332c-2.072,2.072-5.434,2.072-7.505,0L1.554,26.704c-2.072-2.071-2.072-5.433,0-7.504
					c2.071-2.072,5.433-2.072,7.505,0l6.928,6.927c0.523,0.522,1.372,0.522,1.896,0L36.642,7.368c2.071-2.072,5.433-2.072,7.505,0
					c0.995,0.995,1.554,2.345,1.554,3.752c0,1.407-0.559,2.757-1.554,3.752L20.687,38.332z"/>
				
			</g>
		</g>
	</g>
</g>
</svg>
