<?xml version="1.0" encoding="utf-8"?>
<!-- Generator: Adobe Illustrator 19.1.0, SVG Export Plug-In . SVG Version: 6.00 Build 0)  -->
<svg version="1.1" id="Capa_1" xmlns="http://www.w3.org/2000/svg" xmlns:xlink="http://www.w3.org/1999/xlink" x="0px" y="0px"
	 viewBox="0 0 175 215" style="enable-background:new 0 0 166.7 210.7;" xml:space="preserve">
<style type="text/css">
	.st0{fill:#F2F2F2;}
	.st1{fill:#C1272D;}
	.st170{fill:none;stroke:#F2F2F2;stroke-width:5;stroke-miterlimit:10;}
	.st171{fill:none;stroke:#F2F2F2;stroke-width:3;stroke-miterlimit:10;}
	.red{fill:#C1272D;}
	.white{fill:#ffffff;}
	.grey{fill:#666666;}
	.sgrey{stroke:#666666;stroke-width:5;stroke-miterlimit:10;}
	.sred{stroke:#C1272D;stroke-width:5;stroke-miterlimit:10;}
	.st170{fill:none;stroke:#F2F2F2;stroke-width:5;stroke-miterlimit:10;}
	.a{fill:#5d5d5d;}
	.b{fill:#C1272D;}
</style>
<g transform="translate(0, -5)">
	<g>
		<path class="grey" d="M147.5,205.9H18c-6.6,0-12-5.4-12-12v-177c0-6.6,5.4-12,12-12h129.5c6.6,0,12,5.4,12,12v177
			C159.5,200.5,154.1,205.9,147.5,205.9z"/>
	</g>
	<g>
		<g>
		<circle class="st170" cx="82.7" cy="72" r="15.1"/>
		<g>
			<path class="st0" d="M56.1,83.9c-11.8,0-21.4,9.6-21.4,21.4c0,11.8,9.6,21.4,21.4,21.4s21.4-9.6,21.4-21.4
				C77.5,93.4,67.9,83.9,56.1,83.9z M56.1,118.8c-7.5,0-13.6-6.1-13.6-13.6c0-7.5,6.1-13.6,13.6-13.6s13.6,6.1,13.6,13.6
				C69.7,112.7,63.6,118.8,56.1,118.8z"/>
			<path class="st0" d="M108.4,83.9c-11.8,0-21.4,9.6-21.4,21.4c0,11.8,9.6,21.4,21.4,21.4s21.4-9.6,21.4-21.4
				C129.8,93.4,120.2,83.9,108.4,83.9z M108.4,118.8c-7.5,0-13.6-6.1-13.6-13.6c0-7.5,6.1-13.6,13.6-13.6c7.5,0,13.6,6.1,13.6,13.6
				C122,112.7,115.9,118.8,108.4,118.8z"/>
			<circle class="st171" cx="82.2" cy="62.6" r="4.7"/>
			<circle class="st171" cx="82.7" cy="81.9" r="4.7"/>
			<circle class="st171" cx="92.7" cy="71.9" r="4.7"/>
			<circle class="st171" cx="72.3" cy="72" r="4.7"/>
			<circle class="st170" cx="82.7" cy="140.5" r="15.1"/>
			<circle class="st171" cx="82.2" cy="131.1" r="4.7"/>
			<circle class="st171" cx="82.7" cy="150.4" r="4.7"/>
			<circle class="st171" cx="92.7" cy="140.4" r="4.7"/>
			<circle class="st171" cx="72.3" cy="140.5" r="4.7"/>
			<circle class="st170" cx="82.7" cy="105.4" r="60.3"/>
		</g>
	</g>
	</g>
	<g transform="translate(80, 125)">
		<circle cx="50" cy="50" r="40" class="white sred" />
		<g transform="scale(0.7)">
			<g id="Capa_1" transform="translate(14, 16)">
				<path class="a" d="M46.37,99.54h1.89V99.8a2.2,2.2,0,0,0,.17,1,0.61,0.61,0,0,0,.58.3,0.64,0.64,0,0,0,.52-0.23,0.93,0.93,0,0,0,.19-0.62A1.6,1.6,0,0,0,48.79,99l-0.23-.15-0.1-.06a6.87,6.87,0,0,1-1.55-1.26,2.49,2.49,0,0,1-.33-0.72A3.18,3.18,0,0,1,46.47,96a2.43,2.43,0,0,1,.67-1.82A2.52,2.52,0,0,1,49,93.49a2.71,2.71,0,0,1,2,.65A2.48,2.48,0,0,1,51.62,96s0,0.08,0,.14,0,0.11,0,.14H49.75V96.19a1.72,1.72,0,0,0-.18-0.88A0.58,0.58,0,0,0,49,95a0.59,0.59,0,0,0-.47.21,0.83,0.83,0,0,0-.18.55,1.7,1.7,0,0,0,1,1.19l0.28,0.18,0.22,0.14a4.75,4.75,0,0,1,1.39,1.16,2.48,2.48,0,0,1,.29.69,3.35,3.35,0,0,1,.1.84,2.83,2.83,0,0,1-.69,2,2.6,2.6,0,0,1-2,.72,2.71,2.71,0,0,1-2-.69,2.79,2.79,0,0,1-.67-2q0-.09,0-0.18T46.37,99.54Z"/>
				<path class="a" d="M53.88,102.53V95.42H52.23V93.7h5.46v1.71H56v7.12H53.88Z"/>
				<path class="a" d="M58.35,98.12a16.71,16.71,0,0,1,.11-2.33,3,3,0,0,1,.38-1.15,2.33,2.33,0,0,1,1-.87,3.49,3.49,0,0,1,1.47-.28,3.45,3.45,0,0,1,1.47.28,2.34,2.34,0,0,1,1,.87,2.93,2.93,0,0,1,.39,1.15,23.55,23.55,0,0,1,0,4.64,2.93,2.93,0,0,1-.39,1.16,2.32,2.32,0,0,1-1,.87,3.92,3.92,0,0,1-2.95,0,2.36,2.36,0,0,1-1-.87,3,3,0,0,1-.38-1.15A16.73,16.73,0,0,1,58.35,98.12Zm3.81,0.8V97.32A5.09,5.09,0,0,0,62,95.5a0.7,0.7,0,0,0-.67-0.35,0.68,0.68,0,0,0-.66.36,5.18,5.18,0,0,0-.18,1.81v1.59a5.18,5.18,0,0,0,.18,1.8,0.8,0.8,0,0,0,1.34,0A5.17,5.17,0,0,0,62.16,98.91Z"/>
				<path class="a" d="M65.54,102.53V93.7h2a10.19,10.19,0,0,1,1.66.1,2.56,2.56,0,0,1,.9.33,1.88,1.88,0,0,1,.74.89,3.5,3.5,0,0,1,.26,1.4,2.74,2.74,0,0,1-.71,2,2.85,2.85,0,0,1-2.08.7H67.61v3.38H65.54Zm2.08-5h0.28a1.19,1.19,0,0,0,.89-0.29,1.32,1.32,0,0,0,.28-0.93,0.93,0.93,0,0,0-.29-0.77,1.57,1.57,0,0,0-1-.23H67.61V97.5Z"/>
				<path class="a" d="M97.73,41.11l-2.52,1.21c6.48,16-.05,36-13.74,43.81a19.63,19.63,0,0,1,1.68,2.26c15.25-8.95,21.43-29.56,14.58-47.29"/>
				<path class="a" d="M34.08,86C20.66,78,14,56.54,20.86,42.56l-2.51-1.22c-7.51,15.46-.71,38,14,46.87A19.71,19.71,0,0,1,34.08,86"/>
				<path class="a" d="M25.86,34.15l-7.94-5.48a41.84,41.84,0,0,1,5.29-6.45l1.34,1.31a39.68,39.68,0,0,0-3,3.42l1.38,1.11a38.24,38.24,0,0,1,2.67-3L27,26.35a36.75,36.75,0,0,0-2.55,2.92l1.64,1.32a34.78,34.78,0,0,1,2.64-3L30.1,29a33.57,33.57,0,0,0-4.25,5.18"/>
				<path class="a" d="M31.34,27.75l-6.59-7a40.25,40.25,0,0,1,3.66-3.12c1.41,1,2.1,1.5,3.44,2.55l0.57,0.54,1.09,1.05s-0.35-.77-0.58-1.29-0.35-.8-0.37-0.86C32,18,31.77,17.16,31.3,15.51a40,40,0,0,1,4-2.36l4.51,8.54c-0.89.47-1.33,0.72-2.2,1.26-1.48-2.59-2.22-3.89-3.67-6.5a73,73,0,0,0,2.33,7.37c-0.68.46-1,.7-1.69,1.2a68.66,68.66,0,0,0-6.21-4.59c2,2.23,3,3.34,4.94,5.59-0.8.66-1.2,1-2,1.73"/>
				<path class="a" d="M41.49,20.85l-4.1-8.74a40.4,40.4,0,0,1,7.17-2.68l0.52,1.8a39,39,0,0,0-4,1.34l0.64,1.65c1.4-.54,2.11-0.78,3.54-1.2l0.55,1.86c-1.37.4-2.05,0.63-3.39,1.15l0.77,2a34.15,34.15,0,0,1,3.5-1.17l0.54,1.88a32.48,32.48,0,0,0-5.76,2.15"/>
				<path class="a" d="M48.83,18.28l-2.3-9.37c1.43-.35,2.15-0.49,3.6-0.73a14.42,14.42,0,0,1,2.6-.24,3.49,3.49,0,0,1,1.34.27A2.2,2.2,0,0,1,55,9a2.3,2.3,0,0,1,.36,1.16,2.44,2.44,0,0,1-.3,1.42,5.47,5.47,0,0,1-1.11,1c0,0.07,1.48,1,1.57,2.08v0c0,0.12,0,.29,0,0.52a2.59,2.59,0,0,0,.75,2c-1.22.06-1.83,0.11-3,.26a3.62,3.62,0,0,1-.23-0.61,4.93,4.93,0,0,1-.14-0.69c0-.15,0-0.34-0.06-0.56s0-.36,0-0.43A1.84,1.84,0,0,0,52.37,14a1.35,1.35,0,0,0-1.1-.17l-0.58.1,0.67,3.8c-1,.18-1.53.28-2.54,0.53m1.56-6.07,0.19,0,0.18,0A2.43,2.43,0,0,0,52,11.69a1.11,1.11,0,0,0,.26-1,1,1,0,0,0-.51-0.82,2.55,2.55,0,0,0-1.41-.05l-0.18,0L50,9.9Z"/>
				<path class="a" d="M65.11,12.42l-0.82,5.22c-0.71-.11-1.07-0.16-1.78-0.23,0-.24,0-0.37-0.05-0.61a2.84,2.84,0,0,1-.93.49,3.07,3.07,0,0,1-1.08.11,3.84,3.84,0,0,1-1.25-.27,3.21,3.21,0,0,1-1-.65,2.94,2.94,0,0,1-.79-1.36,12.9,12.9,0,0,1-.3-2.9,11.88,11.88,0,0,1,.12-2.34,2.76,2.76,0,0,1,.55-1.32,3.27,3.27,0,0,1,1.52-.94,6.28,6.28,0,0,1,2.28-.22,4.64,4.64,0,0,1,3,1.08,2.63,2.63,0,0,1,.67,2.42s0,0.09,0,.17,0,0.14,0,.18C64,11.09,63.44,11,62.29,10.92V10.8a2.15,2.15,0,0,0-.14-1.21,0.89,0.89,0,0,0-.78-0.42,0.94,0.94,0,0,0-.93.39,5.12,5.12,0,0,0-.34,2c0,0.38,0,.57,0,1l0,0.66a6,6,0,0,0,.12,2,0.78,0.78,0,0,0,.73.46,0.91,0.91,0,0,0,.83-0.31,2.2,2.2,0,0,0,.36-1.17c0-.12,0-0.22,0-0.29s0-.13,0-0.19L61,13.67,61.12,12a37.69,37.69,0,0,1,4,.44"/>
				<path class="a" d="M66,17.94l1.91-9.46a41,41,0,0,1,7.31,2.05L74.53,12.3a39.47,39.47,0,0,0-4-1.26l-0.46,1.71c1.44,0.39,2.15.61,3.55,1.11L73,15.67c-1.34-.48-2-0.69-3.4-1.06l-0.55,2a34.45,34.45,0,0,1,3.5,1.11l-0.68,1.84A32.93,32.93,0,0,0,66,17.94"/>
				<path class="a" d="M73.35,20.18l3.72-8.9c1.26,0.52,1.89.81,3.12,1.42a53.29,53.29,0,0,1-.55,6.46q0.62-1.38,1.1-2.36t0.84-1.64l0.75-1.32c1,0.58,1.54.89,2.54,1.53l-5.26,8.1c-0.94-.61-1.42-0.9-2.39-1.43a52.77,52.77,0,0,0,.69-6.54q-0.37,1.15-.79,2.2t-0.89,2l-0.72,1.46c-0.86-.42-1.29-0.61-2.17-1"/>
				<path class="a" d="M87.38,24.8c0.87,0.8,1.29,1.22,2.11,2.1L89.36,27l-0.22.21a3.42,3.42,0,0,1-2.58,1.1A4.73,4.73,0,0,1,83.87,27a6.2,6.2,0,0,1-1.29-1.48,3.25,3.25,0,0,1-.47-1.55,3,3,0,0,1,.32-1.32,14.81,14.81,0,0,1,1.35-2.17,12.88,12.88,0,0,1,1.62-2,2.56,2.56,0,0,1,1.22-.66,3.42,3.42,0,0,1,1.83.21,6.8,6.8,0,0,1,2,1.28,5.43,5.43,0,0,1,2,3.1,3,3,0,0,1-1.09,2.67l-0.07.06c-0.86-.92-1.3-1.36-2.2-2.2a2.37,2.37,0,0,0,.7-1.24,1.22,1.22,0,0,0-.51-1,1.12,1.12,0,0,0-1.14-.33,6.54,6.54,0,0,0-1.85,1.8l-0.12.14a8.41,8.41,0,0,0-1.54,2.28,1,1,0,0,0,.39,1,1,1,0,0,0,.92.33,2.54,2.54,0,0,0,1.11-.83l0.29-.31"/>
				<path class="a" d="M88.88,31.91l3.19-2.56a46.52,46.52,0,0,0,2.11-6.09c1,1.1,1.5,1.68,2.43,2.87-0.6,1.22-.91,1.81-1.56,3,1.31-.28,2-0.4,3.32-0.6,0.89,1.28,1.31,1.95,2.11,3.33A40,40,0,0,0,94,32l-3.38,2.31c-0.67-1-1-1.45-1.74-2.36"/>
				<circle class="b" cx="58.16" cy="55.72" r="31.19"/>
			</g>
		</g>
	</g>
</g>
</svg>
