<?xml version="1.0" encoding="utf-8"?>
<!-- Generator: Adobe Illustrator 19.1.0, SVG Export Plug-In . SVG Version: 6.00 Build 0)  -->
<svg version="1.1" id="Capa_1" xmlns="http://www.w3.org/2000/svg" xmlns:xlink="http://www.w3.org/1999/xlink" x="0px" y="0px"
	 viewBox="0 0 175 215" style="enable-background:new 0 0 166.7 210.7;" xml:space="preserve">
<style type="text/css">
	.blue{fill:#0267C3;}
	.sblue{stroke:#0267C3;stroke-width:5;stroke-miterlimit:10;}
	.st0{fill:#F2F2F2;}
	.st1{fill:#C1272D;}
	.st170{fill:none;stroke:#F2F2F2;stroke-width:5;stroke-miterlimit:10;}
	.st171{fill:none;stroke:#F2F2F2;stroke-width:3;stroke-miterlimit:10;}
	.red{fill:#C1272D;}
	.white{fill:#ffffff;}
	.grey{fill:#999999;}
	.sgrey{stroke:#666666;stroke-width:5;stroke-miterlimit:10;}
	.sred{stroke:#C1272D;stroke-width:5;stroke-miterlimit:10;}
	.st170{fill:none;stroke:#F2F2F2;stroke-width:5;stroke-miterlimit:10;}
</style>
<g transform="translate(0, -5)">
	<g>
		<path class="grey" d="M147.5,205.9H18c-6.6,0-12-5.4-12-12v-177c0-6.6,5.4-12,12-12h129.5c6.6,0,12,5.4,12,12v177
			C159.5,200.5,154.1,205.9,147.5,205.9z"/>
	</g>
	<g>
		<g>
		<circle class="st170" cx="82.7" cy="72" r="15.1"/>
		<g>
			<path class="st0" d="M56.1,83.9c-11.8,0-21.4,9.6-21.4,21.4c0,11.8,9.6,21.4,21.4,21.4s21.4-9.6,21.4-21.4
				C77.5,93.4,67.9,83.9,56.1,83.9z M56.1,118.8c-7.5,0-13.6-6.1-13.6-13.6c0-7.5,6.1-13.6,13.6-13.6s13.6,6.1,13.6,13.6
				C69.7,112.7,63.6,118.8,56.1,118.8z"/>
			<path class="st0" d="M108.4,83.9c-11.8,0-21.4,9.6-21.4,21.4c0,11.8,9.6,21.4,21.4,21.4s21.4-9.6,21.4-21.4
				C129.8,93.4,120.2,83.9,108.4,83.9z M108.4,118.8c-7.5,0-13.6-6.1-13.6-13.6c0-7.5,6.1-13.6,13.6-13.6c7.5,0,13.6,6.1,13.6,13.6
				C122,112.7,115.9,118.8,108.4,118.8z"/>
			<circle class="st171" cx="82.2" cy="62.6" r="4.7"/>
			<circle class="st171" cx="82.7" cy="81.9" r="4.7"/>
			<circle class="st171" cx="92.7" cy="71.9" r="4.7"/>
			<circle class="st171" cx="72.3" cy="72" r="4.7"/>
			<circle class="st170" cx="82.7" cy="140.5" r="15.1"/>
			<circle class="st171" cx="82.2" cy="131.1" r="4.7"/>
			<circle class="st171" cx="82.7" cy="150.4" r="4.7"/>
			<circle class="st171" cx="92.7" cy="140.4" r="4.7"/>
			<circle class="st171" cx="72.3" cy="140.5" r="4.7"/>
			<circle class="st170" cx="82.7" cy="105.4" r="60.3"/>
		</g>
	</g>
	</g>
	<g transform="translate(80, 125)">
		<circle cx="50" cy="50" r="40" class="white sblue" />
		<g transform="translate(23, 20)">
			<g transform="scale(0.11)">
						<path class="blue" d="M99,147v51.1h-3.4c-21.4,0-38.8,17.4-38.8,38.8v213.7c0,21.4,17.4,38.8,38.8,38.8h298.2c21.4,0,38.8-17.4,38.8-38.8V236.8
						c0-21.4-17.4-38.8-38.8-38.8h-1v-51.1C392.8,65.9,326.9,0,245.9,0C164.9,0.1,99,66,99,147z M267.7,353.2c-3,2.2-3.8,4.3-3.8,7.8
						c0.1,15.7,0.1,31.3,0.1,47l0,0c0.3,6.5-3,12.9-8.8,15.8c-13.7,7-27.4-2.8-27.4-15.8v-0.1c0-15.7,0-31.4,0.1-47.1
						c0-3.2-0.7-5.3-3.5-7.4c-14.2-10.5-18.9-28.4-11.8-44.1c6.9-15.3,23.8-24.3,39.7-21.1c17.7,3.6,30,17.8,30.2,35.5
						C282.5,336,277.6,346,267.7,353.2z M163.3,147c0-45.6,37.1-82.6,82.6-82.6c45.6,0,82.6,37.1,82.6,82.6v51.1H163.3V147z"/>
				
			</g>
		</g>
	</g>
</g>
</svg>
