<?xml version="1.0" encoding="utf-8"?>
<!-- Generator: Adobe Illustrator 25.2.3, SVG Export Plug-In . SVG Version: 6.00 Build 0)  -->
<svg version="1.1" id="Capa_1" xmlns="http://www.w3.org/2000/svg" xmlns:xlink="http://www.w3.org/1999/xlink" x="0px" y="0px"
	 viewBox="0 0 175 215" style="enable-background:new 0 0 175 215;" xml:space="preserve">
<style type="text/css">
	.st0{fill:#999999;}
	.st1{fill:none;stroke:#FFFFFF;stroke-width:5;stroke-miterlimit:10;}
	.st2{fill:none;stroke:#FFFFFF;stroke-width:3;stroke-miterlimit:10;}
	.st3{fill:none;stroke:#FFFFFF;stroke-width:5;stroke-linecap:round;stroke-linejoin:round;stroke-miterlimit:10;}
	.st4{fill:#FFFFFF;}
	.st5{fill:none;stroke:#FFFFFF;stroke-width:5;stroke-linecap:round;stroke-miterlimit:10;}
	.st6{fill:#FFFFFF;stroke:#0267C3;stroke-width:5;stroke-miterlimit:10;}
	.st7{fill:#0267C3;}
</style>
<g transform="translate(0, -5)">
	<g>
		<path class="st0" d="M147.5,205.9H18c-6.6,0-12-5.4-12-12v-177c0-6.6,5.4-12,12-12h129.5c6.6,0,12,5.4,12,12v177
			C159.5,200.5,154.1,205.9,147.5,205.9z"/>
	</g>
	<g>
		<g>
			<g>
				<circle class="st1" cx="81.7" cy="108.7" r="59.2"/>
				<circle class="st1" cx="51" cy="103" r="13.6"/>
				<circle class="st1" cx="112.3" cy="103" r="13.6"/>
				<circle class="st1" cx="81.7" cy="75.4" r="8.1"/>
				<circle class="st2" cx="81.7" cy="129" r="4.5"/>
				<circle class="st2" cx="53.7" cy="139.4" r="4.5"/>
				<circle class="st2" cx="70.9" cy="149" r="4.5"/>
				<circle class="st2" cx="92.2" cy="149" r="4.5"/>
				<circle class="st2" cx="109.8" cy="139.4" r="4.5"/>
				<line class="st3" x1="26.1" y1="126.1" x2="66.9" y2="126.1"/>
				<line class="st3" x1="96.2" y1="126.1" x2="137" y2="126.1"/>
				<g>
					<line class="st3" x1="67.1" y1="126.1" x2="81.7" y2="111.4"/>
					<line class="st3" x1="81.7" y1="111.4" x2="96.4" y2="126"/>
				</g>
				<g>
					<line class="st3" x1="105" y1="76.3" x2="82.4" y2="99"/>
					<line class="st3" x1="82.4" y1="99" x2="58.4" y2="75.1"/>
				</g>
				<polygon class="st4" points="97.3,83.5 97.3,52 117.8,61.5 128.8,72.7 134.4,83.5 				"/>
				<polygon class="st4" points="66.2,83.5 66.2,52 45.6,61.5 34.7,72.7 29,83.5 				"/>
				<line class="st5" x1="81.7" y1="98.4" x2="81.7" y2="111.4"/>
			</g>
		</g>
	</g>
	<g transform="translate(80, 125)">
		<circle class="st6" cx="50" cy="50" r="40"/>
		<g transform="translate(-63, -46)">
			<g transform="translate(79, 62)">
				<g transform="scale(0.18)">
					<path class="st7" d="M297.5,150.3c-1.4-2.1-4-3.2-6.5-2.6l-73.3,16.5L240,7c0.4-2.8-1.2-5.5-3.8-6.6c-2.6-1.1-5.6-0.2-7.3,2.1
						L71.2,217.7c-1.5,2-1.6,4.8-0.2,6.9c1.3,2.1,3.8,3.2,6.3,2.8l79.6-14.8l-23.3,148.8c-0.4,2.8,1.1,5.5,3.7,6.6
						c0.8,0.3,1.6,0.5,2.4,0.5c1.9,0,3.8-0.9,5-2.5l152.7-208.6C298.8,155.3,298.9,152.5,297.5,150.3z"/>
				</g>
			</g>
		</g>
	</g>
</g>
</svg>
