<?xml version="1.0" encoding="utf-8"?>
<!-- Generator: Adobe Illustrator 25.2.3, SVG Export Plug-In . SVG Version: 6.00 Build 0)  -->
<svg version="1.1" id="Capa_1" xmlns="http://www.w3.org/2000/svg" xmlns:xlink="http://www.w3.org/1999/xlink" x="0px" y="0px"
	 viewBox="0 0 175 215" style="enable-background:new 0 0 175 215;" xml:space="preserve">
<style type="text/css">
	.st0{fill:#999999;}
	.st1{fill:none;stroke:#FFFFFF;stroke-width:5;stroke-miterlimit:10;}
	.st2{fill:none;stroke:#FFFFFF;stroke-width:3;stroke-miterlimit:10;}
	.st3{fill:none;stroke:#FFFFFF;stroke-width:5;stroke-linecap:round;stroke-linejoin:round;stroke-miterlimit:10;}
	.st4{fill:#FFFFFF;}
	.st5{fill:none;stroke:#FFFFFF;stroke-width:5;stroke-linecap:round;stroke-miterlimit:10;}
	.st6{fill:#FFFFFF;stroke:#C1272D;stroke-width:5;stroke-miterlimit:10;}
	.st7{fill:#C1272D;}
</style>
<g transform="translate(0, -5)">
	<g>
		<path class="st0" d="M147.5,205.9H18c-6.6,0-12-5.4-12-12v-177c0-6.6,5.4-12,12-12h129.5c6.6,0,12,5.4,12,12v177
			C159.5,200.5,154.1,205.9,147.5,205.9z"/>
	</g>
	<g>
		<g>
			<g>
				<circle class="st1" cx="82.8" cy="107.7" r="59.2"/>
				<circle class="st1" cx="52" cy="102" r="13.6"/>
				<circle class="st1" cx="113.4" cy="102" r="13.6"/>
				<circle class="st1" cx="82.8" cy="74.4" r="8.1"/>
				<circle class="st2" cx="82.8" cy="128" r="4.5"/>
				<circle class="st2" cx="54.7" cy="138.4" r="4.5"/>
				<circle class="st2" cx="71.9" cy="148" r="4.5"/>
				<circle class="st2" cx="93.2" cy="148" r="4.5"/>
				<circle class="st2" cx="110.8" cy="138.4" r="4.5"/>
				<line class="st3" x1="27.1" y1="125" x2="67.9" y2="125"/>
				<line class="st3" x1="97.2" y1="125" x2="138" y2="125"/>
				<g>
					<line class="st3" x1="68.1" y1="125" x2="82.8" y2="110.4"/>
					<line class="st3" x1="82.8" y1="110.4" x2="97.4" y2="125"/>
				</g>
				<g>
					<line class="st3" x1="106" y1="75.3" x2="83.4" y2="98"/>
					<line class="st3" x1="83.4" y1="98" x2="59.5" y2="74.1"/>
				</g>
				<polygon class="st4" points="98.3,82.5 98.3,51 118.9,60.4 129.8,71.7 135.4,82.5 				"/>
				<polygon class="st4" points="67.2,82.5 67.2,51 46.6,60.4 35.7,71.7 30.1,82.5 				"/>
				<line class="st5" x1="82.8" y1="97.4" x2="82.8" y2="110.4"/>
			</g>
		</g>
	</g>
	<g transform="translate(80, 125)">
		<circle class="st6" cx="50" cy="50" r="40"/>
		<g transform="translate(-63, -46)">
			<g transform="scale(1.2)">
				<path class="st7" d="M88.9,94.1l0.1-0.5c0-0.9-0.2-1.9-0.5-2.7l16.1-16.1c0.9,0.3,1.8,0.5,2.7,0.5h0.5c4.3-0.2,7.6-3.9,7.3-8.2
					c-0.1-1-0.3-2.1-0.8-3l-5.2,5.2c-0.3,0.3-0.6,0.5-0.9,0.6c-1.3,0.5-2.8-0.2-3.4-1.5c-0.1-0.3-0.2-0.6-0.2-0.9
					c0-0.3,0.1-0.6,0.2-0.9c0.1-0.4,0.3-0.7,0.6-0.9l5.2-5.2c-1-0.5-2.2-0.8-3.4-0.8c-4.1,0-7.6,3.2-7.8,7.3l-0.1,0.5
					c0,0.9,0.2,1.8,0.5,2.7L83.8,86.2c-0.9-0.3-1.8-0.5-2.7-0.5h-0.5c-4.1,0.3-7.3,3.7-7.3,7.8c0,1.2,0.3,2.4,0.8,3.4l5.2-5.2
					c0.3-0.3,0.6-0.5,0.9-0.6c1.4-0.5,2.9,0.2,3.4,1.5c0.1,0.3,0.2,0.6,0.2,0.9c0,0.7-0.3,1.4-0.8,1.8l-5.2,5.2
					c3.9,1.9,8.5,0.3,10.4-3.6C88.6,96.2,88.9,95.1,88.9,94.1L88.9,94.1z"/>
			</g>
		</g>
	</g>
</g>
</svg>
