<?xml version="1.0" encoding="utf-8"?>
<!-- Generator: Adobe Illustrator 25.2.3, SVG Export Plug-In . SVG Version: 6.00 Build 0)  -->
<svg version="1.1" id="Capa_1" xmlns="http://www.w3.org/2000/svg" xmlns:xlink="http://www.w3.org/1999/xlink" x="0px" y="0px"
	 viewBox="0 0 175 215" style="enable-background:new 0 0 175 215;" xml:space="preserve">
<style type="text/css">
	.st0{fill:#999999;}
	.st1{fill:none;stroke:#FFFFFF;stroke-width:5;stroke-miterlimit:10;}
	.st2{fill:none;stroke:#FFFFFF;stroke-width:3;stroke-miterlimit:10;}
	.st3{fill:none;stroke:#FFFFFF;stroke-width:5;stroke-linecap:round;stroke-linejoin:round;stroke-miterlimit:10;}
	.st4{fill:#FFFFFF;}
	.st5{fill:none;stroke:#FFFFFF;stroke-width:5;stroke-linecap:round;stroke-miterlimit:10;}
	.st6{fill:#FFFFFF;stroke:#C1272D;stroke-width:5;stroke-miterlimit:10;}
	.st7{fill:#5D5D5D;}
	.st8{fill:#C1272D;}
</style>
<g transform="translate(0, -5)">
	<g>
		<path class="st0" d="M147.5,205.9H18c-6.6,0-12-5.4-12-12v-177c0-6.6,5.4-12,12-12h129.5c6.6,0,12,5.4,12,12v177
			C159.5,200.5,154.1,205.9,147.5,205.9z"/>
	</g>
	<g>
		<g>
			<g>
				<circle class="st1" cx="82.8" cy="105.4" r="59.2"/>
				<circle class="st1" cx="52" cy="99.7" r="13.6"/>
				<circle class="st1" cx="113.4" cy="99.7" r="13.6"/>
				<circle class="st1" cx="82.8" cy="72.1" r="8.1"/>
				<circle class="st2" cx="82.8" cy="125.7" r="4.5"/>
				<circle class="st2" cx="54.7" cy="136.1" r="4.5"/>
				<circle class="st2" cx="71.9" cy="145.7" r="4.5"/>
				<circle class="st2" cx="93.2" cy="145.7" r="4.5"/>
				<circle class="st2" cx="110.8" cy="136.1" r="4.5"/>
				<line class="st3" x1="27.1" y1="122.8" x2="67.9" y2="122.8"/>
				<line class="st3" x1="97.2" y1="122.8" x2="138" y2="122.8"/>
				<g>
					<line class="st3" x1="68.1" y1="122.8" x2="82.8" y2="108.1"/>
					<line class="st3" x1="82.8" y1="108.1" x2="97.4" y2="122.7"/>
				</g>
				<g>
					<line class="st3" x1="106" y1="73" x2="83.4" y2="95.7"/>
					<line class="st3" x1="83.4" y1="95.7" x2="59.5" y2="71.8"/>
				</g>
				<polygon class="st4" points="98.3,80.2 98.3,48.7 118.9,58.2 129.8,69.4 135.4,80.2 				"/>
				<polygon class="st4" points="67.2,80.2 67.2,48.7 46.6,58.2 35.7,69.4 30.1,80.2 				"/>
				<line class="st5" x1="82.8" y1="95.1" x2="82.8" y2="108.1"/>
			</g>
		</g>
	</g>
	<g transform="translate(80, 125)">
		<circle class="st6" cx="50" cy="50" r="40"/>
		<g transform="scale(0.7)">
			<g id="Capa_1_1_" transform="translate(14, 16)">
				<path class="st7" d="M46.4,99.5h1.9v0.3c0,0.3,0,0.7,0.2,1c0.1,0.2,0.3,0.3,0.6,0.3c0.2,0,0.4-0.1,0.5-0.2
					c0.1-0.2,0.2-0.4,0.2-0.6c-0.1-0.5-0.4-1-0.9-1.2l-0.2-0.2l-0.1-0.1c-0.6-0.3-1.1-0.8-1.5-1.3c-0.1-0.2-0.3-0.5-0.3-0.7
					c-0.1-0.3-0.1-0.5-0.1-0.8c0-0.7,0.2-1.3,0.7-1.8c0.5-0.5,1.2-0.7,1.9-0.7c0.7-0.1,1.4,0.2,2,0.7c0.5,0.5,0.7,1.2,0.6,1.9
					c0,0,0,0.1,0,0.1s0,0.1,0,0.1h-1.9v-0.1c0-0.3,0-0.6-0.2-0.9C49.5,95.1,49.2,95,49,95c-0.2,0-0.4,0.1-0.5,0.2
					c-0.1,0.2-0.2,0.4-0.2,0.6c0.1,0.5,0.5,1,1,1.2l0.3,0.2l0.2,0.1c0.5,0.3,1,0.7,1.4,1.2c0.1,0.2,0.2,0.4,0.3,0.7
					c0.1,0.3,0.1,0.6,0.1,0.8c0,0.7-0.2,1.4-0.7,2c-0.5,0.5-1.3,0.8-2,0.7c-0.7,0.1-1.5-0.2-2-0.7c-0.5-0.6-0.7-1.3-0.7-2
					c0-0.1,0-0.1,0-0.2C46.3,99.8,46.3,99.7,46.4,99.5z"/>
				<path class="st7" d="M53.9,102.5v-7.1h-1.7v-1.7h5.5v1.7H56v7.1H53.9z"/>
				<path class="st7" d="M58.3,98.1c0-0.8,0-1.6,0.1-2.3c0-0.4,0.2-0.8,0.4-1.2c0.2-0.4,0.6-0.7,1-0.9c0.5-0.2,1-0.3,1.5-0.3
					c0.5,0,1,0.1,1.5,0.3c0.4,0.2,0.8,0.5,1,0.9c0.2,0.4,0.3,0.7,0.4,1.2c0.2,1.5,0.2,3.1,0,4.6c0,0.4-0.2,0.8-0.4,1.2
					c-0.2,0.4-0.6,0.7-1,0.9c-0.9,0.4-2,0.4-3,0c-0.4-0.2-0.8-0.5-1-0.9c-0.2-0.4-0.3-0.7-0.4-1.2C58.4,99.7,58.3,98.9,58.3,98.1z
					 M62.2,98.9v-1.6c0.1-0.6,0-1.2-0.2-1.8c-0.1-0.2-0.4-0.4-0.7-0.3c-0.3,0-0.5,0.1-0.7,0.4c-0.2,0.6-0.2,1.2-0.2,1.8v1.6
					c0,0.6,0,1.2,0.2,1.8c0.2,0.4,0.7,0.5,1.1,0.2c0.1-0.1,0.2-0.1,0.2-0.2C62.2,100.1,62.2,99.5,62.2,98.9L62.2,98.9z"/>
				<path class="st7" d="M65.5,102.5v-8.8h2c0.6,0,1.1,0,1.7,0.1c0.3,0.1,0.6,0.2,0.9,0.3c0.3,0.2,0.6,0.5,0.7,0.9
					c0.2,0.4,0.3,0.9,0.3,1.4c0,0.7-0.2,1.5-0.7,2c-0.6,0.5-1.3,0.8-2.1,0.7h-0.7v3.4L65.5,102.5L65.5,102.5z M67.6,97.5h0.3
					c0.3,0,0.6-0.1,0.9-0.3c0.2-0.3,0.3-0.6,0.3-0.9c0-0.3-0.1-0.6-0.3-0.8c-0.3-0.2-0.7-0.3-1-0.2h-0.2L67.6,97.5L67.6,97.5z"/>
				<path class="st7" d="M97.7,41.1l-2.5,1.2c6.5,16-0.1,36-13.7,43.8c0.6,0.7,1.2,1.5,1.7,2.3C98.4,79.4,104.6,58.8,97.7,41.1"/>
				<path class="st7" d="M34.1,86C20.7,78,14,56.5,20.9,42.6l-2.5-1.2c-7.5,15.5-0.7,38,14,46.9C32.9,87.4,33.5,86.7,34.1,86"/>
				<path class="st7" d="M25.9,34.2l-7.9-5.5c1.5-2.3,3.3-4.5,5.3-6.5l1.3,1.3c-1.1,1.1-2.1,2.2-3,3.4l1.4,1.1c0.8-1,1.7-2,2.7-3
					l1.4,1.3c-0.9,0.9-1.8,1.9-2.5,2.9l1.6,1.3c0.8-1,1.7-2.1,2.6-3l1.4,1.4C28.5,30.6,27.1,32.3,25.9,34.2"/>
				<path class="st7" d="M31.3,27.8l-6.6-7c1.2-1.1,2.4-2.2,3.7-3.1c1.4,1,2.1,1.5,3.4,2.5l0.6,0.5l1.1,1c0,0-0.3-0.8-0.6-1.3
					s-0.3-0.8-0.4-0.9c-0.6-1.6-0.8-2.5-1.3-4.1c1.3-0.9,2.6-1.7,4-2.4l4.5,8.5c-0.9,0.5-1.3,0.7-2.2,1.3c-1.5-2.6-2.2-3.9-3.7-6.5
					c0.6,2.5,1.4,5,2.3,7.4c-0.7,0.5-1,0.7-1.7,1.2c-2-1.6-4.1-3.2-6.2-4.6c2,2.2,3,3.3,4.9,5.6C32.5,26.7,32.1,27,31.3,27.8"/>
				<path class="st7" d="M41.5,20.9l-4.1-8.7c2.3-1.1,4.7-2,7.2-2.7l0.5,1.8c-1.4,0.4-2.7,0.8-4,1.3l0.6,1.6
					c1.4-0.5,2.1-0.8,3.5-1.2l0.5,1.9c-1.4,0.4-2,0.6-3.4,1.2l0.8,2c1.1-0.5,2.3-0.8,3.5-1.2l0.5,1.9C45.2,19.3,43.3,20,41.5,20.9"
					/>
				<path class="st7" d="M48.8,18.3l-2.3-9.4c1.4-0.4,2.2-0.5,3.6-0.7C51,8,51.9,7.9,52.7,7.9c0.5,0,0.9,0.1,1.3,0.3
					C54.4,8.4,54.8,8.7,55,9c0.2,0.3,0.3,0.7,0.4,1.2c0,0.5-0.1,1-0.3,1.4c-0.3,0.4-0.7,0.7-1.1,1c0,0.1,1.5,1,1.6,2.1l0,0
					c0,0.1,0,0.3,0,0.5c0,0.7,0.2,1.5,0.8,2c-1.2,0.1-1.8,0.1-3,0.3c-0.1-0.2-0.2-0.4-0.2-0.6c-0.1-0.2-0.1-0.5-0.1-0.7
					c0-0.2,0-0.3-0.1-0.6s0-0.4,0-0.4c0-0.4-0.2-0.8-0.5-1.1c-0.3-0.2-0.7-0.3-1.1-0.2l-0.6,0.1l0.7,3.8
					C50.4,17.9,49.8,18,48.8,18.3 M50.4,12.2h0.2h0.2c0.5,0,0.9-0.2,1.3-0.5c0.2-0.3,0.3-0.6,0.3-1c0-0.3-0.2-0.7-0.5-0.8
					c-0.5-0.1-0.9-0.2-1.4-0.1h-0.2L50,9.9L50.4,12.2z"/>
				<path class="st7" d="M65.1,12.4l-0.8,5.2c-0.7-0.1-1.1-0.2-1.8-0.2c0-0.2,0-0.4,0-0.6c-0.3,0.2-0.6,0.4-0.9,0.5
					c-0.4,0.1-0.7,0.1-1.1,0.1c-0.4,0-0.9-0.1-1.2-0.3c-0.4-0.2-0.7-0.4-1-0.6c-0.4-0.4-0.7-0.8-0.8-1.4c-0.2-1-0.3-1.9-0.3-2.9
					c0-0.8,0-1.6,0.1-2.3c0.1-0.5,0.3-0.9,0.5-1.3c0.4-0.4,0.9-0.8,1.5-0.9c0.7-0.2,1.5-0.3,2.3-0.2c1.1,0,2.2,0.4,3,1.1
					c0.6,0.6,0.9,1.6,0.7,2.4c0,0,0,0.1,0,0.2s0,0.1,0,0.2c-1.2-0.2-1.8-0.2-3-0.3v-0.1c0.1-0.4,0-0.8-0.1-1.2
					c-0.2-0.3-0.5-0.4-0.8-0.4c-0.4-0.1-0.7,0.1-0.9,0.4c-0.2,0.6-0.4,1.3-0.3,2c0,0.4,0,0.6,0,1v0.7c-0.1,0.7,0,1.3,0.1,2
					c0.1,0.3,0.4,0.5,0.7,0.5c0.3,0,0.6-0.1,0.8-0.3c0.2-0.3,0.4-0.8,0.4-1.2c0-0.1,0-0.2,0-0.3s0-0.1,0-0.2L61,13.7l0.1-1.7
					C62.5,12.1,63.8,12.2,65.1,12.4"/>
				<path class="st7" d="M66,17.9l1.9-9.5c2.5,0.5,4.9,1.1,7.3,2.1l-0.7,1.8c-1.3-0.5-2.6-0.9-4-1.3l-0.5,1.7
					c1.4,0.4,2.2,0.6,3.6,1.1L73,15.7c-1.3-0.5-2-0.7-3.4-1.1l-0.6,2c1.2,0.3,2.4,0.7,3.5,1.1l-0.7,1.8C70,18.8,68,18.3,66,17.9"/>
				<path class="st7" d="M73.3,20.2l3.7-8.9c1.3,0.5,1.9,0.8,3.1,1.4c-0.1,2.2-0.2,4.3-0.6,6.5c0.4-0.9,0.8-1.7,1.1-2.4
					c0.3-0.7,0.6-1.2,0.8-1.6l0.8-1.3c1,0.6,1.5,0.9,2.5,1.5l-5.3,8.1c-0.9-0.6-1.4-0.9-2.4-1.4c0.4-2.2,0.6-4.3,0.7-6.5
					c-0.2,0.8-0.5,1.5-0.8,2.2c-0.3,0.7-0.6,1.4-0.9,2l-0.7,1.5C74.6,20.7,74.2,20.5,73.3,20.2"/>
				<path class="st7" d="M87.4,24.8c0.9,0.8,1.3,1.2,2.1,2.1L89.4,27l-0.2,0.2c-0.7,0.7-1.6,1.1-2.6,1.1c-1-0.1-2-0.6-2.7-1.3
					c-0.5-0.4-0.9-0.9-1.3-1.5c-0.3-0.5-0.4-1-0.5-1.5c0-0.5,0.1-0.9,0.3-1.3c0.4-0.8,0.8-1.5,1.3-2.2c0.5-0.7,1-1.4,1.6-2
					c0.3-0.3,0.8-0.6,1.2-0.7c0.6-0.1,1.3,0,1.8,0.2c0.7,0.3,1.4,0.7,2,1.3c1,0.8,1.7,1.9,2,3.1c0.1,1-0.3,2-1.1,2.7l-0.1,0.1
					c-0.9-0.9-1.3-1.4-2.2-2.2c0.4-0.3,0.6-0.8,0.7-1.2c0-0.4-0.2-0.8-0.5-1c-0.3-0.3-0.7-0.4-1.1-0.3c-0.7,0.5-1.4,1.1-1.8,1.8
					l-0.1,0.1c-0.6,0.7-1.2,1.4-1.5,2.3c-0.1,0.4,0.1,0.8,0.4,1c0.2,0.3,0.6,0.4,0.9,0.3c0.4-0.2,0.8-0.5,1.1-0.8L87.4,24.8"/>
				<path class="st7" d="M88.9,31.9l3.2-2.6c0.8-2,1.5-4,2.1-6.1c1,1.1,1.5,1.7,2.4,2.9c-0.6,1.2-0.9,1.8-1.6,3
					c1.3-0.3,2-0.4,3.3-0.6c0.9,1.3,1.3,2,2.1,3.3c-2.2-0.1-4.3-0.1-6.5,0.1l-3.4,2.3C90,33.3,89.6,32.9,88.9,31.9"/>
				<circle class="st8" cx="58.2" cy="55.7" r="31.2"/>
			</g>
		</g>
	</g>
</g>
</svg>
