<?xml version="1.0" encoding="utf-8"?>
<!-- Generator: Adobe Illustrator 25.2.3, SVG Export Plug-In . SVG Version: 6.00 Build 0)  -->
<svg version="1.1" id="Capa_1" xmlns="http://www.w3.org/2000/svg" xmlns:xlink="http://www.w3.org/1999/xlink" x="0px" y="0px"
	 viewBox="0 0 175 215" style="enable-background:new 0 0 175 215;" xml:space="preserve">
<style type="text/css">
	.st0{fill:#666666;}
	.st1{fill:none;stroke:#FFFFFF;stroke-width:5;stroke-miterlimit:10;}
	.st2{fill:none;stroke:#FFFFFF;stroke-width:3;stroke-miterlimit:10;}
	.st3{fill:none;stroke:#FFFFFF;stroke-width:5;stroke-linecap:round;stroke-linejoin:round;stroke-miterlimit:10;}
	.st4{fill:#FFFFFF;}
	.st5{fill:none;stroke:#FFFFFF;stroke-width:5;stroke-linecap:round;stroke-miterlimit:10;}
	.st6{fill:#FFFFFF;stroke:#C1272D;stroke-width:5;stroke-miterlimit:10;}
	.st7{fill:#C1272D;}
</style>
<g transform="translate(0, -5)">
	<g>
		<path class="st0" d="M147.5,205.9H18c-6.6,0-12-5.4-12-12v-177c0-6.6,5.4-12,12-12h129.5c6.6,0,12,5.4,12,12v177
			C159.5,200.5,154.1,205.9,147.5,205.9z"/>
	</g>
	<g>
		<g>
			<g>
				<circle class="st1" cx="82.5" cy="106.8" r="59.2"/>
				<circle class="st1" cx="51.8" cy="101" r="13.6"/>
				<circle class="st1" cx="113.1" cy="101" r="13.6"/>
				<circle class="st1" cx="82.5" cy="73.5" r="8.1"/>
				<circle class="st2" cx="82.5" cy="127.1" r="4.5"/>
				<circle class="st2" cx="54.5" cy="137.5" r="4.5"/>
				<circle class="st2" cx="71.7" cy="147.1" r="4.5"/>
				<circle class="st2" cx="92.9" cy="147.1" r="4.5"/>
				<circle class="st2" cx="110.5" cy="137.5" r="4.5"/>
				<line class="st3" x1="26.9" y1="124.1" x2="67.7" y2="124.1"/>
				<line class="st3" x1="97" y1="124.1" x2="137.7" y2="124.1"/>
				<g>
					<line class="st3" x1="67.9" y1="124.1" x2="82.5" y2="109.5"/>
					<line class="st3" x1="82.5" y1="109.5" x2="97.1" y2="124.1"/>
				</g>
				<g>
					<line class="st3" x1="105.8" y1="74.4" x2="83.1" y2="97.1"/>
					<line class="st3" x1="83.1" y1="97.1" x2="59.2" y2="73.2"/>
				</g>
				<polygon class="st4" points="98,81.6 98,50.1 118.6,59.5 129.5,70.8 135.2,81.6 				"/>
				<polygon class="st4" points="66.9,81.6 66.9,50.1 46.4,59.5 35.4,70.8 29.8,81.6 				"/>
				<line class="st5" x1="82.5" y1="96.5" x2="82.5" y2="109.5"/>
			</g>
		</g>
	</g>
	<g transform="translate(80, 125)">
		<circle class="st6" cx="50" cy="50" r="40"/>
		<g transform="translate(-63, -46)">
			<g transform="scale(1.2)">
				<path class="st7" d="M88.9,94.1l0.1-0.5c0-0.9-0.2-1.9-0.5-2.7l16.1-16.1c0.9,0.3,1.8,0.5,2.7,0.5h0.5c4.3-0.2,7.6-3.9,7.3-8.2
					c-0.1-1-0.3-2.1-0.8-3l-5.2,5.2c-0.3,0.3-0.6,0.5-0.9,0.6c-1.3,0.5-2.8-0.2-3.4-1.5c-0.1-0.3-0.2-0.6-0.2-0.9
					c0-0.3,0.1-0.6,0.2-0.9c0.1-0.4,0.3-0.7,0.6-0.9l5.2-5.2c-1-0.5-2.2-0.8-3.4-0.8c-4.1,0-7.6,3.2-7.8,7.3l-0.1,0.5
					c0,0.9,0.2,1.8,0.5,2.7L83.8,86.2c-0.9-0.3-1.8-0.5-2.7-0.5h-0.5c-4.1,0.3-7.3,3.7-7.3,7.8c0,1.2,0.3,2.4,0.8,3.4l5.2-5.2
					c0.3-0.3,0.6-0.5,0.9-0.6c1.4-0.5,2.9,0.2,3.4,1.5c0.1,0.3,0.2,0.6,0.2,0.9c0,0.7-0.3,1.4-0.8,1.8l-5.2,5.2
					c3.9,1.9,8.5,0.3,10.4-3.6C88.6,96.2,88.9,95.1,88.9,94.1L88.9,94.1z"/>
			</g>
		</g>
	</g>
</g>
</svg>
