<?xml version="1.0" encoding="utf-8"?>
<!-- Generator: Adobe Illustrator 25.2.3, SVG Export Plug-In . SVG Version: 6.00 Build 0)  -->
<svg version="1.1" id="Capa_1" xmlns="http://www.w3.org/2000/svg" xmlns:xlink="http://www.w3.org/1999/xlink" x="0px" y="0px"
	 viewBox="0 0 175 215" style="enable-background:new 0 0 175 215;" xml:space="preserve">
<style type="text/css">
	.st0{fill:#666666;}
	.st1{fill:none;stroke:#FFFFFF;stroke-width:5;stroke-miterlimit:10;}
	.st2{fill:none;stroke:#FFFFFF;stroke-width:3;stroke-miterlimit:10;}
	.st3{fill:none;stroke:#FFFFFF;stroke-width:5;stroke-linecap:round;stroke-linejoin:round;stroke-miterlimit:10;}
	.st4{fill:#FFFFFF;}
	.st5{fill:none;stroke:#FFFFFF;stroke-width:5;stroke-linecap:round;stroke-miterlimit:10;}
	.st6{fill:#FFFFFF;stroke:#666666;stroke-width:5;stroke-miterlimit:10;}
</style>
<g transform="translate(0, -5)">
	<g>
		<path class="st0" d="M147.5,205.9H18c-6.6,0-12-5.4-12-12v-177c0-6.6,5.4-12,12-12h129.5c6.6,0,12,5.4,12,12v177
			C159.5,200.5,154.1,205.9,147.5,205.9z"/>
	</g>
	<g>
		<g>
			<circle class="st1" cx="82.5" cy="110.7" r="59.2"/>
			<circle class="st1" cx="51.8" cy="105" r="13.6"/>
			<circle class="st1" cx="113.1" cy="105" r="13.6"/>
			<circle class="st1" cx="82.5" cy="77.4" r="8.1"/>
			<circle class="st2" cx="82.5" cy="131" r="4.5"/>
			<circle class="st2" cx="54.5" cy="141.4" r="4.5"/>
			<circle class="st2" cx="71.7" cy="151" r="4.5"/>
			<circle class="st2" cx="92.9" cy="151" r="4.5"/>
			<circle class="st2" cx="110.5" cy="141.4" r="4.5"/>
			<line class="st3" x1="26.9" y1="128.1" x2="67.7" y2="128.1"/>
			<line class="st3" x1="97" y1="128.1" x2="137.7" y2="128.1"/>
			<g>
				<line class="st3" x1="67.9" y1="128" x2="82.5" y2="113.4"/>
				<line class="st3" x1="82.5" y1="113.4" x2="97.1" y2="128"/>
			</g>
			<g>
				<line class="st3" x1="105.8" y1="78.3" x2="83.1" y2="101"/>
				<line class="st3" x1="83.1" y1="101" x2="59.2" y2="77.1"/>
			</g>
			<polygon class="st4" points="98,85.5 98,54 118.6,63.5 129.5,74.7 135.2,85.5 			"/>
			<polygon class="st4" points="66.9,85.5 66.9,54 46.4,63.5 35.4,74.7 29.8,85.5 			"/>
			<line class="st5" x1="82.5" y1="100.4" x2="82.5" y2="113.4"/>
		</g>
	</g>
	<g transform="translate(80, 125)">
		<circle class="st6" cx="50" cy="50" r="40"/>
		<g transform="translate(-70, -73)">
			<g transform="scale(1.3)">
				<path class="st0" d="M105.1,103.3l-8.4-8.8l8.4-8.8c1.4-1.5,1.4-3.9-0.1-5.3c-1.5-1.4-3.9-1.4-5.3,0.1l0,0l-7.5,7.9l-7.5-7.9
					c-1.4-1.5-3.8-1.7-5.3-0.3c-1.5,1.4-1.7,3.8-0.3,5.3c0,0.1,0.1,0.1,0.1,0.1l8.4,8.8l-8.4,8.8c-1.4,1.5-1.4,3.9,0.1,5.3
					s3.9,1.4,5.3-0.1l0,0l7.5-7.9l7.5,7.9c1.4,1.6,3.7,1.7,5.3,0.4c1.6-1.4,1.7-3.7,0.4-5.3C105.3,103.4,105.2,103.3,105.1,103.3z"
					/>
			</g>
		</g>
	</g>
</g>
</svg>
