<?xml version="1.0" encoding="utf-8"?>
<!-- Generator: Adobe Illustrator 25.2.3, SVG Export Plug-In . SVG Version: 6.00 Build 0)  -->
<svg version="1.1" id="Capa_1" xmlns="http://www.w3.org/2000/svg" xmlns:xlink="http://www.w3.org/1999/xlink" x="0px" y="0px"
	 viewBox="0 0 175 215" style="enable-background:new 0 0 175 215;" xml:space="preserve">
<style type="text/css">
	.st0{fill:#999999;}
	.st1{fill:none;stroke:#FFFFFF;stroke-width:5;stroke-miterlimit:10;}
	.st2{fill:none;stroke:#FFFFFF;stroke-width:3;stroke-miterlimit:10;}
	.st3{fill:none;stroke:#FFFFFF;stroke-width:5;stroke-linecap:round;stroke-linejoin:round;stroke-miterlimit:10;}
	.st4{fill:#FFFFFF;}
	.st5{fill:none;stroke:#FFFFFF;stroke-width:5;stroke-linecap:round;stroke-miterlimit:10;}
	.st6{fill:#FFFFFF;stroke:#74A528;stroke-width:5;stroke-miterlimit:10;}
	.st7{fill:#74A528;}
</style>
<g transform="translate(0, -5)">
	<g>
		<path class="st0" d="M147.5,205.9H18c-6.6,0-12-5.4-12-12v-177c0-6.6,5.4-12,12-12h129.5c6.6,0,12,5.4,12,12v177
			C159.5,200.5,154.1,205.9,147.5,205.9z"/>
	</g>
	<g>
		<g>
			<circle class="st1" cx="82.8" cy="105.4" r="59.2"/>
			<circle class="st1" cx="52" cy="99.7" r="13.6"/>
			<circle class="st1" cx="113.4" cy="99.7" r="13.6"/>
			<circle class="st1" cx="82.8" cy="72.1" r="8.1"/>
			<circle class="st2" cx="82.8" cy="125.7" r="4.5"/>
			<circle class="st2" cx="54.7" cy="136.1" r="4.5"/>
			<circle class="st2" cx="71.9" cy="145.7" r="4.5"/>
			<circle class="st2" cx="93.2" cy="145.7" r="4.5"/>
			<circle class="st2" cx="110.8" cy="136.1" r="4.5"/>
			<line class="st3" x1="27.1" y1="122.8" x2="67.9" y2="122.8"/>
			<line class="st3" x1="97.2" y1="122.8" x2="138" y2="122.8"/>
			<g>
				<line class="st3" x1="68.1" y1="122.8" x2="82.8" y2="108.1"/>
				<line class="st3" x1="82.8" y1="108.1" x2="97.4" y2="122.7"/>
			</g>
			<g>
				<line class="st3" x1="106" y1="73" x2="83.4" y2="95.7"/>
				<line class="st3" x1="83.4" y1="95.7" x2="59.5" y2="71.8"/>
			</g>
			<polygon class="st4" points="98.3,80.2 98.3,48.7 118.9,58.2 129.8,69.4 135.4,80.2 			"/>
			<polygon class="st4" points="67.2,80.2 67.2,48.7 46.6,58.2 35.7,69.4 30.1,80.2 			"/>
			<line class="st5" x1="82.8" y1="95.1" x2="82.8" y2="108.1"/>
		</g>
	</g>
	<g transform="translate(80, 125)">
		<circle class="st6" cx="50" cy="50" r="40"/>
		<g transform="translate(27, 28)">
			<g transform="scale(1)">
				<path class="st7" d="M20.7,38.3c-2.1,2.1-5.4,2.1-7.5,0L1.6,26.7c-2.1-2.1-2.1-5.4,0-7.5c2.1-2.1,5.4-2.1,7.5,0l6.9,6.9
					c0.5,0.5,1.4,0.5,1.9,0L36.6,7.4c2.1-2.1,5.4-2.1,7.5,0c1,1,1.6,2.3,1.6,3.8s-0.6,2.8-1.6,3.8L20.7,38.3z"/>
			</g>
		</g>
	</g>
</g>
</svg>
