<?xml version="1.0" encoding="utf-8"?>
<!-- Generator: Adobe Illustrator 25.2.3, SVG Export Plug-In . SVG Version: 6.00 Build 0)  -->
<svg version="1.1" id="Capa_1" xmlns="http://www.w3.org/2000/svg" xmlns:xlink="http://www.w3.org/1999/xlink" x="0px" y="0px"
	 viewBox="0 0 175 215" style="enable-background:new 0 0 175 215;" xml:space="preserve">
<style type="text/css">
	.st0{fill:#666666;}
	.st1{fill:none;stroke:#FFFFFF;stroke-width:5;stroke-miterlimit:10;}
	.st2{fill:none;stroke:#FFFFFF;stroke-width:3;stroke-miterlimit:10;}
	.st3{fill:none;stroke:#FFFFFF;stroke-width:5;stroke-linecap:round;stroke-linejoin:round;stroke-miterlimit:10;}
	.st4{fill:#FFFFFF;}
	.st5{fill:none;stroke:#FFFFFF;stroke-width:5;stroke-linecap:round;stroke-miterlimit:10;}
	.st6{fill:#FFFFFF;stroke:#0267C3;stroke-width:5;stroke-miterlimit:10;}
	.st7{fill:#0267C3;}
</style>
<g transform="translate(0, -5)">
	<g>
		<path class="st0" d="M147.5,205.9H18c-6.6,0-12-5.4-12-12v-177c0-6.6,5.4-12,12-12h129.5c6.6,0,12,5.4,12,12v177
			C159.5,200.5,154.1,205.9,147.5,205.9z"/>
	</g>
	<g>
		<g>
			<g>
				<circle class="st1" cx="82.8" cy="106.8" r="59.2"/>
				<circle class="st1" cx="52" cy="101" r="13.6"/>
				<circle class="st1" cx="113.4" cy="101" r="13.6"/>
				<circle class="st1" cx="82.8" cy="73.5" r="8.1"/>
				<circle class="st2" cx="82.8" cy="127.1" r="4.5"/>
				<circle class="st2" cx="54.7" cy="137.5" r="4.5"/>
				<circle class="st2" cx="71.9" cy="147.1" r="4.5"/>
				<circle class="st2" cx="93.2" cy="147.1" r="4.5"/>
				<circle class="st2" cx="110.8" cy="137.5" r="4.5"/>
				<line class="st3" x1="27.1" y1="124.1" x2="67.9" y2="124.1"/>
				<line class="st3" x1="97.2" y1="124.1" x2="138" y2="124.1"/>
				<g>
					<line class="st3" x1="68.1" y1="124.1" x2="82.8" y2="109.5"/>
					<line class="st3" x1="82.8" y1="109.5" x2="97.4" y2="124.1"/>
				</g>
				<g>
					<line class="st3" x1="106" y1="74.4" x2="83.4" y2="97.1"/>
					<line class="st3" x1="83.4" y1="97.1" x2="59.5" y2="73.2"/>
				</g>
				<polygon class="st4" points="98.3,81.6 98.3,50.1 118.9,59.5 129.8,70.8 135.4,81.6 				"/>
				<polygon class="st4" points="67.2,81.6 67.2,50.1 46.6,59.5 35.7,70.8 30.1,81.6 				"/>
				<line class="st5" x1="82.8" y1="96.5" x2="82.8" y2="109.5"/>
			</g>
		</g>
	</g>
	<g transform="translate(80, 125)">
		<circle class="st6" cx="50" cy="50" r="40"/>
		<g transform="translate(23, 20)">
			<g transform="scale(0.11)">
				<path class="st7" d="M99,147v51.1h-3.4c-21.4,0-38.8,17.4-38.8,38.8v213.7c0,21.4,17.4,38.8,38.8,38.8h298.2
					c21.4,0,38.8-17.4,38.8-38.8V236.8c0-21.4-17.4-38.8-38.8-38.8h-1v-51.1C392.8,65.9,326.9,0,245.9,0C164.9,0.1,99,66,99,147z
					 M267.7,353.2c-3,2.2-3.8,4.3-3.8,7.8c0.1,15.7,0.1,31.3,0.1,47l0,0c0.3,6.5-3,12.9-8.8,15.8c-13.7,7-27.4-2.8-27.4-15.8v-0.1
					c0-15.7,0-31.4,0.1-47.1c0-3.2-0.7-5.3-3.5-7.4c-14.2-10.5-18.9-28.4-11.8-44.1c6.9-15.3,23.8-24.3,39.7-21.1
					c17.7,3.6,30,17.8,30.2,35.5C282.5,336,277.6,346,267.7,353.2z M163.3,147c0-45.6,37.1-82.6,82.6-82.6
					c45.6,0,82.6,37.1,82.6,82.6v51.1H163.3V147z"/>
			</g>
		</g>
	</g>
</g>
</svg>
