<?xml version="1.0" encoding="utf-8"?>
<!-- Generator: Adobe Illustrator 25.2.3, SVG Export Plug-In . SVG Version: 6.00 Build 0)  -->
<svg version="1.1" id="Capa_1" xmlns="http://www.w3.org/2000/svg" xmlns:xlink="http://www.w3.org/1999/xlink" x="0px" y="0px"
	 viewBox="0 0 175 215" style="enable-background:new 0 0 175 215;" xml:space="preserve">
<style type="text/css">
	.st0{fill:#999999;}
	.st1{fill:none;stroke:#FFFFFF;stroke-width:5;stroke-miterlimit:10;}
	.st2{fill:none;stroke:#FFFFFF;stroke-width:3;stroke-miterlimit:10;}
	.st3{fill:none;stroke:#FFFFFF;stroke-width:5;stroke-linecap:round;stroke-linejoin:round;stroke-miterlimit:10;}
	.st4{fill:#FFFFFF;}
	.st5{fill:none;stroke:#FFFFFF;stroke-width:5;stroke-linecap:round;stroke-miterlimit:10;}
	.st6{fill:#FFFFFF;stroke:#666666;stroke-width:5;stroke-miterlimit:10;}
</style>
<g transform="translate(0, -5)">
	<g>
		<path class="st0" d="M147.5,205.9H18c-6.6,0-12-5.4-12-12v-177c0-6.6,5.4-12,12-12h129.5c6.6,0,12,5.4,12,12v177
			C159.5,200.5,154.1,205.9,147.5,205.9z"/>
	</g>
	<g>
		<g>
			<circle class="st1" cx="82.8" cy="106.8" r="59.2"/>
			<circle class="st1" cx="52" cy="101" r="13.6"/>
			<circle class="st1" cx="113.4" cy="101" r="13.6"/>
			<circle class="st1" cx="82.8" cy="73.5" r="8.1"/>
			<circle class="st2" cx="82.8" cy="127.1" r="4.5"/>
			<circle class="st2" cx="54.7" cy="137.5" r="4.5"/>
			<circle class="st2" cx="71.9" cy="147.1" r="4.5"/>
			<circle class="st2" cx="93.2" cy="147.1" r="4.5"/>
			<circle class="st2" cx="110.8" cy="137.5" r="4.5"/>
			<line class="st3" x1="27.1" y1="124.1" x2="67.9" y2="124.1"/>
			<line class="st3" x1="97.2" y1="124.1" x2="138" y2="124.1"/>
			<g>
				<line class="st3" x1="68.1" y1="124.1" x2="82.8" y2="109.5"/>
				<line class="st3" x1="82.8" y1="109.5" x2="97.4" y2="124.1"/>
			</g>
			<g>
				<line class="st3" x1="106" y1="74.4" x2="83.4" y2="97.1"/>
				<line class="st3" x1="83.4" y1="97.1" x2="59.5" y2="73.2"/>
			</g>
			<polygon class="st4" points="98.3,81.6 98.3,50.1 118.9,59.5 129.8,70.8 135.4,81.6 			"/>
			<polygon class="st4" points="67.2,81.6 67.2,50.1 46.6,59.5 35.7,70.8 30.1,81.6 			"/>
			<line class="st5" x1="82.8" y1="96.5" x2="82.8" y2="109.5"/>
		</g>
	</g>
	<g transform="translate(80, 125)">
		<circle class="st6" cx="50" cy="50" r="40"/>
		<g transform="translate(-70, -73)">
			<g transform="scale(1.3)">
				<path class="st0" d="M105.1,103.3l-8.4-8.8l8.4-8.8c1.4-1.5,1.4-3.9-0.1-5.3c-1.5-1.4-3.9-1.4-5.3,0.1l0,0l-7.5,7.9l-7.5-7.9
					c-1.4-1.5-3.8-1.7-5.3-0.3c-1.5,1.4-1.7,3.8-0.3,5.3c0,0.1,0.1,0.1,0.1,0.1l8.4,8.8l-8.4,8.8c-1.4,1.5-1.4,3.9,0.1,5.3
					s3.9,1.4,5.3-0.1l0,0l7.5-7.9l7.5,7.9c1.4,1.6,3.7,1.7,5.3,0.4c1.6-1.4,1.7-3.7,0.4-5.3C105.3,103.4,105.2,103.3,105.1,103.3z"
					/>
			</g>
		</g>
	</g>
</g>
</svg>
