<?xml version="1.0" encoding="utf-8"?>
<!-- Generator: Adobe Illustrator 25.2.3, SVG Export Plug-In . SVG Version: 6.00 Build 0)  -->
<svg version="1.1" id="Capa_1" xmlns="http://www.w3.org/2000/svg" xmlns:xlink="http://www.w3.org/1999/xlink" x="0px" y="0px"
	 viewBox="0 0 175 215" style="enable-background:new 0 0 175 215;" xml:space="preserve">
<style type="text/css">
	.st0{fill:#999999;}
	.st1{fill:none;stroke:#FFFFFF;stroke-width:5;stroke-miterlimit:10;}
	.st2{fill:none;stroke:#FFFFFF;stroke-width:3;stroke-miterlimit:10;}
	.st3{fill:none;stroke:#FFFFFF;stroke-width:5;stroke-linecap:round;stroke-linejoin:round;stroke-miterlimit:10;}
	.st4{fill:#FFFFFF;}
	.st5{fill:none;stroke:#FFFFFF;stroke-width:5;stroke-linecap:round;stroke-miterlimit:10;}
	.st6{fill:#FFFFFF;stroke:#0267C3;stroke-width:5;stroke-miterlimit:10;}
	.st7{fill:#0267C3;}
</style>
<g transform="translate(0, -5)">
	<g>
		<path class="st0" d="M147.5,205.9H18c-6.6,0-12-5.4-12-12v-177c0-6.6,5.4-12,12-12h129.5c6.6,0,12,5.4,12,12v177
			C159.5,200.5,154.1,205.9,147.5,205.9z"/>
	</g>
	<g>
		<g>
			<g>
				<circle class="st1" cx="82.5" cy="105.4" r="59.2"/>
				<circle class="st1" cx="51.8" cy="99.7" r="13.6"/>
				<circle class="st1" cx="113.1" cy="99.7" r="13.6"/>
				<circle class="st1" cx="82.5" cy="72.1" r="8.1"/>
				<circle class="st2" cx="82.5" cy="125.7" r="4.5"/>
				<circle class="st2" cx="54.5" cy="136.1" r="4.5"/>
				<circle class="st2" cx="71.7" cy="145.7" r="4.5"/>
				<circle class="st2" cx="92.9" cy="145.7" r="4.5"/>
				<circle class="st2" cx="110.5" cy="136.1" r="4.5"/>
				<line class="st3" x1="26.9" y1="122.8" x2="67.7" y2="122.8"/>
				<line class="st3" x1="97" y1="122.8" x2="137.7" y2="122.8"/>
				<g>
					<line class="st3" x1="67.9" y1="122.8" x2="82.5" y2="108.1"/>
					<line class="st3" x1="82.5" y1="108.1" x2="97.1" y2="122.7"/>
				</g>
				<g>
					<line class="st3" x1="105.8" y1="73" x2="83.1" y2="95.7"/>
					<line class="st3" x1="83.1" y1="95.7" x2="59.2" y2="71.8"/>
				</g>
				<polygon class="st4" points="98,80.2 98,48.7 118.6,58.2 129.5,69.4 135.2,80.2 				"/>
				<polygon class="st4" points="66.9,80.2 66.9,48.7 46.4,58.2 35.4,69.4 29.8,80.2 				"/>
				<line class="st5" x1="82.5" y1="95.1" x2="82.5" y2="108.1"/>
			</g>
		</g>
	</g>
	<g transform="translate(80, 125)">
		<circle class="st6" cx="50" cy="50" r="40"/>
		<g transform="translate(23, 20)">
			<g transform="scale(0.11)">
				<path class="st7" d="M99,147v51.1h-3.4c-21.4,0-38.8,17.4-38.8,38.8v213.7c0,21.4,17.4,38.8,38.8,38.8h298.2
					c21.4,0,38.8-17.4,38.8-38.8V236.8c0-21.4-17.4-38.8-38.8-38.8h-1v-51.1C392.8,65.9,326.9,0,245.9,0C164.9,0.1,99,66,99,147z
					 M267.7,353.2c-3,2.2-3.8,4.3-3.8,7.8c0.1,15.7,0.1,31.3,0.1,47l0,0c0.3,6.5-3,12.9-8.8,15.8c-13.7,7-27.4-2.8-27.4-15.8v-0.1
					c0-15.7,0-31.4,0.1-47.1c0-3.2-0.7-5.3-3.5-7.4c-14.2-10.5-18.9-28.4-11.8-44.1c6.9-15.3,23.8-24.3,39.7-21.1
					c17.7,3.6,30,17.8,30.2,35.5C282.5,336,277.6,346,267.7,353.2z M163.3,147c0-45.6,37.1-82.6,82.6-82.6
					c45.6,0,82.6,37.1,82.6,82.6v51.1H163.3V147z"/>
			</g>
		</g>
	</g>
</g>
</svg>
