<?xml version="1.0" encoding="utf-8"?>
<!-- Generator: Adobe Illustrator 19.1.0, SVG Export Plug-In . SVG Version: 6.00 Build 0)  -->
<svg version="1.1" xmlns="http://www.w3.org/2000/svg" xmlns:xlink="http://www.w3.org/1999/xlink" x="0px" y="0px"
	 viewBox="0 0 131.5 131.6" style="enable-background:new 0 0 131.5 131.6;" xml:space="preserve">
<style type="text/css">
	.st0{fill:#8CC63F;}
	.st1{fill:#FFFFFF;}
	.st2{fill:#E20613;}
	.st3{fill:#CC0001;}
	.st4{fill:#FFFF33;}
	.st5{fill:#009540;}
	.st6{fill:#31287C;}
	.st7{fill:#1D1D1B;}
	.st8{fill:#FFCB00;}
	.st9{fill:#4D4D4D;}
	.st10{opacity:0.27;fill:none;stroke:#8CC63F;stroke-width:8;stroke-miterlimit:10;}
	.st11{opacity:7.000000e-002;fill:none;stroke:#8CC63F;stroke-width:8;stroke-miterlimit:10;}
	.st12{opacity:0.58;fill:none;stroke:#8CC63F;stroke-width:8;stroke-miterlimit:10;}
	.st13{opacity:0.8;fill:none;stroke:#8CC63F;stroke-width:8;stroke-miterlimit:10;}
	.st14{fill:#01267F;}
	.st15{fill:none;stroke:#66FFD0;stroke-width:7;stroke-miterlimit:10;}
	.st16{fill:none;stroke:#8CC63F;stroke-width:2;}
	.st17{opacity:0.73;}
	.st18{fill:none;stroke:#8CC63F;stroke-width:4;stroke-miterlimit:10;}
	.st19{fill:#F2F2F2;}
	.st20{fill:none;stroke:#4D4D4D;stroke-width:5;}
	.st21{fill:#FBB03B;}
	.st22{fill:#C1272D;}
	.st23{fill:#FFFFFF;stroke:#FFFFFF;stroke-width:4;stroke-miterlimit:10;}
	.st24{fill:#666666;}
	.st25{fill:#74A528;}
	.st26{fill:#FFFFFF;stroke:#FFFFFF;stroke-width:8;stroke-miterlimit:10;}
	.st27{opacity:0.64;fill:#666666;}
	.st28{fill:#FFFFFF;stroke:#C1272D;stroke-width:2;stroke-miterlimit:10;}
</style>
<g id="Capa_2">
</g>
<g id="Capa_1">
	<g>
		<rect x="123.9" y="124.4" class="st2" width="0" height="0"/>
		<path class="st2" d="M42.3,12.6C27.8,19.1,16.4,31.3,11,46.3C9.3,51,8.2,55.9,7.8,61h34.5V12.6z"/>
		<path class="st2" d="M123.7,61c-0.4-5.1-1.5-10-3.2-14.7C112.5,23.8,91,7.7,65.8,7.7c-3.7,0-7.2,0.3-10.7,1V61H123.7z"/>
		<path class="st2" d="M55.1,123c3.5,0.6,7,1,10.7,1c25.3,0,46.8-16.1,54.8-38.6c1.3-3.7,2.3-7.6,2.8-11.6H55.1V123z"/>
		<path class="st2" d="M8.2,73.8c0.5,4,1.5,7.9,2.8,11.6c5.4,15.1,16.8,27.2,31.3,33.7V73.8H8.2z"/>
		<polygon class="st2" points="7.6,124.4 7.6,124.5 7.6,124.5 7.6,124.4 7.6,85.4 7.6,85.4 		"/>
		<path class="st1" d="M7.6,65.8C7.6,65.8,7.6,65.8,7.6,65.8c0-1.7,0.1-3.3,0.2-4.9H7.6v12.8h0.5C7.8,71.2,7.6,68.6,7.6,65.8
			C7.6,65.9,7.6,65.9,7.6,65.8z"/>
		<path class="st1" d="M123.9,65.8C123.9,65.8,123.9,65.8,123.9,65.8c0-1.7-0.1-3.3-0.2-4.9H55.1V8.7c-4.5,0.8-8.7,2.2-12.8,4V61
			H7.8c-0.1,1.6-0.2,3.2-0.2,4.8c0,0,0,0,0,0c0,0,0,0,0,0c0,2.7,0.2,5.3,0.5,7.9h34.1V119c4,1.8,8.3,3.1,12.8,4V73.8h68.3
			C123.7,71.2,123.9,68.6,123.9,65.8C123.9,65.9,123.9,65.9,123.9,65.8z"/>
	</g>
</g>
</svg>
