<?xml version="1.0" encoding="utf-8"?>
<!-- Generator: Adobe Illustrator 19.2.1, SVG Export Plug-In . SVG Version: 6.00 Build 0)  -->
<svg version="1.1" id="Capa_1" xmlns="http://www.w3.org/2000/svg" xmlns:xlink="http://www.w3.org/1999/xlink" x="0px" y="0px"
	 viewBox="0 0 131.5 131.6" style="enable-background:new 0 0 131.5 131.6;" xml:space="preserve">
<style type="text/css">
	.st0{fill:#EF2B2D;}
	.st1{fill:#FFFFFF;}
	.st2{fill:#192967;}
</style>
<g>
	<path class="st0" d="M30.7,20.4C20,28.6,12.4,40.5,9.6,54.2h21.1V20.4z"/>
	<path class="st0" d="M121.9,54.2C116.6,28.1,93.4,8.4,65.8,8.4c-3.5,0-6.9,0.3-10.1,0.9v44.8H121.9z"/>
	<path class="st0" d="M9.9,79.1c3.1,13,10.5,24.2,20.7,32.1V79.1H9.9z"/>
	<path class="st0" d="M55.6,79.1v43.2c3.3,0.6,6.7,0.9,10.1,0.9c27.1,0,49.8-18.8,55.8-44.1H55.6z"/>
	<path class="st1" d="M121.9,54.2H55.6V9.3c-9.3,1.7-17.8,5.5-24.9,11.1v33.7H9.6c-0.8,3.8-1.2,7.7-1.2,11.6c0,4.6,0.6,9,1.6,13.3
		h20.7v32.1c7.2,5.5,15.7,9.4,24.9,11.1V79.1h66c1-4.3,1.6-8.7,1.6-13.3C123.1,61.8,122.7,57.9,121.9,54.2z"/>
</g>
<path class="st2" d="M123.1,66.6c0-3.1-0.3-6.2-0.3-6.2H49.4V10.8c0,0-3.7,1.1-6.4,2.3c-3.6,1.6-6.1,3.1-6.1,3.1v44.2H8.6
	c0,0-0.3,4.7-0.3,6.2c0,1.6,0.4,6.2,0.4,6.2h28.1v42.5c0,0,2.5,1.4,5.1,2.7c1.6,0.8,7.3,2.7,7.3,2.7V72.9h73.3
	C122.7,72.9,123.1,68.2,123.1,66.6z"/>
</svg>
