<svg id="Capa_1" data-name="Capa 1" xmlns="http://www.w3.org/2000/svg" viewBox="0 0 131.53 131.61"><title>original-interfaz-qt-verde</title><path d="M24.82,24.81a57.85,57.85,0,0,0,0,81.72L71.35,65.66Z" style="fill:#ce1126"/><path d="M120.17,46a57.88,57.88,0,0,0-52-38.08H63.35A57.66,57.66,0,0,0,24.82,24.81L48.93,46h71.24Z"/><path d="M120.39,46.61c-0.07-.21-0.14-0.43-0.22-0.64H48.93l0.73,0.64,21.69,19-21.69,19h70.74A57.87,57.87,0,0,0,120.39,46.61Z" style="fill:#fff"/><path d="M24.79,106.53a57.66,57.66,0,0,0,37.47,16.9h7A57.87,57.87,0,0,0,120.41,84.7H49.66Z" style="fill:#007a3d"/><polygon points="29.7 60.87 31.81 55.8 33.71 60.87 39.2 59.6 36.45 64.25 41.07 67.42 35.38 68.47 35.38 73.75 32.02 70.37 28 73.75 28 68.68 22.51 67.63 27.16 64.78 23.81 59.6 29.7 60.87" style="fill:#fff"/></svg>