<?xml version="1.0" encoding="utf-8"?>
<!-- Generator: Adobe Illustrator 19.2.1, SVG Export Plug-In . SVG Version: 6.00 Build 0)  -->
<svg version="1.1" id="Capa_1" xmlns="http://www.w3.org/2000/svg" xmlns:xlink="http://www.w3.org/1999/xlink" x="0px" y="0px"
	 viewBox="0 0 131.5 131.6" style="enable-background:new 0 0 131.5 131.6;" xml:space="preserve">
<style type="text/css">
	.st0{fill:#F6D927;}
	.st1{fill:#DC000E;}
</style>
<g>
	<path class="st0" d="M45.5,12.1c-5,1.9-9.7,4.5-14,7.6v92.1c4.2,3.2,8.9,5.7,14,7.6V12.1z"/>
	<path class="st0" d="M113.2,33.6V98c6.2-9.2,9.9-20.3,9.9-32.2S119.5,42.8,113.2,33.6z"/>
	<path class="st0" d="M86,119.5c5-1.9,9.7-4.5,14-7.6V19.7c-4.2-3.2-8.9-5.7-14-7.6V119.5z"/>
	<path class="st0" d="M18.3,33.6C12,42.8,8.4,53.9,8.4,65.8s3.7,23,9.9,32.2V33.6z"/>
	<path class="st0" d="M72.7,8.9c-2.3-0.3-4.6-0.4-7-0.4s-4.7,0.2-7,0.4v113.9c2.3,0.3,4.6,0.4,7,0.4s4.7-0.2,7-0.4V8.9z"/>
</g>
<path class="st1" d="M18.3,33.6V98c3.6,5.3,8.1,10,13.3,13.8V19.7C26.4,23.6,21.9,28.3,18.3,33.6z"/>
<path class="st1" d="M100,19.7v92.1c5.2-3.8,9.6-8.5,13.3-13.8V33.6C109.6,28.3,105.1,23.6,100,19.7z"/>
<path class="st1" d="M72.7,122.7c4.6-0.6,9.1-1.7,13.3-3.3V12.1c-4.2-1.6-8.6-2.7-13.3-3.3V122.7z"/>
<path class="st1" d="M45.5,119.5c4.2,1.6,8.7,2.7,13.3,3.2V8.9c-4.6,0.6-9.1,1.7-13.3,3.2V119.5z"/>
</svg>
