<?xml version="1.0" encoding="utf-8"?>
<!-- Generator: Adobe Illustrator 19.2.1, SVG Export Plug-In . SVG Version: 6.00 Build 0)  -->
<svg version="1.1" id="Capa_1" xmlns="http://www.w3.org/2000/svg" xmlns:xlink="http://www.w3.org/1999/xlink" x="0px" y="0px"
	 viewBox="0 0 131.5 131.6" style="enable-background:new 0 0 131.5 131.6;" xml:space="preserve">
<style type="text/css">
	.st0{fill:#0080D7;}
	.st1{fill:#FFC800;}
</style>
<g>
	<path class="st0" d="M125.5,65.8c0,4.2-0.4,8.2-1.2,12.1c-5.6,26.8-29.4,47-57.8,47c-0.4,0-0.7,0-1,0c-8.6-0.2-16.8-2.2-24.2-5.6
		c-16.5-7.8-28.8-23-32.6-41.3C7.8,74,7.4,70,7.4,65.8c0-4.2,0.4-8.2,1.2-12.1c3.8-18.3,16.1-33.6,32.6-41.3
		c7.4-3.5,15.5-5.5,24.2-5.6c0.4,0,0.7,0,1,0c28.5,0,52.3,20.2,57.8,47C125.1,57.6,125.5,61.6,125.5,65.8z"/>
	<path class="st1" d="M65.4,6.7v118.1c-8.6-0.2-16.8-2.2-24.2-5.6V12.4C48.6,8.9,56.8,6.9,65.4,6.7z"/>
	<path class="st1" d="M125.5,65.8c0,4.2-0.4,8.2-1.2,12.1H8.6C7.8,74,7.4,70,7.4,65.8c0-4.2,0.4-8.2,1.2-12.1h115.7
		C125.1,57.6,125.5,61.6,125.5,65.8z"/>
</g>
</svg>
