<?xml version="1.0" encoding="utf-8"?>
<!-- Generator: Adobe Illustrator 19.2.1, SVG Export Plug-In . SVG Version: 6.00 Build 0)  -->
<svg version="1.1" id="Capa_1" xmlns="http://www.w3.org/2000/svg" xmlns:xlink="http://www.w3.org/1999/xlink" x="0px" y="0px"
	 viewBox="0 0 131.5 131.6" style="enable-background:new 0 0 131.5 131.6;" xml:space="preserve">
<style type="text/css">
	.st0{fill:#FF171E;}
	.st1{fill:#0008D2;}
	.st2{fill:#FFFFFF;}
</style>
<g>
	<path class="st0" d="M11.5,85.2c7.9,22.3,29.1,38.3,54.1,38.3c25,0,46.2-15.9,54.1-38.2L11.5,85.2z"/>
	<path class="st1" d="M8.2,66.1c0,6.7,1.2,13.2,3.3,19.1l108.3,0.1c2.1-6,3.3-12.4,3.3-19.1c0-6.7-1.2-13.2-3.3-19.1L11.5,46.9
		C9.4,52.9,8.2,59.4,8.2,66.1z"/>
	<path class="st2" d="M11.5,46.9C19.4,24.6,40.6,8.7,65.6,8.7c25,0,46.2,16.1,54.1,38.4L11.5,46.9z"/>
</g>
</svg>
