<?xml version="1.0" encoding="utf-8"?>
<!-- Generator: Adobe Illustrator 19.2.1, SVG Export Plug-In . SVG Version: 6.00 Build 0)  -->
<svg version="1.1" id="Capa_1" xmlns="http://www.w3.org/2000/svg" xmlns:xlink="http://www.w3.org/1999/xlink" x="0px" y="0px"
	 viewBox="0 0 131.5 131.6" style="enable-background:new 0 0 131.5 131.6;" xml:space="preserve">
<style type="text/css">
	.st0{fill:#3C9348;}
	.st1{fill:#FFFFFF;}
	.st2{fill:#D71E34;}
</style>
<g>
	<path class="st0" d="M11.7,91c6.7,14.2,18.8,25.2,33.7,30.5V10.1c-22.9,8.1-39.4,30-39.4,55.7c0,0.4,0,0.7,0,1
		C6.3,75.5,8.3,83.7,11.7,91z"/>
	<path class="st1" d="M84.9,121.5V10.1c-2.5-0.9-5-1.6-7.6-2.1c-3.9-0.8-7.9-1.2-12.1-1.2C61,6.7,57,7.2,53.1,8
		c-2.6,0.5-5.1,1.3-7.6,2.1v111.4c2.5,0.9,5,1.6,7.6,2.1c3.9,0.8,7.9,1.2,12.1,1.2c4.2,0,8.2-0.4,12.1-1.2
		C79.9,123.1,82.4,122.4,84.9,121.5z"/>
	<path class="st2" d="M84.9,10.1v111.4c14.9-5.3,27.1-16.3,33.7-30.5c3.5-7.4,5.5-15.5,5.6-24.2c0-0.4,0-0.7,0-1
		C124.2,40.1,107.8,18.2,84.9,10.1z"/>
</g>
</svg>
