<?xml version="1.0" encoding="utf-8"?>
<!-- Generator: Adobe Illustrator 19.2.1, SVG Export Plug-In . SVG Version: 6.00 Build 0)  -->
<svg version="1.1" id="Capa_1" xmlns="http://www.w3.org/2000/svg" xmlns:xlink="http://www.w3.org/1999/xlink" x="0px" y="0px"
	 viewBox="0 0 131.5 131.6" style="enable-background:new 0 0 131.5 131.6;" xml:space="preserve">
<style type="text/css">
	.st0{fill:#DF1E26;}
	.st1{fill:#F6D927;}
</style>
<g>
	<path d="M39.9,12.4C25.8,19,14.7,31.2,9.5,46.1h111.4c-8.1-22.9-30-39.4-55.7-39.4c-0.4,0-0.7,0-1,0C55.5,6.9,47.3,8.9,39.9,12.4z"
		/>
	<path class="st0" d="M9.5,85.5h111.4c0.9-2.5,1.6-5,2.1-7.6c0.8-3.9,1.2-7.9,1.2-12.1c0-4.2-0.4-8.2-1.2-12.1
		c-0.5-2.6-1.3-5.1-2.1-7.6H9.5c-0.9,2.5-1.6,5-2.1,7.6c-0.8,3.9-1.2,7.9-1.2,12.1c0,4.2,0.4,8.2,1.2,12.1C7.9,80.5,8.6,83,9.5,85.5
		z"/>
	<path class="st1" d="M120.9,85.5H9.5c5.3,14.9,16.3,27.1,30.5,33.7c7.4,3.5,15.5,5.5,24.2,5.6c0.4,0,0.7,0,1,0
		C90.9,124.9,112.8,108.4,120.9,85.5z"/>
</g>
</svg>
