<?xml version="1.0" encoding="utf-8"?>
<!-- Generator: Adobe Illustrator 19.2.1, SVG Export Plug-In . SVG Version: 6.00 Build 0)  -->
<svg version="1.1" id="Capa_1" xmlns="http://www.w3.org/2000/svg" xmlns:xlink="http://www.w3.org/1999/xlink" x="0px" y="0px"
	 viewBox="0 0 131.5 131.6" style="enable-background:new 0 0 131.5 131.6;" xml:space="preserve">
<style type="text/css">
	.st0{fill:#FFFFFF;}
	.st1{fill:#CD142B;}
	.st2{fill:#00247C;}
	.st3{fill:#CE142B;}
	.st4{fill:#00247D;}
</style>
<circle class="st0" cx="65.8" cy="65.8" r="57.4"/>
<g>
	<path class="st1" d="M72.2,58.7c0-8,0-16.1,0-24.1c0-0.1,0-0.3,0-0.4l0-25.4c-2.1-0.2-4.3-0.4-6.5-0.4c-2.2,0-4.4,0.1-6.5,0.4
		l0,25.6c0,8.1,0,16.1,0,24.2c0,0.7,0,0.6-0.6,0.6c-16.6,0-33.2,0-49.9,0c-0.2,2.1-0.4,4.3-0.4,6.5c0,2.2,0.1,4.3,0.4,6.5
		c16.6,0,33.3,0,49.9,0c0.6,0,0.6,0,0.6,0.6c0,8,0,16,0,24.1c0,0.1,0,0.3,0,0.4l0,25.5c2.1,0.2,4.3,0.4,6.5,0.4
		c2.2,0,4.3-0.1,6.5-0.4l0-25.7c0-8.1,0-16.1,0-24.2c0-0.7,0-0.6,0.6-0.6c16.6,0,33.3,0,49.9,0c0.2-2.1,0.4-4.3,0.4-6.5
		c0-2.2-0.1-4.4-0.4-6.5c-16.7,0-33.3,0-50,0C72.2,59.3,72.2,59.3,72.2,58.7z"/>
	<path class="st2" d="M17.6,34.6c12.3,6.1,24.6,12.3,36.9,18.4c0.2,0.1,0.4,0.3,0.6,0.2c0-0.2,0-0.5,0-0.7c0-14.4,0-28.8,0-43.2
		C39.4,12.4,26,21.7,17.6,34.6z"/>
	<path class="st2" d="M76.4,9.4c0,14.4,0,28.8,0,43.2c0,0.2,0,0.4,0,0.7c0.3-0.1,0.5-0.2,0.6-0.3c12.3-6.1,24.6-12.3,36.9-18.4
		C105.5,21.7,92.1,12.4,76.4,9.4z"/>
	<path class="st3" d="M115,36.4C102.6,42.6,90.2,48.8,77.8,55c-0.1,0-0.2,0.1-0.3,0.2c0.1,0,0.2,0,0.3,0c2.9,0,5.9,0,8.8,0
		c0.2,0,0.4-0.1,0.6-0.2c9.9-5,19.8-9.9,29.8-14.9C116.4,38.8,115.7,37.6,115,36.4z"/>
	<path class="st4" d="M11.9,46c-1.1,2.9-1.9,6-2.5,9.2c6.8,0,13.7,0,20.5,0c0.1,0,0.2,0,0.3,0C30.1,55,30,55,29.9,55
		C23.9,52,17.9,49,11.9,46z"/>
	<path class="st4" d="M9.4,76.4c0.6,3.2,1.4,6.2,2.5,9.2c6-3,12-6,18-9c0.1,0,0.2-0.1,0.2-0.2c-0.1,0-0.2,0-0.3,0
		C23,76.4,16.2,76.4,9.4,76.4z"/>
	<path class="st3" d="M14.4,40.1c-0.6,1.3-1.2,2.6-1.8,3.9c7.3,3.7,14.7,7.3,22,11c0.2,0.1,0.3,0.1,0.5,0.1c3,0,6,0,9,0
		c0,0,0.1,0,0.1-0.1c-0.1,0-0.2-0.1-0.2-0.1C34.2,50,24.3,45.1,14.4,40.1z"/>
	<path class="st2" d="M17.6,97c8.4,12.9,21.8,22.3,37.5,25.2c0-13.3,0-38.3,0-43.3c0-0.2,0-0.4,0-0.7C42.6,84.5,30.1,90.7,17.6,97z"
		/>
	<path class="st2" d="M113.9,97c-12.5-6.3-25-12.5-37.5-18.8c0,0.3,0,0.6,0,0.8c0,14.4,0,28.8,0,43.2
		C92.1,119.2,105.5,109.9,113.9,97z"/>
	<path class="st3" d="M44.8,76.4c-0.2,0-0.4,0-0.6,0.1c-9.9,5-19.9,9.9-29.8,14.9c0.6,1.3,1.3,2.5,2,3.7
		C28.9,89,41.3,82.8,53.7,76.5c0.1,0,0.2,0,0.2-0.2c-0.1,0-0.2,0-0.3,0C50.7,76.4,47.8,76.4,44.8,76.4z"/>
	<path class="st4" d="M119.6,46c-6.1,3-12.2,6.1-18.3,9.1c0,0,0,0,0,0c0.1,0,0.2,0,0.2,0c6.9,0,13.7,0,20.6,0
		C121.5,52,120.7,48.9,119.6,46z"/>
	<path class="st4" d="M122.1,76.4c-6.8,0-13.7,0-20.5,0c-0.1,0-0.2,0-0.2,0c0,0,0,0,0,0.1c6.1,3,12.2,6.1,18.3,9.1
		C120.7,82.6,121.5,79.6,122.1,76.4z"/>
	<path class="st3" d="M118.8,87.6c-7.4-3.7-14.7-7.4-22.1-11c-0.2-0.1-0.3-0.1-0.5-0.1c-3,0-6,0-9,0c-0.1,0-0.1,0-0.2,0.1
		c10,5,20,10,30,15C117.7,90.2,118.3,88.9,118.8,87.6z"/>
</g>
</svg>
