<svg id="Capa_1" data-name="Capa 1" xmlns="http://www.w3.org/2000/svg" viewBox="0 0 131.53 131.61"><title>original-interfaz-qt-verde</title><path d="M57.91,72.68h65.43l0-.22H57.91v0.22Z" style="fill:none"/><path d="M44.74,72.46H7.87l0,0.22H44.74V72.46Z" style="fill:none"/><path d="M9.09,79.32a58.24,58.24,0,0,0,28.05,37v-37H9.09Z" style="fill:#003897"/><path d="M37.14,15a58.24,58.24,0,0,0-28,37h28V15Z" style="fill:#003897"/><path d="M64.5,123.79l1.12,0a58.17,58.17,0,0,0,56.53-44.5H64.5v44.47Z" style="fill:#003897"/><path d="M122.14,52A58.17,58.17,0,0,0,65.62,7.51L65,7.53V52h57.13Z" style="fill:#003897"/><path d="M7.9,72.68a57.92,57.92,0,0,0,1.19,6.64H37.14v37a57.86,57.86,0,0,0,7.6,3.58V72.68H7.9Z" style="fill:#fff"/><path d="M123.31,58.4A57.92,57.92,0,0,0,122.14,52H65V7.53A58.6,58.6,0,0,0,57.91,8V58.4h65.39Z" style="fill:#fff"/><path d="M44.74,11.39A57.86,57.86,0,0,0,37.14,15V52H9.1A57.92,57.92,0,0,0,7.93,58.4H44.74v-47Z" style="fill:#fff"/><path d="M57.91,123.3a58.58,58.58,0,0,0,6.58.5V79.32h57.65a57.92,57.92,0,0,0,1.19-6.64H57.91V123.3Z" style="fill:#fff"/><path d="M57.91,58.4V8a57.75,57.75,0,0,0-13.17,3.35v47H7.93a56.71,56.71,0,0,0-.06,14.06H44.74v47.49a57.75,57.75,0,0,0,13.17,3.35V72.46h65.45a56.71,56.71,0,0,0-.06-14.06H57.91Z" style="fill:#d72828"/></svg>