<?xml version="1.0" encoding="UTF-8" standalone="no"?>
<svg
   xmlns:dc="http://purl.org/dc/elements/1.1/"
   xmlns:cc="http://creativecommons.org/ns#"
   xmlns:rdf="http://www.w3.org/1999/02/22-rdf-syntax-ns#"
   xmlns:svg="http://www.w3.org/2000/svg"
   xmlns="http://www.w3.org/2000/svg"
   xmlns:xlink="http://www.w3.org/1999/xlink"
   version="1.1"
   id="Capa_1"
   x="0px"
   y="0px"
   viewBox="0 0 131.5 131.6"
   xml:space="preserve"><metadata
     id="metadata28"><rdf:RDF><cc:Work
         rdf:about=""><dc:format>image/svg+xml</dc:format><dc:type
           rdf:resource="http://purl.org/dc/dcmitype/StillImage" /><dc:title></dc:title></cc:Work></rdf:RDF></metadata><defs
     id="defs26" /><style
     type="text/css"
     id="style2">
	.st0{fill:#FFFFFF;}
	.st1{fill:#0039a6;}
	.st2{fill:#CF1400;}
</style><g
     id="g21">
	 <path
       class="st0"
       d="M39.9,12.4C25.8,19,14.7,31.2,9.5,46.1h111.4c-8.1-22.9-30-39.4-55.7-39.4c-0.4,0-0.7,0-1,0   C55.5,6.9,47.3,8.9,39.9,12.4z"
       id="path4" />
	<path
       class="st1"
       d="M9.5,85.5h111.4c0.9-2.5,1.6-5,2.1-7.6c0.8-3.9,1.2-7.9,1.2-12.1c0-4.2-0.4-8.2-1.2-12.1   c-0.5-2.6-1.3-5.1-2.1-7.6H9.5c-0.9,2.5-1.6,5-2.1,7.6c-0.8,3.9-1.2,7.9-1.2,12.1c0,4.2,0.4,8.2,1.2,12.1C7.9,80.5,8.6,83,9.5,85.5   z"
       id="path6" />
	<path
       class="st2"
       d="M120.9,85.5H9.5c5.3,14.9,16.3,27.1,30.5,33.7c7.4,3.5,15.5,5.5,24.2,5.6c0.4,0,0.7,0,1,0   C90.9,124.9,112.8,108.4,120.9,85.5z"
       id="path8" />
	<path
	   class="st0"
       id="_x35_"
       d="M 47.77916,100.6186 C 37.194153,95.520063 22.053229,85.400333 22.053229,65.381694 c 0,-20.018636 0.95653,-29.122203 0.95653,-29.122203 H 47.77857 72.547972 c 0,0 0.957122,9.104157 0.957122,29.122203 0,20.018049 -15.140336,30.138369 -25.725934,35.236906 z"
       style="stroke-width:0.59045058" />
    <path
		class="st2"
       id="_x34_"
       d="m 47.77916,97.961573 c -9.711141,-4.67755 -23.60208,-13.96179 -23.60208,-32.327756 0,-18.365375 0.878,-26.717889 0.878,-26.717889 h 22.72349 22.724081 c 0,0 0.87859,8.352514 0.87859,26.717889 0,18.365966 -13.89094,27.650206 -23.602081,32.327756 z"
	   style="stroke-width:0.59045058" />
   <g
       id="Group_1"
       transform="matrix(0.59045058,0,0,0.53496095,-99.785659,-413.72727)">
		<defs
			id="defs13">
			<path
				id="_x31_"
				d="m 249.919,946.5 c -16.447,-7.922 -39.973,-23.646 -39.973,-54.751 0,-31.104 1.487,-45.25 1.487,-45.25 h 38.485 38.486 c 0,0 1.488,14.146 1.488,45.25 0,31.105 -23.526,46.829 -39.973,54.751 z" />
		</defs>
	   <path
         id="_x33_"
         class="st0"
         d="m 253.436,883.594 c 4.453,0.072 13.142,0.246 20.879,-2.342 0,0 -0.204,2.769 -0.204,5.994 0,3.226 0.204,5.994 0.204,5.994 -7.096,-2.375 -15.86,-2.424 -20.879,-2.361 v 17.18 h -7.034 v -17.18 c -5.018,-0.063 -13.782,-0.014 -20.878,2.361 0,0 0.204,-2.768 0.204,-5.994 0,-3.225 -0.204,-5.994 -0.204,-5.994 7.737,2.589 16.425,2.414 20.878,2.342 v -10.789 c -4.059,-0.036 -9.908,0.158 -16.521,2.371 0,0 0.204,-2.769 0.204,-5.994 0,-3.225 -0.204,-5.994 -0.204,-5.994 6.604,2.21 12.445,2.407 16.503,2.371 -0.208,-6.832 -2.199,-15.443 -2.199,-15.443 0,0 4.096,0.32 5.734,0.32 1.639,0 5.734,-0.32 5.734,-0.32 0,0 -1.99,8.611 -2.199,15.443 4.058,0.035 9.9,-0.162 16.503,-2.371 0,0 -0.204,2.769 -0.204,5.994 0,3.226 0.204,5.994 0.204,5.994 -6.613,-2.213 -12.462,-2.407 -16.521,-2.371 z" />
		 <path
         id="_x32_"
         class="st1"
         d="m 249.919,956.49756 c -13.98833,-7.33213 -25.91292,-17.16984 -33.62249,-32.125 0,0 3.17649,-12.13656 11.67949,-12.13656 6.757,0 9.224,5.449 9.224,5.449 0,0 4.437,-11.486 12.719,-11.486 8.283,0 12.72,11.486 12.72,11.486 0,0 2.465,-5.449 9.223,-5.449 8.504,0 11.32533,12.26685 11.32533,12.26685 -7.6516,16.56951 -20.17338,25.0732 -33.26833,31.99471 z" /></g></g></svg>