<?xml version="1.0" encoding="utf-8"?>
<!-- Generator: Adobe Illustrator 25.2.3, SVG Export Plug-In . SVG Version: 6.00 Build 0)  -->
<svg version="1.1" id="Layer_1" xmlns="http://www.w3.org/2000/svg" xmlns:xlink="http://www.w3.org/1999/xlink" x="0px" y="0px"
	 viewBox="0 0 800 300" style="enable-background:new 0 0 800 300;" xml:space="preserve">
<style type="text/css">
	.st0{fill:#3A8DCC;}
	.st1{fill:#FFFFFF;}
</style>
<g id="charger" transform="translate(250, -5),scale(1.5) ">
	<path class="st0" d="M177.6,32.6v7.6c0,6.6-4.6,12.2-11.1,13.6v77.4c0.2,5.4-4.1,9.9-9.4,10.1c-5.4,0.2-9.9-4.1-10.1-9.4
		c0-0.2,0-0.4,0-0.6V63.8c0-5-3.4-9.4-8.2-10.7V177h4.7c1.6,0,2.8,1.3,2.8,2.8s-1.3,2.8-2.8,2.8l0,0H41.5c-1.6,0-2.8-1.3-2.8-2.8
		s1.3-2.8,2.8-2.8h4.7V19.6c0-7.8,6.3-14.1,14.1-14.1h64.4c7.8,0,14.1,6.3,14.1,14.1v27.7c8,1.4,13.8,8.3,13.9,16.4v67.4
		c0,2.3,1.8,4.1,4.1,4.1c2.3,0,4.1-1.8,4.1-4.1c0,0,0,0,0,0V53.8c-6.4-1.3-11-7-11.1-13.6v-7.6c0-1.6,1.3-2.8,2.8-2.8l0,0h2.2V19.6
		c0-1.6,1.3-2.8,2.8-2.8s2.8,1.3,2.8,2.8v10.1h6.3V19.6c0-1.6,1.3-2.8,2.8-2.8s2.8,1.3,2.8,2.8v10.1h2.3
		C176.3,29.8,177.6,31,177.6,32.6z M171.9,40.2v-4.8h-16.4v4.8c0.2,4.5,4,8.1,8.5,7.9C168.3,48,171.8,44.5,171.9,40.2L171.9,40.2z"
		/>
	<g transform="translate(0, -21)">
		<path class="st1" d="M126,79.8L126,79.8c0,17.6-14.3,31.9-31.8,31.9l0,0c-17.6,0-31.8-14.3-31.8-31.8v0C62.3,62.2,76.6,48,94.2,48
			l0,0C111.8,48,126,62.2,126,79.8z"/>
		<g transform="scale(0.8)">
			<g transform="translate(95, 79)">
				<path class="st0" d="M20.7,38.3c-2.1,2.1-5.4,2.1-7.5,0L1.6,26.7c-2.1-2.1-2.1-5.4,0-7.5c2.1-2.1,5.4-2.1,7.5,0l6.9,6.9
					c0.5,0.5,1.4,0.5,1.9,0L36.6,7.4c2.1-2.1,5.4-2.1,7.5,0c1,1,1.6,2.3,1.6,3.8s-0.6,2.8-1.6,3.8L20.7,38.3z"/>
			</g>
		</g>
	</g>
</g>
<script>var isUp = true;
		var charger = document.getElementById(&quot;charger&quot;);
		var count = 0; 
		var initialX = 250;
		var initialY = -5;
		var initialSizeFactor = 1.5;
		setInterval(move, 50);
		function move()
		{ 
			if (isUp){
				++count;
				if(count &lt; 20){
					var translateVar = initialX-count*0.1;
					var scaleVar = initialSizeFactor+count*0.002;
					charger.setAttribute(&apos;transform&apos;, &apos;translate(&apos;+ translateVar +&apos;,&apos;+ initialY+&apos;),scale(&apos;+ scaleVar +&apos;)&apos;);
				}
				else{
					isUp = false;
				}
			}
			else{
				--count;
				if(count &gt; 0){
					var translateVar = initialX-count*0.1;
					var scaleVar = initialSizeFactor+count*0.002;
					charger.setAttribute(&apos;transform&apos;, &apos;translate(&apos;+ translateVar +&apos;,&apos;+ initialY+&apos;),scale(&apos;+ scaleVar +&apos;)&apos;);
				}
				else{
					isUp = true;
				}
			}
		}
	</script>
</svg>
