<?xml version="1.0" encoding="utf-8"?>
<!-- Generator: Adobe Illustrator 19.1.0, SVG Export Plug-In . SVG Version: 6.00 Build 0)  -->
<svg version="1.1" xmlns="http://www.w3.org/2000/svg" xmlns:xlink="http://www.w3.org/1999/xlink" x="0px" y="0px"
	 viewBox="0 0 800 300" style="enable-background:new 0 0 294.8 94.5;" xml:space="preserve">
<style type="text/css">
		.a{fill:#c1272d;}
		.b{fill:#fff;}
</style>

	<g id="charger" transform="translate(250, -5),scale(1.5) ">
		<path class="a" d="M177.58,32.57V40.2a13.9,13.9,0,0,1-11.06,13.59v77.42a9.76,9.76,0,1,1-19.51,0V63.77a11,11,0,0,0-8.2-10.66V177h4.71a2.83,2.83,0,0,1,0,5.66H41.46a2.83,2.83,0,1,1,0-5.66h4.71V19.65A14.15,14.15,0,0,1,60.31,5.51h64.36a14.15,14.15,0,0,1,14.14,14.14V47.34a16.7,16.7,0,0,1,13.85,16.44v67.44a4.1,4.1,0,1,0,8.2,0V53.79A13.9,13.9,0,0,1,149.81,40.2V32.57a2.83,2.83,0,0,1,2.83-2.83h2.25V19.65a2.83,2.83,0,1,1,5.66,0v10.1h6.29V19.65a2.83,2.83,0,0,1,5.66,0v10.1h2.26A2.83,2.83,0,0,1,177.58,32.57Zm-5.66,7.62V35.4H155.47v4.8A8.23,8.23,0,0,0,171.92,40.2Z"/>
		<g transform="translate(0, -21)">
			<rect class="b" x="62.32" y="47.99" width="63.7" height="63.7" rx="31.85" ry="31.85" transform="translate(174.01 -14.33) rotate(90)"/>
			<path class="a" d="M88.91,94.1L89,93.58a7.81,7.81,0,0,0-.51-2.73L104.6,74.71a7.72,7.72,0,0,0,2.73.51l0.52,0A7.8,7.8,0,0,0,114.41,64l-5.24,5.22a2.39,2.39,0,0,1-.93.59,2.6,2.6,0,0,1-3.53-2.43,2.4,2.4,0,0,1,.18-0.91,2.48,2.48,0,0,1,.59-0.95l5.22-5.22a7.68,7.68,0,0,0-3.37-.79,7.85,7.85,0,0,0-7.82,7.34l-0.05.54a8,8,0,0,0,.51,2.71L83.82,86.22a7.91,7.91,0,0,0-2.71-.51l-0.54,0a7.86,7.86,0,0,0-7.34,7.82A7.67,7.67,0,0,0,74,96.95l5.22-5.22a2.74,2.74,0,0,1,.93-0.6,2.62,2.62,0,0,1,3.53,2.46,2.77,2.77,0,0,1-.77,1.85l-5.22,5.23A7.8,7.8,0,0,0,88.91,94.1h0Zm0,0"/>
		</g>
	</g>
	
	<script>
		var isUp = true;
		var charger = document.getElementById("charger");
		var count = 0; 
		var initialX = 250;
		var initialY = -5;
		var initialSizeFactor = 1.5;
		setInterval(move, 50);
		function move()
		{ 
			if (isUp){
				++count;
				if(count &lt; 20){
					var translateVar = initialX-count*0.1;
					var scaleVar = initialSizeFactor+count*0.002;
					charger.setAttribute('transform', 'translate('+ translateVar +','+ initialY+'),scale('+ scaleVar +')');
				}
				else{
					isUp = false;
				}
			}
			else{
				--count;
				if(count &gt; 0){
					var translateVar = initialX-count*0.1;
					var scaleVar = initialSizeFactor+count*0.002;
					charger.setAttribute('transform', 'translate('+ translateVar +','+ initialY+'),scale('+ scaleVar +')');
				}
				else{
					isUp = true;
				}
			}
		}
	</script>
</svg>
