<?xml version="1.0" encoding="utf-8"?>
<!-- Generator: Adobe Illustrator 19.2.1, SVG Export Plug-In . SVG Version: 6.00 Build 0)  -->
<svg version="1.1"  xmlns="http://www.w3.org/2000/svg" xmlns:xlink="http://www.w3.org/1999/xlink" 
	 viewBox="0 0 800 300"  xml:space="preserve">
<style type="text/css">
.grey{fill:#666666;}
.st0{fill:#353131;}
.st1{fill:#FFFFFF;}
</style>
<g class="grey" transform="translate(30, -470), scale(1.5)">

		<g id="all">
			<g transform="translate(193, 310.2)">
				<path id="e1" d="M282 2060 c-64 -39 -62 -2 -62 -953 0 -959 -3 -918 65 -950 31 -15
					69 -17 271 -17 213 0 238 2 273 20 22 11 41 29 45 42 3 13 6 424 6 913 0 979
					4 917 -60 950 -23 12 -75 15 -267 15 -221 0 -240 -2 -271 -20z m336 -102 c17
					-17 17 -1689 0 -1706 -16 -16 -120 -16 -136 0 -17 17 -17 1689 0 1706 7 7 37
					12 68 12 31 0 61 -5 68 -12z"/>
			</g>
			<g class="element-animation" transform="scale(0.25)">
				<g id="e2">
					<path d="M1219.2,1797.2H718.2c-6.6,0-12-5.4-12-12v-165c0-6.6,5.4-12,12-12h501.1c6.6,0,12,5.4,12,12v165
						C1231.2,1791.8,1225.8,1797.2,1219.2,1797.2z"/>
					<path class="st1" d="M1190.5,1674.2H746c-6.6,0-12-5.4-12-12v-3c0-6.6,5.4-12,12-12h444.5c6.6,0,12,5.4,12,12v3
						C1202.5,1668.8,1197.1,1674.2,1190.5,1674.2z"/>
				</g>
			</g>
			<g transform="scale(0.25)">
				<g transform="translate(0, 180)">
					<path id="e3" d="M1297.8,1295.4h-32.8v-128.3h36.5c14.3,0,24.4,0.7,30.1,2.1c5.8,1.4,10.7,3.8,14.7,7.2c4.7,3.9,8.3,8.8,10.8,14.7
						c2.5,5.9,3.7,12.4,3.7,19.6c0,7.7-1.2,14.4-3.7,20.2c-2.5,5.8-6.1,10.6-10.9,14.3c-3.6,2.8-7.9,4.8-12.8,6
						c-4.9,1.2-12.8,1.8-23.6,1.8h-6h-6.3V1295.4z M1297.8,1224.9h6.7c8.4,0,14.3-1.2,17.6-3.5c3.3-2.3,5-6.2,5-11.8
						c0-5.4-1.6-9.2-4.9-11.5c-3.3-2.3-9.1-3.4-17.3-3.4h-7V1224.9z"/>
				</g>
			</g>
			<script>
				var all = document.getElementById("all");
				var e1 = document.getElementById("e1");
				var e2 = document.getElementById("e2");


				e1.setAttribute('transform', 'scale(0.09)');
				
				var timeout = 8000;
				var freq = 25;
				var y = 50;

				var int1 = setInterval(shiftGearLever, freq, int1);
				setTimeout(function () {
					all.style.fill = "#666666";
					y = 50;
					clearInterval(int1);
				}, timeout);

				setInterval(animate, timeout);

				function animate(){
					var int1 = setInterval(shiftGearLever, freq, int1);
					setTimeout(function () {
						all.style.fill = "#666666";
						y = 50;
						clearInterval(int1);
					}, timeout);
				};

				function shiftGearLever(int){
					if(y &gt; -290) {
						y=y-2;
						e2.setAttribute('transform', 'translate('+ 0 +','+ y +')');
			        }
					else {
						all.style.fill = "#74a528";
					}
				}

			</script>
		</g>
</g>


</svg>
