<?xml version="1.0" encoding="utf-8"?>
<!-- Generator: Adobe Illustrator 19.1.0, SVG Export Plug-In . SVG Version: 6.00 Build 0)  -->
<svg version="1.1" xmlns="http://www.w3.org/2000/svg" xmlns:xlink="http://www.w3.org/1999/xlink" x="0px" y="0px"
	 viewBox="0 0 800 300" style="enable-background:new 0 0 294.8 94.5;" xml:space="preserve">
<style type="text/css">
		.a{fill:#0267C3;}
		.b{fill:#fff;}
</style>
	<g id="charger" transform="translate(250, -5),scale(1.5) ">
		<path class="a" d="M177.58,32.57V40.2a13.9,13.9,0,0,1-11.06,13.59v77.42a9.76,9.76,0,1,1-19.51,0V63.77a11,11,0,0,0-8.2-10.66V177h4.71a2.83,2.83,0,0,1,0,5.66H41.46a2.83,2.83,0,1,1,0-5.66h4.71V19.65A14.15,14.15,0,0,1,60.31,5.51h64.36a14.15,14.15,0,0,1,14.14,14.14V47.34a16.7,16.7,0,0,1,13.85,16.44v67.44a4.1,4.1,0,1,0,8.2,0V53.79A13.9,13.9,0,0,1,149.81,40.2V32.57a2.83,2.83,0,0,1,2.83-2.83h2.25V19.65a2.83,2.83,0,1,1,5.66,0v10.1h6.29V19.65a2.83,2.83,0,0,1,5.66,0v10.1h2.26A2.83,2.83,0,0,1,177.58,32.57Zm-5.66,7.62V35.4H155.47v4.8A8.23,8.23,0,0,0,171.92,40.2Z"/>
		<g transform="translate(0, -30)">
			<rect class="b" x="59.89" y="56.42" width="63.7" height="63.7" rx="31.85" ry="31.85" transform="translate(180.01 -3.47) rotate(90)"/>
			<g transform="translate(72, 68)">
				<g transform="scale(0.08)">
					<path class="a" d="M99,147v51.1h-3.4c-21.4,0-38.8,17.4-38.8,38.8v213.7c0,21.4,17.4,38.8,38.8,38.8h298.2c21.4,0,38.8-17.4,38.8-38.8V236.8
					c0-21.4-17.4-38.8-38.8-38.8h-1v-51.1C392.8,65.9,326.9,0,245.9,0C164.9,0.1,99,66,99,147z M267.7,353.2c-3,2.2-3.8,4.3-3.8,7.8
					c0.1,15.7,0.1,31.3,0.1,47l0,0c0.3,6.5-3,12.9-8.8,15.8c-13.7,7-27.4-2.8-27.4-15.8v-0.1c0-15.7,0-31.4,0.1-47.1
					c0-3.2-0.7-5.3-3.5-7.4c-14.2-10.5-18.9-28.4-11.8-44.1c6.9-15.3,23.8-24.3,39.7-21.1c17.7,3.6,30,17.8,30.2,35.5
					C282.5,336,277.6,346,267.7,353.2z M163.3,147c0-45.6,37.1-82.6,82.6-82.6c45.6,0,82.6,37.1,82.6,82.6v51.1H163.3V147z"/>
			
				</g>
			</g>
		</g>
	</g>
	<script>
		var isUp = true;
		var charger = document.getElementById("charger");
		var count = 0; 
		var initialX = 250;
		var initialY = -5;
		var initialSizeFactor = 1.5;
		setInterval(move, 50);
		function move()
		{ 
			if (isUp){
				++count;
				if(count &lt; 20){
					var translateVar = initialX-count*0.1;
					var scaleVar = initialSizeFactor+count*0.002;
					charger.setAttribute('transform', 'translate('+ translateVar +','+ initialY+'),scale('+ scaleVar +')');
				}
				else{
					isUp = false;
				}
			}
			else{
				--count;
				if(count &gt; 0){
					var translateVar = initialX-count*0.1;
					var scaleVar = initialSizeFactor+count*0.002;
					charger.setAttribute('transform', 'translate('+ translateVar +','+ initialY+'),scale('+ scaleVar +')');
				}
				else{
					isUp = true;
				}
			}
		}
	</script>
</svg>
