<?xml version="1.0" encoding="utf-8"?>
<!-- Generator: Adobe Illustrator 19.1.0, SVG Export Plug-In . SVG Version: 6.00 Build 0)  -->
<svg version="1.1" xmlns="http://www.w3.org/2000/svg" xmlns:xlink="http://www.w3.org/1999/xlink" x="0px" y="0px"
	 viewBox="0 0 800 300" style="enable-background:new 0 0 294.8 94.5;" xml:space="preserve">
<style type="text/css">
		.a{fill:#00CED1;}
		.b{fill:#fff;}
</style>
	<g id="charger" transform="translate(250, -5),scale(1.5) ">
		<path class="a" d="M177.58,32.57V40.2a13.9,13.9,0,0,1-11.06,13.59v77.42a9.76,9.76,0,1,1-19.51,0V63.77a11,11,0,0,0-8.2-10.66V177h4.71a2.83,2.83,0,0,1,0,5.66H41.46a2.83,2.83,0,1,1,0-5.66h4.71V19.65A14.15,14.15,0,0,1,60.31,5.51h64.36a14.15,14.15,0,0,1,14.14,14.14V47.34a16.7,16.7,0,0,1,13.85,16.44v67.44a4.1,4.1,0,1,0,8.2,0V53.79A13.9,13.9,0,0,1,149.81,40.2V32.57a2.83,2.83,0,0,1,2.83-2.83h2.25V19.65a2.83,2.83,0,1,1,5.66,0v10.1h6.29V19.65a2.83,2.83,0,0,1,5.66,0v10.1h2.26A2.83,2.83,0,0,1,177.58,32.57Zm-5.66,7.62V35.4H155.47v4.8A8.23,8.23,0,0,0,171.92,40.2Z"/>
		<g transform="translate(0, -30)">
			<rect class="b" x="59.89" y="56.42" width="63.7" height="63.7" rx="31.85" ry="31.85" transform="translate(180.01 -3.47) rotate(90)"/>
			<path class="a" d="M77.36,74.88V69.76a1.28,1.28,0,1,1,2.56,0v5.12a1.28,1.28,0,1,1-2.56,0h0Zm21.78,1.28a1.28,1.28,0,0,0,1.28-1.28V69.76a1.28,1.28,0,1,0-2.56,0v5.12a1.28,1.28,0,0,0,1.28,1.28h0Zm14.09,23.06A10.25,10.25,0,1,1,103,89a10.25,10.25,0,0,1,10.25,10.25h0Zm-2.56,0a7.69,7.69,0,1,0-7.69,7.69,7.7,7.7,0,0,0,7.69-7.69h0ZM82.48,83.85H77.36V89h5.12V83.85ZM77.36,96.67h5.12V91.54H77.36v5.13ZM85,89h5.12V83.85H85V89Zm0,7.69h5.12V91.54H85v5.13ZM74.79,99V81.29H103v5.12h2.56v-10a2.8,2.8,0,0,0-2.78-2.82H101.7v1.28a2.56,2.56,0,1,1-5.12,0V73.6H81.2v1.28a2.56,2.56,0,1,1-5.13,0V73.6H75a2.8,2.8,0,0,0-2.78,2.82V99A2.8,2.8,0,0,0,75,101.79H90.17V99.23H75A0.24,0.24,0,0,1,74.79,99h0ZM97.86,89V83.85H92.73V89h5.12Zm9,10.25H103V95.38a1.28,1.28,0,1,0-2.56,0v5.12a1.28,1.28,0,0,0,1.28,1.28h5.13a1.28,1.28,0,0,0,0-2.56h0Zm0,0"/>
		</g>
	</g>
	
	<script>
		var isUp = true;
		var charger = document.getElementById("charger");
		var count = 0; 
		var initialX = 250;
		var initialY = -5;
		var initialSizeFactor = 1.5;
		setInterval(move, 50);
		function move()
		{ 
			if (isUp){
				++count;
				if(count &lt; 20){
					var translateVar = initialX-count*0.1;
					var scaleVar = initialSizeFactor+count*0.002;
					charger.setAttribute('transform', 'translate('+ translateVar +','+ initialY+'),scale('+ scaleVar +')');
				}
				else{
					isUp = false;
				}
			}
			else{
				--count;
				if(count &gt; 0){
					var translateVar = initialX-count*0.1;
					var scaleVar = initialSizeFactor+count*0.002;
					charger.setAttribute('transform', 'translate('+ translateVar +','+ initialY+'),scale('+ scaleVar +')');
				}
				else{
					isUp = true;
				}
			}
		}
	</script>
</svg>
