<?xml version="1.0" encoding="utf-8"?>
<!-- Generator: Adobe Illustrator 25.2.3, SVG Export Plug-In . SVG Version: 6.00 Build 0)  -->
<svg version="1.1" id="Layer_1" xmlns="http://www.w3.org/2000/svg" xmlns:xlink="http://www.w3.org/1999/xlink" x="0px" y="0px"
	 viewBox="0 0 800 300" style="enable-background:new 0 0 800 300;" xml:space="preserve">
<style type="text/css">
	.st0{fill:#AEAEAE;}
	.st1{fill:#3E3E3E;}
	.st2{fill:#FFFFFF;}
	.st3{fill:#666666;}
	.st4{fill:#3A8DCC;}
	.st5{fill:#5D5D5D;}
	.st6{fill:#FF2C2C;}
	.st7{fill:#353535;}
</style>
<g transform="translate(50, -30)">
	<g transform="scale(1.8)">
		<g transform="translate(-40, 0)">
			<g>
				<rect x="63.6" y="52.2" class="st0" width="52.8" height="120.2"/>
				<circle class="st0" cx="90" cy="51.7" r="26.4"/>
				<circle class="st1" cx="90" cy="51.7" r="20.1"/>
				<polygon class="st2" points="88.9,43.4 92.5,43.4 90.1,51 94,51 88.6,60.4 90,53.8 86.5,53.8 				"/>
				<rect x="63.6" y="77" class="st3" width="52.8" height="88.4"/>
				<path class="st1" d="M101.8,92.8c0,0.8-0.6,1.4-1.4,1.4H79.5c-0.8,0-1.4-0.6-1.4-1.4l0,0c0-0.8,0.6-1.4,1.4-1.4h20.9
					C101.2,91.4,101.8,92,101.8,92.8L101.8,92.8z"/>
			</g>
			<g transform="scale(1.4)">
				<g id="connector" transform="translate(80, 40)">
					<script>var startX = 80;
					var endX = 40;
					var y = 40;
					var x = startX;
					var connector = document.getElementById(&quot;connector&quot;);
					connector.setAttribute(&apos;fill&apos;, &apos;#88BCE1&apos;);
					setInterval(move, 50);

					function move()
					{
						if(x &gt; endX){
							x = x-1;
							connector.setAttribute(&apos;transform&apos;, &apos;translate(&apos;+ x +&apos;,&apos; + y +&apos;)&apos;);
							connector.setAttribute(&apos;fill&apos;, &apos;#88BCE1&apos;);
						}
						else{
							if (x &gt; endX*0.2){
								x = x-1;
								connector.setAttribute(&apos;fill&apos;, &apos;#800000&apos;);
							}
							else{
								x = startX;
							}
						}
					}
						</script>
					<path d="M130.9,41.3c-0.1,0.3-0.4,0.5-0.7,0.4c-1-0.3-2.1-0.2-3.1,0.4c-1.7,0.8-3.6,2.9-5.6,4.7c-1,0.9-2.2,1.7-3.5,2.2
						c-1.5,0.5-3.1,0.5-4.5-0.1c-2-0.8-4.1-2.5-6.3-5.4l0,0c-0.7-0.7-1.3-1.4-1.9-2c-0.9-0.8-2.1-1-3.2-0.6c-1.5,0.5-2.9,1.4-4,2.5
						l0,0c-0.6,0.6-1.1,1.1-1.6,1.5l0,0l0,0L96.2,45l0,0c-1.4,1.4-3.2,2.4-5.1,3c-1.5,0.4-3.1,0.3-4.5-0.4c-1.4-0.8-2.6-1.8-3.6-3
						l0,0l-0.1-0.1c-2.2-2.8-3.9-4.2-5.2-4.7c-1.1-0.4-2.3-0.3-3.2,0.3c-1.7,0.9-3.5,3-5.6,4.8c-1.1,0.9-2.3,1.7-3.7,2.1
						c-1.6,0.4-3.2,0.3-4.7-0.3c-0.5-0.2-1-0.4-1.4-0.7c-0.3-0.2-0.7-0.1-0.8,0.2c-2.7,4.3-8.2,6.1-12.9,4.3l-0.1-0.1l0,0l-4.1-1.6
						c-1.9-0.7-2.9-2.9-2.1-4.8l0,0l0.2-0.5l-5.6-2.2c-0.9-0.4-1.3-1.4-1-2.3c0.3-0.9,1.3-1.3,2.2-1l0,0l5,2c0.3,0.1,0.7,0,0.8-0.3
						l0,0l1.7-4.5c0.1-0.3,0-0.7-0.3-0.8l0,0l-5-1.9c-0.9-0.3-1.3-1.3-1-2.2l0,0c0.3-0.9,1.3-1.3,2.2-1l5.6,2.2l0.2-0.5
						c0.8-1.9,2.9-2.9,4.8-2.1l4.1,1.6l0,0l0.1,0.1c4.8,1.8,7.6,6.8,6.7,11.8c0,0.2,0.1,0.5,0.3,0.6c0.5,0.4,1,0.7,1.6,0.9
						c1.2,0.5,2.5,0.4,3.6-0.2c1.7-0.8,3.6-2.9,5.6-4.7c1-0.9,2.2-1.7,3.5-2.2c1.5-0.5,3.1-0.5,4.5,0.1c2,0.8,4.1,2.5,6.3,5.4l0,0
						c0.7,0.7,1.3,1.4,1.9,2c0.9,0.8,2.1,1.1,3.2,0.7c1.5-0.5,2.9-1.4,4-2.5l0,0c0.6-0.6,1.1-1.1,1.6-1.5l0,0l0,0l0.2-0.2l0,0
						c1.4-1.4,3.2-2.4,5.1-3c1.5-0.4,3.1-0.3,4.5,0.4c1.4,0.8,2.6,1.8,3.6,3l0,0l0.1,0.1c2.2,2.8,3.9,4.2,5.2,4.7
						c1.1,0.4,2.3,0.3,3.3-0.4c1.7-0.9,3.5-3,5.6-4.8c1.1-0.9,2.3-1.7,3.7-2.1c1.3-0.4,2.7-0.4,4.1,0c0.3,0.1,0.5,0.4,0.4,0.8l0,0
						L130.9,41.3z"/>
				</g>
			</g>
			<g id="car_1_">
				<path class="st4" d="M409.5,122.6C409,134.5,408,145,408,145c-0.1,1.6-8.7,2.3-19,2.5c-2.6,0-5.3,0.1-8.1,0.1
					c-14.2,0-28.7-0.7-28.7-0.7l-17.8,0.2l-10.2,0.1l-64.9,0.6l-46.5,0.4l-14.9,0.1c0,0-4.5-24.5-1.3-33.2
					c3.1-8.8,0.2-10.2,1.1-13.5c0.7-2.5,8.5-6.1,8.5-6.1c31.4-43.7,101.3-31.2,114.5-26.8c7.6,2.6,30.8,22.7,30.8,22.7l17.5,1.3
					C404.7,99,409.5,122.6,409.5,122.6z"/>
				<path class="st4" d="M389.8,140.4c0,2.4-0.3,4.8-0.8,7.1c-2.6,0-5.3,0.1-8.1,0.1c-14.2,0-28.7-0.7-28.7-0.7l-17.8,0.2l-10.2,0.1
					c-0.5-2.2,0.4-9.8,0.6-12.1c1-15,13.5-27.7,31.8-27.7C375,107.3,389.8,122.1,389.8,140.4z"/>
				<path class="st4" d="M271.5,140.8c0,2.4-0.3,4.8-0.8,7.1c-2.6,0-5.3,0.1-8.1,0.1c-14.2,0-28.7-0.7-28.7-0.7l-17.8,0.2l-10.2,0.1
					c-0.5-2.2,0.4-9.8,0.6-12.1c1-15,13.5-27.7,31.8-27.7C256.7,107.7,271.5,122.5,271.5,140.8z"/>
				<path class="st2" d="M399.8,113.6c1.6-1.9-2.2-5.6-7.8-8.9c-4-2.4-7.2-1.8-8-0.4c-0.7,1.4-0.2,4.7,3.7,6.7
					C395.5,115.1,399.4,114,399.8,113.6z"/>
				<path class="st5" d="M339.5,91.3L316,68.7c0,0,3.9,1,6.9,2.9c7.4,4.6,26.5,20.1,26.5,20.1L339.5,91.3z"/>
				<path class="st1" d="M243.6,71.1c0,0-18.7,6-21.9,17.3c0,0-1.5,5.4,0.7,5.8s28.7-0.1,28.7-0.1L243.6,71.1z"/>
				<path class="st5" d="M243.6,71.1c0,0-6.9,13.1-4.3,20.3c0,0,1.2,2.8,7.7,2.8c6.6,0,86.3-1.8,86.3-1.8l-22.6-23.6
					C310.6,68.8,276,61.8,243.6,71.1z"/>
				<path class="st1" d="M338.3,96.3c0,0-3,0.3-4-3s-0.7-8.5-3.9-7.6c-3.2,0.9-8.2,4.2-7.2,6.6s7,2.2,7,2.2s0.4,3.8,1.7,4.4
					c1.3,0.6,6.7,0.7,7-0.4C339.2,97.4,339.1,96.3,338.3,96.3z"/>
				<path class="st6" d="M197.6,102.6c0,0,11.1-3,11.9,1c0.8,4-12.1,12.5-12.7,10.9C196.3,112.9,197.6,102.6,197.6,102.6z"/>
				<path class="st5" d="M407.9,146.4c-0.5,0.9-10.9,1.6-27,2c-12.7,0.3-28.9,0.5-46.3,0.6c-24.5,0.1-51.6,0.1-75.1,0
					c-18.7-0.1-35.2-0.3-46.4-0.4c-8.5-0.1-14-0.2-15-0.3c-2.2-0.2-2.5-5.8-1.3-8.5c0.2-0.5,7-0.5,18-0.4
					c11.1,0.1,26.5,0.4,43.9,0.6c13.6,0.1,28.3,0.2,43.1,0.1c11.7-0.1,23.5-0.4,34.6-0.7c16.1-0.4,31-1,43.1-1.5
					c17.3-0.7,28.8-1.4,29.2-1.3C410.8,136.9,407.9,146.4,407.9,146.4z"/>
				<path class="st7" d="M259.5,149c-18.7-0.1-35.2-0.3-46.4-0.4c0.2-2.4,0.7-5.7,1.7-9.2c2.8-10.2,9.6-22.1,26.4-18.9
					c11.3,2.1,15.9,11,17.6,19.5C259.2,143.2,259.4,146.3,259.5,149z"/>
				<path class="st5" d="M255.4,141.5c0,10.3-8.4,18.7-18.7,18.7s-18.7-8.4-18.7-18.7s8.4-18.7,18.7-18.7
					C247,122.7,255.4,131.1,255.4,141.5z"/>
				<path class="st0" d="M248.6,141.5c0,6.6-5.4,12-12,12s-12-5.4-12-12s5.4-12,12-12C243.3,129.5,248.6,134.9,248.6,141.5z"/>
				<path class="st7" d="M380.9,148.4c-12.7,0.3-28.9,0.5-46.3,0.6c0.3-2.6,0.8-6,1.8-9.6c2.9-10.4,9.7-22.1,26.2-18.9
					c10.1,2,14.8,9.5,16.9,17.4C380.4,141.5,380.8,145.2,380.9,148.4z"/>
				<path class="st5" d="M376.8,141.5c0,10.3-8.4,18.7-18.7,18.7c-10.3,0-18.7-8.4-18.7-18.7s8.4-18.7,18.7-18.7
					C368.5,122.7,376.8,131.1,376.8,141.5z"/>
				<path class="st0" d="M370.1,141.5c0,6.6-5.4,12-12,12s-12-5.4-12-12s5.4-12,12-12S370.1,134.9,370.1,141.5z"/>
				<path class="st7" d="M305.7,101.6c0,0.8-0.7,1.5-1.5,1.5H294c-0.8,0-1.5-0.7-1.5-1.5l0,0c0-0.8,0.7-1.5,1.5-1.5h10.2
					C305.1,100.1,305.7,100.8,305.7,101.6L305.7,101.6z"/>
			</g>
		</g>
	</g>
</g>
</svg>
