<?xml version="1.0" encoding="utf-8"?>
<!-- Generator: Adobe Illustrator 25.2.3, SVG Export Plug-In . SVG Version: 6.00 Build 0)  -->
<svg version="1.1" id="Layer_1" xmlns="http://www.w3.org/2000/svg" xmlns:xlink="http://www.w3.org/1999/xlink" x="0px" y="0px"
	 viewBox="0 0 40 50" style="enable-background:new 0 0 40 50;" xml:space="preserve">
<style type="text/css">
	.st0{fill:#3A8DCC;}
</style>
<g id="Capa_1" transform="translate(-9, 0)">
	<path class="st0" d="M15.6,12.9c-0.1-2.8,2.2-5.1,5-5.2c0.1,0,0.2,0,0.2,0h1.5V6.4c-0.1-0.9,0.6-1.8,1.5-1.9c0.1,0,0.3,0,0.4,0h9.6
		c0.9-0.1,1.7,0.6,1.8,1.5c0,0.1,0,0.2,0,0.3c0,0.5,0,1,0,1.5h1.5c2.8-0.1,5.1,2,5.2,4.8c0,0.1,0,0.2,0,0.3c0,9.9,0,19.8,0,29.7
		c0,2.8-2.2,5-4.9,5.1c-0.1,0-0.2,0-0.3,0H20.8c-2.8,0.1-5.1-2.1-5.2-4.8c0-0.1,0-0.2,0-0.3C15.6,32.7,15.6,22.8,15.6,12.9z M32.3,8
		c0-0.5-0.2-0.6-0.6-0.6c-1.4,0-2.8,0-4.1,0c-0.7,0-1.3,0-2,0.1c0,0.6,0,1.3,0,1.9c0,0.4,0,0.9,0,1.4h-4.9c-1.4,0-2.1,1-1.8,2.6
		c0,9.6,0,18.8,0,28.5c-0.4,1.8,0.3,2.8,1.8,2.8h16.7c0.9,0.1,1.7-0.6,1.8-1.5c0-0.1,0-0.1,0-0.2c0-10.2,0-20.3,0-30.5
		c0-0.9-0.7-1.7-1.6-1.7c-0.1,0-0.1,0-0.2,0h-5c0-0.2,0-0.4,0-0.5C32.3,9.5,32.3,8.8,32.3,8z"/>
</g>
</svg>
