<?xml version="1.0" encoding="utf-8"?>
<!-- Generator: Adobe Illustrator 25.2.3, SVG Export Plug-In . SVG Version: 6.00 Build 0)  -->
<svg version="1.1" id="Layer_1" xmlns="http://www.w3.org/2000/svg" xmlns:xlink="http://www.w3.org/1999/xlink" x="0px" y="0px"
	 viewBox="0 0 45 50" style="enable-background:new 0 0 45 50;" xml:space="preserve">
<style type="text/css">
	.st0{fill-rule:evenodd;clip-rule:evenodd;fill:#3A8DCC;}
</style>
<g id="Capa_1" transform="translate(-9, 0)">
	<path class="st0" d="M37.7,24.7H31v-7.9c0-1-0.8-1.8-1.8-1.8c-1,0-1.8,0.8-1.8,1.8v11.6h10.3c1,0,1.8-0.8,1.8-1.8
		C39.5,25.5,38.7,24.7,37.7,24.7L37.7,24.7z M29.1,7.6c-10.4,0-18.9,8.4-18.9,18.9c0,10.4,8.4,18.9,18.9,18.9
		C39.5,45.4,48,37,48,26.5c0,0,0,0,0,0C48,16.1,39.6,7.6,29.1,7.6C29.1,7.6,29.1,7.6,29.1,7.6L29.1,7.6z M29.1,41.7
		c-8.4,0-15.2-6.8-15.2-15.2s6.8-15.2,15.2-15.2s15.2,6.8,15.2,15.2C44.3,34.9,37.5,41.7,29.1,41.7C29.1,41.7,29.1,41.7,29.1,41.7z"
		/>
</g>
</svg>
