<?xml version="1.0" encoding="utf-8"?>
<!-- Generator: Adobe Illustrator 25.2.3, SVG Export Plug-In . SVG Version: 6.00 Build 0)  -->
<svg version="1.1" id="Layer_1" xmlns="http://www.w3.org/2000/svg" xmlns:xlink="http://www.w3.org/1999/xlink" x="0px" y="0px"
	 viewBox="0 0 40 50" style="enable-background:new 0 0 40 50;" xml:space="preserve">
<style type="text/css">
	.st0{fill:#3A8DCC;}
</style>
<g id="Capa_1" transform="translate(-10, 0)">
	<path class="st0" d="M15.2,45.7c-1.1,0-1.9-0.9-1.9-2c0-0.4,0.2-0.9,0.4-1.2l8.3-9.8l-2.9-0.8c-1-0.2-1.7-1.3-1.4-2.3
		c0.1-0.3,0.2-0.6,0.4-0.8l7.3-8.4l-3.1-0.8c-1-0.2-1.7-1.3-1.4-2.3c0.1-0.3,0.2-0.6,0.4-0.8L32.1,4.1c0.5-0.5,1.2-0.8,1.9-0.6
		l14.5,3.7c1,0.3,1.6,1.3,1.4,2.3c-0.1,0.4-0.3,0.8-0.7,1l-12.2,9.7l3.4,0.9c1,0.3,1.6,1.3,1.4,2.3c-0.1,0.4-0.4,0.8-0.7,1l-9.3,7.1
		l0.9,0.2c1,0.3,1.6,1.3,1.4,2.3c-0.1,0.5-0.4,0.9-0.9,1.2l-17,10.1C15.9,45.6,15.6,45.7,15.2,45.7z M19.8,30.2l2.9,0.8
		c1,0.3,1.6,1.3,1.4,2.3c-0.1,0.3-0.2,0.5-0.4,0.8l-8,9.5l16.4-9.8l-0.9-0.2c-1-0.3-1.6-1.3-1.4-2.3c0.1-0.4,0.4-0.8,0.7-1l9.3-7.1
		l-3.4-0.9c-1-0.3-1.6-1.3-1.4-2.3c0.1-0.4,0.3-0.8,0.7-1l12.1-9.7L33.6,5.5L22.9,17.8l3.1,0.8c1,0.2,1.7,1.3,1.4,2.3
		c-0.1,0.3-0.2,0.6-0.4,0.8L19.8,30.2z M33.6,5.4L33.6,5.4z"/>
</g>
</svg>
