<?xml version="1.0" encoding="utf-8"?>
<!-- Generator: Adobe Illustrator 25.2.3, SVG Export Plug-In . SVG Version: 6.00 Build 0)  -->
<svg version="1.1" id="Layer_1" xmlns="http://www.w3.org/2000/svg" xmlns:xlink="http://www.w3.org/1999/xlink" x="0px" y="0px"
	 viewBox="0 0 50 50" style="enable-background:new 0 0 50 50;" xml:space="preserve">
<style type="text/css">
	.st0{fill:#3A8DCC;}
</style>
<g transform="translate(0,50) scale(0.01,-0.01)">
	<path class="st0" d="M2320,4948c-370-35-765-176-1081-387c-548-366-905-899-1033-1541C38,2175,355,1272,1012,727
		c365-302,761-477,1243-548c118-18,492-18,610,0c552,81,1013,309,1391,686c375,374,604,838,685,1390c18,118,18,492,0,610
		c-58,397-192,745-403,1052c-299,434-721,752-1219,917C2990,4943,2661,4980,2320,4948z M2761,4710c503-50,971-271,1325-624
		c454-455,686-1098,623-1732C4607,1326,3794,513,2766,411c-634-63-1277,169-1732,623c-353,354-574,822-624,1325
		c-68,687,222,1400,750,1844C1610,4581,2194,4766,2761,4710z"/>
	<path class="st0" d="M1751,3709c-84-11-164-51-227-113c-65-66-101-141-114-236c-12-99-12-1501,0-1600c13-95,49-170,114-236
		c66-65,141-101,236-114c99-12,1501-12,1600,0c95,13,170,49,236,114c65,66,101,141,114,236c12,99,12,1501,0,1600
		c-13,95-49,170-114,236c-66,65-141,101-236,114C3269,3721,1843,3721,1751,3709z M3335,3451c22-10,54-34,72-52c66-70,63-33,63-839
		s3-769-63-839c-18-18-50-42-72-52c-38-18-80-19-773-19c-808,0-771-3-841,63c-18,18-42,50-52,72c-18,38-19,80-19,773
		c0,808-3,771,63,841c18,18,50,42,72,52c38,18,80,19,775,19S3297,3469,3335,3451z"/>
</g>
</svg>
